<?xml version="1.0" standalone="no"?>
<!DOCTYPE svg PUBLIC "-//W3C//DTD SVG 1.1//EN" "http://www.w3.org/Graphics/SVG/1.1/DTD/svg11.dtd" >
<svg xmlns="http://www.w3.org/2000/svg" xmlns:xlink="http://www.w3.org/1999/xlink" version="1.1">
<metadata>
Created by FontForge 20140906 at Fri Jul 17 09:13:55 2015
 By cloudconvert
Copyright (c) 2011 by Jonathan Hill. All rights reserved.
</metadata>
<defs>
<font id="Kuro-Medium" horiz-adv-x="683" >
  <font-face 
    font-family="Kuro"
    font-weight="500"
    font-stretch="normal"
    units-per-em="1000"
    panose-1="0 0 6 0 0 0 0 0 0 0"
    ascent="750"
    descent="-250"
    x-height="499.291"
    cap-height="700"
    bbox="-78.001 -251.01 1010.2 1080.22"
    underline-thickness="50"
    underline-position="-50"
    stemh="66"
    stemv="95"
    unicode-range="U+0020-FB02"
  />
<missing-glyph horiz-adv-x="235" 
 />
    <glyph glyph-name=".notdef" horiz-adv-x="235" 
 />
    <glyph glyph-name="A" unicode="A" 
d="M262.45 699.93h160.16l248.89 -699.87h-96.6699l-70.5303 194.43h-325.74l-69.5596 -194.43h-96.79zM479.511 260.489l-127.16 373.44h-21.4004l-127.63 -373.44h276.19z" />
    <glyph glyph-name="AE" unicode="&#xc6;" horiz-adv-x="956" 
d="M257.62 699.93h593.28v-66h-410.3v-241.42h344.3v-66h-344.3v-260.45h410.3v-66h-505.69v194.43h-171.48l-69.5596 -194.43h-96.79zM345.21 260.489l-0.000976562 373.44h-19.5596l-127.17 -373.44h146.73z" />
    <glyph glyph-name="Aacute" unicode="&#xc1;" 
d="M230.24 797.66l127.171 124.4h96.9697l-141.61 -124.4h-82.5303zM262.451 699.931h160.16l248.89 -699.87h-96.6699l-70.5303 194.43h-325.74l-69.5596 -194.43h-96.79zM479.512 260.49l-127.16 373.44h-21.4004l-127.63 -373.44h276.19z" />
    <glyph glyph-name="Abreve" unicode="&#x102;" 
d="M402.64 925.28l55.0508 0.00976562c0 -57.2002 -43.79 -112.28 -116.271 -112.28c-73.7998 0 -116.31 55.1904 -116.31 112.271h56.1504c0.929688 -39.3203 29.4492 -58.5508 61.249 -58.5508c30.5898 0 59.2695 19.2305 60.1299 58.5508zM262.46 699.94h160.16
l248.89 -699.87h-96.6699l-70.5303 194.43h-325.74l-69.5596 -194.43h-96.79zM479.521 260.5l-127.16 373.44h-21.4004l-127.63 -373.44h276.19z" />
    <glyph glyph-name="Abreveacute" unicode="&#x1eae;" 
d="M357.41 995.51h96.9707l-141.61 -124.4h-82.5303zM402.641 851.05l55.0508 0.00976562c0 -57.2002 -43.79 -112.28 -116.271 -112.28c-73.7998 0 -116.31 55.1904 -116.31 112.271h56.1504c0.929688 -39.3203 29.4492 -58.5508 61.249 -58.5508
c30.5898 0 59.2695 19.2305 60.1299 58.5508zM262.461 699.949h160.16l248.89 -699.87h-96.6699l-70.5303 194.43h-325.74l-69.5596 -194.43h-96.79zM479.521 260.509l-127.16 373.44h-21.4004l-127.63 -373.44h276.19z" />
    <glyph glyph-name="Abrevedotbelow" unicode="&#x1eb6;" 
d="M402.64 925.28l55.0508 0.00976562c0 -57.2002 -43.79 -112.28 -116.271 -112.28c-73.7998 0 -116.31 55.1904 -116.31 112.271h56.1504c0.929688 -39.3203 29.4492 -58.5508 61.249 -58.5508c30.5898 0 59.2695 19.2305 60.1299 58.5508zM262.46 699.94h160.16
l248.89 -699.87h-96.6699l-70.5303 194.43h-325.74l-69.5596 -194.43h-96.79zM479.521 260.5l-127.16 373.44h-21.4004l-127.63 -373.44h276.19zM309.091 -86h70.21v-77h-70.21v77z" />
    <glyph glyph-name="Abrevegrave" unicode="&#x1eb0;" 
d="M235.86 1000.73h96.9609l127.13 -124.4h-82.4805zM402.631 851.461l55.0508 0.00976562c0 -57.2002 -43.79 -112.28 -116.271 -112.28c-73.7998 0 -116.31 55.1904 -116.31 112.271h56.1504c0.929688 -39.3203 29.4492 -58.5508 61.249 -58.5508
c30.5898 0 59.2695 19.2305 60.1299 58.5508zM262.451 699.94h160.16l248.89 -699.87h-96.6699l-70.5303 194.43h-325.74l-69.5596 -194.43h-96.79zM479.512 260.5l-127.16 373.44h-21.4004l-127.63 -373.44h276.19z" />
    <glyph glyph-name="Abrevehookabove" unicode="&#x1eb2;" 
d="M287.23 1042.13l-4.4209 32.1387c17.6504 4.16016 41.9502 5.9502 49.5205 5.9502c62.6396 0 79.6299 -20.46 79.6299 -69.2998c0 -40.54 -11.0703 -58.4502 -50.1201 -61.96v-31.0498h-47.0996v65.46h17.9199c23.2002 0 28.4404 3.61035 28.4404 27.5508
c0 25.0498 -1.76953 32.3701 -28.3896 32.6504c-4.48047 0 -14.4102 0 -45.4805 -1.44043zM402.659 925.278l55.0508 0.00976562c0 -57.2002 -43.79 -112.28 -116.271 -112.28c-73.7998 0 -116.31 55.1904 -116.31 112.271h56.1504
c0.929688 -39.3203 29.4492 -58.5508 61.249 -58.5508c30.5898 0 59.2695 19.2305 60.1299 58.5508zM262.479 699.938h160.16l248.89 -699.87h-96.6699l-70.5303 194.43h-325.74l-69.5596 -194.43h-96.79zM479.54 260.498l-127.16 373.44h-21.4004l-127.63 -373.44h276.19z
" />
    <glyph glyph-name="Abrevetilde" unicode="&#x1eb4;" 
d="M482.63 968.22l44.9004 -28.3105c-34.6504 -34.4102 -71.0508 -62.0703 -109.98 -62.0703c-69.9502 0 -92.2002 50.9902 -140.32 50.9902c-21.8398 0 -50.6396 -22.9102 -73.3096 -43l-46.3301 31.96c38.8604 33.1299 77.2207 58.1699 120.73 58.1699
c68.5898 0 94.5 -49.7598 137.51 -49.7598c19.0098 0 47.8096 25.1201 66.7998 42.0205zM402.641 851.919l55.0508 0.00976562c0 -57.2002 -43.79 -112.28 -116.271 -112.28c-73.7998 0 -116.31 55.1904 -116.31 112.271h56.1504
c0.929688 -39.3203 29.4492 -58.5508 61.249 -58.5508c30.5898 0 59.2695 19.2305 60.1299 58.5508zM262.461 699.929h160.16l248.89 -699.87h-96.6699l-70.5303 194.43h-325.74l-69.5596 -194.43h-96.79zM479.521 260.488l-127.16 373.44h-21.4004l-127.63 -373.44h276.19z
" />
    <glyph glyph-name="Acaron" unicode="&#x1cd;" 
d="M365.25 789.37h-47.1592l-147.49 142.49h83.0801l89.0195 -85.6602l88.0303 85.6602h83.25zM262.451 699.93h160.16l248.89 -699.87h-96.6699l-70.5303 194.43h-325.74l-69.5596 -194.43h-96.79zM479.512 260.489l-127.16 373.44h-21.4004l-127.63 -373.44h276.19z" />
    <glyph glyph-name="Acircumflex" unicode="&#xc2;" 
d="M170.46 789.08l147.489 142.49h47.1602l148.73 -142.49h-83.25l-88.0303 85.6602l-89.0195 -85.6602h-83.0801zM262.459 699.931h160.16l248.89 -699.87h-96.6699l-70.5303 194.43h-325.74l-69.5596 -194.43h-96.79zM479.52 260.49l-127.16 373.44h-21.4004
l-127.63 -373.44h276.19z" />
    <glyph glyph-name="Acircumflexacute" unicode="&#x1ea4;" 
d="M603 980.03h96.9707l-141.61 -124.4h-82.5303zM317.94 931.57h47.1592l148.73 -142.49h-83.25l-88.0303 85.6602l-89.0195 -85.6602h-83.0801zM262.439 699.931h160.16l248.89 -699.87h-96.6699l-70.5303 194.43h-325.74l-69.5596 -194.43h-96.79zM479.5 260.49
l-127.16 373.44h-21.4004l-127.63 -373.44h276.19z" />
    <glyph glyph-name="Acircumflexdotbelow" unicode="&#x1eac;" 
d="M317.94 931.57h47.1592l148.73 -142.49h-83.25l-88.0303 85.6602l-89.0195 -85.6602h-83.0801zM262.439 699.931h160.16l248.89 -699.87h-96.6699l-70.5303 194.43h-325.74l-69.5596 -194.43h-96.79zM479.5 260.49l-127.16 373.44h-21.4004l-127.63 -373.44h276.19z
M309.07 -86.0098h70.21v-77h-70.21v77z" />
    <glyph glyph-name="Acircumflexgrave" unicode="&#x1ea6;" 
d="M360.65 989.4h96.9609l127.13 -124.4h-82.4805zM170.451 789.08l147.489 142.49h47.1602l148.73 -142.49h-83.25l-88.0303 85.6602l-89.0195 -85.6602h-83.0801zM262.45 699.931h160.16l248.89 -699.87h-96.6699l-70.5303 194.43h-325.74l-69.5596 -194.43h-96.79z
M479.511 260.49l-127.16 373.44h-21.4004l-127.63 -373.44h276.19z" />
    <glyph glyph-name="Acircumflexhookabove" unicode="&#x1ea8;" 
d="M496.17 929.09l-4.43066 32.1299c17.6504 4.16992 41.9502 5.95996 49.5205 5.95996c62.6396 0 79.6299 -20.46 79.6299 -69.2998c0 -40.54 -11.0703 -58.4502 -50.1201 -61.96v-31.0498h-47.0996v65.46h17.9199c23.2002 0 28.4404 3.61035 28.4404 27.54
c0 25.0498 -1.76953 32.3799 -28.3896 32.6602c-4.48047 0 -14.4004 0 -45.4707 -1.44043zM170.459 789.08l147.489 142.49h47.1602l148.73 -142.49h-83.25l-88.0303 85.6602l-89.0195 -85.6602h-83.0801zM262.458 699.931h160.16l248.89 -699.87h-96.6699l-70.5303 194.43
h-325.74l-69.5596 -194.43h-96.79zM479.519 260.49l-127.16 373.44h-21.4004l-127.63 -373.44h276.19z" />
    <glyph glyph-name="Acircumflextilde" unicode="&#x1eaa;" 
d="M203.92 949.68l-46.3301 31.959c38.8604 33.1299 77.2207 58.1602 120.73 58.1602c68.5898 0 94.5 -49.7598 137.51 -49.7598c19.0098 0 47.8096 25.1104 66.7998 42.0107l44.9004 -28.29c-34.6504 -34.4102 -71.0508 -62.0703 -109.98 -62.0703
c-69.9502 0 -92.2002 50.9902 -140.32 50.9902c-21.8398 0 -50.6396 -22.9102 -73.3096 -43zM317.95 931.568h47.1592l148.73 -142.49h-83.25l-88.0303 85.6602l-89.0195 -85.6602h-83.0801zM262.449 699.929h160.16l248.89 -699.87h-96.6699l-70.5303 194.43h-325.74
l-69.5596 -194.43h-96.79zM479.51 260.488l-127.16 373.44h-21.4004l-127.63 -373.44h276.19z" />
    <glyph glyph-name="Adieresis" unicode="&#xc4;" 
d="M213.85 814.18v76.3896h70.21v-76.3896h-70.21zM398.76 814.18v76.3896h70.21v-76.3896h-70.21zM262.439 699.93h160.16l248.89 -699.87h-96.6699l-70.5303 194.43h-325.74l-69.5596 -194.43h-96.79zM479.5 260.489l-127.16 373.44h-21.4004l-127.63 -373.44h276.19z" />
    <glyph glyph-name="Adotbelow" unicode="&#x1ea0;" 
d="M262.45 699.93h160.16l248.89 -699.87h-96.6699l-70.5303 194.43h-325.74l-69.5596 -194.43h-96.79zM479.511 260.489l-127.16 373.44h-21.4004l-127.63 -373.44h276.19zM309.081 -86.0107h70.21v-77h-70.21v77z" />
    <glyph glyph-name="Agrave" unicode="&#xc0;" 
d="M235.86 931.86h96.9609l127.13 -124.4h-82.4805zM262.441 699.931h160.16l248.89 -699.87h-96.6699l-70.5303 194.43h-325.74l-69.5596 -194.43h-96.79zM479.502 260.49l-127.16 373.44h-21.4004l-127.63 -373.44h276.19z" />
    <glyph glyph-name="Ahookabove" unicode="&#x1ea2;" 
d="M287.02 929.09l-4.43066 32.1299c17.6504 4.16992 41.9502 5.95996 49.5205 5.95996c62.6396 0 79.6299 -20.46 79.6299 -69.2998c0 -40.54 -11.0703 -58.4502 -50.1201 -61.96v-31.0498h-47.0996v65.46h17.9199c23.2002 0 28.4404 3.61035 28.4404 27.54
c0 25.0498 -1.76953 32.3799 -28.3896 32.6602c-4.48047 0 -14.4004 0 -45.4707 -1.44043zM262.449 699.93h160.16l248.89 -699.87h-96.6699l-70.5303 194.43h-325.74l-69.5596 -194.43h-96.79zM479.51 260.489l-127.16 373.44h-21.4004l-127.63 -373.44h276.19z" />
    <glyph glyph-name="Amacron" unicode="&#x100;" 
d="M512.24 835.71h-341.64v54.21h341.64v-54.21zM262.461 699.93h160.16l248.89 -699.87h-96.6699l-70.5303 194.43h-325.74l-69.5596 -194.43h-96.79zM479.521 260.489l-127.16 373.44h-21.4004l-127.63 -373.44h276.19z" />
    <glyph glyph-name="Aogonek" unicode="&#x104;" 
d="M262.45 699.93h160.15l248.89 -699.87h-53.25c-41.04 -16.8701 -66.6504 -55.5098 -66.6504 -88.7197c0 -8.25977 1.58008 -16.1797 4.90039 -23.3496c7.79004 -16.46 28.8701 -25.2402 54.4199 -25.2402c10.1602 0 21.0303 1.38965 32.0498 4.23926l7.79004 -38
c-23.1104 -6.63965 -43.7607 -9.60938 -61.8506 -9.60938c-44.5303 0 -73.5 18.0195 -85.2695 43.6191c-5.04004 11.5703 -7.34961 23.3105 -7.34961 34.8408c0 44.29 34.0996 85.5098 78.5498 102.22l-70.5303 194.43h-325.74l-69.5596 -194.43h-96.79zM479.501 260.489
l-127.16 373.44h-21.4004l-127.63 -373.44h276.19z" />
    <glyph glyph-name="Aring" unicode="&#xc5;" 
d="M223.1 839.74c0 53.9805 50.0605 97.6885 118.311 97.6885c67.04 0 118.32 -43.6396 118.32 -97.6895c0 -55.0498 -51.4004 -97.6797 -118.311 -97.6797c-68.1299 0 -118.32 42.6904 -118.32 97.6807zM288.859 839.748c0 -30.5195 20.1504 -49.6094 53.6309 -49.6094
c32.4004 0 52.5508 19.0898 52.5508 49.6094c0 29.5801 -20.1504 48.6699 -52.5508 48.6699c-33.4805 0 -53.6309 -19.0898 -53.6309 -48.6699zM262.439 699.938h160.16l248.89 -699.87h-96.6699l-70.5303 194.43h-325.74l-69.5596 -194.43h-96.79zM479.5 260.498
l-127.16 373.44h-21.4004l-127.63 -373.44h276.19z" />
    <glyph glyph-name="Atilde" unicode="&#xc3;" 
d="M482.93 902.45l44.9102 -28.291c-34.6504 -34.4102 -71.0508 -62.0703 -109.98 -62.0703c-69.9502 0 -92.2002 50.9902 -140.32 50.9902c-21.8398 0 -50.6494 -22.9102 -73.3193 -43.0098l-46.3301 31.96c38.8604 33.1299 77.2207 58.1699 120.73 58.1699
c68.5898 0 94.5 -49.7598 137.51 -49.7598c19.0098 0 47.8096 25.1104 66.7998 42.0107zM262.47 699.929h160.16l248.89 -699.87h-96.6699l-70.5303 194.43h-325.74l-69.5596 -194.43h-96.79zM479.53 260.488l-127.16 373.44h-21.4004l-127.63 -373.44h276.19z" />
    <glyph glyph-name="B" unicode="B" horiz-adv-x="678" 
d="M101 700.11l267.9 -0.000976562c147.75 0 229.9 -58.1299 229.9 -178.8c0 -86.7305 -33.5 -134.45 -83.1299 -158.7c56.5898 -20.8398 110.13 -62.8799 110.13 -159.18c0 -156.62 -100.74 -203.43 -237.9 -203.43h-286.9v700.11zM368.9 633.939l-176.101 0.00976562
v-244.27h187.1c91.0303 0 126.101 41.3799 126.101 131.649c0 84 -38.71 112.61 -137.1 112.61zM379.899 324.629h-187.109v-258.55h195.1c90.4697 0 145.109 28.8203 145.109 137.37c0 119.39 -101.17 121.18 -153.1 121.18z" />
    <glyph glyph-name="C" unicode="C" horiz-adv-x="667" 
d="M608.51 81l7.30078 -66.248c-27.0498 -4.44043 -140.149 -22.7402 -232.949 -22.7402c-249.9 0 -301.801 140.63 -301.801 355.14c0 209.83 43.5098 361.35 301.79 361.35c109.57 0 204.92 -17.0303 232.89 -22.21l-7.0498 -67.0498
c-34.3203 5.84961 -138.761 23.2695 -225.841 23.2695c-181.14 0 -204.199 -108.57 -204.199 -295.36c0 -186.98 27.0996 -289.641 204.199 -289.641c78.1602 0 194.66 18.6504 225.66 23.4902z" />
    <glyph glyph-name="Cacute" unicode="&#x106;" horiz-adv-x="667" 
d="M230.47 780.78l127.171 124.4h96.9697l-141.61 -124.4h-82.5303zM608.501 80.9902l7.30078 -66.248c-27.0498 -4.44043 -140.149 -22.7402 -232.949 -22.7402c-249.9 0 -301.801 140.63 -301.801 355.14c0 209.83 43.5098 361.35 301.79 361.35
c109.57 0 204.92 -17.0303 232.89 -22.21l-7.0498 -67.0498c-34.3203 5.84961 -138.761 23.2695 -225.841 23.2695c-181.14 0 -204.199 -108.57 -204.199 -295.36c0 -186.98 27.0996 -289.641 204.199 -289.641c78.1602 0 194.66 18.6504 225.66 23.4902z" />
    <glyph glyph-name="Ccaron" unicode="&#x10c;" horiz-adv-x="667" 
d="M365.49 772.49h-47.1592l-147.49 142.49h83.0801l89.0195 -85.6602l88.0303 85.6602h83.25zM608.511 81l7.30078 -66.248c-27.0498 -4.44043 -140.149 -22.7402 -232.949 -22.7402c-249.9 0 -301.801 140.63 -301.801 355.14c0 209.83 43.5098 361.35 301.79 361.35
c109.57 0 204.92 -17.0303 232.89 -22.21l-7.0498 -67.0498c-34.3203 5.84961 -138.761 23.2695 -225.841 23.2695c-181.14 0 -204.199 -108.57 -204.199 -295.36c0 -186.98 27.0996 -289.641 204.199 -289.641c78.1602 0 194.66 18.6504 225.66 23.4902z" />
    <glyph glyph-name="Ccedilla" unicode="&#xc7;" horiz-adv-x="666" 
d="M608.69 619.23l7.06055 67.0596c-27.9697 5.17969 -123.319 22.21 -232.89 22.21c-258.28 0 -301.79 -151.52 -301.79 -361.35c0 -198.98 44.7695 -334.98 251.399 -353.15l-35.7305 -69h35.5596c23.2002 0 28.4404 -3 28.4404 -27c0 -25 -1.76953 -33 -28.3896 -33
c-4.46973 0 -26.4795 0 -57.5498 2l-4.44043 -33c26.1699 -5 53.75 -6 58.8096 -6c62.6396 0 82.4199 21 82.4199 70c0 40 -11.0703 58 -50.4102 62l18.54 32h22.6904c85.8096 2 192.239 19.2695 213.39 22.7393l-7.29004 66.25
c-31 -4.83984 -147.5 -23.4902 -225.66 -23.4902c-177.1 0 -204.199 102.66 -204.199 289.641c0 186.79 23.0596 295.36 204.199 295.36c87.0801 0 191.521 -17.4199 225.841 -23.2695z" />
    <glyph glyph-name="Cdotaccent" unicode="&#x10a;" horiz-adv-x="667" 
d="M306.55 797.29v76.3896h70.21v-76.3896h-70.21zM608.51 80.9893l7.30078 -66.248c-27.0498 -4.44043 -140.149 -22.7402 -232.949 -22.7402c-249.9 0 -301.801 140.63 -301.801 355.14c0 209.83 43.5098 361.35 301.79 361.35c109.57 0 204.92 -17.0303 232.89 -22.21
l-7.0498 -67.0498c-34.3203 5.84961 -138.761 23.2695 -225.841 23.2695c-181.14 0 -204.199 -108.57 -204.199 -295.36c0 -186.98 27.0996 -289.641 204.199 -289.641c78.1602 0 194.66 18.6504 225.66 23.4902z" />
    <glyph glyph-name="D" unicode="D" horiz-adv-x="780" 
d="M414.95 0l-313.9 0.000976562v699.87h313.9c216.32 0 285.301 -169.48 285.301 -340.421c0 -170.71 -68.3203 -359.45 -285.301 -359.45zM196.439 66.001l218.5 -0.00976562c139.84 0 187.7 154.69 187.7 293.46c0 138.56 -47.25 274.42 -187.7 274.42h-218.5v-567.87z
" />
    <glyph glyph-name="Dcaron" unicode="&#x10e;" horiz-adv-x="780" 
d="M414.79 789.37h-47.1689l-147.48 142.49h83.0801l89.0195 -85.6602l88.0303 85.6602h83.25zM414.941 0.0605469l-313.9 0.000976562v699.87h313.9c216.32 0 285.301 -169.48 285.301 -340.421c0 -170.71 -68.3203 -359.45 -285.301 -359.45zM196.431 66.0615
l218.5 -0.00976562c139.84 0 187.7 154.69 187.7 293.46c0 138.56 -47.25 274.42 -187.7 274.42h-218.5v-567.87z" />
    <glyph glyph-name="Dcroat" unicode="&#x110;" horiz-adv-x="780" 
d="M101.12 699.98l313.91 -0.00195312c217.7 0 285.29 -168.77 285.29 -340.399c0 -171.51 -66.9902 -359.569 -285.3 -359.569h-313.9v310.82h-85.1504v61.0801h85.1504v328.07zM196.53 61.3682h218.51c138.51 0 187.7 157.92 187.7 298.21
c0 140.63 -48.1602 279.04 -187.71 279.04h-218.5v-266.71h183.7v-61.0801h-183.7v-249.46z" />
    <glyph glyph-name="E" unicode="E" horiz-adv-x="658" 
d="M101 0.0703125v699.87h505.69v-66h-410.3v-241.42h344.3v-66h-344.3v-260.45h410.3v-66h-505.69z" />
    <glyph glyph-name="Eacute" unicode="&#xc9;" horiz-adv-x="658" 
d="M221.22 797.66l127.171 124.4h96.9697l-141.61 -124.4h-82.5303zM101.051 0.0605469v699.87h505.69v-66h-410.3v-241.42h344.3v-66h-344.3v-260.45h410.3v-66h-505.69z" />
    <glyph glyph-name="Ecaron" unicode="&#x11a;" horiz-adv-x="658" 
d="M356.24 789.37h-47.1592l-147.49 142.49h83.0801l89.0195 -85.6602l88.0303 85.6602h83.25zM101.062 0.0605469v699.87h505.69v-66h-410.3v-241.42h344.3v-66h-344.3v-260.45h410.3v-66h-505.69z" />
    <glyph glyph-name="Ecircumflex" unicode="&#xca;" horiz-adv-x="658" 
d="M161.44 789.08l147.489 142.49h47.1602l148.73 -142.49h-83.25l-88.0303 85.6602l-89.0195 -85.6602h-83.0801zM101.05 0.0703125v699.87h505.69v-66h-410.3v-241.42h344.3v-66h-344.3v-260.45h410.3v-66h-505.69z" />
    <glyph glyph-name="Ecircumflexacute" unicode="&#x1ebe;" horiz-adv-x="658" 
d="M594.25 980.03h96.9707l-141.61 -124.4h-82.5303zM309.19 931.57h47.1592l148.73 -142.49h-83.25l-88.0303 85.6602l-89.0195 -85.6602h-83.0801zM101.05 0.0703125v699.87h505.69v-66h-410.3v-241.42h344.3v-66h-344.3v-260.45h410.3v-66h-505.69z" />
    <glyph glyph-name="Ecircumflexdotbelow" unicode="&#x1ec6;" horiz-adv-x="658" 
d="M161.44 789.08l147.489 142.49h47.1602l148.73 -142.49h-83.25l-88.0303 85.6602l-89.0195 -85.6602h-83.0801zM101.05 0.0703125v699.87h505.69v-66h-410.3v-241.42h344.3v-66h-344.3v-260.45h410.3v-66h-505.69zM309.069 -85.9893h70.21v-77h-70.21v77z" />
    <glyph glyph-name="Ecircumflexgrave" unicode="&#x1ec0;" horiz-adv-x="658" 
d="M351.57 989.4h96.9609l127.13 -124.4h-82.4805zM161.371 789.08l147.489 142.49h47.1602l148.73 -142.49h-83.25l-88.0303 85.6602l-89.0195 -85.6602h-83.0801zM101.051 0.0703125v699.87h505.69v-66h-410.3v-241.42h344.3v-66h-344.3v-260.45h410.3v-66h-505.69z" />
    <glyph glyph-name="Ecircumflexhookabove" unicode="&#x1ec2;" horiz-adv-x="658" 
d="M486.65 929.09l-4.43164 32.1299c17.6504 4.16992 41.9502 5.95996 49.5205 5.95996c62.6396 0 79.6299 -20.46 79.6299 -69.2998c0 -40.54 -11.0703 -58.4502 -50.1201 -61.96v-31.0498h-47.0996v65.46h17.9199c23.2002 0 28.4404 3.61035 28.4404 27.54
c0 25.0498 -1.76953 32.3799 -28.3896 32.6602c-4.46973 0 -14.3994 0 -45.4697 -1.44043zM160.938 789.08l147.489 142.49h47.1602l148.73 -142.49h-83.25l-88.0303 85.6602l-89.0195 -85.6602h-83.0801zM101.058 0.0703125v699.87h505.69v-66h-410.3v-241.42h344.3v-66
h-344.3v-260.45h410.3v-66h-505.69z" />
    <glyph glyph-name="Ecircumflextilde" unicode="&#x1ec4;" horiz-adv-x="658" 
d="M194.57 949.68l-46.3193 31.959c38.8604 33.1299 77.2207 58.1602 120.73 58.1602c68.5898 0 94.5 -49.7598 137.51 -49.7598c19.0098 0 47.8096 25.1104 66.7998 42.0107l44.8896 -28.29c-34.6504 -34.4102 -71.0508 -62.0703 -109.98 -62.0703
c-69.9502 0 -92.2002 50.9902 -140.32 50.9902c-21.8398 0 -50.6396 -22.9102 -73.3096 -43zM308.611 931.568h47.1592l148.73 -142.49h-83.25l-88.0303 85.6602l-89.0195 -85.6602h-83.0801zM101.07 0.0683594v699.87h505.69v-66h-410.3v-241.42h344.3v-66h-344.3v-260.45
h410.3v-66h-505.69z" />
    <glyph glyph-name="Edieresis" unicode="&#xcb;" horiz-adv-x="658" 
d="M204.84 814.18v76.3896h70.21v-76.3896h-70.21zM389.75 814.18v76.3896h70.21v-76.3896h-70.21zM101.05 0.0693359v699.87h505.69v-66h-410.3v-241.42h344.3v-66h-344.3v-260.45h410.3v-66h-505.69z" />
    <glyph glyph-name="Edotaccent" unicode="&#x116;" horiz-adv-x="658" 
d="M297.3 814.18v76.3896h70.21v-76.3896h-70.21zM101.06 0.0693359v699.87h505.69v-66h-410.3v-241.42h344.3v-66h-344.3v-260.45h410.3v-66h-505.69z" />
    <glyph glyph-name="Edotbelow" unicode="&#x1eb8;" horiz-adv-x="658" 
d="M101 0.0703125v699.87h505.69v-66h-410.3v-241.42h344.3v-66h-344.3v-260.45h410.3v-66h-505.69zM309.02 -85.9893h70.21v-77h-70.21v77z" />
    <glyph glyph-name="Egrave" unicode="&#xc8;" horiz-adv-x="658" 
d="M226.85 931.86h96.9609l127.13 -124.4h-82.4805zM101.051 0.0703125v699.87h505.69v-66h-410.3v-241.42h344.3v-66h-344.3v-260.45h410.3v-66h-505.69z" />
    <glyph glyph-name="Ehookabove" unicode="&#x1eba;" horiz-adv-x="658" 
d="M287.02 929.09l-4.43066 32.1299c17.6504 4.16992 41.9502 5.95996 49.5205 5.95996c62.6396 0 79.6299 -20.46 79.6299 -69.2998c0 -40.54 -11.0703 -58.4502 -50.1201 -61.96v-31.0498h-47.0996v65.46h17.9199c23.2002 0 28.4404 3.61035 28.4404 27.54
c0 25.0498 -1.76953 32.3799 -28.3896 32.6602c-4.48047 0 -14.4004 0 -45.4707 -1.44043zM101.049 0.0595703v699.87h505.69v-66h-410.3v-241.42h344.3v-66h-344.3v-260.45h410.3v-66h-505.69z" />
    <glyph glyph-name="Emacron" unicode="&#x112;" horiz-adv-x="658" 
d="M503.22 835.71h-341.64v54.21h341.64v-54.21zM101.061 0.0703125v699.87h505.69v-66h-410.3v-241.42h344.3v-66h-344.3v-260.45h410.3v-66h-505.69z" />
    <glyph glyph-name="Eng" unicode="&#x14a;" horiz-adv-x="764" 
d="M579.16 699.93l95.3994 -0.0107422v-690.84c1.19043 -201.09 -111.09 -186.09 -246 -187.09v67c123.83 0 148.08 -1 150.29 111.07h-44.3203l-328.85 576.04l-20.6201 -16.3896v-559.65h-95.3896v699.87h140.05l315.87 -557.99l33.5703 -18.2695v576.26z" />
    <glyph glyph-name="Eogonek" unicode="&#x118;" horiz-adv-x="658" 
d="M101 699.93l505.691 -0.00878906v-66h-410.3v-241.42h344.3v-66h-344.3v-260.45h410.3v-66h-60.25c-33.3301 -19.46 -52.5205 -52.7295 -52.5205 -81.6094c0 -8.33008 1.59961 -16.29 4.90918 -23.4502c7.79004 -16.46 28.8701 -25.2402 54.4199 -25.2402
c10.1602 0 21.0303 1.38965 32.0498 4.23926l7.79004 -37c-23.1104 -6.63965 -43.7607 -9.60938 -61.8506 -9.60938c-44.5303 0 -73.5 18.0195 -85.2695 43.6191c-5.00977 11.2598 -7.30957 22.7197 -7.30957 34.0098c0 38.8398 27.1602 75.6299 64.4199 95.0498h-402.08
v699.87z" />
    <glyph glyph-name="Eth" unicode="&#xd0;" horiz-adv-x="729" 
d="M101.12 699.98l313.91 -0.00195312c217.7 0 285.29 -168.77 285.29 -340.399c0 -171.51 -66.9902 -359.569 -285.3 -359.569h-313.9v310.82h-85.1504v61.0801h85.1504v328.07zM196.53 61.3682h218.51c138.51 0 187.7 157.92 187.7 298.21
c0 140.63 -48.1602 279.04 -187.71 279.04h-218.5v-266.71h183.7v-61.0801h-183.7v-249.46z" />
    <glyph glyph-name="Etilde" unicode="&#x1ebc;" horiz-adv-x="658" 
d="M473.62 902.48l44.9102 -28.3105c-34.6504 -34.4102 -71.0508 -62.0703 -109.98 -62.0703c-69.9502 0 -92.2002 50.9902 -140.32 50.9902c-21.8398 0 -50.6494 -22.9102 -73.3193 -43l-46.3301 31.96c38.8604 33.1299 77.2207 58.1699 120.73 58.1699
c68.5898 0 94.5 -49.7598 137.51 -49.7598c19.0098 0 47.8096 25.1201 66.7998 42.0205zM101.07 0.0400391v699.87h505.69v-66h-410.3v-241.42h344.3v-66h-344.3v-260.45h410.3v-66h-505.69z" />
    <glyph glyph-name="F" unicode="F" horiz-adv-x="644" 
d="M101 0.0703125v699.88h490.79v-66h-395.4v-267.12h329.4v-66h-329.4v-300.76h-95.3896z" />
    <glyph glyph-name="G" unicode="G" horiz-adv-x="757" 
d="M660.7 612.81l7.78906 67.4199c-35.2598 6.74023 -149.069 28.2705 -271.399 28.2705c-257.37 0 -316.04 -150.53 -316.04 -361.351c0 -215.09 67.8496 -355.14 316.04 -355.14c91.9502 0 243.95 23.1504 269.891 27.0801v344.88h-260.5v-66h165v-224.23
c-14.5195 -0.969727 -109.989 -16.2295 -174.39 -16.2295c-178.86 0 -218.4 103.25 -218.4 289.64c0 185.72 35.8096 295.35 218.399 295.35c99.79 0 224.83 -23.5898 263.61 -29.6895z" />
    <glyph glyph-name="Gbreve" unicode="&#x11e;" horiz-adv-x="757" 
d="M440.17 925.28l55.0508 0.00976562c0 -57.2002 -43.79 -112.28 -116.271 -112.28c-73.7998 0 -116.31 55.1904 -116.31 112.271h56.1504c0.929688 -39.3203 29.4492 -58.5508 61.249 -58.5508c30.5898 0 59.2695 19.2305 60.1299 58.5508zM660.711 612.82
l7.78906 67.4199c-35.2598 6.74023 -149.069 28.2705 -271.399 28.2705c-257.37 0 -316.04 -150.53 -316.04 -361.351c0 -215.09 67.8496 -355.14 316.04 -355.14c91.9502 0 243.95 23.1504 269.891 27.0801v344.88h-260.5v-66h165v-224.23
c-14.5195 -0.969727 -109.989 -16.2295 -174.39 -16.2295c-178.86 0 -218.4 103.25 -218.4 289.64c0 185.72 35.8096 295.35 218.399 295.35c99.79 0 224.83 -23.5898 263.61 -29.6895z" />
    <glyph glyph-name="Gcommaaccent" unicode="&#x122;" horiz-adv-x="757" 
d="M660.7 612.81l7.78906 67.4199c-35.2598 6.74023 -149.069 28.2705 -271.399 28.2705c-257.37 0 -316.04 -150.53 -316.04 -361.351c0 -215.09 67.8496 -355.14 316.04 -355.14c91.9502 0 243.95 23.1504 269.891 27.0801v344.88h-260.5v-66h165v-224.23
c-14.5195 -0.969727 -109.989 -16.2295 -174.39 -16.2295c-178.86 0 -218.4 103.25 -218.4 289.64c0 185.72 35.8096 295.35 218.399 295.35c99.79 0 224.83 -23.5898 263.61 -29.6895zM299.35 -250.001l48.04 208h100.93l-59.5195 -208h-89.4502z" />
    <glyph glyph-name="Gdotaccent" unicode="&#x120;" horiz-adv-x="757" 
d="M343.85 814.18v76.3896h70.21v-76.3896h-70.21zM660.71 612.81l7.78906 67.4199c-35.2598 6.74023 -149.069 28.2705 -271.399 28.2705c-257.37 0 -316.04 -150.53 -316.04 -361.351c0 -215.09 67.8496 -355.14 316.04 -355.14c91.9502 0 243.95 23.1504 269.891 27.0801
v344.88h-260.5v-66h165v-224.23c-14.5195 -0.969727 -109.989 -16.2295 -174.39 -16.2295c-178.86 0 -218.4 103.25 -218.4 289.64c0 185.72 35.8096 295.35 218.399 295.35c99.79 0 224.83 -23.5898 263.61 -29.6895z" />
    <glyph glyph-name="H" unicode="H" horiz-adv-x="796" 
d="M600.45 0v317.89h-404.01v-317.89h-95.3896v699.87h95.3896v-315.98h404.01v315.98h95.3896v-699.87h-95.3896z" />
    <glyph glyph-name="Hbar" unicode="&#x126;" horiz-adv-x="754" 
d="M750.75 561.21v-56.75h-76.1299v-504.4h-95.3896v317.89h-404.01v-317.89h-95.3896v504.4h-76.2197v56.75h76.2197v138.72h95.3896v-138.72h404.01v138.72h95.3896v-138.72h76.1299zM579.23 383.95v120.51h-404.01v-120.51h404.01z" />
    <glyph glyph-name="I" unicode="I" horiz-adv-x="296" 
d="M101 0v700h95.3896v-700h-95.3896z" />
    <glyph glyph-name="IJ" unicode="&#x132;" horiz-adv-x="646" 
d="M448.99 700.72l95.4111 0.0107422c-0.0898438 -209.84 1.08008 -358.97 1.08008 -568.22c0 -175.94 -86.4502 -186.721 -198.78 -186.721c-15.6904 0 -31.8809 0.209961 -48.4111 0.209961v66.4297c136.32 0 150.7 -2.21973 150.7 129.59v558.7zM101.062 0.0107422v700
h95.3896v-700h-95.3896z" />
    <glyph glyph-name="Iacute" unicode="&#xcd;" horiz-adv-x="296" 
d="M37.5703 797.66l127.171 124.4h96.9697l-141.61 -124.4h-82.5303zM101.051 -0.00976562v700h95.3896v-700h-95.3896z" />
    <glyph glyph-name="Icaron" unicode="&#x1cf;" horiz-adv-x="296" 
d="M172.59 789.37h-47.1592l-147.43 142.49h83.0195l89.0195 -85.6602l88.0303 85.6602h83.25zM101.061 0v700h95.3896v-700h-95.3896z" />
    <glyph glyph-name="Icircumflex" unicode="&#xce;" horiz-adv-x="310" 
d="M-16 789.08l147.949 142.49h47.1602l148.73 -142.49h-83.25l-88.0303 85.6602l-89.0195 -85.6602h-83.54zM107.719 0v700h95.3896v-700h-95.3896z" />
    <glyph glyph-name="Idieresis" unicode="&#xcf;" horiz-adv-x="296" 
d="M21.1904 814.18v76.3896h70.21v-76.3896h-70.21zM206.101 814.18v76.3896h70.21v-76.3896h-70.21zM101.051 -0.000976562v700h95.3896v-700h-95.3896z" />
    <glyph glyph-name="Idotaccent" unicode="&#x130;" horiz-adv-x="296" 
d="M113.64 814.18v76.3896h70.21v-76.3896h-70.21zM101.05 -0.000976562v700h95.3896v-700h-95.3896z" />
    <glyph glyph-name="Idotbelow" unicode="&#x1eca;" horiz-adv-x="296" 
d="M101 0v700h95.3896v-700h-95.3896zM113.84 -86h70.21v-77h-70.21v77z" />
    <glyph glyph-name="Igrave" unicode="&#xcc;" horiz-adv-x="296" 
d="M43.1904 931.86h96.9609l127.13 -124.4h-82.4805zM101.041 0v700h95.3896v-700h-95.3896z" />
    <glyph glyph-name="Ihookabove" unicode="&#x1ec8;" horiz-adv-x="296" 
d="M95.1396 929.09l-4.44141 32.1299c17.6504 4.16992 41.9502 5.95996 49.5205 5.95996c62.6396 0 79.6299 -20.46 79.6299 -69.2998c0 -40.54 -11.0703 -58.4502 -50.1201 -61.96v-31.0498h-47.0996v65.46h17.9199c23.2002 0 28.4404 3.61035 28.4404 27.54
c0 25.0498 -1.75977 32.3799 -28.3799 32.6602c-4.46973 0 -14.3994 0 -45.4697 -1.44043zM101.048 -0v700h95.3896v-700h-95.3896z" />
    <glyph glyph-name="Imacron" unicode="&#x12a;" horiz-adv-x="296" 
d="M319.57 835.71h-341.57v54.21h341.57v-54.21zM101.05 -0v700h95.3896v-700h-95.3896z" />
    <glyph glyph-name="Iogonek" unicode="&#x12e;" horiz-adv-x="296" 
d="M101.05 700l95.3799 0.00976562v-700h-51.9697c-41.04 -16.8203 -66.6504 -55.4502 -66.6504 -88.6602c0 -8.25977 1.58008 -16.1797 4.90039 -23.3496c7.79004 -16.46 28.8701 -25.2402 54.4199 -25.2402c10.1602 0 21.0303 1.38965 32.0498 4.23926l7.79004 -38
c-23.1104 -6.63965 -43.7607 -9.60938 -61.8506 -9.60938c-44.5303 0 -73.5 18.0195 -85.2695 43.6191c-5.04004 11.5703 -7.34961 23.3105 -7.34961 34.8408c0 44.2803 34.0996 85.4902 78.5498 102.15v700z" />
    <glyph glyph-name="Itilde" unicode="&#x128;" horiz-adv-x="296" 
d="M289.97 902.48l44.9102 -28.3105c-34.6504 -34.4102 -71.0508 -62.0703 -109.98 -62.0703c-69.9502 0 -92.2002 50.9902 -140.32 50.9902c-21.8398 0 -50.6494 -22.9102 -73.3193 -43l-46.2598 31.96c38.79 33.1299 77.1504 58.1699 120.66 58.1699
c68.5898 0 94.5 -49.7598 137.51 -49.7598c19.0098 0 47.8096 25.1201 66.7998 42.0205zM101.07 -0.0205078v700h95.3896v-700h-95.3896z" />
    <glyph glyph-name="J" unicode="J" horiz-adv-x="349" 
d="M152.1 700.72l95.4014 0.0107422c-0.0800781 -209.84 1.08984 -358.97 1.08984 -568.22c0 -175.94 -86.4502 -186.721 -198.78 -186.721c-15.6904 0 -31.8809 0.209961 -48.4111 0.209961v66.4297c136.32 0 150.7 -2.21973 150.7 129.59v558.7z" />
    <glyph glyph-name="K" unicode="K" horiz-adv-x="676" 
d="M535.86 699.93l109.799 -0.00976562l-268.52 -351.53l287.86 -348.33h-114.24l-250.21 309.18h-104.1v-309.18h-95.3896v699.87h95.3896v-315.07h103.48z" />
    <glyph glyph-name="Kcommaaccent" unicode="&#x136;" horiz-adv-x="676" 
d="M535.86 699.93l109.799 -0.00976562l-268.52 -351.53l287.86 -348.33h-114.24l-250.21 309.18h-104.1v-309.18h-95.3896v699.87h95.3896v-315.07h103.48zM266.279 -251.01l47.5205 208h100.93l-59 -208h-89.4502z" />
    <glyph glyph-name="L" unicode="L" horiz-adv-x="583" 
d="M571.54 0h-470.489v699.87h95.3896v-633.87h375.1v-66z" />
    <glyph glyph-name="Lacute" unicode="&#x139;" horiz-adv-x="583" 
d="M180.35 797.66l127.171 124.4h96.9697l-141.61 -124.4h-82.5303zM571.54 0.0605469h-470.489v699.87h95.3896v-633.87h375.1v-66z" />
    <glyph glyph-name="Lcaron" unicode="&#x13d;" horiz-adv-x="583" 
d="M571.54 0h-470.489v699.87h95.3896v-633.87h375.1v-66zM317.781 478.74l51.3701 220.18h98.7695l-62.9199 -220.18h-87.2197z" />
    <glyph glyph-name="Lcommaaccent" unicode="&#x13b;" horiz-adv-x="583" 
d="M571.54 0h-470.489v699.87h95.3896v-633.87h375.1v-66zM266.281 -249.07l47.5205 208h100.93l-59 -208h-89.4502z" />
    <glyph glyph-name="Ldot" unicode="&#x13f;" horiz-adv-x="583" 
d="M571.54 0h-470.489v699.87h95.3896v-633.87h375.1v-66zM369.091 288.95v105.17h99.79v-105.17h-99.79z" />
    <glyph glyph-name="Lslash" unicode="&#x141;" horiz-adv-x="597" 
d="M19.8799 229.72l0.000976562 79.4004l86.6699 52.6396v338.25h95.3896v-283.97l229.9 140.89v-79.71l-229.9 -140.84v-275.3h375.1v-61.0801h-470.49v282.31z" />
    <glyph glyph-name="M" unicode="M" horiz-adv-x="955" 
d="M722.98 699.93h131.97v-699.87h-95.3896v568.06h-4.45996l-236.41 -548.08h-96.1504l-233.21 548.08h-4.28027v-568.06h-95.3896v699.87h133.12l249.08 -573.47z" />
    <glyph glyph-name="N" unicode="N" horiz-adv-x="764" 
d="M579.16 699.93h95.3701v-699.87h-140.03l-339.63 594.87h-9.83008v-594.87h-95.3896v699.87h140.06l339.09 -595.17h10.3604v595.17z" />
    <glyph glyph-name="Nacute" unicode="&#x143;" horiz-adv-x="764" 
d="M271.43 797.66l127.171 124.4h96.9697l-141.61 -124.4h-82.5303zM579.16 699.931h95.3701v-699.87h-140.03l-339.63 594.87h-9.83008v-594.87h-95.3896v699.87h140.06l339.09 -595.17h10.3604v595.17z" />
    <glyph glyph-name="Ncaron" unicode="&#x147;" horiz-adv-x="764" 
d="M406.44 789.37h-47.1592l-147.49 142.49h83.0801l89.0195 -85.6602l88.0303 85.6602h83.25zM579.161 699.93h95.3701v-699.87h-140.03l-339.63 594.87h-9.83008v-594.87h-95.3896v699.87h140.06l339.09 -595.17h10.3604v595.17z" />
    <glyph glyph-name="Ncommaaccent" unicode="&#x145;" horiz-adv-x="764" 
d="M579.16 699.93h95.3701v-699.87h-140.03l-339.63 594.87h-9.83008v-594.87h-95.3896v699.87h140.06l339.09 -595.17h10.3604v595.17zM266.261 -249l47.5205 208h100.93l-59 -208h-89.4502z" />
    <glyph glyph-name="Ntilde" unicode="&#xd1;" horiz-adv-x="764" 
d="M523.82 902.48l44.9004 -28.3105c-34.6504 -34.4102 -71.0508 -62.0703 -109.98 -62.0703c-69.9502 0 -92.2002 50.9902 -140.32 50.9902c-21.8398 0 -50.6396 -22.9102 -73.3096 -43l-46.3301 31.96c38.8604 33.1299 77.2207 58.1699 120.73 58.1699
c68.5898 0 94.5 -49.7598 137.51 -49.7598c19.0098 0 47.8096 25.1201 66.7998 42.0205zM579.161 699.91h95.3701v-699.87h-140.03l-339.63 594.87h-9.83008v-594.87h-95.3896v699.87h140.06l339.09 -595.17h10.3604v595.17z" />
    <glyph glyph-name="O" unicode="O" horiz-adv-x="794" 
d="M400.52 707.91c201.02 0 313.36 -98.6895 313.36 -346.479c0 -250.99 -60.8604 -369.431 -313.37 -369.431c-252.24 0 -319.46 101.9 -319.46 372.07c0 251.41 98.0195 343.84 319.47 343.84zM400.511 57.541c186.39 0 218.181 96.5098 218.181 303.899
c0 205.93 -83.4004 281.109 -218.181 281.109c-160.29 0 -224.29 -61.8896 -224.29 -278.479c0 -223.93 37.3496 -306.529 224.29 -306.529z" />
    <glyph glyph-name="OE" unicode="&#x152;" horiz-adv-x="1035" 
d="M982.51 0l-624.621 0.0205078c-240.55 0 -302.31 114.58 -302.31 349.79c0 232.44 74.3604 350.2 302.311 350.2h624.62v-67.5098h-376.11v-239.26h314.44v-67.4404h-314.44v-257.57h376.11v-68.2305zM512.379 634.551h-154.491
c-168.52 0 -208.239 -86.8701 -208.239 -283.29c0 -202.05 33.6504 -287.25 208.24 -286.45h154.49v569.74z" />
    <glyph glyph-name="Oacute" unicode="&#xd3;" horiz-adv-x="794" 
d="M286.97 797.66l127.171 124.4h96.9697l-141.61 -124.4h-82.5303zM400.521 707.91c201.02 0 313.36 -98.6895 313.36 -346.479c0 -250.99 -60.8604 -369.431 -313.37 -369.431c-252.24 0 -319.46 101.9 -319.46 372.07c0 251.41 98.0195 343.84 319.47 343.84z
M400.512 57.541c186.39 0 218.181 96.5098 218.181 303.899c0 205.93 -83.4004 281.109 -218.181 281.109c-160.29 0 -224.29 -61.8896 -224.29 -278.479c0 -223.93 37.3496 -306.529 224.29 -306.529z" />
    <glyph glyph-name="Ocaron" unicode="&#x1d1;" horiz-adv-x="794" 
d="M421.99 789.37h-47.1592l-147.49 142.49h83.0801l89.0195 -85.6602l88.0303 85.6602h83.25zM400.531 707.91c201.02 0 313.36 -98.6895 313.36 -346.479c0 -250.99 -60.8604 -369.431 -313.37 -369.431c-252.24 0 -319.46 101.9 -319.46 372.07
c0 251.41 98.0195 343.84 319.47 343.84zM400.522 57.541c186.39 0 218.181 96.5098 218.181 303.899c0 205.93 -83.4004 281.109 -218.181 281.109c-160.29 0 -224.29 -61.8896 -224.29 -278.479c0 -223.93 37.3496 -306.529 224.29 -306.529z" />
    <glyph glyph-name="Ocircumflex" unicode="&#xd4;" horiz-adv-x="794" 
d="M227.19 789.08l147.489 142.49h47.1602l148.73 -142.49h-83.25l-88.0303 85.6602l-89.0195 -85.6602h-83.0801zM400.52 707.91c201.02 0 313.36 -98.6895 313.36 -346.479c0 -250.99 -60.8604 -369.431 -313.37 -369.431c-252.24 0 -319.46 101.9 -319.46 372.07
c0 251.41 98.0195 343.84 319.47 343.84zM400.511 57.541c186.39 0 218.181 96.5098 218.181 303.899c0 205.93 -83.4004 281.109 -218.181 281.109c-160.29 0 -224.29 -61.8896 -224.29 -278.479c0 -223.93 37.3496 -306.529 224.29 -306.529z" />
    <glyph glyph-name="Ocircumflexacute" unicode="&#x1ed0;" horiz-adv-x="794" 
d="M659.52 980.03h96.9707l-141.61 -124.4h-82.5303zM374.46 931.57h47.1592l148.73 -142.49h-83.25l-88.0303 85.6602l-89.0195 -85.6602h-83.0801zM400.52 707.91c201.02 0 313.36 -98.6895 313.36 -346.479c0 -250.99 -60.8604 -369.431 -313.37 -369.431
c-252.24 0 -319.46 101.9 -319.46 372.07c0 251.41 98.0195 343.84 319.47 343.84zM400.511 57.541c186.39 0 218.181 96.5098 218.181 303.899c0 205.93 -83.4004 281.109 -218.181 281.109c-160.29 0 -224.29 -61.8896 -224.29 -278.479
c0 -223.93 37.3496 -306.529 224.29 -306.529z" />
    <glyph glyph-name="Ocircumflexdotbelow" unicode="&#x1ed8;" horiz-adv-x="794" 
d="M227.19 789.08l147.489 142.49h47.1602l148.73 -142.49h-83.25l-88.0303 85.6602l-89.0195 -85.6602h-83.0801zM400.52 707.91c201.02 0 313.36 -98.6895 313.36 -346.479c0 -250.99 -60.8604 -369.431 -313.37 -369.431c-252.24 0 -319.46 101.9 -319.46 372.07
c0 251.41 98.0195 343.84 319.47 343.84zM400.511 57.541c186.39 0 218.181 96.5098 218.181 303.899c0 205.93 -83.4004 281.109 -218.181 281.109c-160.29 0 -224.29 -61.8896 -224.29 -278.479c0 -223.93 37.3496 -306.529 224.29 -306.529zM363.771 -85.999h70.21v-77
h-70.21v77z" />
    <glyph glyph-name="Ocircumflexgrave" unicode="&#x1ed2;" horiz-adv-x="794" 
d="M417.55 989.4h96.9609l127.13 -124.4h-82.4805zM227.351 789.08l147.489 142.49h47.1602l148.73 -142.49h-83.25l-88.0303 85.6602l-89.0195 -85.6602h-83.0801zM400.52 707.91c201.02 0 313.36 -98.6895 313.36 -346.479c0 -250.99 -60.8604 -369.431 -313.37 -369.431
c-252.24 0 -319.46 101.9 -319.46 372.07c0 251.41 98.0195 343.84 319.47 343.84zM400.511 57.541c186.39 0 218.181 96.5098 218.181 303.899c0 205.93 -83.4004 281.109 -218.181 281.109c-160.29 0 -224.29 -61.8896 -224.29 -278.479
c0 -223.93 37.3496 -306.529 224.29 -306.529z" />
    <glyph glyph-name="Ocircumflexhookabove" unicode="&#x1ed4;" horiz-adv-x="794" 
d="M552.99 929.09l-4.43066 32.1299c17.6504 4.16992 41.9502 5.95996 49.5205 5.95996c62.6396 0 79.6299 -20.46 79.6299 -69.2998c0 -40.54 -11.0703 -58.4502 -50.1201 -61.96v-31.0498h-47.0996v65.46h17.9199c23.2002 0 28.4404 3.61035 28.4404 27.54
c0 25.0498 -1.76953 32.3799 -28.3896 32.6602c-4.48047 0 -14.4004 0 -45.4707 -1.44043zM227.279 789.08l147.489 142.49h47.1602l148.73 -142.49h-83.25l-88.0303 85.6602l-89.0195 -85.6602h-83.0801zM400.528 707.91c201.02 0 313.36 -98.6895 313.36 -346.479
c0 -250.99 -60.8604 -369.431 -313.37 -369.431c-252.24 0 -319.46 101.9 -319.46 372.07c0 251.41 98.0195 343.84 319.47 343.84zM400.52 57.541c186.39 0 218.181 96.5098 218.181 303.899c0 205.93 -83.4004 281.109 -218.181 281.109
c-160.29 0 -224.29 -61.8896 -224.29 -278.479c0 -223.93 37.3496 -306.529 224.29 -306.529z" />
    <glyph glyph-name="Ocircumflextilde" unicode="&#x1ed6;" horiz-adv-x="794" 
d="M260.56 949.68l-46.3301 31.959c38.8604 33.1299 77.2207 58.1602 120.73 58.1602c68.5898 0 94.5 -49.7598 137.51 -49.7598c19.0098 0 47.8096 25.1104 66.7998 42.0107l44.9004 -28.29c-34.6504 -34.4102 -71.0508 -62.0703 -109.98 -62.0703
c-69.9502 0 -92.2002 50.9902 -140.32 50.9902c-21.8398 0 -50.6396 -22.9102 -73.3096 -43zM374.59 931.568h47.1592l148.73 -142.49h-83.25l-88.0303 85.6602l-89.0195 -85.6602h-83.0801zM400.519 707.908c201.02 0 313.36 -98.6895 313.36 -346.479
c0 -250.99 -60.8604 -369.431 -313.37 -369.431c-252.24 0 -319.46 101.9 -319.46 372.07c0 251.41 98.0195 343.84 319.47 343.84zM400.51 57.5391c186.39 0 218.181 96.5098 218.181 303.899c0 205.93 -83.4004 281.109 -218.181 281.109
c-160.29 0 -224.29 -61.8896 -224.29 -278.479c0 -223.93 37.3496 -306.529 224.29 -306.529z" />
    <glyph glyph-name="Odieresis" unicode="&#xd6;" horiz-adv-x="794" 
d="M270.59 814.18v76.3896h70.21v-76.3896h-70.21zM455.5 814.18v76.3896h70.21v-76.3896h-70.21zM400.52 707.909c201.02 0 313.36 -98.6895 313.36 -346.479c0 -250.99 -60.8604 -369.431 -313.37 -369.431c-252.24 0 -319.46 101.9 -319.46 372.07
c0 251.41 98.0195 343.84 319.47 343.84zM400.511 57.54c186.39 0 218.181 96.5098 218.181 303.899c0 205.93 -83.4004 281.109 -218.181 281.109c-160.29 0 -224.29 -61.8896 -224.29 -278.479c0 -223.93 37.3496 -306.529 224.29 -306.529z" />
    <glyph glyph-name="Odotbelow" unicode="&#x1ecc;" horiz-adv-x="794" 
d="M400.52 707.91c201.02 0 313.36 -98.6895 313.36 -346.479c0 -250.99 -60.8604 -369.431 -313.37 -369.431c-252.24 0 -319.46 101.9 -319.46 372.07c0 251.41 98.0195 343.84 319.47 343.84zM400.511 57.541c186.39 0 218.181 96.5098 218.181 303.899
c0 205.93 -83.4004 281.109 -218.181 281.109c-160.29 0 -224.29 -61.8896 -224.29 -278.479c0 -223.93 37.3496 -306.529 224.29 -306.529zM363.771 -85.999h70.21v-77h-70.21v77z" />
    <glyph glyph-name="Ograve" unicode="&#xd2;" horiz-adv-x="794" 
d="M292.59 931.86h96.9609l127.13 -124.4h-82.4805zM400.511 707.91c201.02 0 313.36 -98.6895 313.36 -346.479c0 -250.99 -60.8604 -369.431 -313.37 -369.431c-252.24 0 -319.46 101.9 -319.46 372.07c0 251.41 98.0195 343.84 319.47 343.84zM400.502 57.541
c186.39 0 218.181 96.5098 218.181 303.899c0 205.93 -83.4004 281.109 -218.181 281.109c-160.29 0 -224.29 -61.8896 -224.29 -278.479c0 -223.93 37.3496 -306.529 224.29 -306.529z" />
    <glyph glyph-name="Ohookabove" unicode="&#x1ece;" horiz-adv-x="794" 
d="M344.6 929.09l-4.4209 32.1299c17.6504 4.16992 41.9502 5.95996 49.5205 5.95996c62.6396 0 79.6299 -20.46 79.6299 -69.2998c0 -40.54 -11.0703 -58.4502 -50.1201 -61.96v-31.0498h-47.0996v65.46h17.9199c23.2002 0 28.4404 3.61035 28.4404 27.54
c0 25.0498 -1.76953 32.3799 -28.3896 32.6602c-4.48047 0 -14.4102 0 -45.4805 -1.44043zM400.539 707.91c201.02 0 313.36 -98.6895 313.36 -346.479c0 -250.99 -60.8604 -369.431 -313.37 -369.431c-252.24 0 -319.46 101.9 -319.46 372.07
c0 251.41 98.0195 343.84 319.47 343.84zM400.53 57.541c186.39 0 218.181 96.5098 218.181 303.899c0 205.93 -83.4004 281.109 -218.181 281.109c-160.29 0 -224.29 -61.8896 -224.29 -278.479c0 -223.93 37.3496 -306.529 224.29 -306.529z" />
    <glyph glyph-name="Ohorn" unicode="&#x1a0;" horiz-adv-x="794" 
d="M722.81 707.16l37.8604 7.78125c6.62988 -23.0801 9.59961 -43.71 9.59961 -61.7803c0 -44.5596 -18.0703 -73.5498 -43.9307 -85.3301c-11.4697 -5.01953 -23.1895 -7.31934 -34.7393 -7.31934c-4.99023 0 -9.9502 0.429688 -14.8398 1.25
c24.4697 -50.0498 37.0996 -115.95 37.0996 -200.33c0 -250.99 -60.8604 -369.431 -313.37 -369.431c-252.24 0 -319.46 101.9 -319.46 372.07c0 251.41 98.0195 343.84 319.47 343.84c102.67 0 182.27 -25.6699 235.46 -83.29
c13 -6.11035 26.7002 -9.30078 39.4902 -9.30078c9.49023 0 18.4805 1.75 26.3105 5.36035c16.6504 7.75977 25.3701 28.6895 25.3701 54.0898c0 10.2598 -1.41992 21.25 -4.32031 32.3896zM400.5 57.5312c186.39 0 218.19 96.5098 218.19 303.899
c0 205.93 -83.4004 281.109 -218.19 281.109c-160.29 0 -224.29 -61.8896 -224.29 -278.479c0 -223.93 37.3496 -306.529 224.29 -306.529z" />
    <glyph glyph-name="Ohornacute" unicode="&#x1eda;" horiz-adv-x="794" 
d="M286.97 797.66l127.171 124.4h96.9697l-141.61 -124.4h-82.5303zM722.811 707.15l37.8701 7.77051c6.62988 -23.0801 9.59961 -43.71 9.59961 -61.7803c0 -44.5596 -18.0703 -73.5498 -43.9307 -85.3301c-11.4697 -5.01953 -23.1895 -7.31934 -34.7393 -7.31934
c-4.99023 0 -9.9502 0.429688 -14.8398 1.25c24.4697 -50.0498 37.0996 -115.939 37.0996 -200.319c0 -250.99 -60.8604 -369.431 -313.37 -369.431c-252.24 0 -319.46 101.9 -319.46 372.07c0 251.41 98.0195 343.84 319.47 343.84c102.67 0 182.26 -25.6699 235.45 -83.29
c13 -6.11035 26.7002 -9.30078 39.4902 -9.30078c9.49023 0 18.4805 1.75 26.3105 5.36035c16.6504 7.75977 25.3701 28.6895 25.3701 54.0898c0 10.2598 -1.41992 21.25 -4.32031 32.3896zM400.511 57.5107c186.39 0 218.19 96.5098 218.19 303.899
c0 205.93 -83.4004 281.109 -218.19 281.109c-160.29 0 -224.29 -61.8896 -224.29 -278.479c0 -223.93 37.3496 -306.529 224.29 -306.529z" />
    <glyph glyph-name="Ohorndotbelow" unicode="&#x1ee2;" horiz-adv-x="794" 
d="M722.81 707.16l37.8701 7.77051c6.62988 -23.0801 9.59961 -43.71 9.59961 -61.7803c0 -44.5596 -18.0703 -73.5498 -43.9307 -85.3301c-11.4697 -5.01953 -23.1895 -7.31934 -34.7393 -7.31934c-4.99023 0 -9.9502 0.429688 -14.8398 1.25
c24.4697 -50.0498 37.0996 -115.939 37.0996 -200.319c0 -250.99 -60.8604 -369.431 -313.37 -369.431c-252.24 0 -319.46 101.9 -319.46 372.07c0 251.41 98.0195 343.84 319.47 343.84c102.67 0 182.26 -25.6699 235.45 -83.29
c13 -6.11035 26.7002 -9.30078 39.4902 -9.30078c9.49023 0 18.4805 1.75 26.3105 5.36035c16.6504 7.75977 25.3701 28.6895 25.3701 54.0898c0 10.2598 -1.41992 21.25 -4.32031 32.3896zM400.51 57.5205c186.39 0 218.19 96.5098 218.19 303.899
c0 205.93 -83.4004 281.109 -218.19 281.109c-160.29 0 -224.29 -61.8896 -224.29 -278.479c0 -223.93 37.3496 -306.529 224.29 -306.529zM363.78 -86.0195h70.21v-77h-70.21v77z" />
    <glyph glyph-name="Ohorngrave" unicode="&#x1edc;" horiz-adv-x="794" 
d="M292.59 931.86h96.9609l127.13 -124.4h-82.4805zM722.811 707.16l37.8701 7.77051c6.62988 -23.0801 9.59961 -43.71 9.59961 -61.7803c0 -44.5596 -18.0703 -73.5498 -43.9307 -85.3301c-11.4697 -5.01953 -23.1895 -7.31934 -34.7393 -7.31934
c-4.99023 0 -9.9502 0.429688 -14.8398 1.25c24.4697 -50.0498 37.0996 -115.939 37.0996 -200.319c0 -250.99 -60.8604 -369.431 -313.37 -369.431c-252.24 0 -319.46 101.9 -319.46 372.07c0 251.41 98.0195 343.84 319.47 343.84c102.67 0 182.26 -25.6699 235.45 -83.29
c13 -6.11035 26.7002 -9.30078 39.4902 -9.30078c9.49023 0 18.4805 1.75 26.3105 5.36035c16.6504 7.75977 25.3701 28.6895 25.3701 54.0898c0 10.2598 -1.41992 21.25 -4.32031 32.3896zM400.511 57.5205c186.39 0 218.19 96.5098 218.19 303.899
c0 205.93 -83.4004 281.109 -218.19 281.109c-160.29 0 -224.29 -61.8896 -224.29 -278.479c0 -223.93 37.3496 -306.529 224.29 -306.529z" />
    <glyph glyph-name="Ohornhookabove" unicode="&#x1ede;" horiz-adv-x="794" 
d="M344.6 929.09l-4.44043 32.1299c17.6504 4.16992 41.9502 5.95996 49.5303 5.95996c62.6396 0 79.6299 -20.46 79.6299 -69.2998c0 -40.54 -11.0703 -58.4502 -50.1201 -61.96v-31.0498h-47.0996v65.46h17.9199c23.2002 0 28.4404 3.61035 28.4404 27.54
c0 25.0498 -1.76953 32.3799 -28.3896 32.6602c-4.48047 0 -14.4004 0 -45.4707 -1.44043zM722.81 707.16l37.8701 7.78027c6.62988 -23.0801 9.59961 -43.71 9.59961 -61.7803c0 -44.5596 -18.0703 -73.5498 -43.9307 -85.3301
c-11.4697 -5.01953 -23.1895 -7.31934 -34.7393 -7.31934c-4.99023 0 -9.9502 0.429688 -14.8398 1.25c24.4697 -50.0498 37.0996 -115.939 37.0996 -200.319c0 -251 -60.8604 -369.44 -313.37 -369.44c-252.24 0 -319.46 101.9 -319.46 372.07
c0 251.41 98.0195 343.84 319.47 343.84c102.67 0 182.26 -25.6699 235.45 -83.29c13 -6.11035 26.7002 -9.30078 39.4902 -9.30078c9.49023 0 18.4805 1.75 26.3105 5.36035c16.6504 7.75977 25.3701 28.6895 25.3701 54.0898c0 10.2598 -1.41992 21.25 -4.32031 32.3896z
M400.51 57.5303c186.39 0 218.181 96.5098 218.181 303.899c0 205.93 -83.4004 281.109 -218.181 281.109c-160.29 0 -224.29 -61.8896 -224.29 -278.479c0 -223.93 37.3496 -306.529 224.29 -306.529z" />
    <glyph glyph-name="Ohorntilde" unicode="&#x1ee0;" horiz-adv-x="794" 
d="M539.36 902.48l44.9004 -28.3105c-34.6504 -34.4102 -71.0508 -62.0703 -109.98 -62.0703c-69.9502 0 -92.2002 50.9902 -140.32 50.9902c-21.8398 0 -50.6396 -22.9102 -73.3096 -43l-46.3301 31.96c38.8604 33.1299 77.2207 58.1699 120.73 58.1699
c68.5898 0 94.5 -49.7598 137.51 -49.7598c19.0098 0 47.8096 25.1201 66.7998 42.0205zM722.811 707.14l37.8701 7.77051c6.62988 -23.0801 9.59961 -43.71 9.59961 -61.7803c0 -44.5596 -18.0703 -73.5498 -43.9307 -85.3301
c-11.4697 -5.01953 -23.1895 -7.31934 -34.7393 -7.31934c-4.99023 0 -9.9502 0.429688 -14.8398 1.25c24.4697 -50.0498 37.0996 -115.939 37.0996 -200.319c0 -250.99 -60.8604 -369.431 -313.37 -369.431c-252.24 0 -319.46 101.9 -319.46 372.07
c0 251.41 98.0195 343.84 319.47 343.84c102.67 0 182.26 -25.6699 235.45 -83.29c13 -6.11035 26.7002 -9.30078 39.4902 -9.30078c9.49023 0 18.4805 1.75 26.3105 5.36035c16.6504 7.75977 25.3701 28.6895 25.3701 54.0898c0 10.2598 -1.41992 21.25 -4.32031 32.3896z
M400.511 57.5c186.39 0 218.19 96.5098 218.19 303.899c0 205.93 -83.4004 281.109 -218.19 281.109c-160.29 0 -224.29 -61.8896 -224.29 -278.479c0 -223.93 37.3496 -306.529 224.29 -306.529z" />
    <glyph glyph-name="Ohungarumlaut" unicode="&#x150;" horiz-adv-x="794" 
d="M198.84 807.46l127.121 124.4h96.9697l-141.61 -124.4h-82.4805zM359.761 807.46l127.11 124.4h96.9697l-141.61 -124.4h-82.4697zM400.501 707.91c201.02 0 313.36 -98.6895 313.36 -346.479c0 -250.99 -60.8604 -369.431 -313.37 -369.431
c-252.24 0 -319.46 101.9 -319.46 372.07c0 251.41 98.0195 343.84 319.47 343.84zM400.492 57.541c186.39 0 218.181 96.5098 218.181 303.899c0 205.93 -83.4004 281.109 -218.181 281.109c-160.29 0 -224.29 -61.8896 -224.29 -278.479
c0 -223.93 37.3496 -306.529 224.29 -306.529z" />
    <glyph glyph-name="Omacron" unicode="&#x14c;" horiz-adv-x="794" 
d="M568.97 835.71h-341.64v54.21h341.64v-54.21zM400.521 707.91c201.02 0 313.36 -98.6895 313.36 -346.479c0 -250.99 -60.8604 -369.431 -313.37 -369.431c-252.24 0 -319.46 101.9 -319.46 372.07c0 251.41 98.0195 343.84 319.47 343.84zM400.512 57.541
c186.39 0 218.181 96.5098 218.181 303.899c0 205.93 -83.4004 281.109 -218.181 281.109c-160.29 0 -224.29 -61.8896 -224.29 -278.479c0 -223.93 37.3496 -306.529 224.29 -306.529z" />
    <glyph glyph-name="Oslash" unicode="&#xd8;" horiz-adv-x="695" 
d="M483 760.04l79.6104 0.0107422l-37.0703 -89.4102c89.6299 -48.5801 137.75 -146.87 137.75 -309.03c0 -250.99 -60.9902 -369.61 -313.521 -369.61c-38.6299 0 -72.3301 3 -101.45 8.79004l-25.1299 -60.79h-80.54l32.54 78.6602
c-110.83 45.7402 -145 152.96 -145 345.59c0 251.41 98.29 343.84 319.59 343.84c39.4502 0 74.7598 -4.53027 105.74 -14.3398zM207.351 97.1104l221.099 531.388c-24.3799 6.63965 -48.8398 10.1396 -73.3994 10.1396c-11.4102 0 -22.8398 -0.759766 -34.2998 -2.30957
c-138.38 -7.08984 -195.22 -74.1494 -195.22 -272.079c0 -141.35 16.1299 -226.369 81.8203 -267.139zM491.839 587.748l-216.62 -521.571c22.0703 -4.33008 45.4805 -6.5 70.7705 -6.5c7.76953 0 15.71 0.200195 23.8496 0.610352
c168.89 5.79004 198.08 105.271 198.08 301.32c0 113.57 -27.4199 185.78 -76.0801 226.141z" />
    <glyph glyph-name="Otilde" unicode="&#xd5;" horiz-adv-x="794" 
d="M539.36 902.48l44.9004 -28.3105c-34.6504 -34.4102 -71.0508 -62.0703 -109.98 -62.0703c-69.9502 0 -92.2002 50.9902 -140.32 50.9902c-21.8398 0 -50.6396 -22.9102 -73.3096 -43l-46.3301 31.96c38.8604 33.1299 77.2207 58.1699 120.73 58.1699
c68.5898 0 94.5 -49.7598 137.51 -49.7598c19.0098 0 47.8096 25.1201 66.7998 42.0205zM400.521 707.89c201.02 0 313.36 -98.6895 313.36 -346.479c0 -250.99 -60.8604 -369.431 -313.37 -369.431c-252.24 0 -319.46 101.9 -319.46 372.07
c0 251.41 98.0195 343.84 319.47 343.84zM400.512 57.5205c186.39 0 218.181 96.5098 218.181 303.899c0 205.93 -83.4004 281.109 -218.181 281.109c-160.29 0 -224.29 -61.8896 -224.29 -278.479c0 -223.93 37.3496 -306.529 224.29 -306.529z" />
    <glyph glyph-name="P" unicode="P" horiz-adv-x="738" 
d="M409.45 244.66l-213.01 -0.00878906v-244.66h-95.3896v699.93h308.4c175.27 0 255.6 -72.4502 255.6 -217.641c0 -143.98 -77.9404 -237.62 -255.601 -237.62zM196.44 310.651l213 -0.000976562c113.53 0 158 62.5596 158 171.63c0 107.9 -41.9102 151.641 -158 151.641
h-213v-323.27z" />
    <glyph glyph-name="Q" unicode="Q" horiz-adv-x="806" 
d="M588.55 -139l-89.5098 139.86c-26.96 -5.86035 -57.8604 -8.86035 -92.9502 -8.86035c-252.24 0 -319.46 102.53 -319.46 372.7c0 251.41 98.0195 343.84 319.47 343.84c201.02 0 313.369 -98.6904 313.369 -346.48c0 -175.89 -27.3496 -284.59 -132.369 -335.06
l84.5498 -131zM181.8 364.69c0 -223.93 37.3506 -306.529 224.291 -306.529c186.39 0 218.189 96.5098 218.189 303.899c0 205.93 -83.4004 281.109 -218.19 281.109c-160.29 0 -224.29 -61.8896 -224.29 -278.479z" />
    <glyph glyph-name="R" unicode="R" horiz-adv-x="741" 
d="M413.33 276.08h-24.001h-192.89v-276.01h-95.3896v699.87h304c166.91 0 256.69 -65.7305 256.69 -207.171c0 -102.92 -39.9102 -177.35 -151.36 -203.399l179.88 -289.3h-105.33zM196.439 342.08l208.601 -0.000976562c124.81 0 159.109 53.7305 159.109 150.69
c0 102.69 -45.1602 141.171 -159.11 141.171h-208.6v-291.86z" />
    <glyph glyph-name="Racute" unicode="&#x154;" horiz-adv-x="741" 
d="M259.79 797.66l127.171 124.4h96.9697l-141.61 -124.4h-82.5303zM413.331 276.07h-24.001h-192.89v-276.01h-95.3896v699.87h304c166.91 0 256.69 -65.7305 256.69 -207.171c0 -102.92 -39.9102 -177.35 -151.36 -203.399l179.88 -289.3h-105.33zM196.44 342.07
l208.601 -0.000976562c124.81 0 159.109 53.7305 159.109 150.69c0 102.69 -45.1602 141.171 -159.11 141.171h-208.6v-291.86z" />
    <glyph glyph-name="Rcaron" unicode="&#x158;" horiz-adv-x="741" 
d="M394.81 789.37h-47.1592l-147.49 142.49h83.0801l89.0195 -85.6602l88.0303 85.6602h83.25zM413.341 276.07h-24.001h-192.89v-276.01h-95.3896v699.87h304c166.91 0 256.69 -65.7305 256.69 -207.171c0 -102.92 -39.9102 -177.35 -151.36 -203.399l179.88 -289.3
h-105.33zM196.45 342.07l208.601 -0.000976562c124.81 0 159.109 53.7305 159.109 150.69c0 102.69 -45.1602 141.171 -159.11 141.171h-208.6v-291.86z" />
    <glyph glyph-name="Rcommaaccent" unicode="&#x156;" horiz-adv-x="741" 
d="M413.33 276.08h-24.001h-192.89v-276.01h-95.3896v699.87h304c166.91 0 256.69 -65.7305 256.69 -207.171c0 -102.92 -39.9102 -177.35 -151.36 -203.399l179.88 -289.3h-105.33zM196.439 342.08l208.601 -0.000976562c124.81 0 159.109 53.7305 159.109 150.69
c0 102.69 -45.1602 141.171 -159.11 141.171h-208.6v-291.86zM266.271 -249.991l47.5205 208h100.93l-59 -208h-89.4502z" />
    <glyph glyph-name="S" unicode="S" horiz-adv-x="573" 
d="M52.4697 10.5098l12.6074 65.7324c68.7402 -9.37012 133.9 -16.6699 190.351 -16.6699c7.91016 0 15.6504 0.139648 23.2002 0.439453c88.2695 3.58984 145.569 14.7197 145.89 93.5195c0.44043 24.2998 -6.7793 55.3301 -39.9492 88.1504
c-28.2305 27.21 -109.261 71.7295 -179.541 113.829c-90.3496 53.3496 -138.699 96.2598 -138.699 187.13c0 6.40039 0.240234 13.0303 0.720703 19.9199c5.03027 71.7402 77.9307 146.88 252.521 146.88c82.5703 0 137.54 -4.0498 201.95 -13.3096l-13.21 -65.8096
c-70.0303 9.05957 -112.761 12.1699 -188.741 12.1699c-114.4 0 -155.45 -40.8398 -158.48 -81.4697c-0.339844 -4.87012 -0.519531 -9.49023 -0.519531 -13.8906c0 -52.6904 25.4902 -74.3301 99.1904 -118.69c76.7803 -45.4902 159.24 -97.0098 189.41 -118.819
c61.3896 -42.3496 71.2295 -113.43 69.5498 -153.04c-4.87988 -144.19 -136.85 -159.591 -235.75 -162.591c-10.75 -0.570312 -21.9297 -0.830078 -33.3594 -0.830078c-68.25 0 -145.71 9.33008 -197.14 17.3496z" />
    <glyph glyph-name="Sacute" unicode="&#x15a;" horiz-adv-x="573" 
d="M215.06 797.66l127.171 124.4h96.9697l-141.61 -124.4h-82.5303zM52.4707 10.5107l12.6074 65.7324c68.7402 -9.37012 133.9 -16.6699 190.351 -16.6699c7.91016 0 15.6504 0.139648 23.2002 0.439453c88.2695 3.58984 145.569 14.7197 145.89 93.5195
c0.44043 24.2998 -6.7793 55.3301 -39.9492 88.1504c-28.2305 27.21 -109.261 71.7295 -179.541 113.829c-90.3496 53.3496 -138.699 96.2598 -138.699 187.13c0 6.40039 0.240234 13.0303 0.720703 19.9199c5.03027 71.7402 77.9307 146.88 252.521 146.88
c82.5703 0 137.54 -4.0498 201.95 -13.3096l-13.21 -65.8096c-70.0303 9.05957 -112.761 12.1699 -188.741 12.1699c-114.4 0 -155.45 -40.8398 -158.48 -81.4697c-0.339844 -4.87012 -0.519531 -9.49023 -0.519531 -13.8906c0 -52.6904 25.4902 -74.3301 99.1904 -118.69
c76.7803 -45.4902 159.24 -97.0098 189.41 -118.819c61.3896 -42.3496 71.2295 -113.43 69.5498 -153.04c-4.87988 -144.19 -136.85 -159.591 -235.75 -162.591c-10.75 -0.570312 -21.9297 -0.830078 -33.3594 -0.830078c-68.25 0 -145.71 9.33008 -197.14 17.3496z" />
    <glyph glyph-name="Scaron" unicode="&#x160;" horiz-adv-x="573" 
d="M415.56 931.86h83.2412l-148.73 -142.49h-47.1602l-147.48 142.49h83.0801l89.0195 -85.6602zM52.4609 10.5107l12.6074 65.7324c68.7402 -9.37012 133.9 -16.6699 190.351 -16.6699c7.91016 0 15.6504 0.139648 23.2002 0.439453
c88.2695 3.58984 145.569 14.7197 145.89 93.5195c0.44043 24.2998 -6.7793 55.3301 -39.9492 88.1504c-28.2305 27.21 -109.261 71.7295 -179.541 113.829c-90.3496 53.3496 -138.699 96.2598 -138.699 187.13c0 6.40039 0.240234 13.0303 0.720703 19.9199
c5.03027 71.7402 77.9307 146.88 252.521 146.88c82.5703 0 137.54 -4.0498 201.95 -13.3096l-13.21 -65.8096c-70.0303 9.05957 -112.761 12.1699 -188.741 12.1699c-114.4 0 -155.45 -40.8398 -158.48 -81.4697c-0.339844 -4.87012 -0.519531 -9.49023 -0.519531 -13.8906
c0 -52.6904 25.4902 -74.3301 99.1904 -118.69c76.7803 -45.4902 159.24 -97.0098 189.41 -118.819c61.3896 -42.3496 71.2295 -113.43 69.5498 -153.04c-4.87988 -144.19 -136.85 -159.591 -235.75 -162.591c-10.75 -0.570312 -21.9297 -0.830078 -33.3594 -0.830078
c-68.25 0 -145.71 9.33008 -197.14 17.3496z" />
    <glyph glyph-name="Scedilla" unicode="&#x15e;" horiz-adv-x="573" 
d="M521.52 696.14l-13.2441 -65.7969c-70.0303 9.05957 -112.761 12.1699 -188.741 12.1699c-114.4 0 -155.45 -40.8398 -158.48 -81.4697c-0.339844 -4.87012 -0.519531 -9.49023 -0.519531 -13.8906c0 -52.6904 25.4902 -74.3301 99.1904 -118.69
c76.7803 -45.4902 159.24 -97.0098 189.41 -118.819c61.3896 -42.3496 71.2295 -113.43 69.5498 -153.04c-3.20996 -104.01 -71.9102 -140.49 -147.99 -154.73l-24.6602 -41.8604c39.3398 -3 50.4102 -21 50.4102 -62c0 -49 -19.7803 -69 -82.4199 -69
c-5.05957 0 -32.6396 1 -58.8096 6l4.44043 32c31.0703 -1 53.0801 -1 57.5605 -1c26.6201 0 28.3896 7 28.3896 32c0 24 -5.24023 28 -28.4404 28h-35.5596l36.3604 69c-11.8398 0 -23.5898 -1 -35.0195 -1c-10.75 -0.570312 -21.9297 -0.830078 -33.3594 -0.830078
c-68.25 0 -145.71 9.33008 -197.14 17.3496l12.6201 65.7197c68.75 -9.37012 133.91 -16.6699 190.36 -16.6699c7.91016 0 15.6504 0.139648 23.2002 0.439453c88.2695 3.58984 145.569 14.7197 145.89 93.5195c0.44043 24.2998 -6.7793 55.3301 -39.9492 88.1504
c-28.2305 27.21 -109.261 71.7295 -179.541 113.829c-90.3496 53.3496 -138.699 96.2598 -138.699 187.13c0 6.40039 0.240234 13.0303 0.720703 19.9199c5.03027 71.7402 77.9307 146.88 252.521 146.88c82.5703 0 137.54 -4.0498 201.95 -13.3096z" />
    <glyph glyph-name="Scommaaccent" unicode="&#x218;" horiz-adv-x="573" 
d="M52.4697 10.5098l12.6074 65.7324c68.7402 -9.37012 133.9 -16.6699 190.351 -16.6699c7.91016 0 15.6504 0.139648 23.2002 0.439453c88.2695 3.58984 145.569 14.7197 145.89 93.5195c0.44043 24.2998 -6.7793 55.3301 -39.9492 88.1504
c-28.2305 27.21 -109.261 71.7295 -179.541 113.829c-90.3496 53.3496 -138.699 96.2598 -138.699 187.13c0 6.40039 0.240234 13.0303 0.720703 19.9199c5.03027 71.7402 77.9307 146.88 252.521 146.88c82.5703 0 137.54 -4.0498 201.95 -13.3096l-13.21 -65.8096
c-70.0303 9.05957 -112.761 12.1699 -188.741 12.1699c-114.4 0 -155.45 -40.8398 -158.48 -81.4697c-0.339844 -4.87012 -0.519531 -9.49023 -0.519531 -13.8906c0 -52.6904 25.4902 -74.3301 99.1904 -118.69c76.7803 -45.4902 159.24 -97.0098 189.41 -118.819
c61.3896 -42.3496 71.2295 -113.43 69.5498 -153.04c-4.87988 -144.19 -136.85 -159.591 -235.75 -162.591c-10.75 -0.570312 -21.9297 -0.830078 -33.3594 -0.830078c-68.25 0 -145.71 9.33008 -197.14 17.3496zM187.438 -249.988l48.04 208h100.93l-59.5195 -208h-89.4502
z" />
    <glyph glyph-name="T" unicode="T" horiz-adv-x="630" 
d="M12.21 633.93l-0.000976562 66h605.79v-66h-254.1v-633.93h-95.3896v633.93h-256.3z" />
    <glyph glyph-name="Tbar" unicode="&#x166;" horiz-adv-x="630" 
d="M618 633.93h-254.101v-248.86h123.76v-54.21h-123.76v-330.87h-95.3896v330.87h-122.49v54.21h122.49v248.86h-256.3v66h605.79v-66z" />
    <glyph glyph-name="Tcaron" unicode="&#x164;" horiz-adv-x="630" 
d="M338.95 789.37h-47.1592l-147.49 142.49h83.0801l89.0195 -85.6602l88.0303 85.6602h83.25zM12.2207 633.93l-0.000976562 66h605.79v-66h-254.1v-633.93h-95.3896v633.93h-256.3z" />
    <glyph glyph-name="Tcedilla" unicode="&#x162;" horiz-adv-x="630" 
d="M12.21 699.93h605.779v-66h-254.1v-633.93h-46.6904l-22.6504 -39c39.3398 -4 50.4102 -22 50.4102 -62c0 -49 -19.7803 -69 -82.4199 -69c-5.05957 0 -32.6396 0 -58.8096 6l4.44043 32c31.0703 -2 53.0801 -2 57.5605 -2c26.6201 0 28.3896 8 28.3896 33
c0 24 -5.24023 27 -28.4404 27h-35.5596l38.3896 74v633.93h-256.3v66z" />
    <glyph glyph-name="uni021A" unicode="&#x21a;" horiz-adv-x="630" 
d="M12.21 633.93l-0.000976562 66h605.79v-66h-254.1v-633.93h-95.3896v633.93h-256.3zM212.959 -250l48.04 208h100.93l-59.5195 -208h-89.4502z" />
    <glyph glyph-name="Thorn" unicode="&#xde;" horiz-adv-x="653" 
d="M374.38 129.69l-213 0.0117188v-129.69h-95.3896v700h95.3896v-117.23h213c176.88 0 255.6 -71.8301 255.6 -216.48c0 -143.75 -76.3301 -236.61 -255.6 -236.61zM161.38 190.782l213 -0.000976562c112.93 0 158.01 63.4004 158.01 175.53
c0 111.2 -42.4102 155.4 -158.01 155.4h-213v-330.93z" />
    <glyph glyph-name="U" unicode="U" horiz-adv-x="755" 
d="M196.44 700.05l-0.0195312 -496.831c0 -110.13 63.8096 -145.93 181.109 -145.93c127.46 0 192.11 35.0303 192.11 145.931v496.83h95.3896v-496.83c0 -152.58 -110.97 -212.22 -287.489 -212.22c-165.38 0 -276.49 58.5898 -276.49 212.22v496.83h95.3896z" />
    <glyph glyph-name="Uacute" unicode="&#xda;" horiz-adv-x="755" 
d="M271.87 797.66l127.171 124.4h96.9697l-141.61 -124.4h-82.5303zM196.441 700.041l-0.0195312 -496.831c0 -110.13 63.8096 -145.93 181.109 -145.93c127.46 0 192.11 35.0303 192.11 145.931v496.83h95.3896v-496.83c0 -152.58 -110.97 -212.22 -287.489 -212.22
c-165.38 0 -276.49 58.5898 -276.49 212.22v496.83h95.3896z" />
    <glyph glyph-name="Ucaron" unicode="&#x1d3;" horiz-adv-x="755" 
d="M406.89 789.37h-47.1592l-147.49 142.49h83.0801l89.0195 -85.6602l88.0303 85.6602h83.25zM196.45 700.04l-0.0195312 -496.831c0 -110.13 63.8096 -145.93 181.109 -145.93c127.46 0 192.11 35.0303 192.11 145.931v496.83h95.3896v-496.83
c0 -152.58 -110.97 -212.22 -287.489 -212.22c-165.38 0 -276.49 58.5898 -276.49 212.22v496.83h95.3896z" />
    <glyph glyph-name="Ucircumflex" unicode="&#xdb;" horiz-adv-x="755" 
d="M212.09 789.08l147.489 142.49h47.1602l148.73 -142.49h-83.25l-88.0303 85.6602l-89.0195 -85.6602h-83.0801zM196.449 700.051l-0.0195312 -496.831c0 -110.13 63.8096 -145.93 181.109 -145.93c127.46 0 192.11 35.0303 192.11 145.931v496.83h95.3896v-496.83
c0 -152.58 -110.97 -212.22 -287.489 -212.22c-165.38 0 -276.49 58.5898 -276.49 212.22v496.83h95.3896z" />
    <glyph glyph-name="Udieresis" unicode="&#xdc;" horiz-adv-x="755" 
d="M255.49 814.18v76.3896h70.21v-76.3896h-70.21zM440.4 814.18v76.3896h70.21v-76.3896h-70.21zM196.44 700.05l-0.0195312 -496.831c0 -110.13 63.8096 -145.93 181.109 -145.93c127.46 0 192.11 35.0303 192.11 145.931v496.83h95.3896v-496.83
c0 -152.58 -110.97 -212.22 -287.489 -212.22c-165.38 0 -276.49 58.5898 -276.49 212.22v496.83h95.3896z" />
    <glyph glyph-name="Udieresisacute" unicode="&#x1d7;" horiz-adv-x="755" 
d="M399.04 964.08h96.9707l-141.61 -124.4h-82.5303zM255.491 804.061h70.21v-76.3896h-70.21v76.3896zM440.411 804.061h70.21v-76.3896h-70.21v76.3896zM569.661 700.051l95.3701 -0.000976562v-496.83c0 -152.58 -110.97 -212.22 -287.489 -212.22
c-165.38 0 -276.49 58.5898 -276.49 212.22v496.83h95.3896v-496.83c0 -110.13 63.8096 -145.93 181.109 -145.93c127.46 0 192.11 35.0303 192.11 145.931v496.83z" />
    <glyph glyph-name="Udieresiscaron" unicode="&#x1d9;" horiz-adv-x="755" 
d="M472.37 967.61h83.251l-148.73 -142.49h-47.1602l-147.49 142.49h83.0801l89.0195 -85.6602zM255.491 800.44h70.21v-76.3896h-70.21v76.3896zM440.411 800.44h70.21v-76.3896h-70.21v76.3896zM569.661 700.051l95.3701 -0.000976562v-496.83
c0 -152.58 -110.97 -212.22 -287.489 -212.22c-165.38 0 -276.49 58.5898 -276.49 212.22v496.83h95.3896v-496.83c0 -110.13 63.8096 -145.93 181.109 -145.93c127.46 0 192.11 35.0303 192.11 145.931v496.83z" />
    <glyph glyph-name="Udieresisgrave" unicode="&#x1db;" horiz-adv-x="755" 
d="M277.5 963.52h96.9609l127.13 -124.4h-82.4805zM255.491 801.88h70.21v-76.3896h-70.21v76.3896zM440.411 801.88h70.21v-76.3896h-70.21v76.3896zM569.661 700.04l95.3701 -0.000976562v-496.83c0 -152.58 -110.97 -212.22 -287.489 -212.22
c-165.38 0 -276.49 58.5898 -276.49 212.22v496.83h95.3896v-496.83c0 -110.13 63.8096 -145.93 181.109 -145.93c127.46 0 192.11 35.0303 192.11 145.931v496.83z" />
    <glyph glyph-name="Udieresismacron" unicode="&#x1d5;" horiz-adv-x="755" 
d="M212.23 923.98h341.64v-54.21h-341.64v54.21zM255.49 803.33h70.21v-76.3896h-70.21v76.3896zM440.41 803.33h70.21v-76.3896h-70.21v76.3896zM569.66 700.05l95.3701 -0.000976562v-496.83c0 -152.58 -110.97 -212.22 -287.489 -212.22
c-165.38 0 -276.49 58.5898 -276.49 212.22v496.83h95.3896v-496.83c0 -110.13 63.8096 -145.93 181.109 -145.93c127.46 0 192.11 35.0303 192.11 145.931v496.83z" />
    <glyph glyph-name="Udotbelow" unicode="&#x1ee4;" horiz-adv-x="755" 
d="M196.44 700.05l-0.0195312 -496.831c0 -110.13 63.8096 -145.93 181.109 -145.93c127.46 0 192.11 35.0303 192.11 145.931v496.83h95.3896v-496.83c0 -152.58 -110.97 -212.22 -287.489 -212.22c-165.38 0 -276.49 58.5898 -276.49 212.22v496.83h95.3896z
M343.271 -86.001h70.21v-77h-70.21v77z" />
    <glyph glyph-name="Ugrave" unicode="&#xd9;" horiz-adv-x="755" 
d="M277.5 931.86h96.9609l127.13 -124.4h-82.4805zM196.441 700.051l-0.0195312 -496.831c0 -110.13 63.8096 -145.93 181.109 -145.93c127.46 0 192.11 35.0303 192.11 145.931v496.83h95.3896v-496.83c0 -152.58 -110.97 -212.22 -287.489 -212.22
c-165.38 0 -276.49 58.5898 -276.49 212.22v496.83h95.3896z" />
    <glyph glyph-name="Uhookabove" unicode="&#x1ee6;" horiz-adv-x="755" 
d="M333.56 929.09l-4.43066 32.1299c17.6504 4.16992 41.9502 5.95996 49.5205 5.95996c62.6396 0 79.6299 -20.46 79.6299 -69.2998c0 -40.54 -11.0703 -58.4502 -50.1201 -61.96v-31.0498h-47.0996v65.46h17.9199c23.2002 0 28.4404 3.61035 28.4404 27.54
c0 25.0498 -1.76953 32.3799 -28.3896 32.6602c-4.48047 0 -14.4004 0 -45.4707 -1.44043zM196.449 700.04l-0.0195312 -496.831c0 -110.13 63.8096 -145.93 181.109 -145.93c127.46 0 192.11 35.0303 192.11 145.931v496.83h95.3896v-496.83
c0 -152.58 -110.97 -212.22 -287.489 -212.22c-165.38 0 -276.49 58.5898 -276.49 212.22v496.83h95.3896z" />
    <glyph glyph-name="Uhorn" unicode="&#x1af;" horiz-adv-x="778" 
d="M723.47 732.14l37.8613 7.76758c6.62988 -23.0801 9.59961 -43.71 9.59961 -61.7803c0 -44.5596 -18.0703 -73.5498 -43.9307 -85.3301c-10.25 -4.62988 -20.6299 -6.72949 -30.8301 -6.72949c-10.7197 0 -21.2295 2.32031 -31.1494 6.4707v-389.33
c0 -152.58 -110.97 -212.22 -287.489 -212.22c-165.38 0 -276.49 58.5898 -276.49 212.22v496.83h95.3896v-496.83c0 -110.13 63.8096 -145.93 181.109 -145.93c127.46 0 192.11 35.0303 192.11 145.931v496.83h95.3896v-57.7598
c4.69043 -0.969727 9.35059 -1.45996 13.9102 -1.45996c8.2998 0 16.2598 1.61035 23.4697 4.84082c16.6504 7.75977 25.3701 28.6895 25.3701 54.0898c0 10.2598 -1.41992 21.25 -4.32031 32.3896z" />
    <glyph glyph-name="Uhornacute" unicode="&#x1ee8;" horiz-adv-x="778" 
d="M271.87 797.66l127.171 124.4h96.9697l-141.61 -124.4h-82.5303zM723.461 732.141l37.8613 7.76758c6.62988 -23.0801 9.59961 -43.71 9.59961 -61.7803c0 -44.5596 -18.0703 -73.5498 -43.9307 -85.3301c-10.25 -4.62988 -20.6299 -6.72949 -30.8301 -6.72949
c-10.7197 0 -21.2295 2.32031 -31.1494 6.4707v-389.33c0 -152.58 -110.97 -212.22 -287.489 -212.22c-165.38 0 -276.49 58.5898 -276.49 212.22v496.83h95.3896v-496.83c0 -110.13 63.8096 -145.93 181.109 -145.93c127.46 0 192.11 35.0303 192.11 145.931v496.83
h95.3896v-57.7598c4.69043 -0.969727 9.35059 -1.45996 13.9102 -1.45996c8.2998 0 16.2598 1.61035 23.4697 4.84082c16.6504 7.75977 25.3701 28.6895 25.3701 54.0898c0 10.2598 -1.41992 21.25 -4.32031 32.3896z" />
    <glyph glyph-name="Uhorndotbelow" unicode="&#x1ef0;" horiz-adv-x="778" 
d="M723.47 732.14l37.8613 7.76758c6.62988 -23.0801 9.59961 -43.71 9.59961 -61.7803c0 -44.5596 -18.0703 -73.5498 -43.9307 -85.3301c-10.25 -4.62988 -20.6299 -6.72949 -30.8301 -6.72949c-10.7197 0 -21.2295 2.32031 -31.1494 6.4707v-389.33
c0 -152.58 -110.97 -212.22 -287.489 -212.22c-165.38 0 -276.49 58.5898 -276.49 212.22v496.83h95.3896v-496.83c0 -110.13 63.8096 -145.93 181.109 -145.93c127.46 0 192.11 35.0303 192.11 145.931v496.83h95.3896v-57.7598
c4.69043 -0.969727 9.35059 -1.45996 13.9102 -1.45996c8.2998 0 16.2598 1.61035 23.4697 4.84082c16.6504 7.75977 25.3701 28.6895 25.3701 54.0898c0 10.2598 -1.41992 21.25 -4.32031 32.3896zM343.281 -86.0332h70.21v-77h-70.21v77z" />
    <glyph glyph-name="Uhorngrave" unicode="&#x1eea;" horiz-adv-x="778" 
d="M277.5 931.86h96.9609l127.13 -124.4h-82.4805zM723.471 732.141l37.8613 7.76758c6.62988 -23.0801 9.59961 -43.71 9.59961 -61.7803c0 -44.5596 -18.0703 -73.5498 -43.9307 -85.3301c-10.25 -4.62988 -20.6299 -6.72949 -30.8301 -6.72949
c-10.7197 0 -21.2295 2.32031 -31.1494 6.4707v-389.33c0 -152.58 -110.97 -212.22 -287.489 -212.22c-165.38 0 -276.49 58.5898 -276.49 212.22v496.83h95.3896v-496.83c0 -110.13 63.8096 -145.93 181.109 -145.93c127.46 0 192.11 35.0303 192.11 145.931v496.83
h95.3896v-57.7598c4.69043 -0.969727 9.35059 -1.45996 13.9102 -1.45996c8.2998 0 16.2598 1.61035 23.4697 4.84082c16.6504 7.75977 25.3701 28.6895 25.3701 54.0898c0 10.2598 -1.41992 21.25 -4.32031 32.3896z" />
    <glyph glyph-name="Uhornhookabove" unicode="&#x1eec;" horiz-adv-x="755" 
d="M333.56 929.09l-4.44043 32.1299c17.6504 4.16992 41.9502 5.95996 49.5303 5.95996c62.6396 0 79.6299 -20.46 79.6299 -69.2998c0 -40.54 -11.0703 -58.4502 -50.1201 -61.96v-31.0498h-47.0996v65.46h17.9199c23.2002 0 28.4404 3.61035 28.4404 27.54
c0 25.0498 -1.76953 32.3799 -28.3896 32.6602c-4.48047 0 -14.4004 0 -45.4707 -1.44043zM723.469 732.14l37.8613 7.76758c6.62988 -23.0801 9.59961 -43.71 9.59961 -61.7803c0 -44.5596 -18.0703 -73.5498 -43.9307 -85.3301
c-10.25 -4.62988 -20.6299 -6.72949 -30.8301 -6.72949c-10.7197 0 -21.2295 2.32031 -31.1494 6.4707v-389.33c0 -152.58 -110.97 -212.22 -287.489 -212.22c-165.38 0 -276.49 58.5898 -276.49 212.22v496.83h95.3896v-496.83c0 -110.13 63.8096 -145.93 181.109 -145.93
c127.46 0 192.11 35.0303 192.11 145.931v496.83h95.3896v-57.7598c4.69043 -0.969727 9.35059 -1.45996 13.9102 -1.45996c8.2998 0 16.2598 1.61035 23.4697 4.84082c16.6504 7.75977 25.3701 28.6895 25.3701 54.0898c0 10.2598 -1.41992 21.25 -4.32031 32.3896z" />
    <glyph glyph-name="Uhorntilde" unicode="&#x1eee;" horiz-adv-x="755" 
d="M524.27 902.48l44.9004 -28.3105c-34.6504 -34.4102 -71.0508 -62.0703 -109.98 -62.0703c-69.9502 0 -92.2002 50.9902 -140.32 50.9902c-21.8398 0 -50.6396 -22.9102 -73.3096 -43l-46.3301 31.96c38.8604 33.1299 77.2207 58.1699 120.73 58.1699
c68.5898 0 94.5 -49.7598 137.51 -49.7598c19.0098 0 47.8096 25.1201 66.7998 42.0205zM723.47 732.12l37.8613 7.76758c6.62988 -23.0801 9.59961 -43.71 9.59961 -61.7803c0 -44.5596 -18.0703 -73.5498 -43.9307 -85.3301
c-10.25 -4.62988 -20.6299 -6.72949 -30.8301 -6.72949c-10.7197 0 -21.2295 2.32031 -31.1494 6.4707v-389.33c0 -152.58 -110.97 -212.22 -287.489 -212.22c-165.38 0 -276.49 58.5898 -276.49 212.22v496.83h95.3896v-496.83c0 -110.13 63.8096 -145.93 181.109 -145.93
c127.46 0 192.11 35.0303 192.11 145.931v496.83h95.3896v-57.7598c4.69043 -0.969727 9.35059 -1.45996 13.9102 -1.45996c8.2998 0 16.2598 1.61035 23.4697 4.84082c16.6504 7.75977 25.3701 28.6895 25.3701 54.0898c0 10.2598 -1.41992 21.25 -4.32031 32.3896z" />
    <glyph glyph-name="Uhungarumlaut" unicode="&#x170;" horiz-adv-x="755" 
d="M183.74 807.46l127.121 124.4h96.9697l-141.61 -124.4h-82.4805zM344.661 807.46l127.11 124.4h96.9697l-141.61 -124.4h-82.4697zM196.432 700.051l-0.0195312 -496.831c0 -110.13 63.8096 -145.93 181.109 -145.93c127.46 0 192.11 35.0303 192.11 145.931v496.83
h95.3896v-496.83c0 -152.58 -110.97 -212.22 -287.489 -212.22c-165.38 0 -276.49 58.5898 -276.49 212.22v496.83h95.3896z" />
    <glyph glyph-name="Umacron" unicode="&#x16a;" horiz-adv-x="755" 
d="M553.87 835.71h-341.64v54.21h341.64v-54.21zM196.45 700.05l-0.0195312 -496.831c0 -110.13 63.8096 -145.93 181.109 -145.93c127.46 0 192.11 35.0303 192.11 145.931v496.83h95.3896v-496.83c0 -152.58 -110.97 -212.22 -287.489 -212.22
c-165.38 0 -276.49 58.5898 -276.49 212.22v496.83h95.3896z" />
    <glyph glyph-name="Uogonek" unicode="&#x172;" horiz-adv-x="755" 
d="M569.65 700.05h95.3887v-496.83c0 -147.08 -102.68 -207.22 -268.26 -211.22c-22.5498 -19.3604 -35.9297 -45.9307 -35.9297 -69.8008c0 -8.19043 1.57031 -16.0605 4.89062 -23.2109c7.66016 -16.8896 28.1699 -25.8594 53.1504 -25.8594
c10.5195 0 21.8291 1.58984 33.3096 4.84961l7.79004 -38c-23.1104 -6.63965 -43.7607 -9.60938 -61.8506 -9.60938c-44.5303 0 -73.5 18.0195 -85.2695 43.6191c-5.0498 11.3398 -7.35938 22.96 -7.35938 34.4297c0 32.04 18.04 62.96 44.9805 83.5801
c-150.67 6 -249.45 65.9404 -249.45 211.221v496.83h95.3896v-496.83c0 -110.13 63.8096 -145.93 181.109 -145.93c127.46 0 192.11 35.0303 192.11 145.931v496.83z" />
    <glyph glyph-name="Uring" unicode="&#x16e;" horiz-adv-x="755" 
d="M383.05 937.43c67.04 0 118.311 -43.6318 118.311 -97.6816c0 -55.0498 -51.4004 -97.6797 -118.311 -97.6797c-68.1299 0 -118.32 42.6904 -118.32 97.6807c0 53.9805 50.0703 97.6807 118.32 97.6807zM383.87 892.647c-33.6699 0 -55.9697 -21.0879 -55.9697 -53.1582
c0 -32.6904 22.1396 -53.6309 55.9697 -53.6309c33.3604 0 55.79 21.1602 55.79 53.6299c0 31.8496 -22.5898 53.1592 -55.79 53.1592zM569.64 700.06l95.3701 -0.000976562v-496.83c0 -152.58 -110.97 -212.22 -287.489 -212.22c-165.38 0 -276.49 58.5898 -276.49 212.22
v496.83h95.3896v-496.83c0 -110.13 63.8096 -145.93 181.109 -145.93c127.46 0 192.11 35.0303 192.11 145.931v496.83z" />
    <glyph glyph-name="Utilde" unicode="&#x168;" horiz-adv-x="755" 
d="M524.27 902.48l44.9004 -28.3105c-34.6504 -34.4102 -71.0508 -62.0703 -109.98 -62.0703c-69.9502 0 -92.2002 50.9902 -140.32 50.9902c-21.8398 0 -50.6396 -22.9102 -73.3096 -43l-46.3301 31.96c38.8604 33.1299 77.2207 58.1699 120.73 58.1699
c68.5898 0 94.5 -49.7598 137.51 -49.7598c19.0098 0 47.8096 25.1201 66.7998 42.0205zM196.45 700.02l-0.0195312 -496.831c0 -110.13 63.8096 -145.93 181.109 -145.93c127.46 0 192.11 35.0303 192.11 145.931v496.83h95.3896v-496.83
c0 -152.58 -110.97 -212.22 -287.489 -212.22c-165.38 0 -276.49 58.5898 -276.49 212.22v496.83h95.3896z" />
    <glyph glyph-name="V" unicode="V" horiz-adv-x="653" 
d="M545.11 699.93h96.5801l-225.8 -699.87h-172.07l-231.62 699.87h96.6396l206.87 -633.87h27.21z" />
    <glyph glyph-name="W" unicode="W" horiz-adv-x="950" 
d="M843.27 699.93h94.9795l-167.6 -699.87h-152.3l-142.56 536.62l-137.84 -536.62h-152.31l-173.42 699.87h95.0195l153.1 -633.87h3.37012l166.51 624.35h90.0703l171.2 -624.35h4.05957z" />
    <glyph glyph-name="Wacute" unicode="&#x1e82;" horiz-adv-x="950" 
d="M363.95 797.66l127.171 124.4h96.9697l-141.61 -124.4h-82.5303zM843.271 699.931h94.9893l-167.6 -699.87h-152.3l-142.56 536.62l-137.84 -536.62h-152.31l-173.42 699.87h95.0195l153.1 -633.87h3.37012l166.51 624.35h90.0703l171.2 -624.35h4.0498z" />
    <glyph glyph-name="Wcircumflex" unicode="&#x174;" horiz-adv-x="950" 
d="M304.17 789.08l147.489 142.49h47.1602l148.73 -142.49h-83.25l-88.0303 85.6602l-89.0195 -85.6602h-83.0801zM843.27 699.931h94.9893l-167.6 -699.87h-152.3l-142.56 536.62l-137.84 -536.62h-152.31l-173.42 699.87h95.0195l153.1 -633.87h3.37012l166.51 624.35
h90.0703l171.2 -624.35h4.0498z" />
    <glyph glyph-name="Wdieresis" unicode="&#x1e84;" horiz-adv-x="950" 
d="M347.57 814.18v76.3896h70.21v-76.3896h-70.21zM532.48 814.18v76.3896h70.21v-76.3896h-70.21zM843.271 699.93h94.9893l-167.6 -699.87h-152.3l-142.56 536.62l-137.84 -536.62h-152.31l-173.42 699.87h95.0195l153.1 -633.87h3.37012l166.51 624.35h90.0703
l171.2 -624.35h4.0498z" />
    <glyph glyph-name="Wgrave" unicode="&#x1e80;" horiz-adv-x="950" 
d="M369.58 931.86h96.9609l127.13 -124.4h-82.4805zM843.271 699.931h94.9893l-167.6 -699.87h-152.3l-142.56 536.62l-137.84 -536.62h-152.31l-173.42 699.87h95.0195l153.1 -633.87h3.37012l166.51 624.35h90.0703l171.2 -624.35h4.0498z" />
    <glyph glyph-name="X" unicode="X" horiz-adv-x="666" 
d="M122.11 699.93l211.859 -294.27l210.83 294.28h109.35l-259.38 -352.73l259.73 -347.14h-109.64l-209.91 290.84l-212.97 -290.84h-109.8l263.22 347.14l-262.87 352.72h109.58z" />
    <glyph glyph-name="Y" unicode="Y" horiz-adv-x="649" 
d="M373.72 300.05l-0.0107422 -299.99h-95.3896v299.96l-266.12 399.91h105.97l207.66 -318.19l204.62 318.19h107.03z" />
    <glyph glyph-name="Yacute" unicode="&#xdd;" horiz-adv-x="649" 
d="M213.75 797.66l127.171 124.4h96.9697l-141.61 -124.4h-82.5303zM373.721 300.051l-0.0107422 -299.99h-95.3896v299.96l-266.12 399.91h105.97l207.66 -318.19l204.62 318.19h107.03z" />
    <glyph glyph-name="Ycircumflex" unicode="&#x176;" horiz-adv-x="649" 
d="M153.97 789.08l147.489 142.49h47.1602l148.73 -142.49h-83.25l-88.0303 85.6602l-89.0195 -85.6602h-83.0801zM373.729 300.051l-0.0107422 -299.99h-95.3896v299.96l-266.12 399.91h105.97l207.66 -318.19l204.62 318.19h107.03z" />
    <glyph glyph-name="Ydieresis" unicode="&#x178;" horiz-adv-x="649" 
d="M197.37 814.18v76.3896h70.21v-76.3896h-70.21zM382.28 814.18v76.3896h70.21v-76.3896h-70.21zM373.721 300.05l-0.0107422 -299.99h-95.3896v299.96l-266.12 399.91h105.97l207.66 -318.19l204.62 318.19h107.03z" />
    <glyph glyph-name="Ydotbelow" unicode="&#x1ef4;" horiz-adv-x="649" 
d="M373.72 300.05l-0.0107422 -299.99h-95.3896v299.96l-266.12 399.91h105.97l207.66 -318.19l204.62 318.19h107.03zM291.179 -86.0107h70.21v-77h-70.21v77z" />
    <glyph glyph-name="Ygrave" unicode="&#x1ef2;" horiz-adv-x="649" 
d="M219.37 931.86h96.9609l127.13 -124.4h-82.4805zM373.711 300.051l-0.0107422 -299.99h-95.3896v299.96l-266.12 399.91h105.97l207.66 -318.19l204.62 318.19h107.03z" />
    <glyph glyph-name="Yhookabove" unicode="&#x1ef6;" horiz-adv-x="649" 
d="M269.88 929.09l-4.4209 32.1299c17.6504 4.16992 41.9502 5.95996 49.5205 5.95996c62.6396 0 79.6299 -20.46 79.6299 -69.2998c0 -40.54 -11.0703 -58.4502 -50.1201 -61.96v-31.0498h-47.0996v65.46h17.9199c23.2002 0 28.4404 3.61035 28.4404 27.54
c0 25.0498 -1.76953 32.3799 -28.3896 32.6602c-4.48047 0 -14.4102 0 -45.4805 -1.44043zM373.739 300.05l-0.0107422 -299.99h-95.3896v299.96l-266.12 399.91h105.97l207.66 -318.19l204.62 318.19h107.03z" />
    <glyph glyph-name="Ytilde" unicode="&#x1ef8;" horiz-adv-x="649" 
d="M466.15 902.48l44.9102 -28.3105c-34.6504 -34.4102 -71.0508 -62.0703 -109.98 -62.0703c-69.9502 0 -92.2002 50.9902 -140.32 50.9902c-21.8398 0 -50.6494 -22.9102 -73.3193 -43l-46.3301 31.96c38.8604 33.1299 77.2207 58.1699 120.73 58.1699
c68.5898 0 94.5 -49.7598 137.51 -49.7598c19.0098 0 47.8096 25.1201 66.7998 42.0205zM373.74 300.03l-0.0107422 -299.99h-95.3896v299.96l-266.12 399.91h105.97l207.66 -318.19l204.62 318.19h107.03z" />
    <glyph glyph-name="Z" unicode="Z" horiz-adv-x="655" 
d="M52.4697 699.91l550.79 -0.00976562v-64.46l-436.01 -570.36h436.01v-66.0898h-550.79v65.5195l435.97 569.4h-435.97v66z" />
    <glyph glyph-name="Zacute" unicode="&#x179;" horiz-adv-x="655" 
d="M216.69 797.66l127.171 124.4h96.9697l-141.61 -124.4h-82.5303zM52.4717 699.91l550.79 -0.00976562v-64.46l-436.01 -570.36h436.01v-66.0898h-550.79v65.5195l435.97 569.4h-435.97v66z" />
    <glyph glyph-name="Zcaron" unicode="&#x17d;" horiz-adv-x="655" 
d="M351.7 789.37h-47.1592l-147.49 142.49h83.0801l89.0195 -85.6602l88.0303 85.6602h83.25zM52.4707 699.91l550.79 -0.00976562v-64.46l-436.01 -570.36h436.01v-66.0898h-550.79v65.5195l435.97 569.4h-435.97v66z" />
    <glyph glyph-name="Zdotaccent" unicode="&#x17b;" horiz-adv-x="655" 
d="M292.76 814.18v76.3896h70.21v-76.3896h-70.21zM52.4697 699.909l550.79 -0.00976562v-64.46l-436.01 -570.36h436.01v-66.0898h-550.79v65.5195l435.97 569.4h-435.97v66z" />
    <glyph glyph-name="a" unicode="a" horiz-adv-x="525" 
d="M96.9404 435.91l-11.1602 59.0391c73.29 7.87012 135.62 14.2803 194.29 14.2803c128.65 0 188.62 -59.4199 188.62 -161.689v-312.6c-55.9404 -18.0596 -142.931 -43.9199 -253.521 -43.9199c-102.31 0 -167.399 54.3203 -167.399 152.011
c0 85.0195 51.5801 139.56 176.97 150.26l149.54 13.8799v43.0898c0 69.4297 -30.4697 98.7695 -94.2295 98.7695c-49.4004 0 -108.19 -5.41992 -183.11 -13.1201zM374.271 72.249v175.88l-139.98 -12.04c-68.5596 -6.26953 -90.25 -37.4297 -90.25 -93.04
c0 -54.9199 27.4805 -92.6396 74.1309 -93.9297c58.7998 0 118.569 13.3496 156.1 23.1299z" />
    <glyph glyph-name="aacute" unicode="&#xe1;" horiz-adv-x="520" 
d="M279.54 722.9h96.9707l-141.61 -124.4h-82.5303zM95.2705 435.91l-11.1396 59.0391c73.29 7.87012 135.62 14.2803 194.29 14.2803c128.65 0 188.62 -59.4199 188.62 -161.689v-312.6c-55.9404 -18.0596 -142.931 -43.9199 -253.521 -43.9199
c-102.32 0 -167.41 54.3203 -167.41 152.011c0 85.0195 51.5801 139.56 176.97 150.26l149.54 13.8799v43.0898c0 69.4297 -30.4697 98.7695 -94.2295 98.7695c-49.4102 0 -108.2 -5.41992 -183.12 -13.1201zM372.621 72.249v175.88l-139.98 -12.04
c-68.5596 -6.26953 -90.25 -37.4297 -90.25 -93.04c0 -54.9199 27.4805 -92.6396 74.1309 -93.9297c58.7998 0 118.569 13.3496 156.1 23.1299z" />
    <glyph glyph-name="abreve" unicode="&#x103;" horiz-adv-x="525" 
d="M326.17 725.28l55.0303 -0.000976562c0 -57.2002 -43.79 -112.28 -116.271 -112.28c-73.79 0 -116.3 55.1904 -116.3 112.271h56.1504c0.929688 -39.3096 29.4492 -58.54 61.249 -58.54c30.5898 0 59.2803 19.2305 60.1406 58.5508zM96.9307 435.909l-11.1602 59.0391
c73.29 7.87012 135.62 14.2803 194.29 14.2803c128.65 0 188.62 -59.4199 188.62 -161.689v-312.6c-55.9404 -18.0596 -142.931 -43.9199 -253.521 -43.9199c-102.31 0 -167.399 54.3203 -167.399 152.011c0 85.0195 51.5801 139.56 176.97 150.26l149.54 13.8799v43.0898
c0 69.4297 -30.4697 98.7695 -94.2295 98.7695c-49.4004 0 -108.19 -5.41992 -183.11 -13.1201zM374.261 72.248v175.88l-139.98 -12.04c-68.5596 -6.26953 -90.25 -37.4297 -90.25 -93.04c0 -54.9199 27.4805 -92.6396 74.1309 -93.9297
c58.7998 0 118.569 13.3496 156.1 23.1299z" />
    <glyph glyph-name="abreveacute" unicode="&#x1eaf;" horiz-adv-x="525" 
d="M153.77 745.83l127.171 124.4h96.9697l-141.61 -124.4h-82.5303zM326.171 725.28l55.0508 0.00976562c0 -57.2002 -43.79 -112.28 -116.271 -112.28c-73.7998 0 -116.31 55.1904 -116.31 112.271h56.1504c0.929688 -39.3203 29.4492 -58.5508 61.249 -58.5508
c30.5898 0 59.2695 19.2305 60.1299 58.5508zM96.9521 435.92l-11.1602 59.0391c73.29 7.87012 135.62 14.2803 194.29 14.2803c128.65 0 188.62 -59.4199 188.62 -161.689v-312.6c-55.9404 -18.0596 -142.931 -43.9199 -253.521 -43.9199
c-102.31 0 -167.399 54.3203 -167.399 152.011c0 85.0195 51.5801 139.56 176.97 150.26l149.54 13.8799v43.0898c0 69.4297 -30.4697 98.7695 -94.2295 98.7695c-49.4004 0 -108.19 -5.41992 -183.11 -13.1201zM374.282 72.2588v175.88l-139.98 -12.04
c-68.5596 -6.26953 -90.25 -37.4297 -90.25 -93.04c0 -54.9199 27.4805 -92.6396 74.1309 -93.9297c58.7998 0 118.569 13.3496 156.1 23.1299z" />
    <glyph glyph-name="abrevedotbelow" unicode="&#x1eb7;" horiz-adv-x="525" 
d="M326.17 725.28l55.0508 0.00976562c0 -57.2002 -43.79 -112.28 -116.271 -112.28c-73.7998 0 -116.31 55.1904 -116.31 112.271h56.1504c0.929688 -39.3203 29.4492 -58.5508 61.249 -58.5508c30.5898 0 59.2695 19.2305 60.1299 58.5508zM96.9512 435.92
l-11.1602 59.0391c73.29 7.87012 135.62 14.2803 194.29 14.2803c128.65 0 188.62 -59.4199 188.62 -161.689v-312.6c-55.9404 -18.0596 -142.931 -43.9199 -253.521 -43.9199c-102.31 0 -167.399 54.3203 -167.399 152.011c0 85.0195 51.5801 139.56 176.97 150.26
l149.54 13.8799v43.0898c0 69.4297 -30.4697 98.7695 -94.2295 98.7695c-49.4004 0 -108.19 -5.41992 -183.11 -13.1201zM374.281 72.2588v175.88l-139.98 -12.04c-68.5596 -6.26953 -90.25 -37.4297 -90.25 -93.04c0 -54.9199 27.4805 -92.6396 74.1309 -93.9297
c58.7998 0 118.569 13.3496 156.1 23.1299zM236.781 -85.9717h70.21v-77h-70.21v77z" />
    <glyph glyph-name="abrevegrave" unicode="&#x1eb1;" horiz-adv-x="525" 
d="M159.39 872.71h96.9609l127.13 -124.4h-82.4805zM326.16 725.28l55.041 -0.000976562c0 -57.2002 -43.79 -112.28 -116.271 -112.28c-73.79 0 -116.3 55.1904 -116.3 112.271h56.1504c0.929688 -39.3096 29.4492 -58.54 61.249 -58.54
c30.5898 0 59.2695 19.2305 60.1299 58.5508zM96.9316 435.909l-11.1602 59.0391c73.29 7.87012 135.62 14.2803 194.29 14.2803c128.65 0 188.62 -59.4199 188.62 -161.689v-312.6c-55.9404 -18.0596 -142.931 -43.9199 -253.521 -43.9199
c-102.31 0 -167.399 54.3203 -167.399 152.011c0 85.0195 51.5801 139.56 176.97 150.26l149.54 13.8799v43.0898c0 69.4297 -30.4697 98.7695 -94.2295 98.7695c-49.4004 0 -108.19 -5.41992 -183.11 -13.1201zM374.262 72.248v175.88l-139.98 -12.04
c-68.5596 -6.26953 -90.25 -37.4297 -90.25 -93.04c0 -54.9199 27.4805 -92.6396 74.1309 -93.9297c58.7998 0 118.569 13.3496 156.1 23.1299z" />
    <glyph glyph-name="abrevehookabove" unicode="&#x1eb3;" horiz-adv-x="525" 
d="M214.96 871.79l-4.4209 32.1299c17.6504 4.16992 41.9502 5.95996 49.5205 5.95996c62.6396 0 79.6299 -20.46 79.6299 -69.2998c0 -40.54 -11.0703 -58.4502 -50.1201 -61.96v-31.0498h-47.0996v65.46h17.9199c23.2002 0 28.4404 3.61035 28.4404 27.54
c0 25.0498 -1.76953 32.3799 -28.3896 32.6602c-4.48047 0 -14.4102 0 -45.4805 -1.44043zM326.179 725.28l55.041 0.00976562c0 -57.2002 -43.79 -112.28 -116.271 -112.28c-73.79 0 -116.3 55.1904 -116.3 112.271h56.1504
c0.929688 -39.3096 29.4492 -58.54 61.249 -58.54c30.5898 0 59.2695 19.2305 60.1299 58.54zM96.9502 435.92l-11.1602 59.0391c73.29 7.87012 135.62 14.2803 194.29 14.2803c128.65 0 188.62 -59.4199 188.62 -161.689v-312.6
c-55.9404 -18.0596 -142.931 -43.9199 -253.521 -43.9199c-102.31 0 -167.399 54.3203 -167.399 152.011c0 85.0195 51.5801 139.56 176.97 150.26l149.54 13.8799v43.0898c0 69.4297 -30.4697 98.7695 -94.2295 98.7695c-49.4004 0 -108.19 -5.41992 -183.11 -13.1201z
M374.28 72.2588v175.88l-139.98 -12.04c-68.5596 -6.26953 -90.25 -37.4297 -90.25 -93.04c0 -54.9199 27.4805 -92.6396 74.1309 -93.9297c58.7998 0 118.569 13.3496 156.1 23.1299z" />
    <glyph glyph-name="abrevetilde" unicode="&#x1eb5;" horiz-adv-x="525" 
d="M127.45 758.52l-46.3301 31.959c38.8604 33.1299 77.2207 58.1699 120.73 58.1699c68.5898 0 94.5 -49.7598 137.51 -49.7598c19.0098 0 47.8096 25.1104 66.7998 42.0107l44.9004 -28.29c-34.6504 -34.4102 -71.0508 -62.0703 -109.98 -62.0703
c-69.9502 0 -92.2002 50.9902 -140.32 50.9902c-21.8398 0 -50.6396 -22.9102 -73.3096 -43.0098zM326.17 725.278l55.041 0.00976562c0 -57.2002 -43.79 -112.28 -116.271 -112.28c-73.79 0 -116.3 55.1904 -116.3 112.271h56.1504
c0.929688 -39.3096 29.4492 -58.54 61.249 -58.54c30.5898 0 59.2695 19.2305 60.1299 58.54zM96.9414 435.918l-11.1602 59.0391c73.29 7.87012 135.62 14.2803 194.29 14.2803c128.65 0 188.62 -59.4199 188.62 -161.689v-312.6
c-55.9404 -18.0596 -142.931 -43.9199 -253.521 -43.9199c-102.31 0 -167.399 54.3203 -167.399 152.011c0 85.0195 51.5801 139.56 176.97 150.26l149.54 13.8799v43.0898c0 69.4297 -30.4697 98.7695 -94.2295 98.7695c-49.4004 0 -108.19 -5.41992 -183.11 -13.1201z
M374.271 72.2568v175.88l-139.98 -12.04c-68.5596 -6.26953 -90.25 -37.4297 -90.25 -93.04c0 -54.9199 27.4805 -92.6396 74.1309 -93.9297c58.7998 0 118.569 13.3496 156.1 23.1299z" />
    <glyph glyph-name="acaron" unicode="&#x1ce;" horiz-adv-x="525" 
d="M288.78 589.37h-47.1689l-147.48 142.49h83.0801l89.0195 -85.6602l88.0303 85.6602h83.25zM96.9316 435.91l-11.1602 59.0391c73.29 7.87012 135.62 14.2803 194.29 14.2803c128.65 0 188.62 -59.4199 188.62 -161.689v-312.6
c-55.9404 -18.0596 -142.931 -43.9199 -253.521 -43.9199c-102.31 0 -167.399 54.3203 -167.399 152.011c0 85.0195 51.5801 139.56 176.97 150.26l149.54 13.8799v43.0898c0 69.4297 -30.4697 98.7695 -94.2295 98.7695c-49.4004 0 -108.19 -5.41992 -183.11 -13.1201z
M374.262 72.249v175.88l-139.98 -12.04c-68.5596 -6.26953 -90.25 -37.4297 -90.25 -93.04c0 -54.9199 27.4805 -92.6396 74.1309 -93.9297c58.7998 0 118.569 13.3496 156.1 23.1299z" />
    <glyph glyph-name="acircumflex" unicode="&#xe2;" horiz-adv-x="520" 
d="M93.9902 589.08l147.489 142.49h47.1602l148.73 -142.49h-83.25l-88.0303 85.6602l-89.0195 -85.6602h-83.0801zM95.2695 435.91l-11.1396 59.0391c73.29 7.87012 135.62 14.2803 194.29 14.2803c128.65 0 188.62 -59.4199 188.62 -161.689v-312.6
c-55.9404 -18.0596 -142.931 -43.9199 -253.521 -43.9199c-102.32 0 -167.41 54.3203 -167.41 152.011c0 85.0195 51.5801 139.56 176.97 150.26l149.54 13.8799v43.0898c0 69.4297 -30.4697 98.7695 -94.2295 98.7695c-49.4102 0 -108.2 -5.41992 -183.12 -13.1201z
M372.62 72.249v175.88l-139.98 -12.04c-68.5596 -6.26953 -90.25 -37.4297 -90.25 -93.04c0 -54.9199 27.4805 -92.6396 74.1309 -93.9297c58.7998 0 118.569 13.3496 156.1 23.1299z" />
    <glyph glyph-name="acircumflexacute" unicode="&#x1ea5;" horiz-adv-x="525" 
d="M351.78 696.49l127.171 124.4h96.9697l-141.61 -124.4h-82.5303zM93.9814 589.081l147.489 142.49h47.1602l148.73 -142.49h-83.25l-88.0303 85.6602l-89.0195 -85.6602h-83.0801zM96.9404 435.911l-11.1602 59.0391c73.29 7.87012 135.62 14.2803 194.29 14.2803
c128.65 0 188.62 -59.4199 188.62 -161.689v-312.6c-55.9404 -18.0596 -142.931 -43.9199 -253.521 -43.9199c-102.31 0 -167.399 54.3203 -167.399 152.011c0 85.0195 51.5801 139.56 176.97 150.26l149.54 13.8799v43.0898c0 69.4297 -30.4697 98.7695 -94.2295 98.7695
c-49.4004 0 -108.19 -5.41992 -183.11 -13.1201zM374.271 72.25v175.88l-139.98 -12.04c-68.5596 -6.26953 -90.25 -37.4297 -90.25 -93.04c0 -54.9199 27.4805 -92.6396 74.1309 -93.9297c58.7998 0 118.569 13.3496 156.1 23.1299z" />
    <glyph glyph-name="acircumflexdotbelow" unicode="&#x1ead;" horiz-adv-x="525" 
d="M93.9902 589.08l147.489 142.49h47.1602l148.73 -142.49h-83.25l-88.0303 85.6602l-89.0195 -85.6602h-83.0801zM96.9492 435.91l-11.1602 59.0391c73.29 7.87012 135.62 14.2803 194.29 14.2803c128.65 0 188.62 -59.4199 188.62 -161.689v-312.6
c-55.9404 -18.0596 -142.931 -43.9199 -253.521 -43.9199c-102.31 0 -167.399 54.3203 -167.399 152.011c0 85.0195 51.5801 139.56 176.97 150.26l149.54 13.8799v43.0898c0 69.4297 -30.4697 98.7695 -94.2295 98.7695c-49.4004 0 -108.19 -5.41992 -183.11 -13.1201z
M374.279 72.249v175.88l-139.98 -12.04c-68.5596 -6.26953 -90.25 -37.4297 -90.25 -93.04c0 -54.9199 27.4805 -92.6396 74.1309 -93.9297c58.7998 0 118.569 13.3496 156.1 23.1299zM236.779 -85.9814h70.21v-77h-70.21v77z" />
    <glyph glyph-name="acircumflexgrave" unicode="&#x1ea7;" horiz-adv-x="525" 
d="M226.37 824.03h96.9609l127.13 -124.4h-82.4805zM93.9814 589.08l147.489 142.49h47.1602l148.73 -142.49h-83.25l-88.0303 85.6602l-89.0195 -85.6602h-83.0801zM96.9404 435.91l-11.1602 59.0391c73.29 7.87012 135.62 14.2803 194.29 14.2803
c128.65 0 188.62 -59.4199 188.62 -161.689v-312.6c-55.9404 -18.0596 -142.931 -43.9199 -253.521 -43.9199c-102.31 0 -167.399 54.3203 -167.399 152.011c0 85.0195 51.5801 139.56 176.97 150.26l149.54 13.8799v43.0898c0 69.4297 -30.4697 98.7695 -94.2295 98.7695
c-49.4004 0 -108.19 -5.41992 -183.11 -13.1201zM374.271 72.249v175.88l-139.98 -12.04c-68.5596 -6.26953 -90.25 -37.4297 -90.25 -93.04c0 -54.9199 27.4805 -92.6396 74.1309 -93.9297c58.7998 0 118.569 13.3496 156.1 23.1299z" />
    <glyph glyph-name="acircumflexhookabove" unicode="&#x1ea9;" horiz-adv-x="525" 
d="M328.81 823.86l-4.4209 32.1406c17.6504 4.16992 41.9502 5.95996 49.5205 5.95996c62.6396 0 79.6299 -20.46 79.6299 -69.2998c0 -40.54 -11.0703 -58.4502 -50.1201 -61.96v-31.0498h-47.0996v65.46h17.9199c23.2002 0 28.4404 3.59961 28.4404 27.5293
c0 25.0498 -1.76953 32.3799 -28.3896 32.6602c-4.48047 0 -14.4102 0 -45.4805 -1.44043zM93.999 589.091l147.489 142.49h47.1602l148.73 -142.49h-83.25l-88.0303 85.6602l-89.0195 -85.6602h-83.0801zM96.958 435.921l-11.1602 59.0391
c73.29 7.87012 135.62 14.2803 194.29 14.2803c128.65 0 188.62 -59.4199 188.62 -161.689v-312.6c-55.9404 -18.0596 -142.931 -43.9199 -253.521 -43.9199c-102.31 0 -167.399 54.3203 -167.399 152.011c0 85.0195 51.5801 139.56 176.97 150.26l149.54 13.8799v43.0898
c0 69.4297 -30.4697 98.7695 -94.2295 98.7695c-49.4004 0 -108.19 -5.41992 -183.11 -13.1201zM374.288 72.2598v175.88l-139.98 -12.04c-68.5596 -6.26953 -90.25 -37.4297 -90.25 -93.04c0 -54.9199 27.4805 -92.6396 74.1309 -93.9297
c58.7998 0 118.569 13.3496 156.1 23.1299z" />
    <glyph glyph-name="acircumflextilde" unicode="&#x1eab;" horiz-adv-x="525" 
d="M406.16 839.11l44.9102 -28.3105c-34.6504 -34.4102 -71.0508 -62.0703 -109.98 -62.0703c-69.9502 0 -92.2002 50.9902 -140.32 50.9902c-21.8398 0 -50.6494 -22.9102 -73.3193 -43l-46.3301 31.96c38.8604 33.1299 77.2207 58.1699 120.73 58.1699
c68.5898 0 94.5 -49.7598 137.51 -49.7598c19.0098 0 47.8096 25.1201 66.7998 42.0205zM94 589.06l147.489 142.49h47.1602l148.73 -142.49h-83.25l-88.0303 85.6602l-89.0195 -85.6602h-83.0801zM96.959 435.89l-11.1602 59.0391
c73.29 7.87012 135.62 14.2803 194.29 14.2803c128.65 0 188.62 -59.4199 188.62 -161.689v-312.6c-55.9404 -18.0596 -142.931 -43.9199 -253.521 -43.9199c-102.31 0 -167.399 54.3203 -167.399 152.011c0 85.0195 51.5801 139.56 176.97 150.26l149.54 13.8799v43.0898
c0 69.4297 -30.4697 98.7695 -94.2295 98.7695c-49.4004 0 -108.19 -5.41992 -183.11 -13.1201zM374.289 72.2285v175.88l-139.98 -12.04c-68.5596 -6.26953 -90.25 -37.4297 -90.25 -93.04c0 -54.9199 27.4805 -92.6396 74.1309 -93.9297
c58.7998 0 118.569 13.3496 156.1 23.1299z" />
    <glyph glyph-name="adieresis" unicode="&#xe4;" horiz-adv-x="520" 
d="M135.99 691.13h70.21v-76.3896h-70.21v76.3896zM320.91 691.13h70.21v-76.3896h-70.21v76.3896zM95.2803 435.91l-11.1396 59.0391c73.29 7.87012 135.62 14.2803 194.29 14.2803c128.65 0 188.62 -59.4199 188.62 -161.689v-312.6
c-55.9404 -18.0596 -142.931 -43.9199 -253.521 -43.9199c-102.32 0 -167.41 54.3203 -167.41 152.011c0 85.0195 51.5801 139.56 176.97 150.26l149.54 13.8799v43.0898c0 69.4297 -30.4697 98.7695 -94.2295 98.7695c-49.4102 0 -108.2 -5.41992 -183.12 -13.1201z
M372.631 72.249v175.88l-139.98 -12.04c-68.5596 -6.26953 -90.25 -37.4297 -90.25 -93.04c0 -54.9199 27.4805 -92.6396 74.1309 -93.9297c58.7998 0 118.569 13.3496 156.1 23.1299z" />
    <glyph glyph-name="adotbelow" unicode="&#x1ea1;" horiz-adv-x="525" 
d="M96.9404 435.91l-11.1602 59.0391c73.29 7.87012 135.62 14.2803 194.29 14.2803c128.65 0 188.62 -59.4199 188.62 -161.689v-312.6c-55.9404 -18.0596 -142.931 -43.9199 -253.521 -43.9199c-102.31 0 -167.399 54.3203 -167.399 152.011
c0 85.0195 51.5801 139.56 176.97 150.26l149.54 13.8799v43.0898c0 69.4297 -30.4697 98.7695 -94.2295 98.7695c-49.4004 0 -108.19 -5.41992 -183.11 -13.1201zM374.271 72.249v175.88l-139.98 -12.04c-68.5596 -6.26953 -90.25 -37.4297 -90.25 -93.04
c0 -54.9199 27.4805 -92.6396 74.1309 -93.9297c58.7998 0 118.569 13.3496 156.1 23.1299zM236.771 -85.9814h70.21v-77h-70.21v77z" />
    <glyph glyph-name="ae" unicode="&#xe6;" horiz-adv-x="876" 
d="M94.9902 435.91l-11.1328 59.0205c73.29 7.87012 135.62 14.2803 194.29 14.2803c80.2305 0 130.551 -25.7803 154.961 -75.5498c36.71 55.1797 95.6104 75.5498 171.15 75.5498c152.34 0 232.5 -71.8398 232.5 -241.21v-45.2305h-364.44
c1.98047 -115.5 35.7305 -173.67 138.551 -173.67c53.2803 0 152.681 19.7695 197.591 29.7197l11.0098 -57.7002c-57.6299 -12.3096 -143.07 -30.0996 -209.87 -30.0996c-82.0303 0 -135.55 22.21 -169.63 62.4199l-26.9697 -31.1396
c-57.6699 -17.0303 -122.02 -31.2803 -199.76 -31.2803c-102.32 0 -167.41 54.3203 -167.41 152.011c0 85.0195 51.5801 139.56 176.97 150.26l149.54 13.8799v43.0898c0 69.4297 -30.4697 98.7695 -94.2295 98.7695c-49.4102 0 -108.2 -5.41992 -183.12 -13.1201z
M472.298 281.051l267.24 -0.000976562c-1.92969 126.65 -42.4297 169.881 -135.279 169.881c-88.6504 0 -129.98 -44.0703 -131.961 -169.88zM372.358 72.2295v175.88l-139.98 -12.04c-68.5596 -6.26953 -90.25 -37.4297 -90.25 -93.04
c0 -54.9199 27.4805 -92.6396 74.1309 -93.9297c58.7998 0 118.569 13.3496 156.1 23.1299z" />
    <glyph glyph-name="agrave" unicode="&#xe0;" horiz-adv-x="520" 
d="M158 723.07h96.9609l127.13 -124.4h-82.4805zM95.2607 435.91l-11.1396 59.0391c73.29 7.87012 135.62 14.2803 194.29 14.2803c128.65 0 188.62 -59.4199 188.62 -161.689v-312.6c-55.9404 -18.0596 -142.931 -43.9199 -253.521 -43.9199
c-102.32 0 -167.41 54.3203 -167.41 152.011c0 85.0195 51.5801 139.56 176.97 150.26l149.54 13.8799v43.0898c0 69.4297 -30.4697 98.7695 -94.2295 98.7695c-49.4102 0 -108.2 -5.41992 -183.12 -13.1201zM372.611 72.249v175.88l-139.98 -12.04
c-68.5596 -6.26953 -90.25 -37.4297 -90.25 -93.04c0 -54.9199 27.4805 -92.6396 74.1309 -93.9297c58.7998 0 118.569 13.3496 156.1 23.1299z" />
    <glyph glyph-name="ahookabove" unicode="&#x1ea3;" horiz-adv-x="525" 
d="M214.96 672.24l-4.4209 32.1406c17.6504 4.16992 41.9502 5.95996 49.5205 5.95996c62.6396 0 79.6299 -20.46 79.6299 -69.2998c0 -40.54 -11.0703 -58.4502 -50.1201 -61.96v-31.0498h-47.0996v65.46h17.9199c23.2002 0 28.4404 3.59961 28.4404 27.5293
c0 25.0498 -1.76953 32.3799 -28.3896 32.6602c-4.48047 0 -14.4102 0 -45.4805 -1.44043zM96.9492 435.911l-11.1602 59.0391c73.29 7.87012 135.62 14.2803 194.29 14.2803c128.65 0 188.62 -59.4199 188.62 -161.689v-312.6
c-55.9404 -18.0596 -142.931 -43.9199 -253.521 -43.9199c-102.31 0 -167.399 54.3203 -167.399 152.011c0 85.0195 51.5801 139.56 176.97 150.26l149.54 13.8799v43.0898c0 69.4297 -30.4697 98.7695 -94.2295 98.7695c-49.4004 0 -108.19 -5.41992 -183.11 -13.1201z
M374.279 72.25v175.88l-139.98 -12.04c-68.5596 -6.26953 -90.25 -37.4297 -90.25 -93.04c0 -54.9199 27.4805 -92.6396 74.1309 -93.9297c58.7998 0 118.569 13.3496 156.1 23.1299z" />
    <glyph glyph-name="amacron" unicode="&#x101;" horiz-adv-x="525" 
d="M435.76 635.71h-341.64v54.21h341.64v-54.21zM96.9404 435.91l-11.1602 59.0391c73.29 7.87012 135.62 14.2803 194.29 14.2803c128.65 0 188.62 -59.4199 188.62 -161.689v-312.6c-55.9404 -18.0596 -142.931 -43.9199 -253.521 -43.9199
c-102.31 0 -167.399 54.3203 -167.399 152.011c0 85.0195 51.5801 139.56 176.97 150.26l149.54 13.8799v43.0898c0 69.4297 -30.4697 98.7695 -94.2295 98.7695c-49.4004 0 -108.19 -5.41992 -183.11 -13.1201zM374.271 72.249v175.88l-139.98 -12.04
c-68.5596 -6.26953 -90.25 -37.4297 -90.25 -93.04c0 -54.9199 27.4805 -92.6396 74.1309 -93.9297c58.7998 0 118.569 13.3496 156.1 23.1299z" />
    <glyph glyph-name="aogonek" unicode="&#x105;" horiz-adv-x="525" 
d="M469.57 -100l7.80859 -37.958c-23.0195 -6.62012 -43.5996 -9.60059 -61.6396 -9.60059c-44.6504 0 -73.7002 18.2402 -85.4902 44.6006c-5.04004 11.3496 -7.34961 23.0596 -7.34961 34.6494c0 27.21 12.7402 53.7598 32.7705 73.5098
c-42.2002 -9.16016 -88.7002 -14.1602 -140.521 -14.1602c-102.31 0 -167.399 54.3203 -167.399 152.011c0 85.0195 51.5801 139.56 176.97 150.26l149.54 13.8799v43.0898c0 69.4297 -30.4697 98.7695 -94.2295 98.7695c-49.4004 0 -108.19 -5.41992 -183.11 -13.1201
l-11.1797 59c73.29 7.87012 135.62 14.2803 194.29 14.2803c128.65 0 188.62 -59.4199 188.62 -161.689v-312.6c-11.6104 -3.66016 -27.6807 -8.9502 -47.251 -14.25c-26.8096 -18.8301 -43.1895 -48.9404 -43.1895 -75.9209c0 -8.36035 1.57031 -16.4199 4.89062 -23.75
c7.79004 -16.46 28.8701 -25.2402 54.4199 -25.2402c10.1602 0 21.0303 1.38965 32.0498 4.23926zM374.269 72.2617v175.88l-139.98 -12.04c-68.5596 -6.26953 -90.25 -37.4297 -90.25 -93.04c0 -54.9199 27.4805 -92.6396 74.1309 -93.9297
c58.7998 0 118.569 13.3496 156.1 23.1299z" />
    <glyph glyph-name="aring" unicode="&#xe5;" horiz-adv-x="520" 
d="M263.66 737.47c67.04 0 118.311 -43.6416 118.311 -97.6816c0 -55.0498 -51.4004 -97.6797 -118.311 -97.6797c-68.1299 0 -118.32 42.6904 -118.32 97.6807c0 53.9805 50.0703 97.6807 118.32 97.6807zM264.48 692.678c-33.6699 0 -55.9697 -21.0781 -55.9697 -53.1484
c0 -32.6904 22.1396 -53.6309 55.9697 -53.6309c33.3604 0 55.79 21.1602 55.79 53.6201c0 31.8496 -22.5898 53.1592 -55.79 53.1592zM95.2598 435.92l-11.1396 59.0391c73.29 7.87012 135.62 14.2803 194.29 14.2803c128.65 0 188.62 -59.4199 188.62 -161.689v-312.6
c-55.9404 -18.0596 -142.931 -43.9199 -253.521 -43.9199c-102.32 0 -167.41 54.3203 -167.41 152.011c0 85.0195 51.5801 139.56 176.97 150.26l149.54 13.8799v43.0898c0 69.4297 -30.4697 98.7695 -94.2295 98.7695c-49.4102 0 -108.2 -5.41992 -183.12 -13.1201z
M372.61 72.2588v175.88l-139.98 -12.04c-68.5596 -6.26953 -90.25 -37.4297 -90.25 -93.04c0 -54.9199 27.4805 -92.6396 74.1309 -93.9297c58.7998 0 118.569 13.3496 156.1 23.1299z" />
    <glyph glyph-name="atilde" unicode="&#xe3;" horiz-adv-x="520" 
d="M404.67 702.84l44.9004 -28.3008c-34.6504 -34.4102 -71.0508 -62.0703 -109.98 -62.0703c-69.9502 0 -92.2002 50.9902 -140.32 50.9902c-21.8398 0 -50.6396 -22.9102 -73.3096 -43.0098l-46.3301 31.96c38.8604 33.1299 77.2207 58.1699 120.73 58.1699
c68.5898 0 94.5 -49.7598 137.51 -49.7598c19.0098 0 47.8096 25.1201 66.7998 42.0205zM95.2705 435.899l-11.1396 59.0391c73.29 7.87012 135.62 14.2803 194.29 14.2803c128.65 0 188.62 -59.4199 188.62 -161.689v-312.6
c-55.9404 -18.0596 -142.931 -43.9199 -253.521 -43.9199c-102.32 0 -167.41 54.3203 -167.41 152.011c0 85.0195 51.5801 139.56 176.97 150.26l149.54 13.8799v43.0898c0 69.4297 -30.4697 98.7695 -94.2295 98.7695c-49.4102 0 -108.2 -5.41992 -183.12 -13.1201z
M372.621 72.2383v175.88l-139.98 -12.04c-68.5596 -6.26953 -90.25 -37.4297 -90.25 -93.04c0 -54.9199 27.4805 -92.6396 74.1309 -93.9297c58.7998 0 118.569 13.3496 156.1 23.1299z" />
    <glyph glyph-name="b" unicode="b" horiz-adv-x="552" 
d="M67.5703 699.8l94.1592 -0.0214844v-210.51c30.2803 8.9502 78.9102 20.96 129.2 20.96c172.87 0 214.98 -82.2695 214.98 -248.779c0 -179.93 -52.9199 -269.449 -278.83 -269.449c-52.8896 0 -100.72 3 -159.51 8v699.8zM161.729 430.458l-0.000976562 -377.51
c20.9502 -1.01953 47.54 -2.12988 67.4805 -2.12988c4.08008 0 7.87988 0.0498047 11.2998 0.149414c146.4 2.5498 169.021 67.3193 169.021 208.569c0 138.19 -21.3496 192.4 -118.6 192.4c-50.2197 0 -98.5098 -12.1396 -129.2 -21.4795z" />
    <glyph glyph-name="c" unicode="c" horiz-adv-x="479" 
d="M445.17 74.0801l3.6709 -60.4697c-24.1797 -4.45996 -105.35 -20.6104 -155.14 -22.6104c-198.48 -9 -246.24 72.6797 -246.24 258.67c0 185.96 47.6602 268.6 246.16 259.529c48.5996 -1.9502 132.13 -18.2803 155.149 -22.1699l-2.29004 -52.5996
c-18.5498 0.120117 -113.62 15.9805 -155.28 17.8203c-124.4 5.65039 -147.681 -50.2393 -147.681 -202.589c0 -152.33 23.1904 -207.29 147.69 -201.63c39.6797 1.76953 120.5 19.4893 153.96 26.0488z" />
    <glyph glyph-name="cacute" unicode="&#x107;" horiz-adv-x="479" 
d="M134.87 586.04l127.171 124.4h96.9697l-141.61 -124.4h-82.5303zM445.161 74.0703l3.6709 -60.4697c-24.1797 -4.45996 -105.35 -20.6104 -155.14 -22.6104c-198.48 -9 -246.24 72.6797 -246.24 258.67c0 185.96 47.6602 268.6 246.16 259.529
c48.5996 -1.9502 132.13 -18.2803 155.149 -22.1699l-2.29004 -52.5996c-18.5498 0.120117 -113.62 15.9805 -155.28 17.8203c-124.4 5.65039 -147.681 -50.2393 -147.681 -202.589c0 -152.33 23.1904 -207.29 147.69 -201.63c39.6797 1.76953 120.5 19.4893 153.96 26.0488
z" />
    <glyph glyph-name="ccaron" unicode="&#x10d;" horiz-adv-x="479" 
d="M269.89 577.75h-47.1689l-147.48 142.49h83.0801l89.0195 -85.6602l88.0303 85.6602h83.25zM445.161 74.0801l3.6709 -60.4697c-24.1797 -4.45996 -105.35 -20.6104 -155.14 -22.6104c-198.48 -9 -246.24 72.6797 -246.24 258.67c0 185.96 47.6602 268.6 246.16 259.529
c48.5996 -1.9502 132.13 -18.2803 155.149 -22.1699l-2.29004 -52.5996c-18.5498 0.120117 -113.62 15.9805 -155.28 17.8203c-124.4 5.65039 -147.681 -50.2393 -147.681 -202.589c0 -152.33 23.1904 -207.29 147.69 -201.63c39.6797 1.76953 120.5 19.4893 153.96 26.0488
z" />
    <glyph glyph-name="ccedilla" unicode="&#xe7;" horiz-adv-x="474" 
d="M192.99 -75l34.4404 66c-150.2 9.95996 -188.45 92.71 -188.45 258.67c0 185.96 47.6699 268.6 246.17 259.529c48.5996 -1.9502 132.13 -18.2803 155.149 -22.1699l-2.29004 -52.5996c-18.5498 0.120117 -113.62 15.9805 -155.28 17.8203
c-124.4 5.65039 -147.681 -50.2393 -147.681 -202.589c0 -152.33 23.1904 -207.29 147.69 -201.63c39.6904 1.76953 120.511 19.4893 153.971 26.0488l3.66016 -60.4697c-15.5898 -2.87988 -90.1797 -17.6104 -135.16 -21.6104l-29.8604 -2l-17.9297 -30
c39.3398 -4 50.4102 -22 50.4102 -62c0 -49 -19.7803 -70 -82.4199 -70c-5.05957 0 -32.6396 1 -58.8096 6l4.44043 33l57.5596 -2c26.6201 0 28.3896 8 28.3896 33c0 24 -5.24023 27 -28.4404 27h-35.5596z" />
    <glyph glyph-name="cdotaccent" unicode="&#x10b;" horiz-adv-x="479" 
d="M210.95 602.56v76.3896h70.21v-76.3896h-70.21zM445.17 74.0791l3.6709 -60.4697c-24.1797 -4.45996 -105.35 -20.6104 -155.14 -22.6104c-198.48 -9 -246.24 72.6797 -246.24 258.67c0 185.96 47.6602 268.6 246.16 259.529
c48.5996 -1.9502 132.13 -18.2803 155.149 -22.1699l-2.29004 -52.5996c-18.5498 0.120117 -113.62 15.9805 -155.28 17.8203c-124.4 5.65039 -147.681 -50.2393 -147.681 -202.589c0 -152.33 23.1904 -207.29 147.69 -201.63c39.6797 1.76953 120.5 19.4893 153.96 26.0488
z" />
    <glyph glyph-name="d" unicode="d" horiz-adv-x="552" 
d="M391.64 489.28l-0.0107422 210.531h95.6699v-699.8c-60.2998 -5 -108.13 -8 -161.02 -8c-225.91 0 -278.83 89.5195 -278.83 269.449c0 166.51 42.1104 248.779 214.98 248.779c50.29 0 98.9199 -12.0098 129.21 -20.96zM391.629 52.9814l-0.00195312 377.51
c-30.6299 9.33984 -78.9199 21.4795 -129.14 21.4795c-97.25 0 -118.6 -54.21 -118.6 -192.4c0 -141.25 22.6201 -206.02 169.021 -208.569c3.41992 -0.0996094 7.21973 -0.149414 11.2998 -0.149414c19.9404 0 46.5205 1.11035 67.4209 2.12988z" />
    <glyph glyph-name="dcaron" unicode="&#x10f;" horiz-adv-x="552" 
d="M51.6299 516.91l51.3701 220.18h98.7695l-62.9199 -220.18h-87.2197zM391.64 489.28l-0.0107422 210.531h95.6699v-699.8c-60.2998 -5 -108.13 -8 -161.02 -8c-225.91 0 -278.83 89.5195 -278.83 269.449c0 166.51 42.1104 248.779 214.98 248.779
c50.29 0 98.9199 -12.0098 129.21 -20.96zM391.629 52.9814l-0.00195312 377.51c-30.6299 9.33984 -78.9199 21.4795 -129.14 21.4795c-97.25 0 -118.6 -54.21 -118.6 -192.4c0 -141.25 22.6201 -206.02 169.021 -208.569
c3.41992 -0.0996094 7.21973 -0.149414 11.2998 -0.149414c19.9404 0 46.5205 1.11035 67.4209 2.12988z" />
    <glyph glyph-name="dcroat" unicode="&#x111;" horiz-adv-x="604" 
d="M600.56 630.34v-54.1982h-113.25v-576.13c-60.2998 -5 -108.13 -8 -161.02 -8c-225.91 0 -278.83 89.5195 -278.83 269.449c0 166.51 42.1104 248.779 214.98 248.779c50.29 0 98.9199 -12.0098 129.229 -20.96v86.8496h-132.75v54.21h132.72v69.46h94.2998v-69.46
h114.62zM391.569 52.9717l-0.00195312 377.51c-30.6299 9.33984 -78.9199 21.4795 -129.14 21.4795c-97.25 0 -118.6 -54.21 -118.6 -192.4c0 -141.25 22.6201 -206.02 169.021 -208.569c3.41992 -0.0996094 7.21973 -0.149414 11.2998 -0.149414
c19.9404 0 46.5205 1.11035 67.4209 2.12988z" />
    <glyph glyph-name="dotlessi" unicode="&#x131;" horiz-adv-x="221" 
d="M71 0v500h91.7695v-500h-91.7695z" />
    <glyph glyph-name="e" unicode="e" horiz-adv-x="547" 
d="M480.83 78.8096l10.998 -57.6992c-57.6299 -12.3096 -143.06 -30.0996 -209.859 -30.0996c-186.3 1 -234.53 102.14 -234.53 259c0 194.27 87.8398 259.199 229.2 259.199c152.34 0 232.5 -71.8398 232.5 -241.21v-45.2402h-364.45
c1.98047 -115.5 35.7305 -173.67 138.551 -173.67c53.2803 0 152.681 19.7695 197.591 29.7197zM144.678 281.04l267.24 -0.000976562c-1.92969 126.65 -42.4297 169.881 -135.279 169.881c-88.6504 0 -129.98 -44.0703 -131.961 -169.88z" />
    <glyph glyph-name="eacute" unicode="&#xe9;" horiz-adv-x="547" 
d="M303.79 722.62h96.9707l-141.61 -124.4h-82.5303zM480.841 78.7998l10.998 -57.709c-57.6299 -12.3096 -143.06 -30.0996 -209.859 -30.0996c-186.3 1 -234.53 102.14 -234.53 259c0 194.27 87.8398 259.199 229.2 259.199c152.34 0 232.5 -71.8398 232.5 -241.21
v-45.2305h-364.45c1.98047 -115.5 35.7305 -173.67 138.551 -173.67c53.2803 0 152.681 19.7695 197.591 29.7197zM144.688 281.021l267.24 -0.000976562c-1.92969 126.65 -42.4297 169.881 -135.279 169.881c-88.6504 0 -129.98 -44.0703 -131.961 -169.88z" />
    <glyph glyph-name="ecaron" unicode="&#x11b;" horiz-adv-x="547" 
d="M311.63 589.37h-47.1592l-147.49 142.49h83.0801l89.0195 -85.6602l88.0303 85.6602h83.25zM480.831 78.8105l10.998 -57.709c-57.6299 -12.3096 -143.06 -30.0996 -209.859 -30.0996c-186.3 1 -234.53 102.14 -234.53 259c0 194.27 87.8398 259.199 229.2 259.199
c152.34 0 232.5 -71.8398 232.5 -241.21v-45.2305h-364.45c1.98047 -115.5 35.7305 -173.67 138.551 -173.67c53.2803 0 152.681 19.7695 197.591 29.7197zM144.679 281.031l267.24 -0.000976562c-1.92969 126.65 -42.4297 169.881 -135.279 169.881
c-88.6504 0 -129.98 -44.0703 -131.961 -169.88z" />
    <glyph glyph-name="ecircumflex" unicode="&#xea;" horiz-adv-x="547" 
d="M264.32 723.07h47.1592l148.73 -142.49h-83.25l-88.0303 85.6602l-89.0195 -85.6602h-83.0801zM480.829 78.8008l10.998 -57.709c-57.6299 -12.3096 -143.06 -30.0996 -209.859 -30.0996c-186.3 1 -234.53 102.14 -234.53 259c0 194.27 87.8398 259.199 229.2 259.199
c152.34 0 232.5 -71.8398 232.5 -241.21v-45.2305h-364.45c1.98047 -115.5 35.7305 -173.67 138.551 -173.67c53.2803 0 152.681 19.7695 197.591 29.7197zM144.677 281.021l267.24 -0.000976562c-1.92969 126.65 -42.4297 169.881 -135.279 169.881
c-88.6504 0 -129.98 -44.0703 -131.961 -169.88z" />
    <glyph glyph-name="ecircumflexacute" unicode="&#x1ebf;" horiz-adv-x="547" 
d="M390.58 691.1l127.171 124.4h96.9697l-141.61 -124.4h-82.5303zM132.781 583.69l147.489 142.49h47.1602l148.73 -142.49h-83.25l-88.0303 85.6602l-89.0195 -85.6602h-83.0801zM480.83 78.8008l10.998 -57.709c-57.6299 -12.3096 -143.06 -30.0996 -209.859 -30.0996
c-186.3 1 -234.53 102.14 -234.53 259c0 194.27 87.8398 259.199 229.2 259.199c152.34 0 232.5 -71.8398 232.5 -241.21v-45.2305h-364.45c1.98047 -115.5 35.7305 -173.67 138.551 -173.67c53.2803 0 152.681 19.7695 197.591 29.7197zM144.678 281.021
l267.24 -0.000976562c-1.92969 126.65 -42.4297 169.881 -135.279 169.881c-88.6504 0 -129.98 -44.0703 -131.961 -169.88z" />
    <glyph glyph-name="ecircumflexdotbelow" unicode="&#x1ec7;" horiz-adv-x="547" 
d="M116.84 589.08l147.489 142.49h47.1602l148.73 -142.49h-83.25l-88.0303 85.6602l-89.0195 -85.6602h-83.0801zM480.839 78.8105l10.998 -57.709c-57.6299 -12.3096 -143.06 -30.0996 -209.859 -30.0996c-186.3 1 -234.53 102.14 -234.53 259
c0 194.27 87.8398 259.199 229.2 259.199c152.34 0 232.5 -71.8398 232.5 -241.21v-45.2305h-364.45c1.98047 -115.5 35.7305 -173.67 138.551 -173.67c53.2803 0 152.681 19.7695 197.591 29.7197zM144.687 281.031l267.24 -0.000976562
c-1.92969 126.65 -42.4297 169.881 -135.279 169.881c-88.6504 0 -129.98 -44.0703 -131.961 -169.88zM236.767 -86h70.21v-77h-70.21v77z" />
    <glyph glyph-name="ecircumflexgrave" unicode="&#x1ec1;" horiz-adv-x="547" 
d="M249.37 824.03h96.9609l127.13 -124.4h-82.4805zM116.981 589.08l147.489 142.49h47.1602l148.73 -142.49h-83.25l-88.0303 85.6602l-89.0195 -85.6602h-83.0801zM480.831 78.8105l10.998 -57.709c-57.6299 -12.3096 -143.06 -30.0996 -209.859 -30.0996
c-186.3 1 -234.53 102.14 -234.53 259c0 194.27 87.8398 259.199 229.2 259.199c152.34 0 232.5 -71.8398 232.5 -241.21v-45.2305h-364.45c1.98047 -115.5 35.7305 -173.67 138.551 -173.67c53.2803 0 152.681 19.7695 197.591 29.7197zM144.679 281.031
l267.24 -0.000976562c-1.92969 126.65 -42.4297 169.881 -135.279 169.881c-88.6504 0 -129.98 -44.0703 -131.961 -169.88z" />
    <glyph glyph-name="ecircumflexhookabove" unicode="&#x1ec3;" horiz-adv-x="547" 
d="M351.09 823.86l-4.44043 32.1406c17.6504 4.16992 41.9502 5.95996 49.5205 5.95996c62.6396 0 79.6299 -20.46 79.6299 -69.2998c0 -40.54 -11.0703 -58.4502 -50.1201 -61.96v-31.0498h-47.0996v65.46h17.9199c23.2002 0 28.4404 3.59961 28.4404 27.5293
c0 25.0498 -1.75977 32.3799 -28.3799 32.6602c-4.48047 0 -14.4004 0 -45.4707 -1.44043zM116.26 589.091l147.489 142.49h47.1602l148.73 -142.49h-83.25l-88.0303 85.6602l-89.0195 -85.6602h-83.0801zM480.829 78.8213l10.998 -57.709
c-57.6299 -12.3096 -143.06 -30.0996 -209.859 -30.0996c-186.3 1 -234.53 102.14 -234.53 259c0 194.27 87.8398 259.199 229.2 259.199c152.34 0 232.5 -71.8398 232.5 -241.21v-45.2305h-364.45c1.98047 -115.5 35.7305 -173.67 138.551 -173.67
c53.2803 0 152.681 19.7695 197.591 29.7197zM144.677 281.042l267.24 -0.000976562c-1.92969 126.65 -42.4297 169.881 -135.279 169.881c-88.6504 0 -129.98 -44.0703 -131.961 -169.88z" />
    <glyph glyph-name="ecircumflextilde" unicode="&#x1ec5;" horiz-adv-x="547" 
d="M428.6 839.11l44.9004 -28.3105c-34.6504 -34.4102 -71.0508 -62.0703 -109.98 -62.0703c-69.9502 0 -92.2002 50.9902 -140.32 50.9902c-21.8398 0 -50.6396 -22.9102 -73.3096 -43l-46.3301 31.96c38.8604 33.1299 77.2207 58.1699 120.73 58.1699
c68.5898 0 94.5 -49.7598 137.51 -49.7598c19.0098 0 47.8096 25.1201 66.7998 42.0205zM116.43 589.06l147.489 142.49h47.1602l148.73 -142.49h-83.25l-88.0303 85.6602l-89.0195 -85.6602h-83.0801zM480.839 78.79l10.998 -57.709
c-57.6299 -12.3096 -143.06 -30.0996 -209.859 -30.0996c-186.3 1 -234.53 102.14 -234.53 259c0 194.27 87.8398 259.199 229.2 259.199c152.34 0 232.5 -71.8398 232.5 -241.21v-45.2305h-364.45c1.98047 -115.5 35.7305 -173.67 138.551 -173.67
c53.2803 0 152.681 19.7695 197.591 29.7197zM144.687 281.011l267.24 -0.000976562c-1.92969 126.65 -42.4297 169.881 -135.279 169.881c-88.6504 0 -129.98 -44.0703 -131.961 -169.88z" />
    <glyph glyph-name="edieresis" unicode="&#xeb;" horiz-adv-x="547" 
d="M160.23 690.57h70.21v-76.3896h-70.21v76.3896zM345.15 690.57h70.21v-76.3896h-70.21v76.3896zM480.841 78.8105l10.998 -57.709c-57.6299 -12.3096 -143.06 -30.0996 -209.859 -30.0996c-186.3 1 -234.53 102.14 -234.53 259c0 194.27 87.8398 259.199 229.2 259.199
c152.34 0 232.5 -71.8398 232.5 -241.21v-45.2305h-364.45c1.98047 -115.5 35.7305 -173.67 138.551 -173.67c53.2803 0 152.681 19.7695 197.591 29.7197zM144.688 281.031l267.24 -0.000976562c-1.92969 126.65 -42.4297 169.881 -135.279 169.881
c-88.6504 0 -129.98 -44.0703 -131.961 -169.88z" />
    <glyph glyph-name="edotaccent" unicode="&#x117;" horiz-adv-x="547" 
d="M252.69 614.18v76.3896h70.21v-76.3896h-70.21zM480.83 78.8096l10.998 -57.709c-57.6299 -12.3096 -143.06 -30.0996 -209.859 -30.0996c-186.3 1 -234.53 102.14 -234.53 259c0 194.27 87.8398 259.199 229.2 259.199c152.34 0 232.5 -71.8398 232.5 -241.21v-45.2305
h-364.45c1.98047 -115.5 35.7305 -173.67 138.551 -173.67c53.2803 0 152.681 19.7695 197.591 29.7197zM144.678 281.03l267.24 -0.000976562c-1.92969 126.65 -42.4297 169.881 -135.279 169.881c-88.6504 0 -129.98 -44.0703 -131.961 -169.88z" />
    <glyph glyph-name="edotbelow" unicode="&#x1eb9;" horiz-adv-x="547" 
d="M480.83 78.8096l10.998 -57.6992c-57.6299 -12.3096 -143.06 -30.0996 -209.859 -30.0996c-186.3 1 -234.53 102.14 -234.53 259c0 194.27 87.8398 259.199 229.2 259.199c152.34 0 232.5 -71.8398 232.5 -241.21v-45.2402h-364.45
c1.98047 -115.5 35.7305 -173.67 138.551 -173.67c53.2803 0 152.681 19.7695 197.591 29.7197zM144.678 281.04l267.24 -0.000976562c-1.92969 126.65 -42.4297 169.881 -135.279 169.881c-88.6504 0 -129.98 -44.0703 -131.961 -169.88zM236.758 -85.9912h70.21v-77
h-70.21v77z" />
    <glyph glyph-name="egrave" unicode="&#xe8;" horiz-adv-x="547" 
d="M182.24 723.07h96.9609l127.13 -124.4h-82.4805zM480.831 78.8008l10.998 -57.709c-57.6299 -12.3096 -143.06 -30.0996 -209.859 -30.0996c-186.3 1 -234.53 102.14 -234.53 259c0 194.27 87.8398 259.199 229.2 259.199c152.34 0 232.5 -71.8398 232.5 -241.21
v-45.2305h-364.45c1.98047 -115.5 35.7305 -173.67 138.551 -173.67c53.2803 0 152.681 19.7695 197.591 29.7197zM144.679 281.021l267.24 -0.000976562c-1.92969 126.65 -42.4297 169.881 -135.279 169.881c-88.6504 0 -129.98 -44.0703 -131.961 -169.88z" />
    <glyph glyph-name="ehookabove" unicode="&#x1ebb;" horiz-adv-x="547" 
d="M214.96 672.24l-4.4209 32.1406c17.6504 4.16992 41.9502 5.95996 49.5205 5.95996c62.6396 0 79.6299 -20.46 79.6299 -69.2998c0 -40.54 -11.0703 -58.4502 -50.1201 -61.96v-31.0498h-47.0996v65.46h17.9199c23.2002 0 28.4404 3.59961 28.4404 27.5293
c0 25.0498 -1.76953 32.3799 -28.3896 32.6602c-4.48047 0 -14.4102 0 -45.4805 -1.44043zM480.849 78.8105l10.998 -57.709c-57.6299 -12.3096 -143.06 -30.0996 -209.859 -30.0996c-186.3 1 -234.53 102.14 -234.53 259c0 194.27 87.8398 259.199 229.2 259.199
c152.34 0 232.5 -71.8398 232.5 -241.21v-45.2305h-364.45c1.98047 -115.5 35.7305 -173.67 138.551 -173.67c53.2803 0 152.681 19.7695 197.591 29.7197zM144.696 281.031l267.24 -0.000976562c-1.92969 126.65 -42.4297 169.881 -135.279 169.881
c-88.6504 0 -129.98 -44.0703 -131.961 -169.88z" />
    <glyph glyph-name="emacron" unicode="&#x113;" horiz-adv-x="547" 
d="M458.61 635.71h-341.64v54.21h341.64v-54.21zM480.831 78.8096l10.998 -57.709c-57.6299 -12.3096 -143.06 -30.0996 -209.859 -30.0996c-186.3 1 -234.53 102.14 -234.53 259c0 194.27 87.8398 259.199 229.2 259.199c152.34 0 232.5 -71.8398 232.5 -241.21v-45.2305
h-364.45c1.98047 -115.5 35.7305 -173.67 138.551 -173.67c53.2803 0 152.681 19.7695 197.591 29.7197zM144.679 281.03l267.24 -0.000976562c-1.92969 126.65 -42.4297 169.881 -135.279 169.881c-88.6504 0 -129.98 -44.0703 -131.961 -169.88z" />
    <glyph glyph-name="eng" unicode="&#x14b;" horiz-adv-x="579" 
d="M67.46 0l-0.0205078 463.629c79.8896 30.4805 145.699 45.8008 223.52 45.8008c169.43 0 230.97 -82.0703 230.97 -248.78v-267.65c0 -151 -63.5898 -170 -144.88 -170c-24.71 0 -64.8301 5 -105.43 19l14.4805 54l38.4404 -9
c10.5596 -2.51953 26.5898 -6.45996 37.2998 -6.45996c2.03027 0 3.87012 0.139648 5.44043 0.459961c41.9102 2 58.2002 19 58.1699 112v267.63c0 136.94 -34.5 190.53 -134.48 190.53c-50.4297 0 -98.5 -12.1396 -129.25 -21.4795v-429.68h-94.2598z" />
    <glyph glyph-name="eogonek" unicode="&#x119;" horiz-adv-x="547" 
d="M509.14 267.99l0.00878906 -45.2373h-364.45c1.98047 -115.5 35.7305 -173.67 138.551 -173.67c53.2803 0 152.681 19.7695 197.591 29.7197l11.0098 -57.7002c-51.2197 -10.9697 -126.21 -27.0996 -189.11 -30.0996
c-22.46 -19.3701 -35.8604 -45.9502 -35.8604 -69.8203c0 -8.17969 1.57031 -16.04 4.89062 -23.1797c7.79004 -16.46 28.8701 -25.2402 54.4199 -25.2402c10.1602 0 21.0303 1.38965 32.0498 4.23926l7.79004 -38c-23.0195 -6.62012 -43.5996 -9.60059 -61.6396 -9.60059
c-44.6504 0 -73.7002 18.2402 -85.4902 44.6006c-5.0498 11.3701 -7.35938 23.0098 -7.35938 34.5098c0 32.0098 17.9297 62.8896 44.7393 83.4893c-165.08 8.96973 -208.84 108.18 -208.84 258c0 194.27 87.8398 259.199 229.2 259.199
c152.34 0 232.5 -71.8398 232.5 -241.21zM144.698 281.033l267.24 -0.000976562c-1.92969 126.65 -42.4297 169.881 -135.279 169.881c-88.6504 0 -129.98 -44.0703 -131.961 -169.88z" />
    <glyph glyph-name="eth" unicode="&#xf0;" 
d="M505.4 645.08l83.8076 64.9893l28.46 -36.7197l-76.8096 -59.4502c46.8604 -55.0801 73.1807 -138.36 73.1807 -257.301c0 -243.93 -83.3701 -365.569 -280.78 -365.569c-184.59 0 -269.359 92.9697 -269.359 235.05c0 139.75 84.21 215.41 262.38 215.41
c82.5195 0 179.26 -36.7402 188.74 -39.1699c-2.00977 70.8301 -15.2598 123.63 -38.7598 161.49l-88.4502 -68.6602l-28.46 36.7197l82.1104 63.7002c-31.4805 33.9902 -85.1904 48.75 -144.471 48.4404c-88.6602 -1.19043 -157.8 -16.46 -189.319 -23.7695
l-9.20996 64.2002c14.2305 4.25 119.36 24.1299 209.69 24.1299c80.5 0 147.96 -18.2002 197.25 -63.4902zM514.708 290.829l1.16992 45.8193c-11.7197 2.9502 -103.72 37.9102 -188.75 40.2002c-112.64 0 -166.449 -43.3799 -166.449 -150.77
c0 -115.34 52.4102 -170.06 172.57 -170.06c127.51 0 173.779 81.3799 181.459 234.81z" />
    <glyph glyph-name="etilde" unicode="&#x1ebd;" horiz-adv-x="547" 
d="M429.01 702.48l44.9102 -28.3105c-34.6504 -34.4102 -71.0508 -62.0703 -109.98 -62.0703c-69.9502 0 -92.2002 50.9902 -140.32 50.9902c-21.8398 0 -50.6494 -22.9102 -73.3193 -43l-46.3301 31.96c38.8604 33.1299 77.2207 58.1699 120.73 58.1699
c68.5898 0 94.5 -49.7598 137.51 -49.7598c19.0098 0 47.8096 25.1201 66.7998 42.0205zM480.84 78.79l10.998 -57.709c-57.6299 -12.3096 -143.06 -30.0996 -209.859 -30.0996c-186.3 1 -234.53 102.14 -234.53 259c0 194.27 87.8398 259.199 229.2 259.199
c152.34 0 232.5 -71.8398 232.5 -241.21v-45.2305h-364.45c1.98047 -115.5 35.7305 -173.67 138.551 -173.67c53.2803 0 152.681 19.7695 197.591 29.7197zM144.688 281.011l267.24 -0.000976562c-1.92969 126.65 -42.4297 169.881 -135.279 169.881
c-88.6504 0 -129.98 -44.0703 -131.961 -169.88z" />
    <glyph glyph-name="f" unicode="f" horiz-adv-x="353" 
d="M112.69 501.52l-0.000976562 34.0703c0 135.99 59.1699 163.92 142.86 163.92c28.2803 0 63.6104 -5.08008 105.07 -17.9805l-11.7197 -53.6904c-35.5098 11.1201 -66.8496 14.5898 -82.75 14.0801c-40.2305 -0.179688 -59.0303 -10.8193 -59.0303 -102.569v-37.8301
h115.36v-58.2803h-115.36v-443.07h-94.4297v443.07h-104.36v58.2803h104.36z" />
    <glyph glyph-name="g" unicode="g" horiz-adv-x="552" 
d="M57.9697 -141l16.0488 56.9893c64.9004 -16 138.78 -31 194.601 -31c96.0898 0 121.39 42 123.04 141.7c-30.6504 -8.95996 -79.4902 -21.0098 -129.32 -21.0098c-172.31 0 -214.899 82.8096 -214.899 233.64c0 179.93 52.8398 269.62 278.47 269.62
c53.1699 0 110.2 -4.38965 159.78 -7.88965v-427.64c0 -155.41 -27.7998 -245.41 -216 -246.41c-70.8701 0 -155.95 18 -211.72 32zM391.528 85.4297l0.00195312 362.421c-23.5703 1.21973 -55.5898 2.72949 -74.8799 2.55957
c-151.98 -1.37012 -172.921 -64.7598 -172.921 -209.22c0 -123.04 21.3496 -177.24 118.6 -177.24c50.2197 0 98.2295 12.1396 129.199 21.4795z" />
    <glyph glyph-name="gbreve" unicode="&#x11f;" horiz-adv-x="552" 
d="M337.73 725.28l55.0508 0.00976562c0 -57.2002 -43.79 -112.28 -116.271 -112.28c-73.7998 0 -116.31 55.1904 -116.31 112.271h56.1504c0.929688 -39.3203 29.4492 -58.5508 61.249 -58.5508c30.5898 0 59.2695 19.2305 60.1299 58.5508zM57.9814 -140.99
l16.0488 56.9893c64.9004 -16 138.78 -31 194.601 -31c96.0898 0 121.39 42 123.04 141.7c-30.6504 -8.95996 -79.4902 -21.0098 -129.32 -21.0098c-172.31 0 -214.899 82.8096 -214.899 233.64c0 179.93 52.8398 269.62 278.47 269.62
c53.1699 0 110.2 -4.38965 159.78 -7.88965v-427.64c0 -155.41 -27.7998 -245.41 -216 -246.41c-70.8701 0 -155.95 18 -211.72 32zM391.54 85.4395l0.00195312 362.421c-23.5703 1.21973 -55.5898 2.72949 -74.8799 2.55957
c-151.98 -1.37012 -172.921 -64.7598 -172.921 -209.22c0 -123.04 21.3496 -177.24 118.6 -177.24c50.2197 0 98.2295 12.1396 129.199 21.4795z" />
    <glyph glyph-name="gcommaaccent" unicode="&#x123;" horiz-adv-x="552" 
d="M365.64 749.33l-47.5205 -208.05h-100.93l59 208.05h89.4502zM57.9795 -141l16.0488 56.9893c64.9004 -16 138.78 -31 194.601 -31c96.0898 0 121.39 42 123.04 141.7c-30.6504 -8.95996 -79.4902 -21.0098 -129.32 -21.0098c-172.31 0 -214.899 82.8096 -214.899 233.64
c0 179.93 52.8398 269.62 278.47 269.62c53.1699 0 110.2 -4.38965 159.78 -7.88965v-427.64c0 -155.41 -27.7998 -245.41 -216 -246.41c-70.8701 0 -155.95 18 -211.72 32zM391.538 85.4297l0.00195312 362.421c-23.5703 1.21973 -55.5898 2.72949 -74.8799 2.55957
c-151.98 -1.37012 -172.921 -64.7598 -172.921 -209.22c0 -123.04 21.3496 -177.24 118.6 -177.24c50.2197 0 98.2295 12.1396 129.199 21.4795z" />
    <glyph glyph-name="gdotaccent" unicode="&#x121;" horiz-adv-x="552" 
d="M241.4 614.18v76.3896h70.21v-76.3896h-70.21zM57.9707 -141.001l16.0488 56.9893c64.9004 -16 138.78 -31 194.601 -31c96.0898 0 121.39 42 123.04 141.7c-30.6504 -8.95996 -79.4902 -21.0098 -129.32 -21.0098c-172.31 0 -214.899 82.8096 -214.899 233.64
c0 179.93 52.8398 269.62 278.47 269.62c53.1699 0 110.2 -4.38965 159.78 -7.88965v-427.64c0 -155.41 -27.7998 -245.41 -216 -246.41c-70.8701 0 -155.95 18 -211.72 32zM391.529 85.4287l0.00195312 362.421c-23.5703 1.21973 -55.5898 2.72949 -74.8799 2.55957
c-151.98 -1.37012 -172.921 -64.7598 -172.921 -209.22c0 -123.04 21.3496 -177.24 118.6 -177.24c50.2197 0 98.2295 12.1396 129.199 21.4795z" />
    <glyph glyph-name="germandbls" unicode="&#xdf;" horiz-adv-x="584" 
d="M72.4102 0.280273l-0.00976562 535.661c0 116.65 81.6299 171.431 185.99 171.431c183.32 0 251.66 -54.0596 251.66 -171.43c0 -69.8301 -33 -117.7 -99.5098 -144.91c78.5 -25.7305 126.52 -78.0107 126.52 -204.931c0 -160.35 -104.61 -198.08 -285.971 -193.08
v59.6699c131.93 0 188.319 34.5898 188.319 132.45c0 126.91 -55.2695 168.71 -188.319 168.71v63.1396c123.15 1.34961 160.25 37.6699 160.25 117.979c0 83.2998 -28.7197 111.31 -146.81 111.31c-53.7998 0 -94.4697 -29.5898 -94.4697 -111.31v-534.69h-97.6504z" />
    <glyph glyph-name="h" unicode="h" horiz-adv-x="567" 
d="M166.65 699.83l0.00878906 -210.312c30.4004 8.9502 78.9307 20.9502 129.311 20.9502c172.71 0 214.89 -82.2695 214.89 -248.779v-261.09h-96.4902v261.07c0 138.15 -21.0195 190.521 -118.409 190.521c-50.4297 0 -98.5 -12.1396 -129.25 -21.4795v-430.12h-94.2598
v699.24h94.2002z" />
    <glyph glyph-name="hbar" unicode="&#x127;" horiz-adv-x="588" 
d="M93.4502 699.83l94.249 -0.00292969v-69.7305h137.15v-48.9805h-137.2v-91.5996c30.4004 8.9502 78.9307 20.9502 129.311 20.9502c172.71 0 214.89 -82.2695 214.89 -248.779v-261.09h-96.4902v261.07c0 138.15 -21.0195 190.521 -118.409 190.521
c-50.4297 0 -98.5 -12.1396 -129.25 -21.4795v-430.12h-94.4902v580.53h-88.21v48.9805h88.4502v69.7305z" />
    <glyph glyph-name="i" unicode="i" horiz-adv-x="223" 
d="M71 610.55v80.0596h94.29v-80.0596h-94.29zM71 -0.000976562v500h94.29v-500h-94.29z" />
    <glyph glyph-name="iacute" unicode="&#xed;" horiz-adv-x="241" 
d="M14.2998 598.22l127.171 124.4h96.9697l-141.61 -124.4h-82.5303zM77.0703 0v500h91.7695v-500h-91.7695z" />
    <glyph glyph-name="icaron" unicode="&#x1d0;" horiz-adv-x="221" 
d="M143.3 589.37h-47.1602l-147.14 142.49h82.7305l89.0195 -85.6602l88.0303 85.6602h83.25zM71.0596 0v500h91.7695v-500h-91.7695z" />
    <glyph glyph-name="icircumflex" unicode="&#xee;" horiz-adv-x="272" 
d="M-30 580.59l147.89 142.49h47.1602l148.73 -142.49h-83.25l-88.0303 85.6602l-89.0195 -85.6602h-83.4805zM92.9492 0.00976562v500h91.7695v-500h-91.7695z" />
    <glyph glyph-name="idieresis" unicode="&#xef;" horiz-adv-x="254" 
d="M0 614.18v76.3896h70.21v-76.3896h-70.21zM184.91 614.18v76.3896h70.21v-76.3896h-70.21zM79.1504 -0.000976562v500h91.7695v-500h-91.7695z" />
    <glyph glyph-name="idotbelow" unicode="&#x1ecb;" horiz-adv-x="223" 
d="M71 610.55v80.0596h94.29v-80.0596h-94.29zM71 -0.000976562v500h94.29v-500h-94.29zM82.4297 -86.001h70.21v-77h-70.21v77z" />
    <glyph glyph-name="igrave" unicode="&#xec;" horiz-adv-x="241" 
d="M14.2998 723.07h96.9609l127.13 -124.4h-82.4805zM71.4404 0v500h91.7695v-500h-91.7695z" />
    <glyph glyph-name="ihookabove" unicode="&#x1ec9;" horiz-adv-x="258" 
d="M66.0596 672.24l-4.43164 32.1406c17.6504 4.16992 41.9502 5.95996 49.5205 5.95996c62.6396 0 79.6299 -20.46 79.6299 -69.2998c0 -40.54 -11.0703 -58.4502 -50.1201 -61.96v-31.0498h-47.0996v65.46h17.9199c23.2002 0 28.4404 3.59961 28.4404 27.5293
c0 25.0498 -1.76953 32.3799 -28.3896 32.6602c-4.46973 0 -14.3994 0 -45.4697 -1.44043zM71.0576 0.000976562v500h91.7695v-500h-91.7695z" />
    <glyph glyph-name="ij" unicode="&#x133;" horiz-adv-x="459" 
d="M71 610.55v80.0596h94.29v-80.0596h-94.29zM299.47 689.93h94.4297v-80.0596h-94.4297v80.0596zM299.63 500.029h94.4395v-502.03c0 -151 -61.5703 -171 -142.86 -171c-24.71 0 -64.8301 6 -105.43 19l14.4902 55l38.4404 -10
c10.1201 -1.61035 25.2705 -5.82031 35.9404 -5.82031c2.55957 0 4.86914 0.240234 6.7793 0.820312c41.9102 2 58.4805 19 58.2002 112v502.03zM71.0098 -0.000976562v500h94.29v-500h-94.29z" />
    <glyph glyph-name="imacron" unicode="&#x12b;" horiz-adv-x="221" 
d="M290.28 635.71h-341.28v54.21h341.28v-54.21zM71.0498 -0v500h91.7695v-500h-91.7695z" />
    <glyph glyph-name="iogonek" unicode="&#x12f;" horiz-adv-x="221" 
d="M70.1504 690.57h94.29v-76.3896h-94.29v76.3896zM71.0508 500l91.7793 0.000976562v-500h-50.5195c-40.5703 -16.6299 -64.71 -54.5898 -64.71 -87.5498c0 -8.66016 1.66992 -16.9697 5.13965 -24.46c7.79004 -16.46 28.8701 -25.2402 54.4199 -25.2402
c10.1602 0 21.0303 1.38965 32.0498 4.23926l7.79004 -38c-23.1104 -6.63965 -43.7607 -9.60938 -61.8408 -9.60938c-44.5195 0 -73.4697 18.0195 -85.1494 43.6191c-5.21973 11.6797 -7.60938 23.54 -7.60938 35.1797c0 44.1602 34.3203 85.2002 78.6504 101.82v500z" />
    <glyph glyph-name="itilde" unicode="&#x129;" horiz-adv-x="221" 
d="M260.68 702.48l44.9004 -28.3105c-34.6504 -34.4102 -71.0508 -62.0703 -109.98 -62.0703c-69.9502 0 -92.2002 50.9902 -140.32 50.9902c-21.8398 0 -50.6396 -22.9102 -73.2793 -43l-46 31.96c38 33.1299 76.8604 58.1699 120.37 58.1699
c68.5898 0 94.5 -49.7598 137.51 -49.7598c19.0098 0 47.8096 25.1201 66.7998 42.0205zM71.0605 -0.0205078v500h91.7695v-500h-91.7695z" />
    <glyph glyph-name="j" unicode="j" horiz-adv-x="235" 
d="M75.8398 689.93h94.4297v-80.0596h-94.4297v80.0596zM76 500.029h94.4297v-502.03c0 -151 -61.5703 -171 -142.86 -171c-24.71 0 -64.5703 6 -105.57 19l15 55l38 -10c10.4805 -1.61035 25.4609 -5.82031 36.0508 -5.82031c2.5498 0 4.83984 0.240234 6.75 0.820312
c41.9102 2 58.4805 19 58.2002 112v502.03z" />
    <glyph glyph-name="k" unicode="k" horiz-adv-x="546" 
d="M163.95 0.139648h-94.2988v699.87h94.29v-383.87h75.3398l183.92 183.87h107.35l-226.38 -227.11l224.01 -272.76h-105.19l-183 226.91h-76.04v-226.91z" />
    <glyph glyph-name="kcommaaccent" unicode="&#x137;" horiz-adv-x="546" 
d="M163.95 0.139648h-94.2988v699.87h94.29v-383.87h75.3398l183.92 183.87h107.35l-226.38 -227.11l224.01 -272.76h-105.19l-183 226.91h-76.04v-226.91zM204.432 -250l47.5205 208h100.93l-59 -208h-89.4502z" />
    <glyph glyph-name="l" unicode="l" horiz-adv-x="222" 
d="M71 0v700.1h94.29v-700.1h-94.29z" />
    <glyph glyph-name="lacute" unicode="&#x13a;" horiz-adv-x="222" 
d="M0.209961 717.56l127.291 124.4h96.9697l-141.61 -124.4h-82.6504zM71.0508 -0v700.1h94.29v-700.1h-94.29z" />
    <glyph glyph-name="lcaron" unicode="&#x13e;" horiz-adv-x="344" 
d="M71 0v700.1h94.29v-700.1h-94.29zM189.89 478.22l51.3701 220.18h98.7695l-62.9199 -220.18h-87.2197z" />
    <glyph glyph-name="lcommaaccent" unicode="&#x13c;" horiz-adv-x="222" 
d="M71.0498 0v700.1h94.29v-700.1h-94.29zM15.5098 -249l47.5205 208h100.93l-59 -208h-89.4502z" />
    <glyph glyph-name="ldot" unicode="&#x140;" horiz-adv-x="345" 
d="M71 0v700.1h94.29v-700.1h-94.29zM222.52 271.92v105.16h99.79v-105.16h-99.79z" />
    <glyph glyph-name="lslash" unicode="&#x142;" horiz-adv-x="288" 
d="M22 231.65v80.7295l78 52.4102v356.85h90.79v-300.45l81 54.6299v-81.1797l-81 -54.3496v-339.37h-90.79v282.49z" />
    <glyph glyph-name="m" unicode="m" horiz-adv-x="904" 
d="M66 0l0.0185547 464.329c83.3604 33.3096 152.101 45.75 223.541 45.75c63.3799 0 110.88 -12.8701 142.43 -38.5498c79.6104 29.6602 135.771 38.5498 200.021 38.5498c172.71 0 214.89 -82.2695 214.89 -248.779v-261.29h-96.4902v261.27
c0 138.15 -21.0195 190.521 -118.409 190.521c-54.5498 0 -96.5498 -8.7998 -154.569 -29.21c20.25 -39.4199 27.0098 -92.3398 27.0098 -161.29v-261.29h-96.4902v261.27c0 138.15 -21.0195 190.521 -118.409 190.521c-50.4404 0 -98.5107 -12.1396 -129.251 -21.4795
v-430.32h-94.29z" />
    <glyph glyph-name="n" unicode="n" horiz-adv-x="580" 
d="M67.46 0l-0.0195312 463.629c79.8896 30.4805 145.699 45.8008 223.52 45.8008c169.43 0 230.97 -82.0703 230.97 -248.78v-260.65h-96.4902v260.63c0 136.94 -34.5 190.53 -134.47 190.53c-50.4297 0 -98.5 -12.1396 -129.25 -21.4795v-429.68h-94.2598z" />
    <glyph glyph-name="nacute" unicode="&#x144;" horiz-adv-x="580" 
d="M188.22 597.66l127.171 124.4h96.9697l-141.61 -124.4h-82.5303zM67.4609 -0.00976562l-0.0195312 463.629c79.8896 30.4805 145.699 45.8008 223.52 45.8008c169.43 0 230.97 -82.0703 230.97 -248.78v-260.65h-96.4902v260.63c0 136.94 -34.5 190.53 -134.47 190.53
c-50.4297 0 -98.5 -12.1396 -129.25 -21.4795v-429.68h-94.2598z" />
    <glyph glyph-name="ncaron" unicode="&#x148;" horiz-adv-x="580" 
d="M323.23 589.37h-47.1592l-147.49 142.49h83.0801l89.0195 -85.6602l88.0303 85.6602h83.25zM67.4609 0l-0.0195312 463.629c79.8896 30.4805 145.699 45.8008 223.52 45.8008c169.43 0 230.97 -82.0703 230.97 -248.78v-260.65h-96.4902v260.63
c0 136.94 -34.5 190.53 -134.47 190.53c-50.4297 0 -98.5 -12.1396 -129.25 -21.4795v-429.68h-94.2598z" />
    <glyph glyph-name="ncommaaccent" unicode="&#x146;" horiz-adv-x="580" 
d="M67.46 0l-0.0195312 463.629c79.8896 30.4805 145.699 45.8008 223.52 45.8008c169.43 0 230.97 -82.0703 230.97 -248.78v-260.65h-96.4902v260.63c0 136.94 -34.5 190.53 -134.47 190.53c-50.4297 0 -98.5 -12.1396 -129.25 -21.4795v-429.68h-94.2598zM209.9 -251.001
l47.5205 208h100.93l-59 -208h-89.4502z" />
    <glyph glyph-name="ntilde" unicode="&#xf1;" horiz-adv-x="580" 
d="M440.61 702.41l44.9004 -28.3105c-34.6504 -34.4102 -71.0508 -62.0703 -109.98 -62.0703c-69.9502 0 -92.2002 50.9902 -140.32 50.9902c-21.8398 0 -50.6396 -22.9102 -73.3096 -43l-46.3301 31.96c38.8604 33.1299 77.2207 58.1699 120.73 58.1699
c68.5898 0 94.5 -49.7598 137.51 -49.7598c19.0098 0 47.8096 25.1201 66.7998 42.0205zM67.4609 -0.0205078l-0.0195312 463.629c79.8896 30.4805 145.699 45.8008 223.52 45.8008c169.43 0 230.97 -82.0703 230.97 -248.78v-260.65h-96.4902v260.63
c0 136.94 -34.5 190.53 -134.47 190.53c-50.4297 0 -98.5 -12.1396 -129.25 -21.4795v-429.68h-94.2598z" />
    <glyph glyph-name="o" unicode="o" horiz-adv-x="572" 
d="M288.84 509.2c149.89 0 237 -72.499 237 -250.669c0 -180.29 -48.4199 -267.53 -237 -267.53c-187.89 0 -241.399 75.3896 -241.399 269.409c0 180.76 76.6396 248.79 241.399 248.79zM288.84 49.1006c121.97 0 142.51 61.5898 142.51 209.439
c0 143.92 -53.9102 192.4 -142.5 192.4c-107.17 0 -146.91 -38.3701 -146.91 -190.51c0 -158.79 24.1504 -211.33 146.9 -211.33z" />
    <glyph glyph-name="oacute" unicode="&#xf3;" horiz-adv-x="569" 
d="M174.07 598.5l127.171 124.4h96.9697l-141.61 -124.4h-82.5303zM287.451 509.2c149.88 0 237 -72.499 237 -250.669c0 -180.29 -48.4199 -267.53 -237 -267.53c-187.89 0 -241.399 75.3896 -241.399 269.409c0 180.76 76.6396 248.79 241.399 248.79zM287.461 49.1006
c121.97 0 142.51 61.5898 142.51 209.439c0 143.92 -53.9102 192.4 -142.5 192.4c-107.17 0 -146.91 -38.3701 -146.91 -190.51c0 -158.79 24.1504 -211.33 146.9 -211.33z" />
    <glyph glyph-name="ocaron" unicode="&#x1d2;" horiz-adv-x="572" 
d="M310.48 589.37h-47.1592l-147.49 142.49h83.0801l89.0195 -85.6602l88.0303 85.6602h83.25zM288.841 509.2c149.89 0 237 -72.499 237 -250.669c0 -180.29 -48.4199 -267.53 -237 -267.53c-187.89 0 -241.399 75.3896 -241.399 269.409
c0 180.76 76.6396 248.79 241.399 248.79zM288.841 49.1006c121.97 0 142.51 61.5898 142.51 209.439c0 143.92 -53.9102 192.4 -142.5 192.4c-107.17 0 -146.91 -38.3701 -146.91 -190.51c0 -158.79 24.1504 -211.33 146.9 -211.33z" />
    <glyph glyph-name="ocircumflex" unicode="&#xf4;" horiz-adv-x="569" 
d="M114.29 580.59l147.489 142.49h47.1602l148.73 -142.49h-83.25l-88.0303 85.6602l-89.0195 -85.6602h-83.0801zM287.449 509.21c149.88 0 237 -72.499 237 -250.669c0 -180.29 -48.4199 -267.53 -237 -267.53c-187.89 0 -241.399 75.3896 -241.399 269.409
c0 180.76 76.6396 248.79 241.399 248.79zM287.459 49.1104c121.97 0 142.51 61.5898 142.51 209.439c0 143.92 -53.9102 192.4 -142.5 192.4c-107.17 0 -146.91 -38.3701 -146.91 -190.51c0 -158.79 24.1504 -211.33 146.9 -211.33z" />
    <glyph glyph-name="ocircumflexacute" unicode="&#x1ed1;" horiz-adv-x="572" 
d="M374.05 696.65l127.171 124.4h96.9697l-141.61 -124.4h-82.5303zM116.251 589.241l147.489 142.49h47.1602l148.73 -142.49h-83.25l-88.0303 85.6602l-89.0195 -85.6602h-83.0801zM288.84 509.201c149.89 0 237 -72.499 237 -250.669
c0 -180.29 -48.4199 -267.53 -237 -267.53c-187.89 0 -241.399 75.3896 -241.399 269.409c0 180.76 76.6396 248.79 241.399 248.79zM288.84 49.1016c121.97 0 142.51 61.5898 142.51 209.439c0 143.92 -53.9102 192.4 -142.5 192.4
c-107.17 0 -146.91 -38.3701 -146.91 -190.51c0 -158.79 24.1504 -211.33 146.9 -211.33z" />
    <glyph glyph-name="ocircumflexdotbelow" unicode="&#x1ed9;" horiz-adv-x="572" 
d="M115.69 589.08l147.489 142.49h47.1602l148.73 -142.49h-83.25l-88.0303 85.6602l-89.0195 -85.6602h-83.0801zM288.85 509.2c149.89 0 237 -72.499 237 -250.669c0 -180.29 -48.4199 -267.53 -237 -267.53c-187.89 0 -241.399 75.3896 -241.399 269.409
c0 180.76 76.6396 248.79 241.399 248.79zM288.85 49.1006c121.97 0 142.51 61.5898 142.51 209.439c0 143.92 -53.9102 192.4 -142.5 192.4c-107.17 0 -146.91 -38.3701 -146.91 -190.51c0 -158.79 24.1504 -211.33 146.9 -211.33zM250.939 -85.9893h70.21v-77h-70.21v77z
" />
    <glyph glyph-name="ocircumflexgrave" unicode="&#x1ed3;" horiz-adv-x="572" 
d="M249.37 824.03h96.9609l127.13 -124.4h-82.4805zM116.981 589.08l147.489 142.49h47.1602l148.73 -142.49h-83.25l-88.0303 85.6602l-89.0195 -85.6602h-83.0801zM288.841 509.2c149.89 0 237 -72.499 237 -250.669c0 -180.29 -48.4199 -267.53 -237 -267.53
c-187.89 0 -241.399 75.3896 -241.399 269.409c0 180.76 76.6396 248.79 241.399 248.79zM288.841 49.1006c121.97 0 142.51 61.5898 142.51 209.439c0 143.92 -53.9102 192.4 -142.5 192.4c-107.17 0 -146.91 -38.3701 -146.91 -190.51
c0 -158.79 24.1504 -211.33 146.9 -211.33z" />
    <glyph glyph-name="ocircumflexhookabove" unicode="&#x1ed5;" horiz-adv-x="572" 
d="M351.09 823.86l-4.44043 32.1406c17.6504 4.16992 41.9502 5.95996 49.5205 5.95996c62.6396 0 79.6299 -20.46 79.6299 -69.2998c0 -40.54 -11.0703 -58.4502 -50.1201 -61.96v-31.0498h-47.0996v65.46h17.9199c23.2002 0 28.4404 3.59961 28.4404 27.5293
c0 25.0498 -1.75977 32.3799 -28.3799 32.6602c-4.48047 0 -14.4004 0 -45.4707 -1.44043zM116.26 589.091l147.489 142.49h47.1602l148.73 -142.49h-83.25l-88.0303 85.6602l-89.0195 -85.6602h-83.0801zM288.839 509.211c149.89 0 237 -72.499 237 -250.669
c0 -180.29 -48.4199 -267.53 -237 -267.53c-187.89 0 -241.399 75.3896 -241.399 269.409c0 180.76 76.6396 248.79 241.399 248.79zM288.839 49.1113c121.97 0 142.51 61.5898 142.51 209.439c0 143.92 -53.9102 192.4 -142.5 192.4
c-107.17 0 -146.91 -38.3701 -146.91 -190.51c0 -158.79 24.1504 -211.33 146.9 -211.33z" />
    <glyph glyph-name="ocircumflextilde" unicode="&#x1ed7;" horiz-adv-x="572" 
d="M428.6 839.11l44.9102 -28.3105c-34.6504 -34.4102 -71.0508 -62.0703 -109.98 -62.0703c-69.9502 0 -92.2002 50.9902 -140.32 50.9902c-21.8398 0 -50.6494 -22.9102 -73.3193 -43l-46.3301 31.96c38.8604 33.1299 77.2207 58.1699 120.73 58.1699
c68.5898 0 94.5 -49.7598 137.51 -49.7598c19.0098 0 47.8096 25.1201 66.7998 42.0205zM116.439 589.06l147.489 142.49h47.1602l148.73 -142.49h-83.25l-88.0303 85.6602l-89.0195 -85.6602h-83.0801zM288.858 509.18c149.89 0 237 -72.499 237 -250.669
c0 -180.29 -48.4199 -267.53 -237 -267.53c-187.89 0 -241.399 75.3896 -241.399 269.409c0 180.76 76.6396 248.79 241.399 248.79zM288.858 49.0801c121.97 0 142.51 61.5898 142.51 209.439c0 143.92 -53.9102 192.4 -142.5 192.4
c-107.17 0 -146.91 -38.3701 -146.91 -190.51c0 -158.79 24.1504 -211.33 146.9 -211.33z" />
    <glyph glyph-name="odieresis" unicode="&#xf6;" horiz-adv-x="569" 
d="M157.69 614.18v76.3896h70.21v-76.3896h-70.21zM342.601 614.18v76.3896h70.21v-76.3896h-70.21zM287.45 509.199c149.88 0 237 -72.499 237 -250.669c0 -180.29 -48.4199 -267.53 -237 -267.53c-187.89 0 -241.399 75.3896 -241.399 269.409
c0 180.76 76.6396 248.79 241.399 248.79zM287.46 49.0996c121.97 0 142.51 61.5898 142.51 209.439c0 143.92 -53.9102 192.4 -142.5 192.4c-107.17 0 -146.91 -38.3701 -146.91 -190.51c0 -158.79 24.1504 -211.33 146.9 -211.33z" />
    <glyph glyph-name="odotbelow" unicode="&#x1ecd;" horiz-adv-x="572" 
d="M288.84 509.2c149.89 0 237 -72.499 237 -250.669c0 -180.29 -48.4199 -267.53 -237 -267.53c-187.89 0 -241.399 75.3896 -241.399 269.409c0 180.76 76.6396 248.79 241.399 248.79zM288.84 49.1006c121.97 0 142.51 61.5898 142.51 209.439
c0 143.92 -53.9102 192.4 -142.5 192.4c-107.17 0 -146.91 -38.3701 -146.91 -190.51c0 -158.79 24.1504 -211.33 146.9 -211.33zM250.93 -85.9893h70.21v-77h-70.21v77z" />
    <glyph glyph-name="oe" unicode="&#x153;" horiz-adv-x="916" 
d="M887.99 267.99l-0.000976562 -45.2285h-364.45c1.98047 -115.5 35.7305 -173.67 138.551 -173.67c53.2803 0 152.681 19.7695 197.591 29.7197l11.0098 -57.7002c-57.6299 -12.3096 -143.07 -30.0996 -209.87 -30.0996c-98.9805 0 -155.971 32.7002 -187.351 90.9805
c-31.2402 -62.2002 -89.21 -90.9805 -192.01 -90.9805c-187.88 0 -241.39 75.3896 -241.39 269.409c0 180.76 76.6396 248.79 241.399 248.79c89.3398 0 154.49 -28.2305 190.2 -96.4307c35.2998 70.96 99.1602 96.4199 183.82 96.4199
c152.34 0 232.5 -71.8398 232.5 -241.21zM281.47 49.0918c121.97 0 142.51 61.5898 142.51 209.439c0 143.92 -53.9102 192.4 -142.5 192.4c-107.17 0 -146.91 -38.3701 -146.91 -190.51c0 -158.79 24.1504 -211.33 146.9 -211.33zM523.56 281.042l267.229 -0.000976562
c-1.92969 126.65 -42.4297 169.881 -135.279 169.881c-88.6504 0 -129.98 -44.0703 -131.95 -169.88z" />
    <glyph glyph-name="ograve" unicode="&#xf2;" horiz-adv-x="569" 
d="M179.7 723.07h96.9609l127.13 -124.4h-82.4805zM287.451 509.2c149.88 0 237 -72.499 237 -250.669c0 -180.29 -48.4199 -267.53 -237 -267.53c-187.89 0 -241.399 75.3896 -241.399 269.409c0 180.76 76.6396 248.79 241.399 248.79zM287.461 49.1006
c121.97 0 142.51 61.5898 142.51 209.439c0 143.92 -53.9102 192.4 -142.5 192.4c-107.17 0 -146.91 -38.3701 -146.91 -190.51c0 -158.79 24.1504 -211.33 146.9 -211.33z" />
    <glyph glyph-name="ohookabove" unicode="&#x1ecf;" horiz-adv-x="572" 
d="M238.52 672.24l-4.43066 32.1406c17.6504 4.16992 41.9502 5.95996 49.5205 5.95996c62.6396 0 79.6299 -20.46 79.6299 -69.2998c0 -40.54 -11.0703 -58.4502 -50.1201 -61.96v-31.0498h-47.0996v65.46h17.9199c23.2002 0 28.4404 3.59961 28.4404 27.5293
c0 25.0498 -1.76953 32.3799 -28.3896 32.6602c-4.48047 0 -14.4004 0 -45.4707 -1.44043zM288.849 509.201c149.89 0 237 -72.499 237 -250.669c0 -180.29 -48.4199 -267.53 -237 -267.53c-187.89 0 -241.399 75.3896 -241.399 269.409
c0 180.76 76.6396 248.79 241.399 248.79zM288.849 49.1016c121.97 0 142.51 61.5898 142.51 209.439c0 143.92 -53.9102 192.4 -142.5 192.4c-107.17 0 -146.91 -38.3701 -146.91 -190.51c0 -158.79 24.1504 -211.33 146.9 -211.33z" />
    <glyph glyph-name="ohorn" unicode="&#x1a1;" horiz-adv-x="572" 
d="M541.54 530.45l37.8809 7.7627c6.62988 -23.0801 9.59961 -43.71 9.59961 -61.7803c0 -44.5596 -18.0703 -73.5498 -43.9307 -85.3301c-9.92969 -4.23047 -20.1299 -6.15039 -30.1797 -6.15039c-3.05957 0 -6.09961 0.179688 -9.10938 0.529297
c13.1904 -33.7803 20.04 -75.75 20.04 -126.97c0 -180.29 -48.4199 -267.53 -237 -267.53c-187.89 0 -241.399 75.3896 -241.399 269.409c0 180.76 76.6396 248.79 241.399 248.79c78.96 0 140.32 -20.3896 180.641 -66.75
c8.2998 -2.61035 16.6699 -3.95996 24.7598 -3.95996c9.30957 0 18.2393 1.79004 26.249 5.5c16.6504 7.75977 25.3701 28.6895 25.3701 54.0898c0 10.2598 -1.41992 21.25 -4.32031 32.3896zM288.841 49.0527c121.97 0 142.51 61.5898 142.51 209.439
c0 143.92 -53.9102 192.4 -142.5 192.4c-107.17 0 -146.91 -38.3701 -146.91 -190.51c0 -158.79 24.1504 -211.33 146.9 -211.33z" />
    <glyph glyph-name="ohornacute" unicode="&#x1edb;" horiz-adv-x="572" 
d="M175.47 597.66l127.171 124.4h96.9697l-141.61 -124.4h-82.5303zM541.541 530.44l37.8809 7.77246c6.62988 -23.0898 9.59961 -43.7197 9.59961 -61.79c0 -44.5596 -18.0703 -73.5498 -43.9307 -85.3301c-9.92969 -4.23047 -20.1299 -6.15039 -30.1797 -6.15039
c-3.05957 0 -6.09961 0.179688 -9.10938 0.529297c13.1904 -33.7803 20.04 -75.75 20.04 -126.97c0 -180.29 -48.4199 -267.53 -237 -267.53c-187.89 0 -241.399 75.3896 -241.399 269.409c0 180.76 76.6396 248.79 241.399 248.79c78.96 0 140.32 -20.3896 180.641 -66.75
c8.2998 -2.61035 16.6699 -3.95996 24.7598 -3.95996c9.30957 0 18.2393 1.79004 26.249 5.5c16.6504 7.75977 25.3701 28.6895 25.3701 54.0898c0 10.2598 -1.41992 21.25 -4.32031 32.3896zM288.842 49.0527c121.97 0 142.51 61.5898 142.51 209.439
c0 143.92 -53.9102 192.4 -142.5 192.4c-107.17 0 -146.91 -38.3701 -146.91 -190.51c0 -158.79 24.1504 -211.33 146.9 -211.33z" />
    <glyph glyph-name="ohorndotbelow" unicode="&#x1ee3;" horiz-adv-x="572" 
d="M541.54 530.45l37.8809 7.77246c6.62988 -23.0898 9.59961 -43.7197 9.59961 -61.79c0 -44.5596 -18.0703 -73.5498 -43.9307 -85.3301c-9.92969 -4.23047 -20.1299 -6.15039 -30.1797 -6.15039c-3.05957 0 -6.09961 0.179688 -9.10938 0.529297
c13.1904 -33.7803 20.04 -75.75 20.04 -126.97c0 -180.29 -48.4199 -267.53 -237 -267.53c-187.89 0 -241.399 75.3896 -241.399 269.409c0 180.76 76.6396 248.79 241.399 248.79c78.96 0 140.32 -20.3896 180.641 -66.75
c8.2998 -2.61035 16.6699 -3.95996 24.7598 -3.95996c9.30957 0 18.2393 1.79004 26.249 5.5c16.6504 7.75977 25.3701 28.6895 25.3701 54.0898c0 10.2598 -1.41992 21.25 -4.32031 32.3896zM288.841 49.0625c121.97 0 142.51 61.5898 142.51 209.439
c0 143.92 -53.9102 192.4 -142.5 192.4c-107.17 0 -146.91 -38.3701 -146.91 -190.51c0 -158.79 24.1504 -211.33 146.9 -211.33zM250.931 -86.0273h70.21v-77h-70.21v77z" />
    <glyph glyph-name="ohorngrave" unicode="&#x1edd;" horiz-adv-x="572" 
d="M181.09 731.86h96.9609l127.13 -124.4h-82.4805zM541.541 530.45l37.8809 7.77246c6.62988 -23.0898 9.59961 -43.7197 9.59961 -61.79c0 -44.5596 -18.0703 -73.5498 -43.9307 -85.3301c-9.92969 -4.23047 -20.1299 -6.15039 -30.1797 -6.15039
c-3.05957 0 -6.09961 0.179688 -9.10938 0.529297c13.1904 -33.7803 20.04 -75.75 20.04 -126.97c0 -180.29 -48.4199 -267.53 -237 -267.53c-187.89 0 -241.399 75.3896 -241.399 269.409c0 180.76 76.6396 248.79 241.399 248.79c78.96 0 140.32 -20.3896 180.641 -66.75
c8.2998 -2.61035 16.6699 -3.95996 24.7598 -3.95996c9.30957 0 18.2393 1.79004 26.249 5.5c16.6504 7.75977 25.3701 28.6895 25.3701 54.0898c0 10.2598 -1.41992 21.25 -4.32031 32.3896zM288.842 49.0625c121.97 0 142.51 61.5898 142.51 209.439
c0 143.92 -53.9102 192.4 -142.5 192.4c-107.17 0 -146.91 -38.3701 -146.91 -190.51c0 -158.79 24.1504 -211.33 146.9 -211.33z" />
    <glyph glyph-name="ohornhookabove" unicode="&#x1edf;" horiz-adv-x="572" 
d="M238.52 672.24l-4.43066 32.1406c17.6504 4.16992 41.9502 5.95996 49.5205 5.95996c62.6396 0 79.6299 -20.46 79.6299 -69.2998c0 -40.54 -11.0703 -58.4502 -50.1201 -61.96v-31.0498h-47.0996v65.46h17.9199c23.2002 0 28.4404 3.59961 28.4404 27.5293
c0 25.0498 -1.76953 32.3799 -28.3896 32.6602c-4.48047 0 -14.4004 0 -45.4707 -1.44043zM541.549 530.451l37.8809 7.77246c6.62988 -23.0898 9.59961 -43.7197 9.59961 -61.79c0 -44.5596 -18.0703 -73.5498 -43.9307 -85.3301
c-9.92969 -4.23047 -20.1299 -6.15039 -30.1797 -6.15039c-3.05957 0 -6.09961 0.179688 -9.10938 0.529297c13.1904 -33.7803 20.04 -75.75 20.04 -126.97c0 -180.29 -48.4199 -267.53 -237 -267.53c-187.89 0 -241.399 75.3896 -241.399 269.409
c0 180.76 76.6396 248.79 241.399 248.79c78.96 0 140.32 -20.3896 180.641 -66.75c8.2998 -2.61035 16.6699 -3.95996 24.7598 -3.95996c9.30957 0 18.2393 1.79004 26.249 5.5c16.6504 7.75977 25.3701 28.6895 25.3701 54.0898
c0 10.2598 -1.41992 21.25 -4.32031 32.3896zM288.85 49.0635c121.97 0 142.51 61.5898 142.51 209.439c0 143.92 -53.9102 192.4 -142.5 192.4c-107.17 0 -146.91 -38.3701 -146.91 -190.51c0 -158.79 24.1504 -211.33 146.9 -211.33z" />
    <glyph glyph-name="ohorntilde" unicode="&#x1ee1;" horiz-adv-x="572" 
d="M427.86 702.48l44.9004 -28.3105c-34.6504 -34.4102 -71.0508 -62.0703 -109.98 -62.0703c-69.9502 0 -92.2002 50.9902 -140.32 50.9902c-21.8398 0 -50.6396 -22.9102 -73.3096 -43l-46.3301 31.96c38.8604 33.1299 77.2207 58.1699 120.73 58.1699
c68.5898 0 94.5 -49.7598 137.51 -49.7598c19.0098 0 47.8096 25.1201 66.7998 42.0205zM541.541 530.43l37.8809 7.77246c6.62988 -23.0898 9.59961 -43.7197 9.59961 -61.79c0 -44.5596 -18.0703 -73.5498 -43.9307 -85.3301
c-9.92969 -4.23047 -20.1299 -6.15039 -30.1797 -6.15039c-3.05957 0 -6.09961 0.179688 -9.10938 0.529297c13.1904 -33.7803 20.04 -75.75 20.04 -126.97c0 -180.29 -48.4199 -267.53 -237 -267.53c-187.89 0 -241.399 75.3896 -241.399 269.409
c0 180.76 76.6396 248.79 241.399 248.79c78.96 0 140.32 -20.3896 180.641 -66.75c8.2998 -2.61035 16.6699 -3.95996 24.7598 -3.95996c9.30957 0 18.2393 1.79004 26.249 5.5c16.6504 7.75977 25.3701 28.6895 25.3701 54.0898
c0 10.2598 -1.41992 21.25 -4.32031 32.3896zM288.842 49.042c121.97 0 142.51 61.5898 142.51 209.439c0 143.92 -53.9102 192.4 -142.5 192.4c-107.17 0 -146.91 -38.3701 -146.91 -190.51c0 -158.79 24.1504 -211.33 146.9 -211.33z" />
    <glyph glyph-name="ohungarumlaut" unicode="&#x151;" horiz-adv-x="572" 
d="M87.3398 607.46l127.121 124.4h96.9697l-141.61 -124.4h-82.4805zM248.261 607.46l127.11 124.4h96.9697l-141.61 -124.4h-82.4697zM288.831 509.2c149.89 0 237 -72.499 237 -250.669c0 -180.29 -48.4199 -267.53 -237 -267.53
c-187.89 0 -241.399 75.3896 -241.399 269.409c0 180.76 76.6396 248.79 241.399 248.79zM288.831 49.1006c121.97 0 142.51 61.5898 142.51 209.439c0 143.92 -53.9102 192.4 -142.5 192.4c-107.17 0 -146.91 -38.3701 -146.91 -190.51
c0 -158.79 24.1504 -211.33 146.9 -211.33z" />
    <glyph glyph-name="omacron" unicode="&#x14d;" horiz-adv-x="572" 
d="M457.46 635.71h-341.64v54.21h341.64v-54.21zM288.84 509.2c149.89 0 237 -72.499 237 -250.669c0 -180.29 -48.4199 -267.53 -237 -267.53c-187.89 0 -241.399 75.3896 -241.399 269.409c0 180.76 76.6396 248.79 241.399 248.79zM288.84 49.1006
c121.97 0 142.51 61.5898 142.51 209.439c0 143.92 -53.9102 192.4 -142.5 192.4c-107.17 0 -146.91 -38.3701 -146.91 -190.51c0 -158.79 24.1504 -211.33 146.9 -211.33z" />
    <glyph glyph-name="oslash" unicode="&#xf8;" horiz-adv-x="558" 
d="M377.02 560.89l55.9199 0.0107422l-30.0098 -74.8096c74.2998 -33.6904 115.53 -106.301 115.53 -227.561c0 -180.29 -48.4199 -267.53 -237 -267.53c-28.1299 0 -52.9297 2 -74.7598 6l-22.9805 -58h-57.1797l28.4004 71
c-86.7305 32.9297 -114.881 111.58 -114.881 250.41c0 180.76 76.6396 248.79 241.399 248.79c26.0195 0 49.96 -2.42969 71.6904 -7.58008zM184.209 82.4805l145.77 361.53c-16.1504 5.04004 -34.2305 7.08984 -54.0703 7.08984c-105 0 -141.26 -49.2002 -141.26 -184
c0 -99.7695 9.36035 -152.93 49.5605 -184.62zM372.889 411.001l-142.91 -356.56c16.2803 -3.7998 32.6807 -5.55957 54.9902 -5.2998c118.52 1.00977 138.909 64.9297 138.909 199.64c0 84.96 -17.9297 128.38 -50.9893 162.22z" />
    <glyph glyph-name="otilde" unicode="&#xf5;" horiz-adv-x="569" 
d="M426.73 702.7l44.9102 -28.3008c-34.6504 -34.4102 -71.0508 -62.0703 -109.98 -62.0703c-69.9502 0 -92.2002 50.9902 -140.32 50.9902c-21.8398 0 -50.6396 -22.9102 -73.3096 -43l-46.3398 31.96c38.8604 33.1299 77.2207 58.1699 120.73 58.1699
c68.5898 0 94.5 -49.7598 137.51 -49.7598c19.0098 0 47.8096 25.1104 66.7998 42.0107zM287.461 509.189c149.88 0 237 -72.499 237 -250.669c0 -180.29 -48.4199 -267.53 -237 -267.53c-187.89 0 -241.399 75.3896 -241.399 269.409
c0 180.76 76.6396 248.79 241.399 248.79zM287.471 49.0898c121.97 0 142.51 61.5898 142.51 209.439c0 143.92 -53.9102 192.4 -142.5 192.4c-107.17 0 -146.91 -38.3701 -146.91 -190.51c0 -158.79 24.1504 -211.33 146.9 -211.33z" />
    <glyph glyph-name="p" unicode="p" horiz-adv-x="555" 
d="M165.33 12.2998l0.000976562 -201.302h-95.6699v690.66c60.3096 4.57031 108.14 8.01074 161.029 8.01074c225.91 0 278.83 -89.6797 278.83 -269.609c0 -166.51 -42.1104 -249.06 -214.98 -249.06c-50.29 0 -98.9199 12.2402 -129.21 21.2998zM165.331 448.548
l-0.00878906 -377.51c30.6299 -9.33984 78.9199 -21.4795 129.14 -21.4795c97.25 0 118.61 54.21 118.61 192.4c0 141.25 -22.6201 206.02 -169.021 208.569c-3.41992 0.0996094 -7.21973 0.149414 -11.2998 0.149414c-19.9404 0 -46.5205 -1.11035 -67.4209 -2.12988z" />
    <glyph glyph-name="q" unicode="q" horiz-adv-x="552" 
d="M485.79 -189l-94.1494 -0.0078125v201.3c-30.29 -9.0498 -78.9199 -21.29 -129.21 -21.29c-172.87 0 -214.98 82.5498 -214.98 249.06c0 179.93 52.9199 269.609 278.83 269.609c52.8896 0 100.72 -3.44043 159.51 -8.01074v-690.66zM391.641 71.0322l-0.00878906 377.51
c-20.9502 1.01953 -47.54 2.12988 -67.4805 2.12988c-4.08008 0 -7.87988 -0.0498047 -11.2998 -0.149414c-146.4 -2.5498 -169.021 -67.3193 -169.021 -208.569c0 -138.19 21.3496 -192.4 118.6 -192.4c50.2197 0 98.5098 12.1396 129.21 21.4795z" />
    <glyph glyph-name="r" unicode="r" horiz-adv-x="374" 
d="M67.4902 -1v464.639c79.7998 30.4805 145.58 45.8008 223.36 45.8008c19.0703 0 31.1504 -0.0703125 68.7305 -5l-10.4902 -58.3301c-30.4004 4.25977 -42.79 5.0498 -58.2402 5.0498c-50.5 0 -98.5098 -12.1396 -129.21 -21.4795v-430.68h-94.1504z" />
    <glyph glyph-name="racute" unicode="&#x155;" horiz-adv-x="374" 
d="M51.6299 607.46l127.171 124.4h96.9697l-141.61 -124.4h-82.5303zM67.4805 -1v464.639c79.7998 30.4805 145.58 45.8008 223.36 45.8008c19.0703 0 31.1504 -0.0703125 68.7305 -5l-10.4902 -58.3301c-30.4004 4.25977 -42.79 5.0498 -58.2402 5.0498
c-50.5 0 -98.5098 -12.1396 -129.21 -21.4795v-430.68h-94.1504z" />
    <glyph glyph-name="rcaron" unicode="&#x159;" horiz-adv-x="374" 
d="M246.28 589.37h-47.1592l-147.49 142.49h83.0801l89.0195 -85.6602l88.0303 85.6602h83.25zM67.4912 -1v464.639c79.7998 30.4805 145.58 45.8008 223.36 45.8008c19.0703 0 31.1504 -0.0703125 68.7305 -5l-10.4902 -58.3301
c-30.4004 4.25977 -42.79 5.0498 -58.2402 5.0498c-50.5 0 -98.5098 -12.1396 -129.21 -21.4795v-430.68h-94.1504z" />
    <glyph glyph-name="rcommaaccent" unicode="&#x157;" horiz-adv-x="374" 
d="M67.4902 -1v464.639c79.7998 30.4805 145.58 45.8008 223.36 45.8008c19.0703 0 31.1504 -0.0703125 68.7305 -5l-10.4902 -58.3301c-30.4004 4.25977 -42.79 5.0498 -58.2402 5.0498c-50.5 0 -98.5098 -12.1396 -129.21 -21.4795v-430.68h-94.1504zM81.2002 -250.991
l47.5205 208h100.93l-59 -208h-89.4502z" />
    <glyph glyph-name="s" unicode="s" horiz-adv-x="432" 
d="M46 9.0498l11.0605 56.5576c60.6699 -9.08984 98.54 -14.25 129.48 -14.25c6.46973 0 12.6396 0.230469 18.6494 0.69043c48.2305 2.65039 85.9004 9.78027 86.3701 67.8301c0.330078 17.4404 -4.28027 39.2305 -25.4805 56.7109
c-18.6504 15.2402 -71.0801 50.9307 -114.48 79.6406c-62.2305 39.9004 -94.4609 68.21 -94.4609 132.96c0 4.48047 0.150391 9.14062 0.459961 13.9902c3.19043 50.0098 54.1406 107.09 174.871 107.09c55.5 0 84.8496 -2.24023 152.159 -11.6504l-11.1699 -57
c-54.0801 8.5 -87.2998 13.0898 -118.67 13.0898c-7.30957 0 -14.5195 -0.25 -21.8691 -0.759766c-56.6396 -0.44043 -79 -25.1309 -81.0703 -55.3105c-0.259766 -4.01953 -0.389648 -7.81934 -0.389648 -11.4395c0 -36.6797 13.7803 -54.0498 54.5303 -81.3193
c54.8398 -35.3203 109.42 -73.4902 125.42 -86.5703c46.54 -35.6104 54.3604 -75.1807 54.3604 -99.6504c0 -107.93 -109 -120.66 -176.04 -123.66c-6.7998 -0.290039 -13.6396 -0.429688 -20.5801 -0.429688c-40.6602 0 -84.7305 4.90039 -143.15 13.4805z" />
    <glyph glyph-name="sacute" unicode="&#x15b;" horiz-adv-x="432" 
d="M107.66 607.46l127.171 124.4h96.9697l-141.61 -124.4h-82.5303zM46.0508 9.05078l11.0605 56.5576c60.6699 -9.08984 98.54 -14.25 129.48 -14.25c6.46973 0 12.6396 0.230469 18.6494 0.69043c48.2305 2.65039 85.9004 9.78027 86.3701 67.8301
c0.330078 17.4404 -4.28027 39.2305 -25.4805 56.7109c-18.6504 15.2402 -71.0801 50.9307 -114.48 79.6406c-62.2305 39.9004 -94.4609 68.21 -94.4609 132.96c0 4.48047 0.150391 9.14062 0.459961 13.9902c3.19043 50.0098 54.1406 107.09 174.871 107.09
c55.5 0 84.8496 -2.24023 152.159 -11.6504l-11.1699 -57c-54.0801 8.5 -87.2998 13.0898 -118.67 13.0898c-7.30957 0 -14.5195 -0.25 -21.8691 -0.759766c-56.6396 -0.44043 -79 -25.1309 -81.0703 -55.3105c-0.259766 -4.01953 -0.389648 -7.81934 -0.389648 -11.4395
c0 -36.6797 13.7803 -54.0498 54.5303 -81.3193c54.8398 -35.3203 109.42 -73.4902 125.42 -86.5703c46.54 -35.6104 54.3604 -75.1807 54.3604 -99.6504c0 -107.93 -109 -120.66 -176.04 -123.66c-6.7998 -0.290039 -13.6396 -0.429688 -20.5801 -0.429688
c-40.6602 0 -84.7305 4.90039 -143.15 13.4805z" />
    <glyph glyph-name="scaron" unicode="&#x161;" horiz-adv-x="437" 
d="M259.91 580.59h-47.1592l-147.49 142.49h83.0801l89.0195 -85.6602l88.0303 85.6602h83.25zM46.0508 9.0498l11.0605 56.5576c60.6699 -9.08984 98.54 -14.25 129.48 -14.25c6.46973 0 12.6396 0.230469 18.6494 0.69043
c48.2305 2.65039 85.9004 9.78027 86.3701 67.8301c0.330078 17.4404 -4.28027 39.2305 -25.4805 56.7109c-18.6504 15.2402 -71.0801 50.9307 -114.48 79.6406c-62.2305 39.9004 -94.4609 68.21 -94.4609 132.96c0 4.48047 0.150391 9.14062 0.459961 13.9902
c3.19043 50.0098 54.1406 107.09 174.871 107.09c55.5 0 84.8496 -2.24023 152.159 -11.6504l-11.1699 -57c-54.0801 8.5 -87.2998 13.0898 -118.67 13.0898c-7.30957 0 -14.5195 -0.25 -21.8691 -0.759766c-56.6396 -0.44043 -79 -25.1309 -81.0703 -55.3105
c-0.259766 -4.01953 -0.389648 -7.81934 -0.389648 -11.4395c0 -36.6797 13.7803 -54.0498 54.5303 -81.3193c54.8398 -35.3203 109.42 -73.4902 125.42 -86.5703c46.54 -35.6104 54.3604 -75.1807 54.3604 -99.6504c0 -107.93 -109 -120.66 -176.04 -123.66
c-6.7998 -0.290039 -13.6396 -0.429688 -20.5801 -0.429688c-40.6602 0 -84.7305 4.90039 -143.15 13.4805z" />
    <glyph glyph-name="scedilla" unicode="&#x15f;" horiz-adv-x="432" 
d="M384.67 498.64l-11.1719 -57.0117c-54.0801 8.5 -87.2998 13.0898 -118.67 13.0898c-7.30957 0 -14.5195 -0.25 -21.8691 -0.759766c-56.6396 -0.44043 -79 -25.1309 -81.0703 -55.3105c-0.259766 -4.01953 -0.389648 -7.81934 -0.389648 -11.4395
c0 -36.6797 13.7803 -54.0498 54.5303 -81.3193c54.8398 -35.3203 109.42 -73.4902 125.42 -86.5703c46.54 -35.6104 54.3604 -75.1807 54.3604 -99.6504c0 -75.8301 -51.0996 -103.67 -105.88 -115.11l-25.0498 -41.5498c39.3398 -4 50.4102 -22 50.4102 -62
c0 -49 -19.7803 -70 -82.4199 -70c-5.05957 0 -32.6396 1 -58.8096 6l4.44043 32c31.0703 -1 53.0801 -1 57.5605 -1c26.6201 0 28.3896 8 28.3896 33c0 24 -5.24023 27 -28.4404 27h-35.5596l35.8604 69c-5.83984 -1 -11.3896 -1 -16.5293 -1
c-6.7998 -0.290039 -13.6396 -0.429688 -20.5801 -0.429688c-40.6602 0 -84.7305 4.90039 -143.15 13.4805l11.0498 56.5596c60.6699 -9.08984 98.54 -14.25 129.48 -14.25c6.46973 0 12.6396 0.230469 18.6494 0.69043c48.2305 2.65039 85.9004 9.78027 86.3701 67.8301
c0.330078 17.4404 -4.28027 39.2305 -25.4805 56.7109c-18.6504 15.2402 -71.0801 50.9307 -114.48 79.6504c-62.2305 39.9004 -94.4609 68.21 -94.4609 132.96c0 4.48047 0.150391 9.14062 0.459961 13.9902c3.19043 50.0098 54.1406 107.09 174.871 107.09
c55.5 0 84.8496 -2.24023 152.159 -11.6504z" />
    <glyph glyph-name="scommaaccent" unicode="&#x219;" horiz-adv-x="432" 
d="M46 9.0498l11.0605 56.5576c60.6699 -9.08984 98.54 -14.25 129.48 -14.25c6.46973 0 12.6396 0.230469 18.6494 0.69043c48.2305 2.65039 85.9004 9.78027 86.3701 67.8301c0.330078 17.4404 -4.28027 39.2305 -25.4805 56.7109
c-18.6504 15.2402 -71.0801 50.9307 -114.48 79.6406c-62.2305 39.9004 -94.4609 68.21 -94.4609 132.96c0 4.48047 0.150391 9.14062 0.459961 13.9902c3.19043 50.0098 54.1406 107.09 174.871 107.09c55.5 0 84.8496 -2.24023 152.159 -11.6504l-11.1699 -57
c-54.0801 8.5 -87.2998 13.0898 -118.67 13.0898c-7.30957 0 -14.5195 -0.25 -21.8691 -0.759766c-56.6396 -0.44043 -79 -25.1309 -81.0703 -55.3105c-0.259766 -4.01953 -0.389648 -7.81934 -0.389648 -11.4395c0 -36.6797 13.7803 -54.0498 54.5303 -81.3193
c54.8398 -35.3203 109.42 -73.4902 125.42 -86.5703c46.54 -35.6104 54.3604 -75.1807 54.3604 -99.6504c0 -107.93 -109 -120.66 -176.04 -123.66c-6.7998 -0.290039 -13.6396 -0.429688 -20.5801 -0.429688c-40.6602 0 -84.7305 4.90039 -143.15 13.4805zM108.33 -250.003
l48.04 208h100.93l-59.5195 -208h-89.4502z" />
    <glyph glyph-name="t" unicode="t" horiz-adv-x="341" 
d="M109.92 624.53l94.1699 0.000976562v-125.44h115.64v-58.2803h-115.64v-279.96c0 -85.25 6.86035 -110.54 43.6504 -111.99c2.49023 -0.370117 5.35059 -0.570312 8.62012 -0.570312c13.6299 0 34.2998 3.49023 64.5498 12.9902l-10.5703 -60.0303
c-41.0303 -8.25 -60.2002 -10.25 -77.1104 -10.25c-104.47 0 -123.31 48.7998 -123.31 169.85v279.96h-104.64v58.2803h104.64v125.44z" />
    <glyph glyph-name="tbar" unicode="&#x167;" horiz-adv-x="341" 
d="M109.92 624.53l94.1699 0.000976562v-125.44h115.64v-58.2803h-115.64v-120.01h115.64v-49.8799h-115.64v-110.07c0 -85.25 6.86035 -110.54 43.6504 -111.99c2.49023 -0.370117 5.35059 -0.570312 8.62012 -0.570312c13.6299 0 34.2998 3.49023 64.5498 12.9902
l-10.5703 -60.0303c-41.0303 -8.25 -60.2002 -10.25 -77.1104 -10.25c-104.47 0 -123.31 48.7998 -123.31 169.85v110.07h-104.64v49.8799h104.64v120.01h-104.64v58.2803h104.64v125.44z" />
    <glyph glyph-name="tcaron" unicode="&#x165;" horiz-adv-x="341" 
d="M271.07 535.77l46.5 201.32h98.7695l-58.0498 -201.32h-87.2197zM109.931 624.53l94.1699 0.000976562v-125.44h115.64v-58.2803h-115.64v-279.96c0 -85.25 6.86035 -110.54 43.6504 -111.99c2.49023 -0.370117 5.35059 -0.570312 8.62012 -0.570312
c13.6299 0 34.2998 3.49023 64.5498 12.9902l-10.5703 -60.0303c-41.0303 -8.25 -60.2002 -10.25 -77.1104 -10.25c-104.47 0 -123.31 48.7998 -123.31 169.85v279.96h-104.64v58.2803h104.64v125.44z" />
    <glyph glyph-name="tcedilla" unicode="&#x163;" horiz-adv-x="341" 
d="M109.92 624.53l94.1699 0.000976562v-125.44h115.64v-58.2803h-115.64v-279.96c0 -85.25 6.86035 -110.54 43.6504 -111.99c2.49023 -0.370117 5.35059 -0.570312 8.62012 -0.570312c13.6299 0 34.2998 3.49023 64.5498 12.9902l-10.5703 -60.0303
c-22.96 -4.25 -39.9004 -7.25 -53.0801 -8.25l-18.6104 -33c39.3398 -3 50.4102 -21 50.4102 -62c0 -49 -19.7803 -69 -82.4199 -69c-5.05957 0 -32.6494 1 -58.8193 6l4.44043 32c31.0703 -1 53.0801 -1 57.5498 -1c26.6201 0 28.3799 7 28.3799 32
c0 24 -5.24023 28 -28.4404 28h-35.5596l34.75 67c-83.1504 7 -99.0205 56.1699 -99.0205 167.85v279.96h-104.64v58.2803h104.64v125.44z" />
    <glyph glyph-name="uni021B" unicode="&#x21b;" horiz-adv-x="341" 
d="M109.92 624.53l94.1699 0.000976562v-125.44h115.64v-58.2803h-115.64v-279.96c0 -85.25 6.86035 -110.54 43.6504 -111.99c2.49023 -0.370117 5.35059 -0.570312 8.62012 -0.570312c13.6299 0 34.2998 3.49023 64.5498 12.9902l-10.5703 -60.0303
c-41.0303 -8.25 -60.2002 -10.25 -77.1104 -10.25c-104.47 0 -123.31 48.7998 -123.31 169.85v279.96h-104.64v58.2803h104.64v125.44zM104.04 -249.999l48.04 208h100.93l-59.5195 -208h-89.4502z" />
    <glyph glyph-name="thorn" unicode="&#xfe;" horiz-adv-x="563" 
d="M187.62 700l-0.0195312 -221.55c7.29004 0.950195 81.1396 30.4307 160.149 30.4307c169.83 0 211.15 -81.9902 211.15 -248.521c0 -180.46 -51.3604 -269.36 -274.11 -269.36c-34.75 0 -71.1201 2 -97.1699 4v-158h-91.1797v863h91.1797zM187.601 419.08
l-0.000976562 -366.149c2.48047 -0.0800781 66.5908 -4.45996 96.0908 -4.45996c158.98 0 181.851 61.1504 181.851 210c0 138.6 -21.4199 192.939 -117.8 192.939c-77.4404 0 -151.36 -30.3496 -160.141 -32.3301z" />
    <glyph glyph-name="u" unicode="u" horiz-adv-x="554" 
d="M496.13 499.28v-463.858c-79.4697 -30.5303 -147.04 -45.4102 -207.72 -45.4102c-169.43 0 -230.97 81.6396 -230.97 248.35v260.93h96.4902v-260.91c0 -136.94 34.5 -190.53 134.48 -190.53c36.8496 0 83.5693 12.0801 113.449 21.3496v430.08h94.2695z" />
    <glyph glyph-name="uacute" unicode="&#xfa;" horiz-adv-x="554" 
d="M174.56 597.66l127.171 124.4h96.9697l-141.61 -124.4h-82.5303zM496.131 499.271v-463.858c-79.4697 -30.5303 -147.04 -45.4102 -207.72 -45.4102c-169.43 0 -230.97 81.6396 -230.97 248.35v260.93h96.4902v-260.91c0 -136.94 34.5 -190.53 134.48 -190.53
c36.8496 0 83.5693 12.0801 113.449 21.3496v430.08h94.2695z" />
    <glyph glyph-name="ucaron" unicode="&#x1d4;" horiz-adv-x="554" 
d="M294.12 589.37h-47.1592l-147.49 142.49h83.0801l89.0195 -85.6602l88.0303 85.6602h83.25zM496.141 499.28v-463.858c-79.4697 -30.5303 -147.04 -45.4102 -207.72 -45.4102c-169.43 0 -230.97 81.6396 -230.97 248.35v260.93h96.4902v-260.91
c0 -136.94 34.5 -190.53 134.48 -190.53c36.8496 0 83.5693 12.0801 113.449 21.3496v430.08h94.2695z" />
    <glyph glyph-name="ucircumflex" unicode="&#xfb;" horiz-adv-x="554" 
d="M114.78 580.59l147.489 142.49h47.1602l148.73 -142.49h-83.25l-88.0303 85.6602l-89.0195 -85.6602h-83.0801zM496.13 499.29v-463.858c-79.4697 -30.5303 -147.04 -45.4102 -207.72 -45.4102c-169.43 0 -230.97 81.6396 -230.97 248.35v260.93h96.4902v-260.91
c0 -136.94 34.5 -190.53 134.48 -190.53c36.8496 0 83.5693 12.0801 113.449 21.3496v430.08h94.2695z" />
    <glyph glyph-name="udieresis" unicode="&#xfc;" horiz-adv-x="554" 
d="M158.18 614.18v76.3896h70.21v-76.3896h-70.21zM343.09 614.18v76.3896h70.21v-76.3896h-70.21zM496.13 499.279v-463.858c-79.4697 -30.5303 -147.04 -45.4102 -207.72 -45.4102c-169.43 0 -230.97 81.6396 -230.97 248.35v260.93h96.4902v-260.91
c0 -136.94 34.5 -190.53 134.48 -190.53c36.8496 0 83.5693 12.0801 113.449 21.3496v430.08h94.2695z" />
    <glyph glyph-name="udieresisacute" unicode="&#x1d8;" horiz-adv-x="554" 
d="M301.73 763.35h96.9707l-141.61 -124.4h-82.5303zM158.182 603.189h70.21v-76.3896h-70.21v76.3896zM343.102 603.189h70.21v-76.3896h-70.21v76.3896zM401.882 499.279l95.6699 0.0117188v-463.87c-80.8701 -30.5303 -148.44 -45.4102 -209.12 -45.4102
c-169.43 0 -230.97 81.6396 -230.97 248.35v260.93h96.4902v-260.91c0 -136.94 34.5 -190.53 134.48 -190.53c36.8496 0 83.5693 12.0801 113.449 21.3496v430.08z" />
    <glyph glyph-name="udieresiscaron" unicode="&#x1da;" horiz-adv-x="554" 
d="M375.06 767.74h83.251l-148.73 -142.49h-47.1602l-147.49 142.49h83.0801l89.0195 -85.6602zM158.181 603.33h70.21v-76.3896h-70.21v76.3896zM343.101 603.33h70.21v-76.3896h-70.21v76.3896zM401.881 499.28l95.6699 0.0117188v-463.87
c-80.8701 -30.5303 -148.44 -45.4102 -209.12 -45.4102c-169.43 0 -230.97 81.6396 -230.97 248.35v260.93h96.4902v-260.91c0 -136.94 34.5 -190.53 134.48 -190.53c36.8496 0 83.5693 12.0801 113.449 21.3496v430.08z" />
    <glyph glyph-name="udieresisgrave" unicode="&#x1dc;" horiz-adv-x="554" 
d="M180.18 763.79h96.9609l127.13 -124.4h-82.4805zM158.171 603.09h70.21v-76.3896h-70.21v76.3896zM343.091 603.09h70.21v-76.3896h-70.21v76.3896zM401.871 499.28l95.6699 0.0117188v-463.87c-80.8701 -30.5303 -148.44 -45.4102 -209.12 -45.4102
c-169.43 0 -230.97 81.6396 -230.97 248.35v260.93h96.4902v-260.91c0 -136.94 34.5 -190.53 134.48 -190.53c36.8496 0 83.5693 12.0801 113.449 21.3496v430.08z" />
    <glyph glyph-name="udieresismacron" unicode="&#x1d6;" horiz-adv-x="554" 
d="M114.91 723.97h341.64v-54.21h-341.64v54.21zM158.17 603.33h70.21v-76.3896h-70.21v76.3896zM343.09 603.33h70.21v-76.3896h-70.21v76.3896zM401.87 499.28l95.6699 0.0117188v-463.87c-80.8701 -30.5303 -148.44 -45.4102 -209.12 -45.4102
c-169.43 0 -230.97 81.6396 -230.97 248.35v260.93h96.4902v-260.91c0 -136.94 34.5 -190.53 134.48 -190.53c36.8496 0 83.5693 12.0801 113.449 21.3496v430.08z" />
    <glyph glyph-name="udotbelow" unicode="&#x1ee5;" horiz-adv-x="554" 
d="M496.13 499.28v-463.858c-79.4697 -30.5303 -147.04 -45.4102 -207.72 -45.4102c-169.43 0 -230.97 81.6396 -230.97 248.35v260.93h96.4902v-260.91c0 -136.94 34.5 -190.53 134.48 -190.53c36.8496 0 83.5693 12.0801 113.449 21.3496v430.08h94.2695zM250.92 -85.9883
h70.21v-77h-70.21v77z" />
    <glyph glyph-name="ugrave" unicode="&#xf9;" horiz-adv-x="554" 
d="M180.18 723.07h96.9609l127.13 -124.4h-82.4805zM496.121 499.28v-463.858c-79.4697 -30.5303 -147.04 -45.4102 -207.72 -45.4102c-169.43 0 -230.97 81.6396 -230.97 248.35v260.93h96.4902v-260.91c0 -136.94 34.5 -190.53 134.48 -190.53
c36.8496 0 83.5693 12.0801 113.449 21.3496v430.08h94.2695z" />
    <glyph glyph-name="uhookabove" unicode="&#x1ee7;" horiz-adv-x="554" 
d="M238.52 672.24l-4.43066 32.1406c17.6504 4.16992 41.9502 5.95996 49.5205 5.95996c62.6396 0 79.6299 -20.46 79.6299 -69.2998c0 -40.54 -11.0703 -58.4502 -50.1201 -61.96v-31.0498h-47.0996v65.46h17.9199c23.2002 0 28.4404 3.59961 28.4404 27.5293
c0 25.0498 -1.76953 32.3799 -28.3896 32.6602c-4.48047 0 -14.4004 0 -45.4707 -1.44043zM496.139 499.281v-463.858c-79.4697 -30.5303 -147.04 -45.4102 -207.72 -45.4102c-169.43 0 -230.97 81.6396 -230.97 248.35v260.93h96.4902v-260.91
c0 -136.94 34.5 -190.53 134.48 -190.53c36.8496 0 83.5693 12.0801 113.449 21.3496v430.08h94.2695z" />
    <glyph glyph-name="uhorn" unicode="&#x1b0;" horiz-adv-x="585" 
d="M553.95 531.24l37.8799 7.77148c6.62988 -23.0801 9.59961 -43.71 9.59961 -61.7803c0 -44.5596 -18.0703 -73.5498 -43.9307 -85.3301c-10.1797 -4.59961 -20.5 -6.68945 -30.7598 -6.68945c-10.3203 0 -20.5898 2.11035 -30.6094 5.91016v-355.71
c-79.4697 -30.5303 -147.04 -45.4102 -207.72 -45.4102c-169.43 0 -230.97 81.6396 -230.97 248.35v260.93h96.4902v-260.91c0 -136.94 34.5 -190.53 134.48 -190.53c36.8496 0 83.5693 12.0801 113.449 21.3496v430.08h95.4902v-58.2402
c4.07031 -0.740234 8.11035 -1.11035 12.0801 -1.11035c8.2998 0 16.2598 1.61035 23.4697 4.84082c16.6504 7.75977 25.3701 28.6895 25.3701 54.0898c0 10.2598 -1.41992 21.25 -4.32031 32.3896z" />
    <glyph glyph-name="uhornacute" unicode="&#x1ee9;" horiz-adv-x="585" 
d="M174.56 597.66l127.171 124.4h96.9697l-141.61 -124.4h-82.5303zM553.95 531.24l37.8896 7.78125c6.62988 -23.0898 9.59961 -43.7197 9.59961 -61.79c0 -44.5596 -18.0703 -73.5498 -43.9307 -85.3301c-10.1797 -4.59961 -20.5 -6.68945 -30.7695 -6.68945
c-10.3203 0 -20.5898 2.11035 -30.6094 5.91016v-355.71c-79.4697 -30.5303 -147.04 -45.4102 -207.72 -45.4102c-169.43 0 -230.97 81.6396 -230.97 248.35v260.93h96.4902v-260.91c0 -136.94 34.5 -190.53 134.48 -190.53c36.8496 0 83.5693 12.0801 113.449 21.3496
v430.08h95.4902v-58.2402c4.07031 -0.740234 8.11035 -1.11035 12.0801 -1.11035c8.2998 0 16.2598 1.61035 23.4697 4.84082c16.6504 7.75977 25.3701 28.6895 25.3701 54.0898c0 10.2598 -1.41992 21.25 -4.32031 32.3896z" />
    <glyph glyph-name="uhorndotbelow" unicode="&#x1ef1;" horiz-adv-x="585" 
d="M553.95 531.24l37.8896 7.78125c6.62988 -23.0898 9.59961 -43.7197 9.59961 -61.79c0 -44.5596 -18.0703 -73.5498 -43.9307 -85.3301c-10.1797 -4.59961 -20.5 -6.68945 -30.7695 -6.68945c-10.3203 0 -20.5898 2.11035 -30.6094 5.91016v-355.71
c-79.4697 -30.5303 -147.04 -45.4102 -207.72 -45.4102c-169.43 0 -230.97 81.6396 -230.97 248.35v260.93h96.4902v-260.91c0 -136.94 34.5 -190.53 134.48 -190.53c36.8496 0 83.5693 12.0801 113.449 21.3496v430.08h95.4902v-58.2402
c4.07031 -0.740234 8.11035 -1.11035 12.0801 -1.11035c8.2998 0 16.2598 1.61035 23.4697 4.84082c16.6504 7.75977 25.3701 28.6895 25.3701 54.0898c0 10.2598 -1.41992 21.25 -4.32031 32.3896zM250.93 -86.0088h70.21v-77h-70.21v77z" />
    <glyph glyph-name="uhorngrave" unicode="&#x1eeb;" horiz-adv-x="601" 
d="M180.18 731.86h96.9609l127.13 -124.4h-82.4805zM553.94 531.24l37.8896 7.78125c6.62988 -23.0898 9.59961 -43.7197 9.59961 -61.79c0 -44.5596 -18.0703 -73.5498 -43.9307 -85.3301c-10.1797 -4.59961 -20.5 -6.68945 -30.7695 -6.68945
c-10.3203 0 -20.5898 2.11035 -30.6094 5.91016v-355.71c-79.4697 -30.5303 -147.04 -45.4102 -207.72 -45.4102c-169.43 0 -230.97 81.6396 -230.97 248.35v260.93h96.4902v-260.91c0 -136.94 34.5 -190.53 134.48 -190.53c36.8496 0 83.5693 12.0801 113.449 21.3496
v430.08h95.4902v-58.2402c4.07031 -0.740234 8.11035 -1.11035 12.0801 -1.11035c8.2998 0 16.2598 1.61035 23.4697 4.84082c16.6504 7.75977 25.3701 28.6895 25.3701 54.0898c0 10.2598 -1.41992 21.25 -4.32031 32.3896z" />
    <glyph glyph-name="uhornhookabove" unicode="&#x1eed;" horiz-adv-x="585" 
d="M238.52 672.24l-4.43066 32.1406c17.6504 4.16992 41.9502 5.95996 49.5205 5.95996c62.6396 0 79.6299 -20.46 79.6299 -69.2998c0 -40.54 -11.0703 -58.4502 -50.1201 -61.96v-31.0498h-47.0996v65.46h17.9199c23.2002 0 28.4404 3.59961 28.4404 27.5293
c0 25.0498 -1.76953 32.3799 -28.3896 32.6602c-4.48047 0 -14.4004 0 -45.4707 -1.44043zM553.959 531.241l37.8896 7.78125c6.62988 -23.0898 9.59961 -43.7197 9.59961 -61.79c0 -44.5596 -18.0703 -73.5498 -43.9307 -85.3301
c-10.1797 -4.59961 -20.5 -6.68945 -30.7695 -6.68945c-10.3203 0 -20.5898 2.11035 -30.6094 5.91016v-355.71c-79.4697 -30.5303 -147.04 -45.4102 -207.72 -45.4102c-169.43 0 -230.97 81.6396 -230.97 248.35v260.93h96.4902v-260.91
c0 -136.94 34.5 -190.53 134.48 -190.53c36.8496 0 83.5693 12.0801 113.449 21.3496v430.08h95.4902v-58.2402c4.07031 -0.740234 8.11035 -1.11035 12.0801 -1.11035c8.2998 0 16.2598 1.61035 23.4697 4.84082c16.6504 7.75977 25.3701 28.6895 25.3701 54.0898
c0 10.2598 -1.41992 21.25 -4.32031 32.3896z" />
    <glyph glyph-name="uhorntilde" unicode="&#x1eef;" horiz-adv-x="585" 
d="M426.96 702.48l44.9102 -28.3105c-34.6504 -34.4102 -71.0508 -62.0703 -109.98 -62.0703c-69.9502 0 -92.2002 50.9902 -140.32 50.9902c-21.8398 0 -50.6494 -22.9102 -73.3193 -43l-46.3301 31.96c38.8604 33.1299 77.2207 58.1699 120.73 58.1699
c68.5898 0 94.5 -49.7598 137.51 -49.7598c19.0098 0 47.8096 25.1201 66.7998 42.0205zM553.97 531.22l37.8896 7.78125c6.62988 -23.0898 9.59961 -43.7197 9.59961 -61.79c0 -44.5596 -18.0703 -73.5498 -43.9307 -85.3301
c-10.1797 -4.59961 -20.5 -6.68945 -30.7695 -6.68945c-10.3203 0 -20.5898 2.11035 -30.6094 5.91016v-355.71c-79.4697 -30.5303 -147.04 -45.4102 -207.72 -45.4102c-169.43 0 -230.97 81.6396 -230.97 248.35v260.93h96.4902v-260.91
c0 -136.94 34.5 -190.53 134.48 -190.53c36.8496 0 83.5693 12.0801 113.449 21.3496v430.08h95.4902v-58.2402c4.07031 -0.740234 8.11035 -1.11035 12.0801 -1.11035c8.2998 0 16.2598 1.61035 23.4697 4.84082c16.6504 7.75977 25.3701 28.6895 25.3701 54.0898
c0 10.2598 -1.41992 21.25 -4.32031 32.3896z" />
    <glyph glyph-name="uhungarumlaut" unicode="&#x171;" horiz-adv-x="554" 
d="M100.38 607.46l127.121 124.4h96.9697l-141.61 -124.4h-82.4805zM261.301 607.46l127.121 124.4h96.9697l-141.61 -124.4h-82.4805zM496.132 499.28v-463.858c-79.4697 -30.5303 -147.04 -45.4102 -207.72 -45.4102c-169.43 0 -230.97 81.6396 -230.97 248.35v260.93
h96.4902v-260.91c0 -136.94 34.5 -190.53 134.48 -190.53c36.8496 0 83.5693 12.0801 113.449 21.3496v430.08h94.2695z" />
    <glyph glyph-name="umacron" unicode="&#x16b;" horiz-adv-x="554" 
d="M432.14 645.8h-341.64v54.21h341.64v-54.21zM496.14 499.28v-463.858c-79.4697 -30.5303 -147.04 -45.4102 -207.72 -45.4102c-169.43 0 -230.97 81.6396 -230.97 248.35v260.93h96.4902v-260.91c0 -136.94 34.5 -190.53 134.48 -190.53
c36.8496 0 83.5693 12.0801 113.449 21.3496v430.08h94.2695z" />
    <glyph glyph-name="uogonek" unicode="&#x173;" horiz-adv-x="554" 
d="M496.13 499.28v-463.868c-33 -12.6699 -63.29 -22.5195 -91.7598 -29.7197c-30.2002 -19.1396 -48.8906 -51.0898 -48.8906 -79.3896c0 -8.20996 1.57031 -16.1104 4.89062 -23.3008c7.79004 -16.46 28.8701 -25.2402 54.4199 -25.2402
c10.1602 0 21.0303 1.38965 32.0498 4.23926l7.79004 -38c-23.0195 -6.62012 -43.5996 -9.60059 -61.6396 -9.60059c-44.6504 0 -73.7002 18.2402 -85.4902 44.6006c-5.03027 11.2695 -7.33008 22.8398 -7.33008 34.2998c0 30.2305 16.0498 59.6807 40.4102 80.7109
c-17.9805 -3 -35.3604 -4 -52.1699 -4c-169.43 0 -230.97 81.6396 -230.97 248.35v260.93h96.4902v-260.91c0 -136.94 34.5 -190.53 134.48 -190.53c36.8496 0 83.5693 12.0801 113.449 21.3496v430.08h94.2695z" />
    <glyph glyph-name="uring" unicode="&#x16f;" horiz-adv-x="554" 
d="M284.12 745.68c67.04 0 118.311 -43.6416 118.311 -97.6816c0 -55.0498 -51.4004 -97.6797 -118.311 -97.6797c-68.1299 0 -118.32 42.6904 -118.32 97.6807c0 53.9805 50.0703 97.6807 118.32 97.6807zM284.94 700.888c-33.6699 0 -55.9707 -21.0781 -55.9707 -53.1484
c0 -32.6904 22.1504 -53.6309 55.9707 -53.6309c33.3604 0 55.79 21.1602 55.79 53.6201c0 31.8496 -22.5898 53.1592 -55.79 53.1592zM401.85 499.289l95.6699 0.0117188v-463.87c-80.8701 -30.5303 -148.44 -45.4102 -209.12 -45.4102
c-169.43 0 -230.97 81.6396 -230.97 248.35v260.93h96.4902v-260.91c0 -136.94 34.5 -190.53 134.48 -190.53c36.8496 0 83.5693 12.0801 113.449 21.3496v430.08z" />
    <glyph glyph-name="utilde" unicode="&#x169;" horiz-adv-x="554" 
d="M426.96 702.48l44.9102 -28.3105c-34.6504 -34.4102 -71.0508 -62.0703 -109.98 -62.0703c-69.9502 0 -92.2002 50.9902 -140.32 50.9902c-21.8398 0 -50.6494 -22.9102 -73.3193 -43l-46.3301 31.96c38.8604 33.1299 77.2207 58.1699 120.73 58.1699
c68.5898 0 94.5 -49.7598 137.51 -49.7598c19.0098 0 47.8096 25.1201 66.7998 42.0205zM496.15 499.26v-463.858c-79.4697 -30.5303 -147.04 -45.4102 -207.72 -45.4102c-169.43 0 -230.97 81.6396 -230.97 248.35v260.93h96.4902v-260.91
c0 -136.94 34.5 -190.53 134.48 -190.53c36.8496 0 83.5693 12.0801 113.449 21.3496v430.08h94.2695z" />
    <glyph glyph-name="v" unicode="v" horiz-adv-x="512" 
d="M12.21 500.12h97.29l139.52 -406.76h13.0703l141.55 406.76h97.3301l-184.65 -500.12h-121.81z" />
    <glyph glyph-name="w" unicode="w" horiz-adv-x="844" 
d="M12.21 500.12h97.1182l120.06 -402.01h8.87012l140.3 392.54h87.4404l139.23 -392.4h8.78027l121.23 401.87h97.1602l-161.13 -500.12h-120.15l-129.51 369.68l-130.45 -369.68h-120.18z" />
    <glyph glyph-name="wacute" unicode="&#x1e83;" horiz-adv-x="844" 
d="M311.23 597.66l127.171 124.4h96.9697l-141.61 -124.4h-82.5303zM12.2109 500.11h97.1182l120.06 -402.01h8.87012l140.3 392.54h87.4404l139.23 -392.4h8.78027l121.23 401.87h97.1602l-161.13 -500.12h-120.15l-129.51 369.68l-130.45 -369.68h-120.18z" />
    <glyph glyph-name="wcircumflex" unicode="&#x175;" horiz-adv-x="844" 
d="M251.45 589.08l147.489 142.49h47.1602l148.73 -142.49h-83.25l-88.0303 85.6602l-89.0195 -85.6602h-83.0801zM12.209 500.12h97.1182l120.06 -402.01h8.87012l140.3 392.54h87.4404l139.23 -392.4h8.78027l121.23 401.87h97.1602l-161.13 -500.12h-120.15
l-129.51 369.68l-130.45 -369.68h-120.18z" />
    <glyph glyph-name="wdieresis" unicode="&#x1e85;" horiz-adv-x="844" 
d="M294.85 614.18v76.3896h70.21v-76.3896h-70.21zM479.76 614.18v76.3896h70.21v-76.3896h-70.21zM12.21 500.119h97.1182l120.06 -402.01h8.87012l140.3 392.54h87.4404l139.23 -392.4h8.78027l121.23 401.87h97.1602l-161.13 -500.12h-120.15l-129.51 369.68
l-130.45 -369.68h-120.18z" />
    <glyph glyph-name="wgrave" unicode="&#x1e81;" horiz-adv-x="844" 
d="M316.85 731.86h96.9609l127.13 -124.4h-82.4805zM12.2002 500.12h97.1182l120.06 -402.01h8.87012l140.3 392.54h87.4404l139.23 -392.4h8.78027l121.23 401.87h97.1602l-161.13 -500.12h-120.15l-129.51 369.68l-130.45 -369.68h-120.18z" />
    <glyph glyph-name="x" unicode="x" horiz-adv-x="527" 
d="M12.9502 500h104.06l146.46 -197.62l147.7 197.62h104.08l-198.76 -250l198.28 -250h-105.23l-146.06 197.43l-146.04 -197.43h-105.23l198.26 250z" />
    <glyph glyph-name="y" unicode="y" horiz-adv-x="515" 
d="M406.73 500.01h97.3193l-245.09 -664.01h-95.2598l61.5703 164h-31.9102l-181.16 500.01h97.2803l141.45 -405.98h12.3496z" />
    <glyph glyph-name="yacute" unicode="&#xfd;" horiz-adv-x="515" 
d="M263.97 722.62h96.9707l-141.61 -124.4h-82.5303zM406.74 500.01h97.3193l-245.09 -664.01h-95.2598l61.5703 164h-31.9102l-181.16 500.01h97.2803l141.45 -405.98h12.3496z" />
    <glyph glyph-name="ycircumflex" unicode="&#x177;" horiz-adv-x="515" 
d="M224.51 731.57h47.1592l148.73 -142.49h-83.25l-88.0303 85.6602l-89.0195 -85.6602h-83.0801zM406.729 500.011h97.3193l-245.09 -664.01h-95.2598l61.5703 164h-31.9102l-181.16 500.01h97.2803l141.45 -405.98h12.3496z" />
    <glyph glyph-name="ydieresis" unicode="&#xff;" horiz-adv-x="515" 
d="M120.42 690.57h70.21v-76.3896h-70.21v76.3896zM305.34 690.57h70.21v-76.3896h-70.21v76.3896zM406.75 500.011h97.3193l-245.09 -664.01h-95.2598l61.5703 164h-31.9102l-181.16 500.01h97.2803l141.45 -405.98h12.3496z" />
    <glyph glyph-name="ydotbelow" unicode="&#x1ef5;" horiz-adv-x="515" 
d="M406.73 500.01h97.3193l-245.09 -664.01h-95.2598l61.5703 164h-31.9102l-181.16 500.01h97.2803l141.45 -405.98h12.3496zM344.18 -86h70.21v-77h-70.21v77z" />
    <glyph glyph-name="ygrave" unicode="&#x1ef3;" horiz-adv-x="515" 
d="M142.42 731.86h96.9609l127.13 -124.4h-82.4805zM406.73 500.011h97.3193l-245.09 -664.01h-95.2598l61.5703 164h-31.9102l-181.16 500.01h97.2803l141.45 -405.98h12.3496z" />
    <glyph glyph-name="yhookabove" unicode="&#x1ef7;" horiz-adv-x="515" 
d="M214.95 672.24l-4.4209 32.1406c17.6504 4.16992 41.9502 5.95996 49.5205 5.95996c62.6396 0 79.6299 -20.46 79.6299 -69.2998c0 -40.54 -11.0703 -58.4502 -50.1201 -61.96v-31.0498h-47.0996v65.46h17.9199c23.2002 0 28.4404 3.59961 28.4404 27.5293
c0 25.0498 -1.76953 32.3799 -28.3896 32.6602c-4.48047 0 -14.4102 0 -45.4805 -1.44043zM406.749 500.011h97.3193l-245.09 -664.01h-95.2598l61.5703 164h-31.9102l-181.16 500.01h97.2803l141.45 -405.98h12.3496z" />
    <glyph glyph-name="ytilde" unicode="&#x1ef9;" horiz-adv-x="515" 
d="M110.52 620.1l-46.3301 31.9395c38.8604 33.1299 77.2207 58.1699 120.73 58.1699c68.5898 0 94.5 -49.7598 137.51 -49.7598c19.0098 0 47.8096 25.1201 66.7998 42.0205l44.9004 -28.29c-34.6504 -34.4102 -71.0508 -62.0703 -109.98 -62.0703
c-69.9502 0 -92.2002 50.9902 -140.32 50.9902c-21.8398 0 -50.6396 -22.9102 -73.3096 -43zM406.739 499.989h97.3193l-245.09 -664.01h-95.2598l61.5703 164h-31.9102l-181.16 500.01h97.2803l141.45 -405.98h12.3496z" />
    <glyph glyph-name="z" unicode="z" horiz-adv-x="541" 
d="M38.8398 441.72v58.2803h463.89v-46.7998l-343.92 -394.92h343.92v-58.2803h-463.89v46.7998l343.92 394.92h-343.92z" />
    <glyph glyph-name="zacute" unicode="&#x17a;" horiz-adv-x="541" 
d="M131.94 607.46l127.171 124.4h96.9697l-141.61 -124.4h-82.5303zM38.8418 441.721v58.2803h463.89v-46.7998l-343.92 -394.92h343.92v-58.2803h-463.89v46.7998l343.92 394.92h-343.92z" />
    <glyph glyph-name="zcaron" unicode="&#x17e;" horiz-adv-x="541" 
d="M295.13 580.59h-47.1592l-147.49 142.49h83.0801l89.0195 -85.6602l88.0303 85.6602h83.25zM38.8506 441.72v58.2803h463.89v-46.7998l-343.92 -394.92h343.92v-58.2803h-463.89v46.7998l343.92 394.92h-343.92z" />
    <glyph glyph-name="zdotaccent" unicode="&#x17c;" horiz-adv-x="541" 
d="M178.03 623.61v76.3896h70.21v-76.3896h-70.21zM38.8398 441.72v58.2803h463.89v-46.7998l-343.92 -394.92h343.92v-58.2803h-463.89v46.7998l343.92 394.92h-343.92z" />
    <glyph glyph-name="fi" unicode="&#xfb01;" horiz-adv-x="568" 
d="M114.64 501.52l-0.000976562 34.0703c0 135.99 59.1699 163.92 142.86 163.92c28.2803 0 63.6104 -5.08008 105.07 -17.9805l-11.7197 -53.6904c-35.5098 11.1201 -66.8496 14.5898 -82.75 14.0801c-40.2305 -0.179688 -59.0303 -10.8193 -59.0303 -102.569v-37.8301
h115.36v-58.2803h-115.36v-443.07h-94.4297v443.07h-104.36v58.2803h104.36zM421.119 690.6h94.29v-80.0596h-94.29v80.0596zM421.119 499.989h94.29v-500h-94.29v500z" />
    <glyph glyph-name="fl" unicode="&#xfb02;" horiz-adv-x="568" 
d="M421.12 0v700.1h94.29v-700.1h-94.29zM114.64 501.52l-0.000976562 34.0703c0 135.99 59.1699 163.92 142.86 163.92c28.2803 0 63.6104 -5.08008 105.07 -17.9805l-11.7197 -53.6904c-35.5098 11.1201 -66.8496 14.5898 -82.75 14.0801
c-40.2305 -0.179688 -59.0303 -10.8193 -59.0303 -102.569v-37.8301h115.36v-58.2803h-115.36v-443.07h-94.4297v443.07h-104.36v58.2803h104.36z" />
    <glyph glyph-name="ordfeminine" unicode="&#xaa;" horiz-adv-x="287" 
d="M53.3203 618.87l-8.15918 41.9082c35.9004 4.33008 75.29 8.53027 109.04 8.53027c70.79 0 104.42 -35.1104 104.42 -93.8408v-175.68c-44.7402 -14.5498 -85.6602 -25.5 -139.141 -25.5c-56.4297 0 -93.5996 32.4697 -93.5996 88.6299
c0 49.1602 29.2197 81.3906 98.1797 87.541l76.2695 7.04004v20.3203c0 34.4199 -14.1904 48.6504 -46.1104 48.6504c-26.3398 0 -64.3994 -3.41992 -100.899 -7.59961zM200.352 427.608l0.0107422 87.8115l-70.29 -6.12012
c-34.9502 -3.41992 -44.5 -19.2295 -44.5 -46.3799c0 -30.7305 12.5195 -46.1406 36.2793 -47.001c27.4004 -0.860352 58.2305 6.50977 78.5 11.6895z" />
    <glyph glyph-name="ordmasculine" unicode="&#xba;" horiz-adv-x="306" 
d="M154.56 665.23c79.2305 0 126.47 -41.0898 126.47 -138.17c0 -96.9697 -26.7197 -147.21 -126.479 -147.21c-99.7002 0 -128.74 43.1602 -128.74 148.22c0 98.3604 41.7998 137.16 128.75 137.16zM154.539 421.04c59.1299 0 68.6904 28.2998 68.6904 106.01
c0 74.4102 -24.6104 96.9697 -68.6904 96.9697c-53.2598 0 -70.9502 -17.3096 -70.9502 -95.96c0 -83.7998 10.5898 -107.02 70.9502 -107.02z" />
    <glyph glyph-name="florin" unicode="&#x192;" horiz-adv-x="454" 
d="M403.92 681.54l-11.7197 -53.7109c-35.5098 11.1201 -66.8496 14.5898 -82.75 14.0801c-40.2305 -0.179688 -59.0303 -10.8193 -59.0303 -102.569v-117.43h115.36v-58.2803h-115.36v-363.64c0 -166 -78.7002 -172 -170.74 -171v42c62.7695 3 76.4492 13 76.3096 129
v363.64h-104.36v58.2803h104.36v113.69c0 135.99 59.1699 163.92 142.86 163.92c28.2803 0 63.6104 -5.08008 105.07 -17.9805z" />
    <glyph glyph-name="Delta" unicode="&#x394;" horiz-adv-x="600" 
 />
    <glyph glyph-name="Omega" unicode="&#x3a9;" horiz-adv-x="600" 
 />
    <glyph glyph-name="mu" unicode="&#x3bc;" horiz-adv-x="530" 
 />
    <glyph glyph-name="pi" unicode="&#x3c0;" horiz-adv-x="530" 
 />
    <glyph glyph-name="zero" unicode="0" horiz-adv-x="678" 
d="M338.94 670.14c182.74 0 277.589 -73.5889 277.589 -355.449c0 -252.66 -103.56 -323.69 -276.489 -323.69c-172.83 0 -277.6 70.9697 -277.6 325.6c0 282.26 101.16 353.54 276.5 353.54zM338.939 609.061c-119.78 0 -178.91 -53.1494 -178.91 -294.38
c0 -216.61 65.1699 -262.75 180.01 -262.75c114.71 0 178.9 46.0801 178.9 264.67c0 237.18 -57.21 292.46 -180 292.46z" />
    <glyph glyph-name="one" unicode="1" horiz-adv-x="392" 
d="M19.1797 534.89l218.49 125.64h77.96v-661.53h-95.3896v575.62l-175.23 -103.67z" />
    <glyph glyph-name="two" unicode="2" horiz-adv-x="623" 
d="M95.3203 596.44l-11.0088 59.9014c84.6396 9.37012 128.42 11.6504 205.51 11.6504c179.79 0 255.4 -71.3496 260.44 -137.58c7.53027 -98.9502 -42.6602 -135.2 -142.71 -191.311c-105.98 -60.1299 -188.261 -101.24 -219.351 -128.51
c-32.6904 -29.7002 -40.9102 -62.0605 -40.9102 -88.3906v-60.5195h414.47v-61.6602h-510.13v126.01c0 32.7197 12.1699 93.3193 76.2197 134.8c29.9805 20.1396 117.37 69.79 224.72 130.63c80.8301 44.6602 107.63 63.3398 102.25 135.01
c-3.12012 42.4102 -51.3799 81.46 -165 81.46c-74.5098 0 -110.3 -1.94043 -194.5 -11.4902z" />
    <glyph glyph-name="three" unicode="3" horiz-adv-x="621" 
d="M57.1201 581.48l-12.1299 61.2705c27.8096 5.87988 131.96 27.3701 248.37 27.3701c174.89 0 245.699 -58.0098 245.699 -172.39c0 -104.66 -96.4502 -135.71 -107.58 -143.84c73.54 -23.0898 128.49 -58.7803 128.49 -165.73c0 -129.87 -85.46 -197.17 -256.69 -197.17
c-126.52 0 -224.46 18.54 -268.94 26.96l13.5 61.0098c37.4902 -7.62988 137.91 -27.0303 255.23 -27.0303c112.4 0.839844 159.32 46.8203 159.32 133.351c0 101.27 -68.1797 128.399 -151.33 132.399h-174.27v61.0801h174.2c49.8799 0 130.51 35.2305 130.51 119.94
c0 77.9297 -37.0801 110.359 -147 110.359c-108.14 0 -205.77 -21.3896 -237.38 -27.5801z" />
    <glyph glyph-name="four" unicode="4" horiz-adv-x="660" 
d="M427.9 -1l-0.0107422 126.991h-376.26v44.2803l244.87 490.27h100.03l-233.2 -473.48h264.57v171.56h90.9297v-171.56h101.2v-61.0801h-101.2v-126.98h-90.9297z" />
    <glyph glyph-name="five" unicode="5" horiz-adv-x="613" 
d="M64.29 660.39l468.1 -0.0175781l-22.6104 -62.0303h-354.57l-15.5996 -201.34c42.2197 11.04 110.27 25.6797 166.05 25.6797c149.84 0 256.7 -52.9404 256.7 -198.271c0 -154.58 -104.13 -231.42 -267.7 -231.42c-115.55 0 -220.2 20.4502 -260.47 27l13.9199 61.4805
c36.7402 -6.83008 144.65 -27.7803 245.44 -27.7803c103.07 0 171.21 57.8896 171.21 170.729c0 106.75 -63 137.19 -160.2 137.19c-59.2402 0 -140.5 -21.9805 -174.85 -31.8408l-87.2998 -1.90039z" />
    <glyph glyph-name="six" unicode="6" horiz-adv-x="632" 
d="M555.59 647.29l-9.01953 -60.7178c-24.3301 4.59961 -108.16 22.4893 -196.26 22.4893c-120.12 0 -193.47 -60.8096 -199.01 -229.09c9.75977 2.2998 102.29 37.1396 181.29 37.1396c174.23 0 256.75 -71.6504 256.75 -204.021
c0 -134.58 -82.9902 -222.09 -263.19 -222.09c-193.19 0 -274.46 114.66 -274.46 345.73c0 248.14 118.22 333.409 298.609 333.409c97.8701 0 169.03 -16.1504 205.29 -22.8506zM150.95 317.912l0.000976562 -30.3105c5.07031 -153.68 48.4502 -235.59 175.22 -235.59
c115.5 0 165.54 51.8701 165.54 161.15c0 101.75 -51.2598 142.87 -159.62 142.87c-81.3398 -2.16992 -171.53 -35.3301 -181.141 -38.1201z" />
    <glyph glyph-name="seven" unicode="7" horiz-adv-x="550" 
d="M531.12 660.33l-0.0107422 -50.2402c-189.42 -185.3 -267.04 -506.729 -297.74 -610.1h-98.6797c40.9404 127.46 115.28 413.97 278.98 599.26h-372.88l-10.79 61.0801h501.12z" />
    <glyph glyph-name="eight" unicode="8" horiz-adv-x="707" 
d="M348.3 670.14c181.09 0 270.859 -52.7793 270.859 -171.439c0 -69.71 -32.7197 -117.5 -98.9502 -144.67c78.5 -24.9697 126.07 -75.1094 126.07 -168.739c0 -152.77 -121.46 -194.3 -291.94 -194.3c-170.2 0 -291.55 41.5303 -291.55 194.3
c0 90.9697 45.4004 140.97 120.57 166.649c-69.0498 27.21 -101.31 76.21 -101.31 146.77c0 116.14 82.1797 171.43 266.25 171.43zM348.339 609.05c-129.89 0 -168.609 -24.8906 -168.609 -111.261c0 -90.96 36.0195 -118.18 174.609 -118.02
c126.54 0.330078 166.1 30.1504 166.1 118.021c0 87.4697 -39.5098 111.26 -172.1 111.26zM354.339 316.77c-132.77 0 -194.18 -24.2402 -194.18 -132.4s61.4102 -132.4 194.18 -132.4c133.05 0 194.46 24.2402 194.46 132.4s-61.4102 132.4 -194.46 132.4z" />
    <glyph glyph-name="nine" unicode="9" horiz-adv-x="643" 
d="M78.9502 13.5703l9.00977 60.7295c24.3301 -4.59961 108.16 -22.4893 196.26 -22.4893c120.13 0 193.479 60.8096 199.02 229.09c-9.75977 -2.2998 -102.29 -37.1396 -181.29 -37.1396c-174.23 0 -256.75 71.6504 -256.75 204.021c0 134.58 82.9902 222.36 263.19 222.36
c193.19 0 274.46 -114.94 274.46 -346.011c0 -248.14 -118.22 -333.13 -298.609 -333.13c-97.8701 0 -169.03 15.9297 -205.29 22.5693zM483.58 342.96l0.00976562 30.3105c-5.07031 153.68 -48.4502 235.59 -175.22 235.59c-115.5 0 -165.54 -51.8701 -165.54 -161.15
c0 -101.75 51.2598 -142.87 159.62 -142.87c81.3398 2.16992 171.53 35.3301 181.13 38.1201z" />
    <glyph glyph-name="onequarter" unicode="&#xbc;" horiz-adv-x="899" 
d="M533.4 715.43h78.6689l-305.14 -731.43h-79.9697zM178.369 700.93l59.3896 0.00976562v-462.3h-75.8799v383.06l-113.6 -67.8604l-22.46 57.9805zM648.499 462.789l80.9893 0.000976562l-155.47 -319.49h158.55l8.58008 115.77h65.0703v-115.77h67.4697v-57.4404
h-67.4697v-85.3701h-73.6396v85.3701h-250.1v40.1201z" />
    <glyph glyph-name="onehalf" unicode="&#xbd;" horiz-adv-x="942" 
d="M533.55 715.43h78.6699l-305.13 -731.43h-79.9805zM178.52 700.93l59.3896 0.00976562v-462.3h-75.8799v383.06l-113.56 -67.8604l-22.6504 57.9805zM596.049 402.199l-11.5986 55.8311c47.8398 6.55957 86.6797 9.37988 146.1 9.37988
c122.04 0 176.11 -52 179.74 -100.37c5.33008 -71.1201 -32.1201 -99.04 -98.1396 -136.67c-70.8301 -40.6504 -126.32 -68.8408 -145.181 -85.6904c-20.7305 -18.8896 -25.29 -37.0693 -25.29 -53.6797v-32.7197h276.32v-58.0801h-352.36v93.3896
c0 22.7002 9.34961 68.4502 53.4492 97.6299c21.04 14.2002 80.2705 48.25 153.181 89.96c53.5996 29.8301 65.3496 42.3896 62.1592 82.0498c-2.30957 25.3896 -29.7393 47.4492 -103.879 47.4492c-54.7305 0 -84.8408 -2.17969 -134.501 -8.47949z" />
    <glyph glyph-name="threequarters" unicode="&#xbe;" horiz-adv-x="990" 
d="M624.86 715.43h78.6797l-305.14 -731.43h-79.9805zM44.4199 633.88l-11.9697 56.9727c15.9004 3.04004 88.2002 18.0703 165.82 18.0703c118.17 0 169.93 -43.2803 169.93 -124.44c0 -50.9805 -30.5098 -80.7705 -54.96 -96.4307
c39.9502 -17.5498 68.8906 -48.1094 68.8906 -112.47c0 -91.71 -61.5898 -141.25 -177.27 -141.25c-83.2002 0 -149.05 12.1201 -179.03 18.1797l11.7695 57.0596c18.9902 -3.57031 90.7803 -17.8008 167.07 -17.8008c74.3604 0.55957 100.12 23.9092 100.12 81.8789
c0 62.7402 -38.8604 78.25 -94.6504 81.2305h-122.48v57.4404h122.33c32.29 0 80.8604 21.4004 80.8604 72.8203c0 49.9697 -21.2803 66.3496 -91.8604 66.3496c-71.0303 0 -126.931 -12.9902 -154.57 -17.6104zM739.98 462.772l80.9893 0.000976562l-155.47 -319.49h158.55
l8.58008 115.77h65.0703v-115.77h67.4697v-57.4404h-67.4697v-85.3701h-73.6396v85.3701h-250.1v40.1201z" />
    <glyph glyph-name="fraction" unicode="&#x2044;" horiz-adv-x="414" 
d="M321.44 715.43h78.6797l-305.14 -731.43h-79.9805z" />
    <glyph glyph-name="twosuperior" unicode="&#xb2;" horiz-adv-x="403" 
d="M56.2402 642.6l-11.6094 55.8516c47.8398 6.55957 86.6797 9.37988 146.1 9.37988c122.04 0 176.11 -51.9902 179.74 -100.36c5.33984 -71.1201 -32.1104 -99.04 -98.1299 -136.67c-70.8301 -40.6504 -126.32 -68.8408 -145.181 -85.7012
c-20.7402 -18.8896 -25.2998 -37.0693 -25.2998 -53.6797v-32.7197h276.32v-58.0801h-352.36v93.3896c0 22.7002 9.34961 68.4502 53.46 97.6299c21.04 14.2002 80.2705 48.25 153.181 89.9502c53.5996 29.8301 65.3496 42.3896 62.1592 82.04
c-2.30957 25.3896 -29.7393 47.4492 -103.879 47.4492c-54.7305 0 -84.8408 -2.17969 -134.501 -8.47949z" />
    <glyph glyph-name="threesuperior" unicode="&#xb3;" horiz-adv-x="407" 
d="M44.4004 633.88l-11.9697 56.9727c15.9004 3.04004 88.2002 18.0703 165.82 18.0703c118.17 0 169.93 -43.2803 169.93 -124.44c0 -50.9805 -30.5098 -80.7705 -54.96 -96.4307c39.9502 -17.5498 68.8906 -48.1094 68.8906 -112.47
c0 -91.71 -61.5898 -141.25 -177.27 -141.25c-83.2002 0 -149.05 12.1201 -179.03 18.1797l11.7695 57.0596c18.9902 -3.57031 90.7803 -17.8008 167.07 -17.8008c74.3604 0.55957 100.12 23.9092 100.12 81.8789c0 62.7402 -38.8604 78.25 -94.6504 81.2305h-122.48
v57.4404h122.33c32.29 0 80.8604 21.4004 80.8604 72.8203c0 49.9697 -21.2803 66.3496 -91.8604 66.3496c-71.0303 0 -126.931 -12.9902 -154.57 -17.6104z" />
    <glyph glyph-name="onesuperior" unicode="&#xb9;" horiz-adv-x="262" 
d="M178.34 699.49l59.3896 0.00976562v-462.3h-75.8799v383.06l-113.68 -67.8604l-22.3604 57.9805z" />
    <glyph glyph-name="asterisk" unicode="*" horiz-adv-x="478" 
d="M427.55 560.23l-140.93 -42.0801l85.8896 -107.07l-49.9502 -32.3701l-84.5498 105.9l-84.7803 -105.13l-48.54 32.9404l85.8799 107.84l-138.93 41.29l17.8604 48.5098l138.44 -41.3398v130.66h65v-131.13l137.1 40.9199z" />
    <glyph glyph-name="backslash" unicode="\" horiz-adv-x="500" 
d="M449.32 0.299805h-102.36l-295.33 699.41h101.03z" />
    <glyph glyph-name="bullet" unicode="&#x2022;" horiz-adv-x="203" 
d="M51.6299 0v105.17h99.79v-105.17h-99.79z" />
    <glyph glyph-name="colon" unicode=":" horiz-adv-x="203" 
d="M51.6299 329.71v105.17h99.79v-105.17h-99.79zM51.6299 0.00976562v105.17h99.79v-105.17h-99.79z" />
    <glyph glyph-name="comma" unicode="," horiz-adv-x="257" 
d="M51.6299 -133l53.5605 229.88h100.93l-65.04 -229.88h-89.4502z" />
    <glyph glyph-name="ellipsis" unicode="&#x2026;" horiz-adv-x="494" 
d="M51.6299 -13v105.58h95.79v-105.58h-95.79zM199.62 -13v105.58h95.79v-105.58h-95.79zM347.22 -13v105.58h95.79v-105.58h-95.79z" />
    <glyph glyph-name="exclam" unicode="!" horiz-adv-x="203" 
d="M53.8301 209.45v489.83h94.29v-489.83h-94.29zM51.6299 0.270508v105.17h99.79v-105.17h-99.79z" />
    <glyph glyph-name="exclamdown" unicode="&#xa1;" horiz-adv-x="203" 
d="M151.42 430.41h-99.79v105.16h99.79v-105.16zM148.12 -163h-94.29v489.68h94.29v-489.68z" />
    <glyph glyph-name="numbersign" unicode="#" horiz-adv-x="676" 
d="M624.72 186.55h-135.61l-10.5098 -186.42h-80.4697l10.5098 186.42h-161.29l-10.5 -186.42h-80.4697l10.5098 186.42h-115.04v52.21h121.23l8.07031 200.93h-129.3v52.21h135.5l10.5 186.42h80.4697l-10.5 -186.42h161.28l10.5 186.42h80.4697l-10.5098 -186.42h115.22
v-52.21h-121.41l-8.07031 -200.93h129.42v-52.21zM415.379 241.359l8.07031 200.93h-161.29l-8.07031 -200.93h161.29z" />
    <glyph glyph-name="period" unicode="." horiz-adv-x="203" 
d="M51.6299 0v105.17h99.79v-105.17h-99.79z" />
    <glyph glyph-name="periodcentered" unicode="&#xb7;" horiz-adv-x="203" 
d="M51.6299 256.05v105.17h99.79v-105.17h-99.79z" />
    <glyph glyph-name="question" unicode="?" horiz-adv-x="562" 
d="M61.9502 615.81l-10.3203 61.6211c38.4297 7.91016 144.8 31.0898 211.97 31.0898c151.66 0 247.9 -45.0195 247.9 -165.68c0 -178.23 -218.9 -196.95 -218.9 -309.58v-40.4102h-94.29v43.29c0 143.97 218.9 162.52 218.9 306.71
c0 79.5498 -53.0596 106.51 -153.6 105.569c-50.1699 0 -169.58 -26.1699 -201.66 -32.6104zM196.11 106.331h99.79v-105.17h-99.79v105.17z" />
    <glyph glyph-name="questiondown" unicode="&#xbf;" horiz-adv-x="562" 
d="M367.02 534.57v-105.17h-99.79v105.17h99.79zM501.09 -80l10.3105 -62c-38.2598 -8 -147.09 -31 -211.859 -31c-151.66 0 -247.9 45 -247.9 166c0 178.13 218.9 196.85 218.9 309.479v40.4102h94.29v-43.29c0 -143.97 -218.9 -162.51 -218.9 -306.6
c0 -80 53.0596 -107 153.6 -106c50.2598 0 169.569 26 201.56 33z" />
    <glyph glyph-name="quotedbl" unicode="&#x22;" horiz-adv-x="387" 
d="M145.92 480.78h-94.29v219.22h94.29v-219.22zM336.62 480.78h-94.29v219.22h94.29v-219.22z" />
    <glyph glyph-name="quotesingle" unicode="'" horiz-adv-x="197" 
d="M145.92 490.89h-94.29v219.22h94.29v-219.22z" />
    <glyph glyph-name="semicolon" unicode=";" horiz-adv-x="258" 
d="M101.34 445.2h99.79v-105.17h-99.79v105.17zM103.91 103.88h103.311l-66.3203 -229.88h-89.2803z" />
    <glyph glyph-name="slash" unicode="/" horiz-adv-x="500" 
d="M449.32 699.7l-295.33 -699.41h-102.36l296.66 699.41h101.03z" />
    <glyph glyph-name="underscore" unicode="_" horiz-adv-x="629" 
d="M51.6299 -34h526.59v-61h-526.59v61z" />
    <glyph glyph-name="braceleft" unicode="{" horiz-adv-x="450" 
d="M396.14 746.94l3.69043 -51.5029c-130.89 -4.16992 -158.04 -37.71 -158.04 -132.07c0 -32.3301 7.7002 -88.1904 7.7002 -116.62c0 -81.7998 -26.96 -115.77 -99.7998 -141.25c72.75 -25.7197 99.7998 -61.3594 99.7998 -139.05
c-2.15039 -37.6504 -5.4502 -74.8906 -7.7002 -113.69c0 -92.7598 27.5498 -128.76 158.05 -131.76l-3.7002 -52c-171.64 0 -237.54 59 -237.54 183.76c0 38.2305 7.78027 96.0508 7.78027 120.551c0 66.4805 -25.5596 86.3105 -114.75 109.66v44.0303
c89.4297 19.6904 114.75 42.3809 114.75 110.911c0 27.4404 -7.78027 89.1807 -7.78027 125.45c0 124.4 65.9004 183.431 237.54 183.581z" />
    <glyph glyph-name="braceright" unicode="}" horiz-adv-x="450" 
d="M51.6396 692.54l3.54004 51.5381c171.96 -0.160156 237.86 -59.1904 237.86 -183.591c0 -37.71 -7.78027 -96.5703 -7.78027 -121.84c0 -67.8096 26.1104 -87.6191 114.561 -109.469v-44.0303c-89.7998 -21.1904 -114.56 -43.9102 -114.56 -111.11
c0 -26.6602 7.78027 -87.3701 7.78027 -124.16c0 -123.88 -65.9004 -183.88 -237.86 -183.88l-3.55957 52c130.68 4 158.229 38 158.229 131.87c-0.660156 34.4697 -7.12988 85.4102 -7.7002 115.851c0 80.5703 27.0498 114.761 99.7998 140.48
c-72.8398 25.4805 -99.7998 60.8906 -99.7998 139.811c1.58984 35.6396 6.12012 77.7998 7.70996 114.46c0 92.9199 -27.1504 127.9 -158.221 132.07z" />
    <glyph glyph-name="bracketleft" unicode="[" horiz-adv-x="348" 
d="M297.58 749.28v-49.6602h-161.7v-778.62h161.7v-50h-245.95v878.28h245.95z" />
    <glyph glyph-name="bracketright" unicode="]" horiz-adv-x="348" 
d="M51.6299 749.28h245.93v-878.28h-245.93v50h161.7v778.62h-161.7v49.6602z" />
    <glyph glyph-name="parenleft" unicode="(" horiz-adv-x="291" 
d="M170.13 748.65l69.7598 -25.4805s-102.93 -245.86 -102.93 -426.87c0 -178.11 102.69 -404.29 102.69 -404.29l-68.7305 -25c-16.8398 27 -119.29 235.14 -119.29 429.29c0 194.11 108.16 433.44 118.5 452.351z" />
    <glyph glyph-name="parenright" unicode=")" horiz-adv-x="291" 
d="M51.6299 726.74l69.7695 25.4902c11.6904 -21.3799 118.5 -242.22 118.5 -435.779c0 -194.15 -107.58 -427.48 -119.29 -445.48l-68.7402 24s102.69 241.21 102.69 421.479c0 178.85 -102.93 410.29 -102.93 410.29z" />
    <glyph glyph-name="emdash" unicode="&#x2014;" horiz-adv-x="895" 
d="M51.6299 254.46v61.0801h792.16v-61.0801h-792.16z" />
    <glyph glyph-name="endash" unicode="&#x2013;" horiz-adv-x="560" 
d="M51.6299 252.37v61.0801h457.31v-61.0801h-457.31z" />
    <glyph glyph-name="hyphen" unicode="-" horiz-adv-x="511" 
d="M51.6299 250.46v61.0801h407.79v-61.0801h-407.79z" />
    <glyph glyph-name="guillemotleft" unicode="&#xab;" horiz-adv-x="584" 
d="M533.58 370.66l-141.81 -97.5293l141.81 -107.65v-83.2305l-239.49 167.87v43.3398l239.49 156.98v-79.7803zM291.131 370.661l-141.81 -97.5293l141.81 -107.65v-83.2305l-239.49 167.87v43.3398l239.49 156.98v-79.7803z" />
    <glyph glyph-name="guillemotright" unicode="&#xbb;" horiz-adv-x="584" 
d="M51.6299 165.47l141.81 107.649l-141.81 97.5303v79.7803l239.49 -156.98v-43.3398l-239.49 -167.87v83.2305zM294.079 165.469l141.81 107.649l-141.81 97.5303v79.7803l239.49 -156.98v-43.3398l-239.49 -167.87v83.2305z" />
    <glyph glyph-name="guilsinglleft" unicode="&#x2039;" horiz-adv-x="342" 
d="M291.12 370.66l-141.81 -97.5293l141.81 -107.65v-83.2305l-239.49 167.87v43.3398l239.49 156.98v-79.7803z" />
    <glyph glyph-name="guilsinglright" unicode="&#x203a;" horiz-adv-x="342" 
d="M51.6299 165.47l141.81 107.649l-141.81 97.5303v79.7803l239.49 -156.98v-43.3398l-239.49 -167.87v83.2305z" />
    <glyph glyph-name="quotedblbase" unicode="&#x201e;" horiz-adv-x="403" 
d="M51.6299 -133l53.5605 229.88h100.93l-65.04 -229.88h-89.4502zM198.12 -133l53.5605 229.88h100.93l-65.04 -229.88h-89.4502z" />
    <glyph glyph-name="quotedblleft" unicode="&#x201c;" horiz-adv-x="396" 
d="M201.77 737.09l-51.3701 -220.18h-98.7695l62.9199 220.18h87.2197zM345.159 737.09l-51.3701 -220.18h-98.7695l62.9199 220.18h87.2197z" />
    <glyph glyph-name="quotedblright" unicode="&#x201d;" horiz-adv-x="396" 
d="M51.6299 516.91l51.3701 220.18h98.7695l-62.9199 -220.18h-87.2197zM194.8 516.91l51.3604 220.18h98.6602l-62.8604 -220.18h-87.1602z" />
    <glyph glyph-name="quoteleft" unicode="&#x2018;" horiz-adv-x="252" 
d="M201.77 737.09l-51.3701 -220.18h-98.7695l62.9199 220.18h87.2197z" />
    <glyph glyph-name="quoteright" unicode="&#x2019;" horiz-adv-x="252" 
d="M51.6299 516.91l51.3701 220.18h98.7695l-62.9199 -220.18h-87.2197z" />
    <glyph glyph-name="quotesinglbase" unicode="&#x201a;" horiz-adv-x="257" 
d="M51.6299 -133l53.5605 229.88h100.93l-65.04 -229.88h-89.4502z" />
    <glyph glyph-name="space" unicode=" " horiz-adv-x="365" 
 />
    <glyph glyph-name="Euro" unicode="&#x20ac;" horiz-adv-x="693" 
d="M51.6299 437.38l72.3691 0.0185547c18.1299 148.76 85.7803 239.609 296.261 239.609c111.51 0 195.43 -17.96 221.37 -22.9697l-6.62988 -62.0596c-33.7002 5.5 -128.34 23.9502 -214.74 23.9502c-146.18 0 -187.3 -60.0498 -198.93 -179.569h340.13v-55.0498h-344.61
c-0.790039 -14.9297 -0.790039 -31.0801 -0.790039 -49.1699c0 -14.2998 0 -28.6895 0.790039 -42.6494h344.61v-55.0303h-341.24c11.7305 -122.8 53.9707 -182.37 200.051 -182.37c76.3496 0 191.659 20.1797 214.939 24.0498l6.78027 -61.1602
c-16.4697 -3.12012 -129.479 -23.9697 -221.71 -23.9697c-207.94 0 -279.15 87.2695 -296.431 243.449h-72.2197v56.0498h67.6396c-0.790039 13.4502 -0.790039 27.9805 -0.790039 41.9707c0 17.1104 0 33.0303 0.790039 48.8203h-67.6396v56.0801z" />
    <glyph glyph-name="cent" unicode="&#xa2;" horiz-adv-x="504" 
d="M246.71 587.24l79.6299 -0.00292969v-80.71c40.3896 -2.7998 104.12 -15.7002 126.72 -19.5l-2.36035 -52.5996c-18.4102 0.120117 -113.54 15.9805 -155.24 17.8203c-124.37 5.65039 -147.59 -50.2393 -147.59 -202.589c0 -152.33 22.9404 -207.29 147.591 -201.63
c40.8604 1.82031 135.99 21.5205 153.84 26.0605l3.75 -60.4697c-10.04 -1.84961 -86.3203 -16.6094 -126.71 -19.6094v-79h-79.6299v76c-155.78 7 -195.11 88.4697 -195.11 258.66s39.3301 252.71 195.11 259.31v78.2598z" />
    <glyph glyph-name="dollar" unicode="$" horiz-adv-x="571" 
d="M265.55 787.66l79.6396 0.0107422v-78.5596c68.4805 -0.870117 118.54 -4.87988 175.5 -12.96l-13.21 -65.8096c-70.0303 9.05957 -112.761 12.1699 -188.741 12.1699c-114.39 0 -155.439 -40.8398 -158.47 -81.4697
c-0.339844 -4.87012 -0.519531 -9.49023 -0.519531 -13.8906c0 -52.6904 25.4902 -74.3301 99.1904 -118.69c76.7803 -45.4902 159.24 -97.0098 189.41 -118.819c61.3896 -42.3496 71.2295 -113.43 69.5498 -153.04c-3.37012 -114.91 -86.5205 -146.94 -171.711 -157.601
v-79h-79.6299v74c-80.7002 -1 -159.17 7.73047 -214.92 16.5205l12.6201 65.7197c68.75 -9.37012 133.91 -16.6699 190.36 -16.6699c7.91016 0 15.6504 0.139648 23.2002 0.439453c88.2695 3.58984 145.569 14.7197 145.879 93.5195
c0.44043 24.2998 -6.7793 55.3301 -39.9492 88.1504c-28.2305 27.21 -109.261 71.7295 -179.541 113.829c-90.3496 53.3496 -138.699 96.2598 -138.699 187.13c0 6.40039 0.240234 13.0303 0.720703 19.9199c4.46973 64.21 62.46 130.69 199.32 143.521v81.5801z" />
    <glyph glyph-name="sterling" unicode="&#xa3;" horiz-adv-x="554" 
d="M127.56 408.57l-0.0078125 50.8887c0 169.61 46.6904 211.73 178.41 211.73c46.5996 0 133.949 -11.3701 160.449 -14.71l-8.82031 -49.4502c-52.4902 6.54004 -100.73 11.9004 -131.801 11.9004c-7.48047 0 -13.9609 -0.30957 -19.2705 -0.989258
c-76.5996 -2.49023 -83.9697 -40.1602 -84.8096 -209.37h200.15v-49.6602h-200.29v-191.5c-0.0400391 -57.7305 -6.7002 -92.5107 -20.6602 -115.381h301.68v-51.5801h-450.78v42.1504c59.7598 6.04004 75.5195 19.4004 75.75 124.82v191.49h-75.9297v49.6602h75.9297z" />
    <glyph glyph-name="yen" unicode="&#xa5;" horiz-adv-x="728" 
d="M569.87 671.09l107.02 -0.000976562l-199.76 -276.78h159.68v-61.71h-205.15l-18.54 -25.3398v-76.3496h224.48v-61.71h-224.48v-169.14h-95.3896v169.14h-225.15v61.71h225.15v76.3203l-18.6299 25.3701h-207.27v61.71h161.56l-201.76 276.78h105.96l207.66 -282.13z
" />
    <glyph glyph-name="approxequal" unicode="&#x2248;" horiz-adv-x="736" 
 />
    <glyph glyph-name="asciitilde" unicode="~" horiz-adv-x="692" 
d="M105.37 244.7l-53.7393 42.2002c58.3604 47.4199 118.681 85.5703 185.19 85.5703c116.98 0 153.57 -85.5898 237.25 -85.5898c40.2803 0 82.8398 37.8398 115.51 67.5098l52.2598 -36.9502c-55.9805 -51.7402 -106.721 -90.6006 -167.771 -91.5703
c-126.8 -1.40039 -147.3 87.21 -239.1 87.21c-39.4004 0 -84.1807 -32.3701 -129.601 -68.3799z" />
    <glyph glyph-name="divide" unicode="&#xf7;" horiz-adv-x="528" 
d="M214.43 472.2v105.16h99.79v-105.16h-99.79zM51.6299 320.46v62.9902h425.39v-62.9902h-425.39zM214.43 124.91v105.16h99.79v-105.16h-99.79z" />
    <glyph glyph-name="emptyset" unicode="&#x2205;" horiz-adv-x="736" 
 />
    <glyph glyph-name="equal" unicode="=" horiz-adv-x="649" 
d="M51.6299 330.97v61.0801h545.29v-61.0801h-545.29zM52.7295 158.95v61.0801h545.29v-61.0801h-545.29z" />
    <glyph glyph-name="greater" unicode="&#x3e;" horiz-adv-x="540" 
d="M388.08 384.73l-336.45 192.35v76.5098l437.49 -247.97v-44.9199l-437.49 -257.72v79.1201z" />
    <glyph glyph-name="greaterequal" unicode="&#x2265;" horiz-adv-x="553" 
d="M388.08 416.72l-336.45 192.35v76.5098l437.49 -247.97v-44.9199l-437.49 -257.72v79.1201zM51.8301 0.549805v60.6699h450.34v-60.6699h-450.34z" />
    <glyph glyph-name="infinity" unicode="&#x221e;" horiz-adv-x="736" 
 />
    <glyph glyph-name="integral" unicode="&#x222b;" horiz-adv-x="736" 
 />
    <glyph glyph-name="less" unicode="&#x3c;" horiz-adv-x="540" 
d="M489.12 653.59v-76.499l-336.45 -192.36l336.45 -202.63v-79.1201l-437.49 257.72v44.9199z" />
    <glyph glyph-name="lessequal" unicode="&#x2264;" horiz-adv-x="553" 
d="M502.17 685.58v-76.499l-336.45 -192.36l336.45 -202.63v-79.1201l-437.49 257.72v44.9199zM51.6299 61.2314h450.4v-60.6699h-450.4v60.6699z" />
    <glyph glyph-name="logicalnot" unicode="&#xac;" horiz-adv-x="736" 
 />
    <glyph glyph-name="minus" unicode="&#x2212;" horiz-adv-x="693" 
d="M51.6299 284.46v61.0801h590.09v-61.0801h-590.09z" />
    <glyph glyph-name="multiply" unicode="&#xd7;" horiz-adv-x="664" 
d="M118.22 496.81l213.73 -196.861l214.76 196.82l64.3301 -46.8203l-219.68 -199.99l221.88 -202.87l-63.1699 -45.5898l-218.13 197.74l-217.08 -198.02l-63.2305 45.8701l221.88 202.87l-219.68 199.99z" />
    </font>
</defs>
</svg>
