<?xml version="1.0" standalone="no"?>
<!DOCTYPE svg PUBLIC "-//W3C//DTD SVG 1.1//EN" "http://www.w3.org/Graphics/SVG/1.1/DTD/svg11.dtd" >
<svg xmlns="http://www.w3.org/2000/svg" xmlns:xlink="http://www.w3.org/1999/xlink" version="1.1">
<metadata>
Created by FontForge 20140906 at Fri Jul 17 09:13:50 2015
 By cloudconvert
Copyright (c) 2011 by Jonathan Hill. All rights reserved.
</metadata>
<defs>
<font id="Kuro-Bold" horiz-adv-x="748" >
  <font-face 
    font-family="Kuro"
    font-weight="700"
    font-stretch="normal"
    units-per-em="1000"
    panose-1="0 0 8 0 0 0 0 0 0 0"
    ascent="750"
    descent="-250"
    x-height="499.561"
    cap-height="700"
    bbox="-96 -250.012 1081.01 1092.3"
    underline-thickness="50"
    underline-position="-50"
    stemh="98"
    stemv="151"
    unicode-range="U+0020-FB02"
  />
<missing-glyph horiz-adv-x="235" 
 />
    <glyph glyph-name=".notdef" horiz-adv-x="235" 
 />
    <glyph glyph-name="A" unicode="A" 
d="M273.4 699.87h203.709l262.56 -699.73h-153.75l-66.4297 173.86h-290.68l-65.4199 -173.86h-153.97zM480.899 271.99l-106.859 301.08l-106.73 -301.08h213.59z" />
    <glyph glyph-name="AE" unicode="&#xc6;" horiz-adv-x="1015" 
d="M270.44 699.87l667.591 0.00976562v-98h-410.3v-193.84h344.3v-97.9902h-344.3v-211.91h410.3v-98h-561.48v173.86h-150.69l-65.4199 -173.86h-153.98zM376.551 272v329.88l-112.19 -329.88h112.19z" />
    <glyph glyph-name="Aacute" unicode="&#xc1;" 
d="M234.95 776.17l146.449 135.96h135.48l-163.08 -135.96h-118.85zM273.409 699.87h203.709l262.56 -699.73h-153.75l-66.4297 173.86h-290.68l-65.4199 -173.86h-153.97zM480.908 271.99l-106.859 301.08l-106.73 -301.08h213.59z" />
    <glyph glyph-name="Abreve" unicode="&#x102;" 
d="M426.48 913.17l76.791 0.0107422c0 -60.4004 -42.4805 -124.551 -129.141 -124.551c-88.1904 0 -129.2 64.3799 -129.2 124.54h77.8896c1.86035 -43.6299 27.3008 -55.0801 52.3906 -55.0801c23.7803 0 49.5498 11.4502 51.2695 55.0801zM273.411 699.871h203.72
l262.56 -699.73h-153.75l-66.4297 173.86h-290.68l-65.4199 -173.86h-153.98zM480.921 271.991l-106.859 301.08l-106.73 -301.08h213.59z" />
    <glyph glyph-name="Abreveacute" unicode="&#x1eae;" 
d="M381.4 1025.95h135.479l-163.08 -135.97h-118.85zM426.479 867.66l76.791 0.0107422c0 -60.4004 -42.4805 -124.551 -129.141 -124.551c-88.1904 0 -129.2 64.3799 -129.2 124.54h77.8896c1.86035 -43.6299 27.3008 -55.0801 52.3906 -55.0801
c23.7803 0 49.5498 11.4502 51.2695 55.0801zM273.41 699.881h203.72l262.56 -699.73h-153.75l-66.4297 173.86h-290.68l-65.4199 -173.86h-153.98zM480.92 272.001l-106.859 301.08l-106.73 -301.08h213.59z" />
    <glyph glyph-name="Abrevedotbelow" unicode="&#x1eb6;" 
d="M426.48 913.17l76.791 0.0107422c0 -60.4004 -42.4805 -124.551 -129.141 -124.551c-88.1904 0 -129.2 64.3799 -129.2 124.54h77.8896c1.86035 -43.6299 27.3008 -55.0801 52.3906 -55.0801c23.7803 0 49.5498 11.4502 51.2695 55.0801zM273.411 699.871h203.72
l262.56 -699.73h-153.75l-66.4297 173.86h-290.68l-65.4199 -173.86h-153.98zM480.921 271.991l-106.859 301.08l-106.73 -301.08h213.59zM324.222 -71.999h101.91v-90h-101.91v90z" />
    <glyph glyph-name="Abrevegrave" unicode="&#x1eb0;" 
d="M246.19 1030.24h135.489l146.36 -135.96h-118.77zM426.479 867.92l76.791 0.000976562c0 -60.4004 -42.4805 -124.551 -129.141 -124.551c-88.1904 0 -129.2 64.3799 -129.2 124.55h77.8896c1.86035 -43.6299 27.3008 -55.0801 52.3906 -55.0801
c23.7803 0 49.5498 11.4502 51.2695 55.0801zM273.41 699.871h203.72l262.56 -699.73h-153.75l-66.4297 173.86h-290.68l-65.4199 -173.86h-153.98zM480.92 271.991l-106.859 301.08l-106.73 -301.08h213.59z" />
    <glyph glyph-name="Abrevehookabove" unicode="&#x1eb2;" 
d="M309.19 1046.12l-6.7002 38.2686c19.9004 5.33008 44.7002 7.91016 56.5498 7.91016c72.4805 0 92.1602 -24.9297 92.1602 -74.5996c0 -36.0801 -14.6504 -57.8896 -49.1504 -63.9092v-39.0801h-59.8896v79.9102h18.6504c16.7002 0 26.0801 2.20996 26.0801 23.0801
c0 23.0898 -2.42969 28.7402 -25.96 29.2998c-7.84961 0 0.5 0 -51.7402 -0.879883zM426.45 913.169l76.791 0.0107422c0 -60.4004 -42.4805 -124.551 -129.141 -124.551c-88.1904 0 -129.2 64.3799 -129.2 124.54h77.8896
c1.86035 -43.6299 27.3008 -55.0801 52.3906 -55.0801c23.7803 0 49.5498 11.4502 51.2695 55.0801zM273.381 699.87h203.709l262.56 -699.73h-153.75l-66.4297 173.86h-290.68l-65.4199 -173.86h-153.97zM480.88 271.99l-106.859 301.08l-106.73 -301.08h213.59z" />
    <glyph glyph-name="Abrevetilde" unicode="&#x1eb4;" 
d="M512.47 1004.48l65.5908 -39.5693c-39.5996 -39.8203 -81.5898 -69.1504 -128.64 -69.1504c-73.9004 0 -94.2002 47.9697 -138.74 47.9697c-20.5703 0 -45.1807 -21.8203 -70.7305 -45.0107l-65.1699 45.9199c44.7197 37.2598 86.2393 62.3301 136.97 62.3301
c68.9902 0 94.4102 -46.5098 134.23 -46.5098c19.3096 0 47.2197 26.2305 66.4893 44.0205zM426.48 868.211l76.791 0.000976562c0 -60.4004 -42.4805 -124.551 -129.141 -124.551c-88.1904 0 -129.2 64.3799 -129.2 124.55h77.8896
c1.86035 -43.6299 27.3008 -55.0801 52.3906 -55.0801c23.7803 0 49.5498 11.4502 51.2695 55.0801zM273.411 699.872h203.72l262.56 -699.73h-153.75l-66.4297 173.86h-290.68l-65.4199 -173.86h-153.98zM480.921 271.992l-106.859 301.08l-106.73 -301.08h213.59z" />
    <glyph glyph-name="Acaron" unicode="&#x1cd;" 
d="M406.96 778.74h-63.54l-166.87 152.98h119.96l79.6504 -73.3203l78.7598 73.3203h120.29zM273.39 699.86h203.709l262.56 -699.73h-153.75l-66.4297 173.86h-290.68l-65.4199 -173.86h-153.97zM480.889 271.98l-106.859 301.08l-106.73 -301.08h213.59z" />
    <glyph glyph-name="Acircumflex" unicode="&#xc2;" 
d="M176.27 778.16l166.87 152.98h63.5303l168.26 -152.98h-120.29l-78.7598 73.3203l-79.6504 -73.3203h-119.96zM273.409 699.871h203.709l262.56 -699.73h-153.75l-66.4297 173.86h-290.68l-65.4199 -173.86h-153.97zM480.908 271.991l-106.859 301.08l-106.73 -301.08
h213.59z" />
    <glyph glyph-name="Acircumflexacute" unicode="&#x1ea4;" 
d="M675.07 982.89h135.479l-163.08 -135.96h-118.85zM343.14 931.149h63.5303l168.26 -152.98h-120.29l-78.7598 73.3203l-79.6504 -73.3203h-119.96zM273.41 699.88h203.709l262.56 -699.73h-153.75l-66.4297 173.86h-290.68l-65.4199 -173.86h-153.97zM480.909 272
l-106.859 301.08l-106.73 -301.08h213.59z" />
    <glyph glyph-name="Acircumflexdotbelow" unicode="&#x1eac;" 
d="M343.14 931.14h63.5303l168.26 -152.98h-120.29l-78.7598 73.3203l-79.6504 -73.3203h-119.96zM273.41 699.859h203.709l262.56 -699.73h-153.75l-66.4297 173.86h-290.68l-65.4199 -173.86h-153.97zM480.909 271.979l-106.859 301.08l-106.73 -301.08h213.59z
M324.21 -72.0107h101.91v-90h-101.91v90z" />
    <glyph glyph-name="Acircumflexgrave" unicode="&#x1ea6;" 
d="M393.55 996.07h135.479l146.36 -135.96h-118.76zM176.27 778.16l166.87 152.98h63.5303l168.26 -152.98h-120.29l-78.7598 73.3203l-79.6504 -73.3203h-119.96zM273.409 699.871h203.709l262.56 -699.73h-153.75l-66.4297 173.86h-290.68l-65.4199 -173.86h-153.97z
M480.908 271.991l-106.859 301.08l-106.73 -301.08h213.59z" />
    <glyph glyph-name="Acircumflexhookabove" unicode="&#x1ea8;" 
d="M553.49 925.74l-6.67969 38.2881c19.9004 5.33008 44.6904 7.90039 56.54 7.90039c72.4805 0 92.1602 -24.9297 92.1602 -74.5996c0 -36.0801 -14.6504 -57.8896 -49.1504 -63.9092v-39.0801h-59.9004v79.9102h18.6504c16.7002 0 26.0801 2.20996 26.0801 23.0703
c0 23.0898 -2.42969 28.7402 -25.96 29.2998c-7.84961 0 0.5 0 -51.7402 -0.879883zM176.261 778.179l166.87 152.98h63.5303l168.26 -152.98h-120.29l-78.7598 73.3203l-79.6504 -73.3203h-119.96zM273.4 699.879h203.709l262.56 -699.73h-153.75l-66.4297 173.86h-290.68
l-65.4199 -173.86h-153.97zM480.899 271.999l-106.859 301.08l-106.73 -301.08h213.59z" />
    <glyph glyph-name="Acircumflextilde" unicode="&#x1eaa;" 
d="M239.95 947.88l-65.1689 45.9316c44.7197 37.2598 86.2393 62.3398 136.97 62.3398c68.9902 0 94.4102 -46.5303 134.23 -46.5303c19.3096 0 47.2197 26.2402 66.4893 44.0303l65.5898 -39.5801c-39.5996 -39.8203 -81.5898 -69.1504 -128.64 -69.1504
c-73.9004 0 -94.2002 47.9697 -138.74 47.9697c-20.5703 0 -45.1807 -21.8203 -70.7305 -45.0107zM343.142 931.151h63.5303l168.26 -152.98h-120.29l-78.7598 73.3203l-79.6504 -73.3203h-119.96zM273.412 699.871h203.709l262.56 -699.73h-153.75l-66.4297 173.86h-290.68
l-65.4199 -173.86h-153.97zM480.911 271.991l-106.859 301.08l-106.73 -301.08h213.59z" />
    <glyph glyph-name="Adieresis" unicode="&#xc4;" 
d="M231.76 790.35v90.79h101.91v-90.79h-101.91zM414.59 790.35v90.79h101.91v-90.79h-101.91zM273.41 699.859h203.709l262.56 -699.73h-153.75l-66.4297 173.86h-290.68l-65.4199 -173.86h-153.97zM480.909 271.979l-106.859 301.08l-106.73 -301.08h213.59z" />
    <glyph glyph-name="Adotbelow" unicode="&#x1ea0;" 
d="M273.4 699.87h203.709l262.56 -699.73h-153.75l-66.4297 173.86h-290.68l-65.4199 -173.86h-153.97zM480.899 271.99l-106.859 301.08l-106.73 -301.08h213.59zM324.2 -72h101.91v-90h-101.91v90z" />
    <glyph glyph-name="Agrave" unicode="&#xc0;" 
d="M246.19 931.72h135.489l146.36 -135.96h-118.77zM273.41 699.87h203.709l262.56 -699.73h-153.75l-66.4297 173.86h-290.68l-65.4199 -173.86h-153.97zM480.909 271.99l-106.859 301.08l-106.73 -301.08h213.59z" />
    <glyph glyph-name="Ahookabove" unicode="&#x1ea2;" 
d="M308.8 925.74l-6.69043 38.2881c19.9004 5.33008 44.7002 7.90039 56.5498 7.90039c72.4805 0 92.1504 -24.9297 92.1504 -74.5996c0 -36.0801 -14.6504 -57.8896 -49.1504 -63.9092v-39.0801h-59.8896v79.9102h18.6504c16.7002 0 26.0801 2.20996 26.0801 23.0703
c0 23.0898 -2.42969 28.7402 -25.96 29.2998c-7.84961 0 0.5 0 -51.7402 -0.879883zM273.379 699.878h203.709l262.56 -699.73h-153.75l-66.4297 173.86h-290.68l-65.4199 -173.86h-153.97zM480.878 271.998l-106.859 301.08l-106.73 -301.08h213.59z" />
    <glyph glyph-name="Amacron" unicode="&#x100;" 
d="M559.27 809.92h-370.29v69.9102h370.29v-69.9102zM273.399 699.87h203.709l262.56 -699.73h-153.75l-66.4297 173.86h-290.68l-65.4199 -173.86h-153.97zM480.898 271.99l-106.859 301.08l-106.73 -301.08h213.59z" />
    <glyph glyph-name="Aogonek" unicode="&#x104;" 
d="M273.4 699.87l203.699 0.000976562l262.56 -699.73h-102.75c-39.8301 -17.6396 -59.9805 -50.4297 -59.9805 -79.2197c0 -7.33984 1.30957 -14.4199 3.93945 -20.9199c5.84961 -14.2402 23.6895 -24.4199 50.8398 -24.4199c10.9902 0 23.5098 1.66992 37.3799 5.41992
l10.9697 -49c-29.4297 -9.51953 -55.5596 -13.6992 -78.1299 -13.6992c-48.5898 0 -80.7002 19.3896 -93.71 46.6992c-5.21973 11.1299 -7.60938 22.46 -7.60938 33.6299c0 44.0195 37.2305 85.4492 85.3105 101.509l-66.4297 173.86h-290.68l-65.4199 -173.86h-153.97z
M480.89 271.991l-106.859 301.08l-106.73 -301.08h213.59z" />
    <glyph glyph-name="Aring" unicode="&#xc5;" 
d="M240.9 831.49c0 54.9697 56.1406 101.369 133.24 101.369c75.7695 0 133.22 -46.2803 133.22 -101.37c0 -56.0996 -57.7002 -101.369 -133.23 -101.369c-76.8496 0 -133.229 45.3896 -133.229 101.37zM335.051 831.489c0 -26.04 11.6904 -37.2305 40.1602 -37.2305
c27.3896 0 39.0898 11.1904 39.0898 37.2305c0 25.1504 -11.7002 36.3408 -39.0898 36.3408c-28.4697 0 -40.1602 -11.1904 -40.1602 -36.3408zM273.411 699.869h203.709l262.56 -699.73h-153.75l-66.4297 173.86h-290.68l-65.4199 -173.86h-153.97zM480.91 271.989
l-106.859 301.08l-106.73 -301.08h213.59z" />
    <glyph glyph-name="Atilde" unicode="&#xc3;" 
d="M513.06 904.7l65.5703 -39.5693c-39.5996 -39.8301 -81.5898 -69.1602 -128.64 -69.1602c-73.9004 0 -94.1904 47.9697 -138.73 47.9697c-20.5703 0 -45.1807 -21.8203 -70.7305 -45.0107l-65.1699 45.9199c44.7305 37.2598 86.25 62.3398 136.98 62.3398
c68.9902 0 94.4102 -46.5195 134.23 -46.5195c19.3096 0 47.2197 26.2305 66.4893 44.0303zM273.39 699.871h203.709l262.56 -699.73h-153.75l-66.4297 173.86h-290.68l-65.4199 -173.86h-153.97zM480.889 271.991l-106.859 301.08l-106.73 -301.08h213.59z" />
    <glyph glyph-name="B" unicode="B" horiz-adv-x="712" 
d="M87.0996 700.21h295.78c161.5 0 257.8 -64.25 257.8 -187.58c0 -74.46 -27.0098 -120.9 -69.2695 -148.41c51.1797 -24.6797 96.2695 -68.7598 96.2695 -153.359c0 -160.24 -117.47 -210.86 -265.79 -210.86h-314.79v700.21zM382.88 601.87l-148.199 0.00976562v-196.55
h159.21c73.0596 0 98.1992 28.7598 98.1992 107.3c0 71.0098 -24.4297 89.2402 -109.21 89.2402zM393.891 308.24h-159.21v-210.1h167.21c78.9297 0 117.21 20.6396 117.21 112.729c0 96.79 -72.3496 97.3701 -125.21 97.3701z" />
    <glyph glyph-name="C" unicode="C" horiz-adv-x="703" 
d="M647.91 116.99l11.292 -98.5098c-54.0996 -8.87988 -163.699 -26.4795 -262.399 -26.4795c-273.19 0 -329.69 148.27 -329.69 355.289c0 201.67 47.4297 360.71 329.689 360.71c114.64 0 206.34 -15.0703 262.27 -25.4307l-10.79 -99.0996
c-68.6299 11.7002 -166.42 26.54 -251.479 26.54c-155.49 0 -176.311 -88.1396 -176.311 -262.71c0 -173.97 24.5098 -257.3 176.31 -257.3c78.2197 0 189.109 17.2998 251.109 26.9902z" />
    <glyph glyph-name="Cacute" unicode="&#x106;" horiz-adv-x="703" 
d="M216.41 742.4l146.449 135.96h135.48l-163.08 -135.96h-118.85zM647.909 116.99l11.292 -98.5195c-54.0996 -8.87988 -163.699 -26.4795 -262.399 -26.4795c-273.19 0 -329.69 148.27 -329.69 355.289c0 201.67 47.4297 360.71 329.689 360.71
c114.64 0 206.34 -15.0703 262.27 -25.4307l-10.79 -99.0996c-68.6299 11.7002 -166.42 26.54 -251.479 26.54c-155.49 0 -176.311 -88.1396 -176.311 -262.71c0 -173.97 24.5098 -257.29 176.31 -257.29c78.2197 0 189.109 17.2998 251.109 26.9902z" />
    <glyph glyph-name="Ccaron" unicode="&#x10c;" horiz-adv-x="703" 
d="M388.43 744.97h-63.5303l-166.87 152.98h119.96l79.6504 -73.3203l78.7598 73.3203h120.29zM647.909 116.989l11.292 -98.5195c-54.0996 -8.87988 -163.699 -26.4795 -262.399 -26.4795c-273.19 0 -329.69 148.27 -329.69 355.289
c0 201.67 47.4297 360.71 329.689 360.71c114.64 0 206.34 -15.0703 262.27 -25.4307l-10.79 -99.0996c-68.6299 11.7002 -166.42 26.54 -251.479 26.54c-155.49 0 -176.311 -88.1396 -176.311 -262.71c0 -173.97 24.5098 -257.29 176.31 -257.29
c78.2197 0 189.109 17.2998 251.109 26.9902z" />
    <glyph glyph-name="Ccedilla" unicode="&#xc7;" horiz-adv-x="702" 
d="M648.28 583.47l10.7686 99.1094c-55.9297 10.3604 -147.63 25.4307 -262.27 25.4307c-282.26 0 -329.689 -159.04 -329.689 -360.71c0 -192.78 49.1396 -334.78 277.39 -353.3l-37.6104 -68h43.3896c16.7002 0 26.0801 -3 26.0801 -24c0 -23 -2.42969 -28 -25.96 -29
c-7.84961 0 -23.6699 0 -75.9102 1l-6.66992 -38c36.9404 -8 68.3105 -8 75.1309 -8c72.4805 0 97.7402 25 97.7402 74c0 37 -14.6504 58 -49.2305 64l15.8203 27h28.6299c84.7305 3 181 18.54 223.3 25.4902l-11.2803 98.5
c-62 -9.69043 -172.89 -26.9902 -251.109 -26.9902c-151.8 0 -176.31 83.3301 -176.31 257.3c0 174.57 20.8203 262.71 176.311 262.71c85.0596 0 182.85 -14.8398 251.479 -26.54z" />
    <glyph glyph-name="Cdotaccent" unicode="&#x10a;" horiz-adv-x="703" 
d="M304.64 756.58v90.79h101.91v-90.79h-101.91zM647.909 116.99l11.292 -98.5195c-54.0996 -8.87988 -163.699 -26.4795 -262.399 -26.4795c-273.19 0 -329.69 148.27 -329.69 355.289c0 201.67 47.4297 360.71 329.689 360.71c114.64 0 206.34 -15.0703 262.27 -25.4307
l-10.79 -99.0996c-68.6299 11.7002 -166.42 26.54 -251.479 26.54c-155.49 0 -176.311 -88.1396 -176.311 -262.71c0 -173.97 24.5098 -257.29 176.31 -257.29c78.2197 0 189.109 17.2998 251.109 26.9902z" />
    <glyph glyph-name="D" unicode="D" horiz-adv-x="808" 
d="M428.9 0.129883l-341.8 0.0195312v699.73h341.79c239.04 0 313.2 -174.96 313.2 -340.84c0 -165.43 -72.8301 -358.91 -313.19 -358.91zM238.28 98.1494l190.61 -0.00976562c114.69 0 159.811 133.38 159.811 260.91c0 127.12 -43.9004 242.84 -159.811 242.84h-190.61
v-503.74z" />
    <glyph glyph-name="Dcaron" unicode="&#x10e;" horiz-adv-x="808" 
d="M437.73 778.74h-63.5303l-166.87 152.98h119.96l79.6504 -73.3203l78.7598 73.3203h120.29zM428.9 0.129883l-341.8 0.0195312v699.73h341.79c239.04 0 313.2 -174.96 313.2 -340.84c0 -165.43 -72.8301 -358.91 -313.19 -358.91zM238.28 98.1494l190.61 -0.00976562
c114.69 0 159.811 133.38 159.811 260.91c0 127.12 -43.9004 242.84 -159.811 242.84h-190.61v-503.74z" />
    <glyph glyph-name="Dcroat" unicode="&#x110;" horiz-adv-x="808" 
d="M120.09 699.96h341.78c241.81 0 313.199 -173.53 313.199 -340.79c0 -167.01 -70.1699 -359.13 -313.189 -359.13h-341.79v297.63h-85.1504v88.1504h85.1504v314.14zM271.26 88.7402h190.62c112.02 0 159.8 139.85 159.8 270.42c0 131.25 -45.71 252.08 -159.81 252.08
h-190.61v-225.43h183.7v-88.1504h-183.7v-208.92z" />
    <glyph glyph-name="E" unicode="E" horiz-adv-x="692" 
d="M87.0996 0.129883v699.74h561.48v-98h-410.3v-193.84h344.3v-97.9902h-344.3v-211.91h410.3v-98h-561.48z" />
    <glyph glyph-name="Eacute" unicode="&#xc9;" horiz-adv-x="692" 
d="M207.16 776.17l146.449 135.96h135.48l-163.08 -135.96h-118.85zM87.0996 0.129883v699.74h561.48v-98h-410.3v-193.84h344.3v-97.9902h-344.3v-211.91h410.3v-98h-561.48z" />
    <glyph glyph-name="Ecaron" unicode="&#x11a;" horiz-adv-x="692" 
d="M379.18 778.74h-63.5303l-166.87 152.98h119.96l79.6504 -73.3203l78.7598 73.3203h120.29zM87.1094 0.129883v699.74h561.48v-98h-410.3v-193.84h344.3v-97.9902h-344.3v-211.91h410.3v-98h-561.48z" />
    <glyph glyph-name="Ecircumflex" unicode="&#xca;" horiz-adv-x="692" 
d="M148.49 778.16l166.87 152.98h63.5303l168.26 -152.98h-120.29l-78.7598 73.3203l-79.6504 -73.3203h-119.96zM87.1104 0.130859v699.74h561.48v-98h-410.3v-193.84h344.3v-97.9902h-344.3v-211.91h410.3v-98h-561.48z" />
    <glyph glyph-name="Ecircumflexacute" unicode="&#x1ebe;" horiz-adv-x="692" 
d="M647.55 982.89h135.479l-163.08 -135.96h-118.85zM315.619 931.149h63.54l168.25 -152.98h-120.29l-78.7598 73.3203l-79.6504 -73.3203h-119.96zM87.1191 0.139648v699.74h561.48v-98h-410.3v-193.84h344.3v-97.9902h-344.3v-211.91h410.3v-98h-561.48z" />
    <glyph glyph-name="Ecircumflexdotbelow" unicode="&#x1ec6;" horiz-adv-x="692" 
d="M148.49 778.16l166.87 152.98h63.5303l168.26 -152.98h-120.29l-78.7598 73.3203l-79.6504 -73.3203h-119.96zM87.1104 0.130859v699.74h561.48v-98h-410.3v-193.84h344.3v-97.9902h-344.3v-211.91h410.3v-98h-561.48zM324.21 -71.999h101.91v-90h-101.91v90z" />
    <glyph glyph-name="Ecircumflexgrave" unicode="&#x1ec0;" horiz-adv-x="692" 
d="M365.38 996.07h135.489l146.36 -135.96h-118.77zM148.109 778.16l166.87 152.98h63.5303l168.26 -152.98h-120.29l-78.7598 73.3203l-79.6504 -73.3203h-119.96zM87.1094 0.130859v699.74h561.48v-98h-410.3v-193.84h344.3v-97.9902h-344.3v-211.91h410.3v-98h-561.48z
" />
    <glyph glyph-name="Ecircumflexhookabove" unicode="&#x1ec2;" horiz-adv-x="692" 
d="M525.44 925.74l-6.66992 38.2881c19.9004 5.33008 44.6904 7.90039 56.54 7.90039c72.4805 0 92.1504 -24.9297 92.1504 -74.5996c0 -36.0801 -14.6504 -57.8896 -49.1504 -63.9092v-39.0801h-59.9004v79.9102h18.6504c16.7002 0 26.0801 2.20996 26.0801 23.0703
c0 23.0898 -2.42969 28.7402 -25.96 29.2998c-7.84961 0 0.5 0 -51.7402 -0.879883zM148.221 778.179l166.87 152.98h63.5303l168.26 -152.98h-120.29l-78.7598 73.3203l-79.6504 -73.3203h-119.96zM87.1104 0.149414v699.74h561.48v-98h-410.3v-193.84h344.3v-97.9902
h-344.3v-211.91h410.3v-98h-561.48z" />
    <glyph glyph-name="Ecircumflextilde" unicode="&#x1ec4;" horiz-adv-x="692" 
d="M212.24 947.88l-65.1895 45.9316c44.7305 37.2598 86.25 62.3398 136.98 62.3398c68.9902 0 94.4102 -46.5303 134.23 -46.5303c19.3096 0 47.2197 26.2402 66.4893 44.0303l65.5898 -39.5801c-39.5996 -39.8203 -81.5898 -69.1504 -128.64 -69.1504
c-73.9004 0 -94.1904 47.9697 -138.73 47.9697c-20.5703 0 -45.1807 -21.8203 -70.7305 -45.0107zM315.411 931.151h63.5303l168.26 -152.98h-120.29l-78.7598 73.3203l-79.6504 -73.3203h-119.96zM87.0918 0.141602v699.74h561.48v-98h-410.3v-193.84h344.3v-97.9902
h-344.3v-211.91h410.3v-98h-561.48z" />
    <glyph glyph-name="Edieresis" unicode="&#xcb;" horiz-adv-x="692" 
d="M203.98 790.35v90.79h101.91v-90.79h-101.91zM386.811 790.35v90.79h101.91v-90.79h-101.91zM87.1104 0.129883v699.74h561.48v-98h-410.3v-193.84h344.3v-97.9902h-344.3v-211.91h410.3v-98h-561.48z" />
    <glyph glyph-name="Edotaccent" unicode="&#x116;" horiz-adv-x="692" 
d="M295.39 790.35v90.79h101.91v-90.79h-101.91zM87.0996 0.129883v699.74h561.48v-98h-410.3v-193.84h344.3v-97.9902h-344.3v-211.91h410.3v-98h-561.48z" />
    <glyph glyph-name="Edotbelow" unicode="&#x1eb8;" horiz-adv-x="692" 
d="M87.0996 0.129883v699.74h561.48v-98h-410.3v-193.84h344.3v-97.9902h-344.3v-211.91h410.3v-98h-561.48zM324.199 -72h101.91v-90h-101.91v90z" />
    <glyph glyph-name="Egrave" unicode="&#xc8;" horiz-adv-x="692" 
d="M218.41 931.72h135.479l146.36 -135.96h-118.76zM87.0996 0.129883v699.74h561.48v-98h-410.3v-193.84h344.3v-97.9902h-344.3v-211.91h410.3v-98h-561.48z" />
    <glyph glyph-name="Ehookabove" unicode="&#x1eba;" horiz-adv-x="692" 
d="M308.8 925.74l-6.69043 38.2881c19.9004 5.33008 44.7002 7.90039 56.5498 7.90039c72.4805 0 92.1504 -24.9297 92.1504 -74.5996c0 -36.0801 -14.6504 -57.8896 -49.1504 -63.9092v-39.0801h-59.8896v79.9102h18.6504c16.7002 0 26.0801 2.20996 26.0801 23.0703
c0 23.0898 -2.42969 28.7402 -25.96 29.2998c-7.84961 0 0.5 0 -51.7402 -0.879883zM87.0791 0.148438v699.74h561.48v-98h-410.3v-193.84h344.3v-97.9902h-344.3v-211.91h410.3v-98h-561.48z" />
    <glyph glyph-name="Emacron" unicode="&#x112;" horiz-adv-x="692" 
d="M531.49 809.92h-370.29v69.9102h370.29v-69.9102zM87.1006 0.129883v699.74h561.48v-98h-410.3v-193.84h344.3v-97.9902h-344.3v-211.91h410.3v-98h-561.48z" />
    <glyph glyph-name="Eng" unicode="&#x14a;" horiz-adv-x="789" 
d="M563.82 699.87l151.159 -0.000976562v-681.68c1.04004 -178.42 -104.3 -196.31 -217.01 -196.31c-28.2803 0 -57.0205 1.12988 -84.6602 1.12988v99c121.79 0 146.49 -2 149.92 78.1299h-34.7998l-302.93 507.28v-507.28h-151.18v699.73h186.61l302.89 -508.7v508.7z" />
    <glyph glyph-name="Eogonek" unicode="&#x118;" horiz-adv-x="692" 
d="M87.0996 699.87l561.5 0.0195312v-98h-410.3v-193.84h344.3v-97.9902h-344.3v-211.91h410.3v-98h-83.2803c-34.46 -18.7598 -50.7002 -48.3193 -50.7002 -74.1797c0 -7.40039 1.33008 -14.5 3.9502 -20.96c5.84961 -14.2402 23.6895 -24.4199 50.8398 -24.4199
c10.9902 0 23.5098 1.66992 37.3799 5.41992l10.9697 -49c-29.4297 -9.51953 -55.5596 -13.6992 -78.1299 -13.6992c-48.5898 0 -80.7002 19.3896 -93.71 46.6992c-5.17969 11.0801 -7.55957 22.29 -7.55957 33.2998c0 40.6797 32.4502 78.6201 75.6602 96.8301h-426.92
v699.73z" />
    <glyph glyph-name="Eth" unicode="&#xd0;" horiz-adv-x="805" 
d="M120.09 699.96h341.78c241.81 0 313.199 -173.53 313.199 -340.79c0 -167.01 -70.1699 -359.13 -313.189 -359.13h-341.79v297.63h-85.1504v88.1504h85.1504v314.14zM271.26 88.7402h190.62c112.02 0 159.8 139.85 159.8 270.42c0 131.25 -45.71 252.08 -159.81 252.08
h-190.61v-225.43h183.7v-88.1504h-183.7v-208.92z" />
    <glyph glyph-name="Etilde" unicode="&#x1ebc;" horiz-adv-x="692" 
d="M484.69 904.77l65.5908 -39.5693c-39.5996 -39.8301 -81.5898 -69.1602 -128.64 -69.1602c-73.9004 0 -94.2002 47.9697 -138.74 47.9697c-20.5703 0 -45.1807 -21.8203 -70.7305 -45.0107l-65.1699 45.9199c44.7197 37.2598 86.2393 62.3398 136.97 62.3398
c68.9902 0 94.4102 -46.5195 134.23 -46.5195c19.3096 0 47.2197 26.2305 66.4893 44.0303zM87.1113 0.140625v699.74h561.48v-98h-410.3v-193.84h344.3v-97.9902h-344.3v-211.91h410.3v-98h-561.48z" />
    <glyph glyph-name="F" unicode="F" horiz-adv-x="678" 
d="M87.0996 0.129883v699.74h546.58v-98h-395.4v-218.23h329.4v-98h-329.4v-285.51h-151.18z" />
    <glyph glyph-name="G" unicode="G" horiz-adv-x="785" 
d="M699.51 576.61l12.2617 99.8721c-70.5098 13.4805 -171.62 31.5303 -300.79 31.5303c-280.44 0 -343.881 -157.06 -343.881 -360.71c0 -208.19 74.0996 -355.301 343.88 -355.301c97 0 245.91 22.2998 297.8 30.1602v358.77h-316.41v-98h165v-180.47
c-22.4404 -1.94043 -95.6709 -12.4707 -146.381 -12.4707c-155.31 0 -190.38 84.5098 -190.38 257.29c0 172.45 32.0098 262.72 190.38 262.72c99.4902 0 210.971 -21.1904 288.521 -33.3906z" />
    <glyph glyph-name="Gbreve" unicode="&#x11e;" horiz-adv-x="785" 
d="M445.25 913.17l76.791 0.0107422c0 -60.4004 -42.4805 -124.551 -129.141 -124.551c-88.1904 0 -129.2 64.3799 -129.2 124.54h77.8896c1.86035 -43.6299 27.3008 -55.0801 52.3906 -55.0801c23.7803 0 49.5498 11.4502 51.2695 55.0801zM699.511 576.621
l12.2617 99.8721c-70.5098 13.4805 -171.62 31.5303 -300.79 31.5303c-280.44 0 -343.881 -157.06 -343.881 -360.71c0 -208.19 74.0996 -355.301 343.88 -355.301c97 0 245.91 22.2998 297.8 30.1602v358.77h-316.41v-98h165v-180.47
c-22.4404 -1.94043 -95.6709 -12.4707 -146.381 -12.4707c-155.31 0 -190.38 84.5098 -190.38 257.29c0 172.45 32.0098 262.72 190.38 262.72c99.4902 0 210.971 -21.1904 288.521 -33.3906z" />
    <glyph glyph-name="Gcommaaccent" unicode="&#x122;" horiz-adv-x="785" 
d="M699.51 576.61l12.2617 99.8721c-70.5098 13.4805 -171.62 31.5303 -300.79 31.5303c-280.44 0 -343.881 -157.06 -343.881 -360.71c0 -208.19 74.0996 -355.301 343.88 -355.301c97 0 245.91 22.2998 297.8 30.1602v358.77h-316.41v-98h165v-180.47
c-22.4404 -1.94043 -95.6709 -12.4707 -146.381 -12.4707c-155.31 0 -190.38 84.5098 -190.38 257.29c0 172.45 32.0098 262.72 190.38 262.72c99.4902 0 210.971 -21.1904 288.521 -33.3906zM283.491 -249.987l49.8799 206h157.86l-62.9404 -206h-144.8z" />
    <glyph glyph-name="Gdotaccent" unicode="&#x120;" horiz-adv-x="785" 
d="M341.94 790.35v90.79h101.91v-90.79h-101.91zM699.511 576.609l12.2617 99.8721c-70.5098 13.4805 -171.62 31.5303 -300.79 31.5303c-280.44 0 -343.881 -157.06 -343.881 -360.71c0 -208.19 74.0996 -355.301 343.88 -355.301c97 0 245.91 22.2998 297.8 30.1602
v358.77h-316.41v-98h165v-180.47c-22.4404 -1.94043 -95.6709 -12.4707 -146.381 -12.4707c-155.31 0 -190.38 84.5098 -190.38 257.29c0 172.45 32.0098 262.72 190.38 262.72c99.4902 0 210.971 -21.1904 288.521 -33.3906z" />
    <glyph glyph-name="H" unicode="H" horiz-adv-x="824" 
d="M586.5 0.129883v301.77h-348.22v-301.77h-151.18v699.73h151.18v-299.97h348.22v299.97h151.18v-699.73h-151.18z" />
    <glyph glyph-name="Hbar" unicode="&#x126;" horiz-adv-x="798" 
d="M796.5 587.83v-78.9004h-71.8203v-508.79h-151.18v301.77h-348.22v-301.77h-151.18v508.79h-71.8799v78.9004h71.8799v112.04h151.18v-112.04h348.22v112.04h151.18v-112.04h71.8203zM573.49 399.899v109.03h-348.22v-109.03h348.22z" />
    <glyph glyph-name="I" unicode="I" horiz-adv-x="324" 
d="M87.0996 0v700h151.18v-700h-151.18z" />
    <glyph glyph-name="IJ" unicode="&#x132;" horiz-adv-x="717" 
d="M478.28 700.44l151.222 -0.00878906c-0.00976562 -13.2695 -0.0195312 -26.2197 -0.0195312 -38.8799c0 -185.5 1.08984 -310.11 1.08984 -501.54c0 -180.61 -107.36 -196.761 -221.19 -196.761c-27.3604 0 -55.0908 0.929688 -81.8008 0.739258v99.8604
c143.93 0 150.699 -4.42969 150.699 105.2v531.39zM87.1123 -0.00878906v700h151.18v-700h-151.18z" />
    <glyph glyph-name="Iacute" unicode="&#xcd;" horiz-adv-x="324" 
d="M23.5098 776.17l146.449 135.96h135.48l-163.08 -135.96h-118.85zM87.0986 -0v700h151.18v-700h-151.18z" />
    <glyph glyph-name="Icaron" unicode="&#x1cf;" horiz-adv-x="324" 
d="M195.53 778.74h-63.5303l-167 152.98h120.09l79.6504 -73.3203l78.7598 73.3203h120.29zM87.1104 0v700h151.18v-700h-151.18z" />
    <glyph glyph-name="Icircumflex" unicode="&#xce;" horiz-adv-x="333" 
d="M-31 778.16l166.79 152.98h63.5303l168.26 -152.98h-120.29l-78.7598 73.3203l-79.6504 -73.3203h-119.88zM91.1904 0.000976562v700h151.18v-700h-151.18z" />
    <glyph glyph-name="Idieresis" unicode="&#xcf;" horiz-adv-x="324" 
d="M20.3301 790.35v90.79h101.91v-90.79h-101.91zM203.16 790.35v90.79h101.91v-90.79h-101.91zM87.1104 -0v700h151.18v-700h-151.18z" />
    <glyph glyph-name="Idotaccent" unicode="&#x130;" horiz-adv-x="324" 
d="M111.74 790.35v90.79h101.91v-90.79h-101.91zM87.1006 -0v700h151.18v-700h-151.18z" />
    <glyph glyph-name="Idotbelow" unicode="&#x1eca;" horiz-adv-x="324" 
d="M87.0996 0v700h151.18v-700h-151.18zM111.31 -72h101.91v-90h-101.91v90z" />
    <glyph glyph-name="Igrave" unicode="&#xcc;" horiz-adv-x="324" 
d="M34.7598 931.72h135.489l146.36 -135.96h-118.77zM87.1094 -0v700h151.18v-700h-151.18z" />
    <glyph glyph-name="Ihookabove" unicode="&#x1ec8;" horiz-adv-x="324" 
d="M96.7002 925.74l-6.69043 38.2881c19.9004 5.33008 44.6904 7.90039 56.54 7.90039c72.4805 0 92.1602 -24.9297 92.1602 -74.5996c0 -36.0801 -14.6504 -57.8896 -49.1504 -63.9092v-39.0801h-59.8896v79.9102h18.6504c16.7002 0 26.0801 2.20996 26.0801 23.0703
c0 23.0898 -2.42969 28.7402 -25.96 29.2998c-7.84961 0 0.5 0 -51.7402 -0.879883zM87.0898 0.00878906v700h151.18v-700h-151.18z" />
    <glyph glyph-name="Imacron" unicode="&#x12a;" horiz-adv-x="324" 
d="M347.84 809.92h-369.84v69.9102h369.84v-69.9102zM87.0996 -0v700h151.18v-700h-151.18z" />
    <glyph glyph-name="Iogonek" unicode="&#x12e;" horiz-adv-x="324" 
d="M87.0996 700l151.183 0.00976562v-700h-100.19c-39.8301 -17.5303 -59.9805 -50.2998 -59.9805 -79.0801c0 -7.33984 1.30957 -14.4199 3.93945 -20.9199c5.84961 -14.2402 23.6895 -24.4199 50.8398 -24.4199c10.9902 0 23.5098 1.66992 37.3799 5.41992l10.9697 -49
c-29.4297 -9.51953 -55.5596 -13.6992 -78.1299 -13.6992c-48.5898 0 -80.7002 19.3896 -93.71 46.6992c-5.11035 11.0703 -7.45996 22.3398 -7.45996 33.4502c0 44.0801 37.0195 85.5703 85.1592 101.54v700z" />
    <glyph glyph-name="Itilde" unicode="&#x128;" horiz-adv-x="324" 
d="M301.04 904.77l65.5703 -39.5693c-39.5996 -39.8301 -81.5898 -69.1602 -128.64 -69.1602c-73.9004 0 -94.1904 47.9697 -138.73 47.9697c-20.5703 0 -45.1807 -21.8203 -70.7305 -45.0107l-65.5098 45.9199c45.0703 37.2598 86.5898 62.3398 137.32 62.3398
c68.9902 0 94.4102 -46.5195 134.23 -46.5195c19.3096 0 47.2197 26.2305 66.4893 44.0303zM87.0908 0.00976562v700h151.18v-700h-151.18z" />
    <glyph glyph-name="J" unicode="J" horiz-adv-x="392" 
d="M153.49 700.44l151.212 -0.00878906c-0.00976562 -13.2695 -0.0195312 -26.2197 -0.0195312 -38.8799c0 -185.5 1.08984 -310.11 1.08984 -501.54c0 -180.61 -107.36 -196.761 -221.19 -196.761c-27.3604 0 -55.0908 0.929688 -81.791 0.739258v99.8604
c143.93 0 150.699 -4.42969 150.699 105.2v531.39z" />
    <glyph glyph-name="K" unicode="K" horiz-adv-x="735" 
d="M533.22 699.87h172.279l-282.93 -351.07l304.03 -348.66h-177.88l-244.05 289.37h-66.3799v-289.37h-151.18v699.73h151.18v-293.14h64.3301z" />
    <glyph glyph-name="Kcommaaccent" unicode="&#x136;" horiz-adv-x="735" 
d="M533.22 699.87h172.279l-282.93 -351.07l304.03 -348.66h-177.88l-244.05 289.37h-66.3799v-289.37h-151.18v699.73h151.18v-293.14h64.3301zM257.359 -250l48.8496 206h157.86l-61.9102 -206h-144.8z" />
    <glyph glyph-name="L" unicode="L" horiz-adv-x="622" 
d="M613.39 0.129883l-526.279 0.00976562v699.73h151.18v-601.74h375.1v-98z" />
    <glyph glyph-name="Lacute" unicode="&#x139;" horiz-adv-x="622" 
d="M171.87 776.17l146.449 135.96h135.48l-163.08 -135.96h-118.85zM613.39 0.129883l-526.279 0.00976562v699.73h151.18v-601.74h375.1v-98z" />
    <glyph glyph-name="Lcaron" unicode="&#x13d;" horiz-adv-x="622" 
d="M613.39 0.129883l-526.279 0.00976562v699.73h151.18v-601.74h375.1v-98zM330.99 457.739l58.7305 240.36h155.74l-71.9404 -240.36h-142.53z" />
    <glyph glyph-name="Lcommaaccent" unicode="&#x13b;" horiz-adv-x="622" 
d="M613.39 0.129883l-526.279 0.00976562v699.73h151.18v-601.74h375.1v-98zM257.37 -249.99l48.8496 207h157.86l-61.9102 -207h-144.8z" />
    <glyph glyph-name="Ldot" unicode="&#x13f;" horiz-adv-x="622" 
d="M613.39 0.129883l-526.279 0.00976562v699.73h151.18v-601.74h375.1v-98zM377.19 288.159v130.33h155.58v-130.33h-155.58z" />
    <glyph glyph-name="Lslash" unicode="&#x141;" horiz-adv-x="664" 
d="M37.3398 198.31l0.000976562 117.831l86.6699 50.3496v333.5h151.18v-249.94l229.9 134.79v-118.37l-229.9 -134.73v-243.59h375.1v-88.1504h-526.28v248.62z" />
    <glyph glyph-name="M" unicode="M" horiz-adv-x="982" 
d="M715.06 699.87h180.339v-699.73h-151.18v453.37l-192.44 -434.39h-137.31l-188.97 434.39v-453.37h-151.18v699.73h181.54l228.67 -501.94z" />
    <glyph glyph-name="N" unicode="N" horiz-adv-x="789" 
d="M563.82 699.87h151.18v-699.73h-186.57l-302.93 508.54v-508.54h-151.18v699.73h186.61l302.89 -509.75v509.75z" />
    <glyph glyph-name="Nacute" unicode="&#x143;" horiz-adv-x="789" 
d="M255.98 776.17l146.449 135.96h135.48l-163.08 -135.96h-118.85zM563.819 699.87h151.18v-699.73h-186.57l-302.93 508.54v-508.54h-151.18v699.73h186.61l302.89 -509.75v509.75z" />
    <glyph glyph-name="Ncaron" unicode="&#x147;" horiz-adv-x="789" 
d="M427.99 778.74h-63.5303l-166.87 152.98h119.96l79.6504 -73.3203l78.7598 73.3203h120.29zM563.82 699.86h151.18v-699.73h-186.57l-302.93 508.54v-508.54h-151.18v699.73h186.61l302.89 -509.75v509.75z" />
    <glyph glyph-name="Ncommaaccent" unicode="&#x145;" horiz-adv-x="789" 
d="M563.82 699.87h151.18v-699.73h-186.57l-302.93 508.54v-508.54h-151.18v699.73h186.61l302.89 -509.75v509.75zM257.37 -250l48.8496 207h157.86l-61.9102 -207h-144.8z" />
    <glyph glyph-name="Ntilde" unicode="&#xd1;" horiz-adv-x="789" 
d="M533.5 904.77l65.5801 -39.5693c-39.5996 -39.8301 -81.5898 -69.1602 -128.64 -69.1602c-73.9004 0 -94.2002 47.9697 -138.74 47.9697c-20.5703 0 -45.1807 -21.8203 -70.7305 -45.0107l-65.1699 45.9199c44.7305 37.2598 86.25 62.3398 136.98 62.3398
c68.9902 0 94.4102 -46.5195 134.23 -46.5195c19.3096 0 47.2197 26.2305 66.4893 44.0303zM563.811 699.88h151.18v-699.73h-186.57l-302.93 508.54v-508.54h-151.18v699.73h186.61l302.89 -509.75v509.75z" />
    <glyph glyph-name="O" unicode="O" horiz-adv-x="822" 
d="M414.47 707.43c217.09 0 341.27 -103.161 341.27 -346.591c0 -242.91 -66.9199 -368.84 -341.27 -368.84c-272.28 0 -347.36 109.49 -347.36 371.351c0 246.51 109.24 344.08 347.36 344.08zM414.47 90.0283c162.14 0 190.291 77.8281 190.291 270.809
c0 185.78 -72.9902 249.19 -190.29 249.19c-142.2 0 -196.391 -50.4697 -196.391 -246.68c0 -207.52 32.3701 -273.319 196.39 -273.319z" />
    <glyph glyph-name="OE" unicode="&#x152;" horiz-adv-x="1126" 
d="M1081.01 0l-693.251 -0.0107422c-265.1 0 -336.63 114.17 -336.63 354.6c0 234.88 94.7305 345.41 336.631 345.41h693.25v-99.0098h-389.22v-192.51h325.87v-98.8799h-325.87v-210.14h389.22v-99.46zM539.739 605.109h-151.979
c-147.04 0 -186.48 -65.79 -186.48 -249.64c0 -194.11 30.2998 -261.5 186.479 -260.9h151.98v510.54z" />
    <glyph glyph-name="Oacute" unicode="&#xd3;" horiz-adv-x="822" 
d="M272.91 776.17l146.449 135.96h135.48l-163.08 -135.96h-118.85zM414.459 707.43c217.09 0 341.27 -103.161 341.27 -346.591c0 -242.91 -66.9199 -368.84 -341.27 -368.84c-272.28 0 -347.36 109.49 -347.36 371.351c0 246.51 109.24 344.08 347.36 344.08z
M414.459 90.0283c162.14 0 190.291 77.8281 190.291 270.809c0 185.78 -72.9902 249.19 -190.29 249.19c-142.2 0 -196.391 -50.4697 -196.391 -246.68c0 -207.52 32.3701 -273.319 196.39 -273.319z" />
    <glyph glyph-name="Ocaron" unicode="&#x1d1;" horiz-adv-x="822" 
d="M444.92 778.74h-63.5303l-166.87 152.98h119.96l79.6504 -73.3203l78.7598 73.3203h120.29zM414.46 707.42c217.09 0 341.27 -103.161 341.27 -346.591c0 -242.91 -66.9199 -368.84 -341.27 -368.84c-272.28 0 -347.36 109.49 -347.36 371.351
c0 246.51 109.24 344.08 347.36 344.08zM414.46 90.0186c162.14 0 190.291 77.8281 190.291 270.809c0 185.78 -72.9902 249.19 -190.29 249.19c-142.2 0 -196.391 -50.4697 -196.391 -246.68c0 -207.52 32.3701 -273.319 196.39 -273.319z" />
    <glyph glyph-name="Ocircumflex" unicode="&#xd4;" horiz-adv-x="822" 
d="M214.23 778.16l166.88 152.98h63.5303l168.25 -152.98h-120.29l-78.7598 73.3203l-79.6504 -73.3203h-119.96zM414.471 707.431c217.09 0 341.27 -103.161 341.27 -346.591c0 -242.91 -66.9199 -368.84 -341.27 -368.84c-272.28 0 -347.36 109.49 -347.36 371.351
c0 246.51 109.24 344.08 347.36 344.08zM414.471 90.0293c162.14 0 190.291 77.8281 190.291 270.809c0 185.78 -72.9902 249.19 -190.29 249.19c-142.2 0 -196.391 -50.4697 -196.391 -246.68c0 -207.52 32.3701 -273.319 196.39 -273.319z" />
    <glyph glyph-name="Ocircumflexacute" unicode="&#x1ed0;" horiz-adv-x="822" 
d="M712.88 982.88h135.479l-163.08 -135.96h-118.85zM380.949 931.14h63.5303l168.26 -152.98h-120.29l-78.7598 73.3203l-79.6504 -73.3203h-119.96zM414.47 707.43c217.09 0 341.27 -103.161 341.27 -346.591c0 -242.91 -66.9199 -368.84 -341.27 -368.84
c-272.28 0 -347.36 109.49 -347.36 371.351c0 246.51 109.24 344.08 347.36 344.08zM414.47 90.0283c162.14 0 190.291 77.8281 190.291 270.809c0 185.78 -72.9902 249.19 -190.29 249.19c-142.2 0 -196.391 -50.4697 -196.391 -246.68
c0 -207.52 32.3701 -273.319 196.39 -273.319z" />
    <glyph glyph-name="Ocircumflexdotbelow" unicode="&#x1ed8;" horiz-adv-x="822" 
d="M214.23 778.16l166.88 152.98h63.5303l168.25 -152.98h-120.29l-78.7598 73.3203l-79.6504 -73.3203h-119.96zM414.471 707.431c217.09 0 341.27 -103.161 341.27 -346.591c0 -242.91 -66.9199 -368.84 -341.27 -368.84c-272.28 0 -347.36 109.49 -347.36 371.351
c0 246.51 109.24 344.08 347.36 344.08zM414.471 90.0293c162.14 0 190.291 77.8281 190.291 270.809c0 185.78 -72.9902 249.19 -190.29 249.19c-142.2 0 -196.391 -50.4697 -196.391 -246.68c0 -207.52 32.3701 -273.319 196.39 -273.319zM361.622 -72.002h101.91v-90
h-101.91v90z" />
    <glyph glyph-name="Ocircumflexgrave" unicode="&#x1ed2;" horiz-adv-x="822" 
d="M431.47 996.07h135.479l146.36 -135.96h-118.76zM214.189 778.16l166.88 152.98h63.5303l168.25 -152.98h-120.29l-78.7598 73.3203l-79.6504 -73.3203h-119.96zM414.479 707.431c217.09 0 341.27 -103.161 341.27 -346.591c0 -242.91 -66.9199 -368.84 -341.27 -368.84
c-272.28 0 -347.36 109.49 -347.36 371.351c0 246.51 109.24 344.08 347.36 344.08zM414.479 90.0293c162.14 0 190.291 77.8281 190.291 270.809c0 185.78 -72.9902 249.19 -190.29 249.19c-142.2 0 -196.391 -50.4697 -196.391 -246.68
c0 -207.52 32.3701 -273.319 196.39 -273.319z" />
    <glyph glyph-name="Ocircumflexhookabove" unicode="&#x1ed4;" horiz-adv-x="822" 
d="M591.78 925.74l-6.66992 38.2783c19.9004 5.33008 44.6904 7.90039 56.54 7.90039c72.4805 0 92.1504 -24.9297 92.1504 -74.5996c0 -36.0801 -14.6504 -57.8896 -49.1504 -63.9092v-39.0801h-59.9004v79.9102h18.6504c16.7002 0 26.0801 2.20996 26.0801 23.0703
c0 23.0996 -2.42969 28.75 -25.96 29.3096c-7.84961 0 0.5 0 -51.7402 -0.879883zM214.561 778.169l166.88 152.98h63.5303l168.25 -152.98h-120.29l-78.7598 73.3203l-79.6504 -73.3203h-119.96zM414.471 707.439c217.09 0 341.26 -103.161 341.26 -346.591
c0 -242.91 -66.9199 -368.84 -341.26 -368.84c-272.28 0 -347.36 109.49 -347.36 371.351c0 246.51 109.24 344.08 347.36 344.08zM414.461 90.0381c162.14 0 190.291 77.8281 190.291 270.809c0 185.78 -72.9902 249.19 -190.29 249.19
c-142.2 0 -196.391 -50.4697 -196.391 -246.68c0 -207.52 32.3701 -273.319 196.39 -273.319z" />
    <glyph glyph-name="Ocircumflextilde" unicode="&#x1ed6;" horiz-adv-x="822" 
d="M278.24 947.88l-65.1689 45.9316c44.7197 37.2598 86.2393 62.3398 136.97 62.3398c68.9902 0 94.4102 -46.5303 134.23 -46.5303c19.3096 0 47.2197 26.2402 66.4893 44.0303l65.5898 -39.5801c-39.5996 -39.8203 -81.5898 -69.1504 -128.64 -69.1504
c-73.9004 0 -94.2002 47.9697 -138.74 47.9697c-20.5703 0 -45.1807 -21.8203 -70.7305 -45.0107zM381.432 931.151h63.5303l168.26 -152.98h-120.29l-78.7598 73.3203l-79.6504 -73.3203h-119.96zM414.472 707.441c217.09 0 341.27 -103.161 341.27 -346.591
c0 -242.91 -66.9199 -368.84 -341.27 -368.84c-272.28 0 -347.36 109.49 -347.36 371.351c0 246.51 109.24 344.08 347.36 344.08zM414.472 90.04c162.14 0 190.291 77.8281 190.291 270.809c0 185.78 -72.9902 249.19 -190.29 249.19
c-142.2 0 -196.391 -50.4697 -196.391 -246.68c0 -207.52 32.3701 -273.319 196.39 -273.319z" />
    <glyph glyph-name="Odieresis" unicode="&#xd6;" horiz-adv-x="822" 
d="M269.72 790.35v90.79h101.91v-90.79h-101.91zM452.55 790.35v90.79h101.91v-90.79h-101.91zM414.47 707.42c217.09 0 341.27 -103.161 341.27 -346.591c0 -242.91 -66.9199 -368.84 -341.27 -368.84c-272.28 0 -347.36 109.49 -347.36 371.351
c0 246.51 109.24 344.08 347.36 344.08zM414.47 90.0186c162.14 0 190.291 77.8281 190.291 270.809c0 185.78 -72.9902 249.19 -190.29 249.19c-142.2 0 -196.391 -50.4697 -196.391 -246.68c0 -207.52 32.3701 -273.319 196.39 -273.319z" />
    <glyph glyph-name="Odotbelow" unicode="&#x1ecc;" horiz-adv-x="822" 
d="M414.47 707.43c217.09 0 341.27 -103.161 341.27 -346.591c0 -242.91 -66.9199 -368.84 -341.27 -368.84c-272.28 0 -347.36 109.49 -347.36 371.351c0 246.51 109.24 344.08 347.36 344.08zM414.47 90.0283c162.14 0 190.291 77.8281 190.291 270.809
c0 185.78 -72.9902 249.19 -190.29 249.19c-142.2 0 -196.391 -50.4697 -196.391 -246.68c0 -207.52 32.3701 -273.319 196.39 -273.319zM361.621 -72.0029h101.91v-90h-101.91v90z" />
    <glyph glyph-name="Ograve" unicode="&#xd2;" horiz-adv-x="822" 
d="M284.16 931.72h135.479l146.36 -135.96h-118.76zM414.47 707.43c217.09 0 341.27 -103.161 341.27 -346.591c0 -242.91 -66.9199 -368.84 -341.27 -368.84c-272.28 0 -347.36 109.49 -347.36 371.351c0 246.51 109.24 344.08 347.36 344.08zM414.47 90.0283
c162.14 0 190.291 77.8281 190.291 270.809c0 185.78 -72.9902 249.19 -190.29 249.19c-142.2 0 -196.391 -50.4697 -196.391 -246.68c0 -207.52 32.3701 -273.319 196.39 -273.319z" />
    <glyph glyph-name="Ohookabove" unicode="&#x1ece;" horiz-adv-x="822" 
d="M344.1 925.74l-6.66992 38.2783c19.9004 5.33008 44.6904 7.90039 56.54 7.90039c72.4805 0 92.1504 -24.9297 92.1504 -74.5996c0 -36.0801 -14.6504 -57.8896 -49.1504 -63.9092v-39.0801h-59.9004v79.9102h18.6504c16.7002 0 26.0801 2.20996 26.0801 23.0703
c0 23.0996 -2.42969 28.75 -25.96 29.3096c-7.84961 0 0.5 0 -51.7402 -0.879883zM414.47 707.429c217.09 0 341.27 -103.161 341.27 -346.591c0 -242.91 -66.9199 -368.84 -341.27 -368.84c-272.28 0 -347.36 109.49 -347.36 371.351c0 246.51 109.24 344.08 347.36 344.08
zM414.47 90.0273c162.14 0 190.291 77.8281 190.291 270.809c0 185.78 -72.9902 249.19 -190.29 249.19c-142.2 0 -196.391 -50.4697 -196.391 -246.68c0 -207.52 32.3701 -273.319 196.39 -273.319z" />
    <glyph glyph-name="Ohorn" unicode="&#x1a0;" horiz-adv-x="822" 
d="M754.95 705.03l48.7393 10.9697c9.51953 -29.4805 13.6992 -55.6504 13.6992 -78.25c0 -48.5303 -19.2695 -80.6006 -46.3496 -93.6006c-11.29 -5.17969 -22.7705 -7.5498 -34.04 -7.5498c-4.04004 0 -8.05957 0.30957 -12.0293 0.899414
c20.2803 -46.2695 30.75 -104.6 30.75 -176.67c0 -242.91 -66.9199 -368.84 -341.26 -368.84c-272.28 0 -347.36 109.49 -347.36 371.351c0 246.51 109.24 344.08 347.36 344.08c113.83 0 202.18 -28.2803 260.34 -89.6807
c11.04 -4.05957 22.4697 -5.93945 33.1602 -5.93945c10.3301 0 19.9697 1.75977 27.8896 5.00977c14.1104 5.87012 24.5107 23.8203 24.5107 51.1406c0 10.9199 -1.66016 23.3398 -5.41016 37.0801zM414.449 90.0195c162.14 0 190.291 77.8281 190.291 270.809
c0 185.78 -72.9902 249.19 -190.29 249.19c-142.2 0 -196.391 -50.4697 -196.391 -246.68c0 -207.52 32.3701 -273.319 196.39 -273.319z" />
    <glyph glyph-name="Ohornacute" unicode="&#x1eda;" horiz-adv-x="822" 
d="M272.91 776.17l146.449 135.96h135.48l-163.08 -135.96h-118.85zM754.939 705.03l48.7393 10.9697c9.51953 -29.4805 13.6992 -55.6504 13.6992 -78.25c0 -48.5303 -19.2695 -80.6006 -46.3496 -93.6006c-11.29 -5.17969 -22.7705 -7.5498 -34.04 -7.5498
c-4.04004 0 -8.05957 0.30957 -12.0293 0.899414c20.2803 -46.2695 30.75 -104.6 30.75 -176.67c0 -242.91 -66.9199 -368.84 -341.26 -368.84c-272.28 0 -347.36 109.49 -347.36 371.351c0 246.51 109.24 344.08 347.36 344.08c113.83 0 202.18 -28.2803 260.34 -89.6807
c11.04 -4.05957 22.4697 -5.93945 33.1602 -5.93945c10.3301 0 19.9697 1.75977 27.8896 5.00977c14.1104 5.87012 24.5107 23.8203 24.5107 51.1406c0 10.9199 -1.66016 23.3398 -5.41016 37.0801zM414.438 90.0195c162.14 0 190.291 77.8281 190.291 270.809
c0 185.78 -72.9902 249.19 -190.29 249.19c-142.2 0 -196.391 -50.4697 -196.391 -246.68c0 -207.52 32.3701 -273.319 196.39 -273.319z" />
    <glyph glyph-name="Ohorndotbelow" unicode="&#x1ee2;" horiz-adv-x="822" 
d="M754.95 705.03l48.7393 10.9697c9.51953 -29.4805 13.6992 -55.6504 13.6992 -78.25c0 -48.5303 -19.2695 -80.6006 -46.3496 -93.6006c-11.29 -5.17969 -22.7705 -7.5498 -34.04 -7.5498c-4.04004 0 -8.05957 0.30957 -12.0293 0.899414
c20.2803 -46.2695 30.75 -104.6 30.75 -176.67c0 -242.91 -66.9199 -368.84 -341.26 -368.84c-272.28 0 -347.36 109.49 -347.36 371.351c0 246.51 109.24 344.08 347.36 344.08c113.83 0 202.18 -28.2803 260.34 -89.6807
c11.04 -4.05957 22.4697 -5.93945 33.1602 -5.93945c10.3301 0 19.9697 1.75977 27.8896 5.00977c14.1104 5.87012 24.5107 23.8203 24.5107 51.1406c0 10.9199 -1.66016 23.3398 -5.41016 37.0801zM414.449 90.0195c162.14 0 190.291 77.8281 190.291 270.809
c0 185.78 -72.9902 249.19 -190.29 249.19c-142.2 0 -196.391 -50.4697 -196.391 -246.68c0 -207.52 32.3701 -273.319 196.39 -273.319zM361.601 -72.0117h101.91v-90h-101.91v90z" />
    <glyph glyph-name="Ohorngrave" unicode="&#x1edc;" horiz-adv-x="822" 
d="M284.16 931.72h135.479l146.36 -135.96h-118.76zM754.949 705.029l48.7393 10.9697c9.51953 -29.4805 13.6992 -55.6504 13.6992 -78.25c0 -48.5303 -19.2695 -80.6006 -46.3496 -93.6006c-11.29 -5.17969 -22.7705 -7.5498 -34.04 -7.5498
c-4.04004 0 -8.05957 0.30957 -12.0293 0.899414c20.2803 -46.2695 30.75 -104.6 30.75 -176.67c0 -242.91 -66.9199 -368.84 -341.26 -368.84c-272.28 0 -347.36 109.49 -347.36 371.351c0 246.51 109.24 344.08 347.36 344.08c113.83 0 202.18 -28.2803 260.34 -89.6807
c11.04 -4.05957 22.4697 -5.93945 33.1602 -5.93945c10.3301 0 19.9697 1.75977 27.8896 5.00977c14.1104 5.87012 24.5107 23.8203 24.5107 51.1406c0 10.9199 -1.66016 23.3398 -5.41016 37.0801zM414.448 90.0186c162.14 0 190.291 77.8281 190.291 270.809
c0 185.78 -72.9902 249.19 -190.29 249.19c-142.2 0 -196.391 -50.4697 -196.391 -246.68c0 -207.52 32.3701 -273.319 196.39 -273.319z" />
    <glyph glyph-name="Ohornhookabove" unicode="&#x1ede;" horiz-adv-x="822" 
d="M344.1 925.74l-6.67969 38.2881c19.9004 5.33008 44.7002 7.90039 56.5498 7.90039c72.4805 0 92.1504 -24.9297 92.1504 -74.5996c0 -36.0801 -14.6504 -57.8896 -49.1504 -63.9092v-39.0801h-59.9004v79.9102h18.6504c16.7002 0 26.0801 2.20996 26.0801 23.0703
c0 23.0898 -2.42969 28.7402 -25.96 29.2998c-7.84961 0 0.5 0 -51.7402 -0.879883zM754.939 705.048l48.749 10.9492c9.51953 -29.4805 13.6992 -55.6504 13.6992 -78.25c0 -48.5303 -19.2695 -80.6006 -46.3496 -93.6006c-11.29 -5.17969 -22.7705 -7.5498 -34.04 -7.5498
c-4.04004 0 -8.05957 0.30957 -12.0293 0.899414c20.2803 -46.2598 30.75 -104.59 30.75 -176.66c0 -242.91 -66.9199 -368.84 -341.27 -368.84c-272.28 0 -347.36 109.49 -347.36 371.351c0 246.51 109.24 344.08 347.36 344.08c113.83 0 202.18 -28.2803 260.34 -89.6699
c11.04 -4.05957 22.4697 -5.93945 33.1602 -5.93945c10.3301 0 19.9697 1.75977 27.8896 5.00977c14.1104 5.87012 24.5107 23.8203 24.5107 51.1406c0 10.9199 -1.66016 23.3398 -5.41016 37.0801zM414.448 90.0166c162.14 0 190.291 77.8281 190.291 270.809
c0 185.78 -72.9902 249.19 -190.29 249.19c-142.2 0 -196.391 -50.4697 -196.391 -246.68c0 -207.52 32.3701 -273.319 196.39 -273.319z" />
    <glyph glyph-name="Ohorntilde" unicode="&#x1ee0;" horiz-adv-x="822" 
d="M550.43 904.77l65.5703 -39.5693c-39.5996 -39.8301 -81.5898 -69.1602 -128.64 -69.1602c-73.9004 0 -94.1904 47.9697 -138.73 47.9697c-20.5703 0 -45.1807 -21.8203 -70.7305 -45.0107l-65.1699 45.9199c44.7305 37.2598 86.25 62.3398 136.98 62.3398
c68.9902 0 94.4102 -46.5195 134.23 -46.5195c19.3096 0 47.2197 26.2305 66.4893 44.0303zM754.92 705.04l48.749 10.9697c9.51953 -29.4805 13.6992 -55.6504 13.6992 -78.25c0 -48.5303 -19.2695 -80.6006 -46.3496 -93.6006
c-11.29 -5.17969 -22.7705 -7.5498 -34.04 -7.5498c-4.04004 0 -8.05957 0.30957 -12.0293 0.899414c20.2803 -46.2695 30.75 -104.6 30.75 -176.67c0 -242.91 -66.9199 -368.84 -341.27 -368.84c-272.28 0 -347.36 109.49 -347.36 371.351
c0 246.51 109.24 344.08 347.36 344.08c113.83 0 202.18 -28.2803 260.34 -89.6807c11.04 -4.05957 22.4697 -5.93945 33.1602 -5.93945c10.3301 0 19.9697 1.75977 27.8896 5.00977c14.1104 5.87012 24.5107 23.8203 24.5107 51.1406
c0 10.9199 -1.66016 23.3398 -5.41016 37.0801zM414.429 90.0293c162.14 0 190.291 77.8281 190.291 270.809c0 185.78 -72.9902 249.19 -190.29 249.19c-142.2 0 -196.391 -50.4697 -196.391 -246.68c0 -207.52 32.3701 -273.319 196.39 -273.319z" />
    <glyph glyph-name="Ohungarumlaut" unicode="&#x150;" horiz-adv-x="822" 
d="M156.28 795.76l146.359 135.96h135.48l-163.08 -135.96h-118.76zM358.89 795.76l146.35 135.96h135.48l-163.08 -135.96h-118.75zM414.479 707.43c217.09 0 341.27 -103.161 341.27 -346.591c0 -242.91 -66.9199 -368.84 -341.27 -368.84
c-272.28 0 -347.36 109.49 -347.36 371.351c0 246.51 109.24 344.08 347.36 344.08zM414.479 90.0283c162.14 0 190.291 77.8281 190.291 270.809c0 185.78 -72.9902 249.19 -190.29 249.19c-142.2 0 -196.391 -50.4697 -196.391 -246.68
c0 -207.52 32.3701 -273.319 196.39 -273.319z" />
    <glyph glyph-name="Omacron" unicode="&#x14c;" horiz-adv-x="822" 
d="M597.24 809.92h-370.29v69.9102h370.29v-69.9102zM414.47 707.43c217.09 0 341.27 -103.161 341.27 -346.591c0 -242.91 -66.9199 -368.84 -341.27 -368.84c-272.28 0 -347.36 109.49 -347.36 371.351c0 246.51 109.24 344.08 347.36 344.08zM414.47 90.0283
c162.14 0 190.291 77.8281 190.291 270.809c0 185.78 -72.9902 249.19 -190.29 249.19c-142.2 0 -196.391 -50.4697 -196.391 -246.68c0 -207.52 32.3701 -273.319 196.39 -273.319z" />
    <glyph glyph-name="Oslash" unicode="&#xd8;" horiz-adv-x="734" 
d="M482.59 760.08l114.971 -0.0107422l-37.4297 -90.96c97.5098 -49.6104 150.609 -148.78 150.609 -307.92c0 -242.91 -67.1797 -368.2 -341.56 -368.2c-31.04 0 -59.0498 1 -83.8701 6l-23.9199 -58h-115.54l33.0996 80.1104
c-119.41 47.5596 -157.38 156.52 -157.38 342.6c0 246.51 109.79 344.08 347.61 344.08c32.3096 0 61.6992 -3.08984 88.0488 -9.72949zM228.471 142.669l188.938 458.98c-17.0898 2.57031 -33.3398 3.99023 -48.8096 3.99023c-20.46 0 -39.5596 -2.48047 -57.4492 -8.04004
c-98.3799 -14.1797 -138.26 -75.0098 -138.26 -233.91c0 -112.57 11.0498 -183.11 55.5801 -221.021zM508.119 540.159l-183.102 -444.579c14.4199 -1.70996 28.6104 -2.58984 42.7607 -2.58984c13.8301 0 27.6201 0.839844 41.5605 2.55957
c127.15 11.5703 150.07 95.3398 150.07 265.64c0 86.1396 -18.3604 143.68 -51.29 178.97z" />
    <glyph glyph-name="Otilde" unicode="&#xd5;" horiz-adv-x="822" 
d="M550.43 904.77l65.5703 -39.5693c-39.5996 -39.8301 -81.5898 -69.1602 -128.64 -69.1602c-73.9004 0 -94.1904 47.9697 -138.73 47.9697c-20.5703 0 -45.1807 -21.8203 -70.7305 -45.0107l-65.1699 45.9199c44.7305 37.2598 86.25 62.3398 136.98 62.3398
c68.9902 0 94.4102 -46.5195 134.23 -46.5195c19.3096 0 47.2197 26.2305 66.4893 44.0303zM414.44 707.44c217.09 0 341.26 -103.161 341.26 -346.591c0 -242.91 -66.9199 -368.84 -341.26 -368.84c-272.28 0 -347.36 109.49 -347.36 371.351
c0 246.51 109.24 344.08 347.36 344.08zM414.431 90.0391c162.14 0 190.291 77.8281 190.291 270.809c0 185.78 -72.9902 249.19 -190.29 249.19c-142.2 0 -196.391 -50.4697 -196.391 -246.68c0 -207.52 32.3701 -273.319 196.39 -273.319z" />
    <glyph glyph-name="P" unicode="P" horiz-adv-x="769" 
d="M423.4 232.33l-185.11 -0.000976562v-232.33h-151.18v699.86h336.29c191.03 0 283.49 -78.8896 283.49 -224.27c0 -142.97 -87.6699 -243.26 -283.49 -243.26zM238.29 330.329h185.11c93.96 0 130.11 48.1201 130.11 145.26c0 94.7998 -31.0303 126.28 -130.11 126.28
h-185.11v-271.54z" />
    <glyph glyph-name="Q" unicode="Q" horiz-adv-x="845" 
d="M595.91 -139l-93.6787 137.999c-22.8496 -3 -48.4697 -6 -76.6201 -6c-272.28 0 -347.36 109.74 -347.36 371.601c0 246.51 109.24 344.08 347.36 344.08c217.09 0 341.27 -103.16 341.27 -346.59c0 -160.63 -24.8604 -266.97 -126.601 -322.81l85.8301 -126.28z
M229.222 364.599c0 -207.52 32.3809 -273.331 196.4 -273.331c162.14 0 190.29 77.8398 190.29 270.82c0 185.78 -73 249.19 -190.3 249.19c-142.2 0 -196.391 -50.4697 -196.391 -246.68z" />
    <glyph glyph-name="R" unicode="R" horiz-adv-x="779" 
d="M409.17 262.15l-170.881 -0.000976562v-262.02h-151.18v699.73h331.89c180.93 0 284.59 -71.46 284.59 -214.34c0 -94.8496 -38.0195 -169.71 -143.22 -201.8l185.95 -283.59h-165.55zM238.289 360.149l180.72 -0.00976562c105.51 0 131.2 38.46 131.2 125.38
c0 89.3799 -32.0195 116.35 -131.21 116.35h-180.71v-241.72z" />
    <glyph glyph-name="Racute" unicode="&#x154;" horiz-adv-x="779" 
d="M250.76 776.17l146.449 135.96h135.48l-163.08 -135.96h-118.85zM409.169 262.149l-21.6006 -0.000976562h-149.28v-262.02h-151.18v699.73h331.89c180.93 0 284.59 -71.46 284.59 -214.34c0 -94.8496 -38.0195 -169.71 -143.22 -201.8l185.95 -283.59h-165.55z
M238.288 360.148l180.72 -0.00976562c105.51 0 131.2 38.46 131.2 125.38c0 89.3799 -32.0195 116.35 -131.21 116.35h-180.71v-241.72z" />
    <glyph glyph-name="Rcaron" unicode="&#x158;" horiz-adv-x="779" 
d="M422.77 778.74h-63.54l-166.87 152.98h119.96l79.6504 -73.3203l78.7598 73.3203h120.29zM409.149 262.15l-21.6006 -0.000976562h-149.28v-262.02h-151.18v699.73h331.89c180.93 0 284.59 -71.46 284.59 -214.34c0 -94.8496 -38.0195 -169.71 -143.22 -201.8
l185.95 -283.59h-165.55zM238.269 360.149l180.72 -0.00976562c105.51 0 131.2 38.46 131.2 125.38c0 89.3799 -32.0195 116.35 -131.21 116.35h-180.71v-241.72z" />
    <glyph glyph-name="Rcommaaccent" unicode="&#x156;" horiz-adv-x="779" 
d="M409.17 262.15l-170.881 -0.000976562v-262.02h-151.18v699.73h331.89c180.93 0 284.59 -71.46 284.59 -214.34c0 -94.8496 -38.0195 -169.71 -143.22 -201.8l185.95 -283.59h-165.55zM238.289 360.149l180.72 -0.00976562c105.51 0 131.2 38.46 131.2 125.38
c0 89.3799 -32.0195 116.35 -131.21 116.35h-180.71v-241.72zM257.379 -250.011l48.8496 206h157.86l-61.9102 -206h-144.8z" />
    <glyph glyph-name="S" unicode="S" horiz-adv-x="620" 
d="M45 14.4805l19.3281 96.8379c81.1904 -10.8096 152.94 -19.3096 214.061 -19.3096c7.58984 0 15.0195 0.129883 22.2793 0.399414c80.6699 3.12988 118.57 16.2803 119.2 67.3398c0.879883 18.7305 -4.60059 40.8906 -31.7109 66.7002
c-28.6797 26.2402 -106.899 67.1006 -174.459 105.591c-97.0098 54.2803 -152.029 106.62 -152.029 201.4c0 6.33984 0.25 12.8701 0.75 19.6104c5.54004 74.8203 88.3398 155.9 280.35 155.9c95.7598 0 157.68 -5.23047 232.819 -16.7705l-20.2803 -97.0498
c-88.2402 11.3896 -128.351 14.9199 -212.53 14.9199c-96.2695 0 -128.029 -28.1104 -130.709 -57.9707c-0.25 -3.09961 -0.379883 -6.06934 -0.379883 -8.91895c0 -36.5098 21.1299 -54.7793 89.6396 -94.0693c80.2402 -45.0703 163.59 -94.7305 191.37 -113.601
c64.4004 -41.3604 77.7607 -105.761 77.7607 -151.841c0 -6.2998 -0.25 -12.2598 -0.650391 -17.7695c-9.76953 -151.12 -161.909 -167.88 -262.229 -171.88c-10.0303 -0.450195 -20.4199 -0.660156 -31.0498 -0.660156c-84.4297 0 -183.77 12.9902 -231.529 21.1406z" />
    <glyph glyph-name="Sacute" unicode="&#x15a;" horiz-adv-x="620" 
d="M210.21 776.17l146.449 135.96h135.48l-163.08 -135.96h-118.85zM44.9395 14.4795l19.3281 96.8379c81.1904 -10.8096 152.94 -19.3096 214.061 -19.3096c7.58984 0 15.0195 0.129883 22.2793 0.399414c80.6699 3.12988 118.57 16.2803 119.2 67.3398
c0.879883 18.7305 -4.60059 40.8906 -31.7109 66.7002c-28.6797 26.2402 -106.899 67.1006 -174.459 105.591c-97.0098 54.2803 -152.029 106.62 -152.029 201.4c0 6.33984 0.25 12.8701 0.75 19.6104c5.54004 74.8203 88.3398 155.9 280.35 155.9
c95.7598 0 157.68 -5.23047 232.819 -16.7705l-20.2803 -97.0498c-88.2402 11.3896 -128.351 14.9199 -212.53 14.9199c-96.2695 0 -128.029 -28.1104 -130.709 -57.9707c-0.25 -3.09961 -0.379883 -6.06934 -0.379883 -8.91895
c0 -36.5098 21.1299 -54.7793 89.6396 -94.0693c80.2402 -45.0703 163.59 -94.7305 191.37 -113.601c64.4004 -41.3604 77.7607 -105.761 77.7607 -151.841c0 -6.2998 -0.25 -12.2598 -0.650391 -17.7695c-9.76953 -151.12 -161.909 -167.88 -262.229 -171.88
c-10.0303 -0.450195 -20.4199 -0.660156 -31.0498 -0.660156c-84.4297 0 -183.77 12.9902 -231.529 21.1406z" />
    <glyph glyph-name="Scaron" unicode="&#x160;" horiz-adv-x="620" 
d="M430.18 931.72h120.28l-168.25 -152.98h-63.5303l-166.87 152.98h119.96l79.6504 -73.3203zM44.9199 14.4795l19.3281 96.8379c81.1904 -10.8096 152.94 -19.3096 214.061 -19.3096c7.58984 0 15.0195 0.129883 22.2793 0.399414
c80.6699 3.12988 118.57 16.2803 119.2 67.3398c0.879883 18.7305 -4.60059 40.8906 -31.7109 66.7002c-28.6797 26.2402 -106.899 67.1006 -174.459 105.591c-97.0098 54.2803 -152.029 106.62 -152.029 201.4c0 6.33984 0.25 12.8701 0.75 19.6104
c5.54004 74.8203 88.3398 155.9 280.35 155.9c95.7598 0 157.68 -5.23047 232.819 -16.7705l-20.2803 -97.0498c-88.2402 11.3896 -128.351 14.9199 -212.53 14.9199c-96.2695 0 -128.029 -28.1104 -130.709 -57.9707c-0.25 -3.09961 -0.379883 -6.06934 -0.379883 -8.91895
c0 -36.5098 21.1299 -54.7793 89.6396 -94.0693c80.2402 -45.0703 163.59 -94.7305 191.37 -113.601c64.4004 -41.3604 77.7607 -105.761 77.7607 -151.841c0 -6.2998 -0.25 -12.2598 -0.650391 -17.7695c-9.76953 -151.12 -161.909 -167.88 -262.229 -171.88
c-10.0303 -0.450195 -20.4199 -0.660156 -31.0498 -0.660156c-84.4297 0 -183.77 12.9902 -231.529 21.1406z" />
    <glyph glyph-name="Scedilla" unicode="&#x15e;" horiz-adv-x="620" 
d="M575.54 692.19l-20.3125 -97.0713c-88.2402 11.3896 -128.351 14.9199 -212.53 14.9199c-96.2695 0 -128.029 -28.1104 -130.709 -57.9707c-0.25 -3.09961 -0.379883 -6.06934 -0.379883 -8.91895c0 -36.5098 21.1299 -54.7793 89.6396 -94.0693
c80.2402 -45.0703 163.59 -94.7305 191.37 -113.591c64.4004 -41.3604 77.7607 -105.761 77.7607 -151.841c0 -6.2998 -0.25 -12.2598 -0.650391 -17.7695c-6.41992 -104.99 -80.8398 -144.91 -160.37 -161.16l-23.5098 -36.7197c34.5801 -7 49.2305 -28 49.2305 -64
c0 -50 -25.2598 -75 -97.7402 -75c-6.82031 0 -38.1904 0 -75.1309 8l6.66992 38c52.2402 -1 68.0605 -1 75.9102 -1c23.5303 1 25.96 7 25.96 30c0 20 -9.37988 23 -26.0801 23h-43.3896l37.9004 69c-10.8398 -1 -21.4697 -1 -31.6895 -2
c-10.0303 -0.450195 -20.4199 -0.660156 -31.0498 -0.660156c-84.4297 0 -183.77 12.9902 -231.529 21.1406l19.3701 96.8496c81.1904 -10.8096 152.94 -19.3096 214.061 -19.3096c7.58984 0 15.0195 0.129883 22.2793 0.399414
c80.6699 3.12988 118.57 16.2803 119.2 67.3398c0.879883 18.7305 -4.60059 40.8906 -31.7109 66.7002c-28.6797 26.2402 -106.899 67.1006 -174.459 105.591c-97.0098 54.2803 -152.029 106.62 -152.029 201.4c0 6.33984 0.25 12.8701 0.75 19.6104
c5.54004 74.8203 88.3398 155.9 280.35 155.9c95.7598 0 157.68 -5.23047 232.819 -16.7705z" />
    <glyph glyph-name="Scommaaccent" unicode="&#x218;" horiz-adv-x="620" 
d="M45 14.4805l19.3281 96.8379c81.1904 -10.8096 152.94 -19.3096 214.061 -19.3096c7.58984 0 15.0195 0.129883 22.2793 0.399414c80.6699 3.12988 118.57 16.2803 119.2 67.3398c0.879883 18.7305 -4.60059 40.8906 -31.7109 66.7002
c-28.6797 26.2402 -106.899 67.1006 -174.459 105.591c-97.0098 54.2803 -152.029 106.62 -152.029 201.4c0 6.33984 0.25 12.8701 0.75 19.6104c5.54004 74.8203 88.3398 155.9 280.35 155.9c95.7598 0 157.68 -5.23047 232.819 -16.7705l-20.2803 -97.0498
c-88.2402 11.3896 -128.351 14.9199 -212.53 14.9199c-96.2695 0 -128.029 -28.1104 -130.709 -57.9707c-0.25 -3.09961 -0.379883 -6.06934 -0.379883 -8.91895c0 -36.5098 21.1299 -54.7793 89.6396 -94.0693c80.2402 -45.0703 163.59 -94.7305 191.37 -113.601
c64.4004 -41.3604 77.7607 -105.761 77.7607 -151.841c0 -6.2998 -0.25 -12.2598 -0.650391 -17.7695c-9.76953 -151.12 -161.909 -167.88 -262.229 -171.88c-10.0303 -0.450195 -20.4199 -0.660156 -31.0498 -0.660156c-84.4297 0 -183.77 12.9902 -231.529 21.1406z
M182.898 -250.012l49.8799 206h157.86l-62.9404 -206h-144.8z" />
    <glyph glyph-name="T" unicode="T" horiz-adv-x="680" 
d="M9.41992 601.86l-0.000976562 98h661.58v-98h-254.1v-601.86h-151.18v601.86h-256.3z" />
    <glyph glyph-name="Tbar" unicode="&#x166;" horiz-adv-x="680" 
d="M671 601.86h-254.101v-220.72h109.42v-69.9102h-109.42v-311.23h-151.18v311.23h-109.69v69.9102h109.69v220.72h-256.3v98h661.58v-98z" />
    <glyph glyph-name="Tcaron" unicode="&#x164;" horiz-adv-x="680" 
d="M373.04 778.74h-63.54l-166.87 152.98h119.96l79.6504 -73.3203l78.7598 73.3203h120.29zM9.40039 601.86l-0.000976562 98h661.58v-98h-254.1v-601.86h-151.18v601.86h-256.3z" />
    <glyph glyph-name="Tcedilla" unicode="&#x162;" horiz-adv-x="680" 
d="M9.41992 699.86h661.579v-98h-254.1v-601.86h-87.0498l-19.1904 -31c34.5801 -6 49.2305 -28 49.2305 -64c0 -50 -25.2598 -75 -97.7402 -75c-6.82031 0 -38.1904 1 -75.1201 8l6.66992 38c52.2402 -1 68.0605 -1 75.9102 -1c23.5303 1 25.96 7 25.96 30
c0 21 -9.37988 23 -26.0801 23h-43.3896l39.6201 72v601.86h-256.3v98z" />
    <glyph glyph-name="uni021A" unicode="&#x21a;" horiz-adv-x="680" 
d="M9.41992 601.86l-0.000976562 98h661.58v-98h-254.1v-601.86h-151.18v601.86h-256.3zM207.709 -250l49.8799 206h157.86l-62.9404 -206h-144.8z" />
    <glyph glyph-name="Thorn" unicode="&#xde;" horiz-adv-x="691" 
d="M388.35 124.38l-185.11 0.00976562v-124.38h-151.18v700h151.18v-112.46h185.11c194.25 0 283.49 -77.6602 283.49 -221.96c0 -142.5 -84.4502 -241.21 -283.49 -241.21zM203.239 212.54l185.11 0.000976562c92.7598 0 130.109 49.7998 130.109 153.06
c0 101.41 -32.0098 133.8 -130.109 133.8h-185.11v-286.86z" />
    <glyph glyph-name="U" unicode="U" horiz-adv-x="783" 
d="M238.29 700.09l0.0205078 -489.649c0 -94.2598 47.3096 -120.859 153.21 -120.859c116.31 0 164.199 26.0596 164.199 120.859v489.65h151.18v-489.65c0 -155.16 -127.35 -218.44 -315.39 -218.44c-176.77 0 -304.399 62.1797 -304.399 218.439v489.65h151.18z" />
    <glyph glyph-name="Uacute" unicode="&#xda;" horiz-adv-x="783" 
d="M257.81 776.17l146.449 135.96h135.48l-163.08 -135.96h-118.85zM238.278 700.09l0.0205078 -489.649c0 -94.2598 47.3096 -120.859 153.21 -120.859c116.31 0 164.199 26.0596 164.199 120.859v489.65h151.18v-489.65c0 -155.16 -127.35 -218.44 -315.39 -218.44
c-176.77 0 -304.399 62.1797 -304.399 218.439v489.65h151.18z" />
    <glyph glyph-name="Ucaron" unicode="&#x1d3;" horiz-adv-x="783" 
d="M429.83 778.74h-63.5303l-166.87 152.98h119.96l79.6504 -73.3203l78.7598 73.3203h120.29zM238.29 700.09l0.0205078 -489.649c0 -94.2598 47.3096 -120.859 153.21 -120.859c116.31 0 164.199 26.0596 164.199 120.859v489.65h151.18v-489.65
c0 -155.16 -127.35 -218.44 -315.39 -218.44c-176.77 0 -304.399 62.1797 -304.399 218.439v489.65h151.18z" />
    <glyph glyph-name="Ucircumflex" unicode="&#xdb;" horiz-adv-x="783" 
d="M199.13 778.16l166.87 152.98h63.5303l168.26 -152.98h-120.29l-78.7598 73.3203l-79.6504 -73.3203h-119.96zM238.28 700.091l0.0205078 -489.649c0 -94.2598 47.3096 -120.859 153.21 -120.859c116.31 0 164.199 26.0596 164.199 120.859v489.65h151.18v-489.65
c0 -155.16 -127.35 -218.44 -315.39 -218.44c-176.77 0 -304.399 62.1797 -304.399 218.439v489.65h151.18z" />
    <glyph glyph-name="Udieresis" unicode="&#xdc;" horiz-adv-x="783" 
d="M254.63 790.35v90.79h101.91v-90.79h-101.91zM437.46 790.35v90.79h101.91v-90.79h-101.91zM238.29 700.09l0.0205078 -489.649c0 -94.2598 47.3096 -120.859 153.21 -120.859c116.31 0 164.199 26.0596 164.199 120.859v489.65h151.18v-489.65
c0 -155.16 -127.35 -218.44 -315.39 -218.44c-176.77 0 -304.399 62.1797 -304.399 218.439v489.65h151.18z" />
    <glyph glyph-name="Udieresisacute" unicode="&#x1d7;" horiz-adv-x="783" 
d="M404.26 996.16h135.479l-163.08 -135.96h-118.85zM254.619 828.101h101.91v-90.79h-101.91v90.79zM437.439 828.101h101.91v-90.79h-101.91v90.79zM555.689 700.091l151.2 0.000976562v-489.65c0 -155.16 -127.35 -218.44 -315.39 -218.44
c-176.77 0 -304.399 62.1797 -304.399 218.439v489.65h151.18v-489.65c0 -94.2598 47.3096 -120.859 153.21 -120.859c116.31 0 164.199 26.0596 164.199 120.859v489.65z" />
    <glyph glyph-name="Udieresiscaron" unicode="&#x1d9;" horiz-adv-x="783" 
d="M477.79 1003.22h120.29l-168.26 -152.97h-63.5303l-166.87 152.97h119.96l79.6504 -73.3203zM254.62 825.88h101.91v-90.79h-101.91v90.79zM437.44 825.88h101.91v-90.79h-101.91v90.79zM555.69 700.09l151.2 0.000976562v-489.65
c0 -155.16 -127.35 -218.44 -315.39 -218.44c-176.77 0 -304.399 62.1797 -304.399 218.439v489.65h151.18v-489.65c0 -94.2598 47.3096 -120.859 153.21 -120.859c116.31 0 164.199 26.0596 164.199 120.859v489.65z" />
    <glyph glyph-name="Udieresisgrave" unicode="&#x1db;" horiz-adv-x="783" 
d="M269.06 995.05h135.479l146.36 -135.96h-118.76zM254.619 826.77h101.91v-90.79h-101.91v90.79zM437.439 826.77h101.91v-90.79h-101.91v90.79zM555.689 700.1l151.2 0.000976562v-489.65c0 -155.16 -127.35 -218.44 -315.39 -218.44
c-176.77 0 -304.399 62.1797 -304.399 218.439v489.65h151.18v-489.65c0 -94.2598 47.3096 -120.859 153.21 -120.859c116.31 0 164.199 26.0596 164.199 120.859v489.65z" />
    <glyph glyph-name="Udieresismacron" unicode="&#x1d5;" horiz-adv-x="783" 
d="M211.85 947.95h370.29v-69.9102h-370.29v69.9102zM254.63 827.65h101.91v-90.79h-101.91v90.79zM437.45 827.65h101.91v-90.79h-101.91v90.79zM555.7 700.091l151.2 0.000976562v-489.65c0 -155.16 -127.35 -218.44 -315.39 -218.44
c-176.77 0 -304.399 62.1797 -304.399 218.439v489.65h151.18v-489.65c0 -94.2598 47.3096 -120.859 153.21 -120.859c116.31 0 164.199 26.0596 164.199 120.859v489.65z" />
    <glyph glyph-name="Udotbelow" unicode="&#x1ee4;" horiz-adv-x="783" 
d="M238.29 700.09l0.0205078 -489.649c0 -94.2598 47.3096 -120.859 153.21 -120.859c116.31 0 164.199 26.0596 164.199 120.859v489.65h151.18v-489.65c0 -155.16 -127.35 -218.44 -315.39 -218.44c-176.77 0 -304.399 62.1797 -304.399 218.439v489.65h151.18z
M341.65 -72h101.91v-90h-101.91v90z" />
    <glyph glyph-name="Ugrave" unicode="&#xd9;" horiz-adv-x="783" 
d="M269.06 931.72h135.479l146.36 -135.96h-118.76zM238.289 700.09l0.0205078 -489.649c0 -94.2598 47.3096 -120.859 153.21 -120.859c116.31 0 164.199 26.0596 164.199 120.859v489.65h151.18v-489.65c0 -155.16 -127.35 -218.44 -315.39 -218.44
c-176.77 0 -304.399 62.1797 -304.399 218.439v489.65h151.18z" />
    <glyph glyph-name="Uhookabove" unicode="&#x1ee6;" horiz-adv-x="783" 
d="M337.33 925.74l-6.68945 38.2881c19.9004 5.33008 44.7002 7.90039 56.5498 7.90039c72.4805 0 92.1602 -24.9297 92.1602 -74.5996c0 -36.0801 -14.6504 -57.8896 -49.1504 -63.9092v-39.0801h-59.9004v79.9102h18.6504c16.7002 0 26.0801 2.20996 26.0801 23.0703
c0 23.0898 -2.42969 28.7402 -25.96 29.2998c-7.84961 0 0.5 0 -51.7402 -0.879883zM238.271 700.108l0.0205078 -489.649c0 -94.2598 47.3096 -120.859 153.21 -120.859c116.31 0 164.199 26.0596 164.199 120.859v489.65h151.18v-489.65
c0 -155.16 -127.35 -218.44 -315.39 -218.44c-176.77 0 -304.399 62.1797 -304.399 218.439v489.65h151.18z" />
    <glyph glyph-name="Uhorn" unicode="&#x1af;" horiz-adv-x="829" 
d="M762.26 735l48.7812 10.9707c9.51953 -29.4805 13.6992 -55.6504 13.6992 -78.25c0 -48.5303 -19.2695 -80.6006 -46.3496 -93.6006c-10.2402 -4.86035 -20.5605 -7.08008 -30.6709 -7.08008c-14.3096 0 -28.1895 4.4502 -40.8193 12.1406v-368.75
c0 -155.16 -127.35 -218.44 -315.39 -218.44c-176.77 0 -304.399 62.1797 -304.399 218.439v489.65h151.18v-489.65c0 -94.2598 47.3096 -120.859 153.21 -120.859c116.31 0 164.199 26.0596 164.199 120.859v489.65h151.18v-55.2695
c5.17969 -1.28027 10.3301 -1.89062 15.3398 -1.89062c7.41016 0 14.5098 1.34961 20.9395 3.85938c14.1104 5.87012 24.5107 23.8203 24.5107 51.1406c0 10.9199 -1.66016 23.3398 -5.41016 37.0801z" />
    <glyph glyph-name="Uhornacute" unicode="&#x1ee8;" horiz-adv-x="829" 
d="M257.81 776.17l146.449 135.96h135.48l-163.08 -135.96h-118.85zM762.249 735l48.7812 10.9707c9.51953 -29.4805 13.6992 -55.6504 13.6992 -78.25c0 -48.5303 -19.2695 -80.6006 -46.3496 -93.6006c-10.2402 -4.86035 -20.5605 -7.08008 -30.6709 -7.08008
c-14.3096 0 -28.1895 4.4502 -40.8193 12.1406v-368.75c0 -155.16 -127.35 -218.44 -315.39 -218.44c-176.77 0 -304.399 62.1797 -304.399 218.439v489.65h151.18v-489.65c0 -94.2598 47.3096 -120.859 153.21 -120.859c116.31 0 164.199 26.0596 164.199 120.859v489.65
h151.18v-55.2695c5.17969 -1.28027 10.3301 -1.89062 15.3398 -1.89062c7.41016 0 14.5098 1.34961 20.9395 3.85938c14.1104 5.87012 24.5107 23.8203 24.5107 51.1406c0 10.9199 -1.66016 23.3398 -5.41016 37.0801z" />
    <glyph glyph-name="Uhorndotbelow" unicode="&#x1ef0;" horiz-adv-x="829" 
d="M762.26 735l48.7812 10.9707c9.51953 -29.4805 13.6992 -55.6504 13.6992 -78.25c0 -48.5303 -19.2695 -80.6006 -46.3496 -93.6006c-10.2402 -4.86035 -20.5605 -7.08008 -30.6709 -7.08008c-14.3096 0 -28.1895 4.4502 -40.8193 12.1406v-368.75
c0 -155.16 -127.35 -218.44 -315.39 -218.44c-176.77 0 -304.399 62.1797 -304.399 218.439v489.65h151.18v-489.65c0 -94.2598 47.3096 -120.859 153.21 -120.859c116.31 0 164.199 26.0596 164.199 120.859v489.65h151.18v-55.2695
c5.17969 -1.28027 10.3301 -1.89062 15.3398 -1.89062c7.41016 0 14.5098 1.34961 20.9395 3.85938c14.1104 5.87012 24.5107 23.8203 24.5107 51.1406c0 10.9199 -1.66016 23.3398 -5.41016 37.0801zM341.661 -71.999h101.91v-90h-101.91v90z" />
    <glyph glyph-name="Uhorngrave" unicode="&#x1eea;" horiz-adv-x="829" 
d="M269.06 931.72h135.479l146.36 -135.96h-118.76zM762.259 735l48.7812 10.9707c9.51953 -29.4805 13.6992 -55.6504 13.6992 -78.25c0 -48.5303 -19.2695 -80.6006 -46.3496 -93.6006c-10.2402 -4.86035 -20.5605 -7.08008 -30.6709 -7.08008
c-14.3096 0 -28.1895 4.4502 -40.8193 12.1406v-368.75c0 -155.16 -127.35 -218.44 -315.39 -218.44c-176.77 0 -304.399 62.1797 -304.399 218.439v489.65h151.18v-489.65c0 -94.2598 47.3096 -120.859 153.21 -120.859c116.31 0 164.199 26.0596 164.199 120.859v489.65
h151.18v-55.2695c5.17969 -1.28027 10.3301 -1.89062 15.3398 -1.89062c7.41016 0 14.5098 1.34961 20.9395 3.85938c14.1104 5.87012 24.5107 23.8203 24.5107 51.1406c0 10.9199 -1.66016 23.3398 -5.41016 37.0801z" />
    <glyph glyph-name="Uhornhookabove" unicode="&#x1eec;" horiz-adv-x="783" 
d="M337.33 925.74l-6.68945 38.2783c19.9004 5.33008 44.7002 7.90039 56.5498 7.90039c72.4805 0 92.1602 -24.9297 92.1602 -74.5996c0 -36.0801 -14.6504 -57.8896 -49.1504 -63.9092v-39.0801h-59.9004v79.9102h18.6504c16.7002 0 26.0801 2.20996 26.0801 23.0801
c0 23.0898 -2.42969 28.7402 -25.96 29.2998c-7.84961 0 0.5 0 -51.7402 -0.879883zM762.24 735.009l48.7812 10.9707c9.51953 -29.4805 13.6992 -55.6504 13.6992 -78.25c0 -48.5303 -19.2695 -80.6006 -46.3496 -93.6006
c-10.2402 -4.86035 -20.5605 -7.08008 -30.6709 -7.08008c-14.3096 0 -28.1895 4.4502 -40.8193 12.1406v-368.75c0 -155.16 -127.35 -218.44 -315.39 -218.44c-176.77 0 -304.399 62.1797 -304.399 218.439v489.65h151.18v-489.65
c0 -94.2598 47.3096 -120.859 153.21 -120.859c116.31 0 164.199 26.0596 164.199 120.859v489.65h151.18v-55.2695c5.17969 -1.28027 10.3301 -1.89062 15.3398 -1.89062c7.41016 0 14.5098 1.34961 20.9395 3.85938c14.1104 5.87012 24.5107 23.8203 24.5107 51.1406
c0 10.9199 -1.66016 23.3398 -5.41016 37.0801z" />
    <glyph glyph-name="Uhorntilde" unicode="&#x1eee;" horiz-adv-x="783" 
d="M535.34 904.77l65.5703 -39.5693c-39.5996 -39.8301 -81.5898 -69.1602 -128.64 -69.1602c-73.9004 0 -94.1904 47.9697 -138.73 47.9697c-20.5703 0 -45.1807 -21.8203 -70.7305 -45.0107l-65.1699 45.9199c44.7305 37.2598 86.25 62.3398 136.98 62.3398
c68.9902 0 94.4102 -46.5195 134.23 -46.5195c19.3096 0 47.2197 26.2305 66.4893 44.0303zM762.24 735.01l48.7812 10.9707c9.51953 -29.4805 13.6992 -55.6504 13.6992 -78.25c0 -48.5303 -19.2695 -80.6006 -46.3496 -93.6006
c-10.2402 -4.86035 -20.5605 -7.08008 -30.6709 -7.08008c-14.3096 0 -28.1895 4.4502 -40.8193 12.1406v-368.75c0 -155.16 -127.35 -218.44 -315.39 -218.44c-176.77 0 -304.399 62.1797 -304.399 218.439v489.65h151.18v-489.65
c0 -94.2598 47.3096 -120.859 153.21 -120.859c116.31 0 164.199 26.0596 164.199 120.859v489.65h151.18v-55.2695c5.17969 -1.28027 10.3301 -1.89062 15.3398 -1.89062c7.41016 0 14.5098 1.34961 20.9395 3.85938c14.1104 5.87012 24.5107 23.8203 24.5107 51.1406
c0 10.9199 -1.66016 23.3398 -5.41016 37.0801z" />
    <glyph glyph-name="Uhungarumlaut" unicode="&#x170;" horiz-adv-x="783" 
d="M141.18 795.76l146.359 135.96h135.48l-163.08 -135.96h-118.76zM343.789 795.76l146.35 135.96h135.48l-163.08 -135.96h-118.75zM238.299 700.09l0.0205078 -489.649c0 -94.2598 47.3096 -120.859 153.21 -120.859c116.31 0 164.199 26.0596 164.199 120.859v489.65
h151.18v-489.65c0 -155.16 -127.35 -218.44 -315.39 -218.44c-176.77 0 -304.399 62.1797 -304.399 218.439v489.65h151.18z" />
    <glyph glyph-name="Umacron" unicode="&#x16a;" horiz-adv-x="783" 
d="M582.14 809.92h-370.29v69.9102h370.29v-69.9102zM238.29 700.09l0.0205078 -489.649c0 -94.2598 47.3096 -120.859 153.21 -120.859c116.31 0 164.199 26.0596 164.199 120.859v489.65h151.18v-489.65c0 -155.16 -127.35 -218.44 -315.39 -218.44
c-176.77 0 -304.399 62.1797 -304.399 218.439v489.65h151.18z" />
    <glyph glyph-name="Uogonek" unicode="&#x172;" horiz-adv-x="783" 
d="M555.7 700.09l151.201 0.0117188v-489.65c0 -148.57 -116.24 -213.44 -291.28 -218.44c-19.5801 -16.9404 -29.7197 -39.8506 -29.7197 -60.3311c0 -7.33008 1.2998 -14.3496 3.92969 -20.6699c5.84961 -14.2402 23.6895 -24.4199 50.8398 -24.4199
c10.9902 0 23.5098 1.66992 37.3799 5.41992l10.9697 -49c-29.4297 -9.51953 -55.5596 -13.6992 -78.1299 -13.6992c-48.5898 0 -80.7002 19.3896 -93.71 46.6992c-5.21973 11.1602 -7.62012 22.5303 -7.62012 33.71c0 31.8896 19.4805 62.29 48.4609 82.2803
c-159.55 8 -270.91 72.0195 -270.91 218.439v489.65h151.18v-489.65c0 -94.2598 47.3096 -120.859 153.21 -120.859c116.31 0 164.199 26.0596 164.199 120.859v489.65z" />
    <glyph glyph-name="Uring" unicode="&#x16e;" horiz-adv-x="783" 
d="M397 932.85c75.7695 0 133.23 -46.2812 133.23 -101.371c0 -56.0996 -57.7002 -101.369 -133.23 -101.369c-76.8496 0 -133.229 45.3896 -133.229 101.37c0 54.9697 56.1299 101.37 133.229 101.37zM397.581 876.269c-28.8301 0 -44.8408 -15.1807 -44.8408 -45.3203
c0 -30.3701 15.6904 -45.2402 44.8408 -45.2402c29.3203 0 45.5801 15.3203 45.5801 45.25c0 29.7002 -16.5801 45.3105 -45.5801 45.3105zM555.72 700.078l151.2 0.000976562v-489.65c0 -155.16 -127.35 -218.44 -315.39 -218.44
c-176.77 0 -304.399 62.1797 -304.399 218.439v489.65h151.18v-489.65c0 -94.2598 47.3096 -120.859 153.21 -120.859c116.31 0 164.199 26.0596 164.199 120.859v489.65z" />
    <glyph glyph-name="Utilde" unicode="&#x168;" horiz-adv-x="783" 
d="M535.34 904.77l65.5703 -39.5693c-39.5996 -39.8301 -81.5898 -69.1602 -128.64 -69.1602c-73.9004 0 -94.1904 47.9697 -138.73 47.9697c-20.5703 0 -45.1807 -21.8203 -70.7305 -45.0107l-65.1699 45.9199c44.7305 37.2598 86.25 62.3398 136.98 62.3398
c68.9902 0 94.4102 -46.5195 134.23 -46.5195c19.3096 0 47.2197 26.2305 66.4893 44.0303zM238.271 700.101l0.0205078 -489.649c0 -94.2598 47.3096 -120.859 153.21 -120.859c116.31 0 164.199 26.0596 164.199 120.859v489.65h151.18v-489.65
c0 -155.16 -127.35 -218.44 -315.39 -218.44c-176.77 0 -304.399 62.1797 -304.399 218.439v489.65h151.18z" />
    <glyph glyph-name="V" unicode="V" horiz-adv-x="717" 
d="M554.93 699.87h153.571l-238.2 -699.73h-216.53l-244.34 699.73h153.67l198.02 -583.54z" />
    <glyph glyph-name="W" unicode="W" horiz-adv-x="1010" 
d="M849.84 699.87h151.47l-176.81 -699.73h-199l-119.03 430.25l-115.09 -430.25h-199.01l-182.95 699.73h151.54l132.43 -530.84l143.95 521.8h136.14l147.7 -521.8z" />
    <glyph glyph-name="Wacute" unicode="&#x1e82;" horiz-adv-x="1010" 
d="M366.07 776.17l146.449 135.96h135.48l-163.08 -135.96h-118.85zM849.829 699.87h151.47l-176.81 -699.73h-199l-119.03 430.25l-115.09 -430.25h-199.01l-182.95 699.73h151.54l132.43 -530.84l143.95 521.8h136.14l147.7 -521.8z" />
    <glyph glyph-name="Wcircumflex" unicode="&#x174;" horiz-adv-x="1010" 
d="M307.39 778.16l166.88 152.98h63.5303l168.25 -152.98h-120.29l-78.7598 73.3203l-79.6504 -73.3203h-119.96zM849.84 699.871h151.47l-176.81 -699.73h-199l-119.03 430.25l-115.09 -430.25h-199.01l-182.95 699.73h151.54l132.43 -530.84l143.95 521.8h136.14
l147.7 -521.8z" />
    <glyph glyph-name="Wdieresis" unicode="&#x1e84;" horiz-adv-x="1010" 
d="M362.89 790.35v90.79h101.91v-90.79h-101.91zM545.72 790.35v90.79h101.91v-90.79h-101.91zM849.84 699.859h151.47l-176.81 -699.73h-199l-119.03 430.25l-115.09 -430.25h-199.01l-182.95 699.73h151.54l132.43 -530.84l143.95 521.8h136.14l147.7 -521.8z" />
    <glyph glyph-name="Wgrave" unicode="&#x1e80;" horiz-adv-x="1010" 
d="M377.32 931.72h135.489l146.36 -135.96h-118.77zM849.84 699.87h151.47l-176.81 -699.73h-199l-119.03 430.25l-115.09 -430.25h-199.01l-182.95 699.73h151.54l132.43 -530.84l143.95 521.8h136.14l147.7 -521.8z" />
    <glyph glyph-name="X" unicode="X" horiz-adv-x="752" 
d="M181.98 699.87l194.899 -262.57l193.96 262.57h171.4l-273.46 -352.45l274.16 -347.28h-171.98l-193.22 259.68l-196.03 -259.68h-172.3l277.85 347.28l-277.14 352.45h171.86z" />
    <glyph glyph-name="Y" unicode="Y" horiz-adv-x="730" 
d="M442.05 299.11v-298.98h-151.18v298.92l-281.44 400.82h166.85l189.81 -277.37l187.03 277.37h167.86z" />
    <glyph glyph-name="Yacute" unicode="&#xdd;" horiz-adv-x="730" 
d="M226.17 776.17l146.449 135.96h135.48l-163.08 -135.96h-118.85zM442.039 299.11v-298.98h-151.18v298.92l-281.44 400.82h166.85l189.81 -277.37l187.03 277.37h167.86z" />
    <glyph glyph-name="Ycircumflex" unicode="&#x176;" horiz-adv-x="730" 
d="M167.49 778.16l166.87 152.98h63.5303l168.26 -152.98h-120.29l-78.7598 73.3203l-79.6504 -73.3203h-119.96zM442.04 299.101v-298.98h-151.18v298.92l-281.44 400.82h166.85l189.81 -277.37l187.03 277.37h167.86z" />
    <glyph glyph-name="Ydieresis" unicode="&#x178;" horiz-adv-x="730" 
d="M222.98 790.35v90.79h101.91v-90.79h-101.91zM405.811 790.35v90.79h101.91v-90.79h-101.91zM442.041 299.1v-298.98h-151.18v298.92l-281.44 400.82h166.85l189.81 -277.37l187.03 277.37h167.86z" />
    <glyph glyph-name="Ydotbelow" unicode="&#x1ef4;" horiz-adv-x="730" 
d="M442.05 299.11v-298.98h-151.18v298.92l-281.44 400.82h166.85l189.81 -277.37l187.03 277.37h167.86zM315.5 -72h101.91v-90h-101.91v90z" />
    <glyph glyph-name="Ygrave" unicode="&#x1ef2;" horiz-adv-x="730" 
d="M237.42 931.72h135.489l146.36 -135.96h-118.77zM442.06 299.1v-298.98h-151.18v298.92l-281.44 400.82h166.85l189.81 -277.37l187.03 277.37h167.86z" />
    <glyph glyph-name="Yhookabove" unicode="&#x1ef6;" horiz-adv-x="730" 
d="M298.29 925.74l-6.68945 38.2881c19.9004 5.33008 44.7002 7.90039 56.5498 7.90039c72.4805 0 92.1602 -24.9297 92.1602 -74.5996c0 -36.0801 -14.6504 -57.8896 -49.1504 -63.9092v-39.0801h-59.9004v79.9102h18.6504c16.7002 0 26.0801 2.20996 26.0801 23.0703
c0 23.0898 -2.42969 28.7402 -25.96 29.2998c-7.84961 0 0.5 0 -51.7402 -0.879883zM442.021 299.118v-298.98h-151.18v298.92l-281.44 400.82h166.85l189.81 -277.37l187.03 277.37h167.86z" />
    <glyph glyph-name="Ytilde" unicode="&#x1ef8;" horiz-adv-x="730" 
d="M503.69 904.77l65.5801 -39.5693c-39.5996 -39.8301 -81.5898 -69.1602 -128.64 -69.1602c-73.9004 0 -94.2002 47.9697 -138.74 47.9697c-20.5703 0 -45.1807 -21.8203 -70.7305 -45.0107l-65.1699 45.9199c44.7305 37.2598 86.25 62.3398 136.98 62.3398
c68.9902 0 94.4102 -46.5195 134.23 -46.5195c19.3096 0 47.2197 26.2305 66.4893 44.0303zM442.03 299.12v-298.98h-151.18v298.92l-281.44 400.82h166.85l189.81 -277.37l187.03 277.37h167.86z" />
    <glyph glyph-name="Z" unicode="Z" horiz-adv-x="696" 
d="M45 699.82l606.58 -0.0107422v-82.9297l-417.71 -519.71h417.71v-97.1797h-606.58v83.0303l417.64 518.8h-417.64v98z" />
    <glyph glyph-name="Zacute" unicode="&#x179;" horiz-adv-x="696" 
d="M209.05 776.17l146.449 135.96h135.48l-163.08 -135.96h-118.85zM44.9395 699.82l606.58 -0.0107422v-82.9297l-417.71 -519.71h417.71v-97.1797h-606.58v83.0303l417.64 518.8h-417.64v98z" />
    <glyph glyph-name="Zcaron" unicode="&#x17d;" horiz-adv-x="696" 
d="M381.06 778.74h-63.5303l-166.87 152.98h119.96l79.6504 -73.3203l78.7598 73.3203h120.29zM44.9297 699.82l606.58 -0.0107422v-82.9297l-417.71 -519.71h417.71v-97.1797h-606.58v83.0303l417.64 518.8h-417.64v98z" />
    <glyph glyph-name="Zdotaccent" unicode="&#x17b;" horiz-adv-x="696" 
d="M297.27 790.35v90.79h101.91v-90.79h-101.91zM44.9297 699.819l606.58 -0.0107422v-82.9297l-417.71 -519.71h417.71v-97.1797h-606.58v83.0303l417.64 518.8h-417.64v98z" />
    <glyph glyph-name="a" unicode="a" horiz-adv-x="556" 
d="M87.6797 407.83l-15.7197 85.0078c102.58 10.7402 160.14 16.5605 223.58 16.5605c146.19 0 216.61 -65.8301 216.61 -167.37v-303.1c-47.4502 -14.8096 -149.53 -48.9199 -281.561 -48.9199c-118.83 0 -195.1 60.6504 -195.1 159.04
c0 85.04 60.25 145.12 202.12 156.521l124.18 11.0303v30.9102c0 51.8604 -19.0703 75.54 -66.2803 75.54c-50.4102 0 -103.09 -4.83008 -207.83 -15.2197zM361.81 92.168l0.0107422 139.051l-109.42 -9.08008c-51.3203 -4.54004 -65.0107 -23.8701 -65.0107 -73.0898
c0 -36.8496 16.46 -71.29 48.1504 -73.8701c45.7197 0 92.4297 9.26953 126.27 16.9893z" />
    <glyph glyph-name="aacute" unicode="&#xe1;" horiz-adv-x="545" 
d="M284.76 713.8h135.479l-163.08 -135.96h-118.85zM84.3193 407.819l-15.7207 85.0078c102.58 10.7402 160.14 16.5605 223.58 16.5605c146.19 0 216.61 -65.8301 216.61 -167.37v-303.1c-47.4502 -14.8096 -149.53 -48.9199 -281.561 -48.9199
c-118.83 0 -195.1 60.6504 -195.1 159.04c0 85.04 60.25 145.12 202.12 156.521l124.19 11.0303v30.9102c0 51.8604 -19.0703 75.54 -66.29 75.54c-50.4102 0 -103.09 -4.83008 -207.83 -15.2197zM358.448 92.1572l0.000976562 139.051l-109.42 -9.08008
c-51.3203 -4.54004 -65.0107 -23.8701 -65.0107 -73.0898c0 -36.8496 16.46 -71.29 48.1602 -73.8701c45.7197 0 92.4297 9.26953 126.27 16.9893z" />
    <glyph glyph-name="abreve" unicode="&#x103;" horiz-adv-x="556" 
d="M332.63 713.17l76.791 0.0107422c0 -60.4004 -42.4805 -124.551 -129.141 -124.551c-88.1904 0 -129.2 64.3799 -129.2 124.54h77.8896c1.86035 -43.6299 27.3008 -55.0801 52.3906 -55.0801c23.7803 0 49.5498 11.4502 51.2695 55.0801zM87.6709 407.831
l-15.7197 85.0078c102.58 10.7402 160.14 16.5605 223.58 16.5605c146.19 0 216.61 -65.8301 216.61 -167.37v-303.1c-47.4502 -14.8096 -149.53 -48.9199 -281.561 -48.9199c-118.83 0 -195.1 60.6504 -195.1 159.04c0 85.04 60.25 145.12 202.12 156.521l124.18 11.0303
v30.9102c0 51.8604 -19.0703 75.54 -66.2803 75.54c-50.4102 0 -103.09 -4.83008 -207.83 -15.2197zM361.801 92.1689l0.0107422 139.051l-109.42 -9.08008c-51.3203 -4.54004 -65.0107 -23.8701 -65.0107 -73.0898c0 -36.8496 16.46 -71.29 48.1504 -73.8701
c45.7197 0 92.4297 9.26953 126.27 16.9893z" />
    <glyph glyph-name="abreveacute" unicode="&#x1eaf;" horiz-adv-x="556" 
d="M141.1 734.65l146.449 135.96h135.48l-163.08 -135.96h-118.85zM332.629 713.17l76.791 0.0107422c0 -60.4004 -42.4805 -124.551 -129.141 -124.551c-88.1904 0 -129.2 64.3799 -129.2 124.54h77.8896c1.86035 -43.6299 27.3008 -55.0801 52.3906 -55.0801
c23.7803 0 49.5498 11.4502 51.2695 55.0801zM87.6699 407.831l-15.7197 85.0078c102.58 10.7402 160.14 16.5605 223.58 16.5605c146.19 0 216.61 -65.8301 216.61 -167.37v-303.1c-47.4502 -14.8096 -149.53 -48.9199 -281.561 -48.9199
c-118.83 0 -195.1 60.6504 -195.1 159.04c0 85.04 60.25 145.12 202.12 156.521l124.18 11.0303v30.9102c0 51.8604 -19.0703 75.54 -66.2803 75.54c-50.4102 0 -103.09 -4.83008 -207.83 -15.2197zM361.8 92.1689l0.000976562 139.051l-109.42 -9.08008
c-51.3203 -4.54004 -65.0107 -23.8701 -65.0107 -73.0898c0 -36.8496 16.46 -71.29 48.1602 -73.8701c45.7197 0 92.4297 9.26953 126.27 16.9893z" />
    <glyph glyph-name="abrevedotbelow" unicode="&#x1eb7;" horiz-adv-x="556" 
d="M332.63 713.17l76.791 0.0107422c0 -60.4004 -42.4805 -124.551 -129.141 -124.551c-88.1904 0 -129.2 64.3799 -129.2 124.54h77.8896c1.86035 -43.6299 27.3008 -55.0801 52.3906 -55.0801c23.7803 0 49.5498 11.4502 51.2695 55.0801zM87.6709 407.831
l-15.7197 85.0078c102.58 10.7402 160.14 16.5605 223.58 16.5605c146.19 0 216.61 -65.8301 216.61 -167.37v-303.1c-47.4502 -14.8096 -149.53 -48.9199 -281.561 -48.9199c-118.83 0 -195.1 60.6504 -195.1 159.04c0 85.04 60.25 145.12 202.12 156.521l124.18 11.0303
v30.9102c0 51.8604 -19.0703 75.54 -66.2803 75.54c-50.4102 0 -103.09 -4.83008 -207.83 -15.2197zM361.801 92.1689l0.000976562 139.051l-109.42 -9.08008c-51.3203 -4.54004 -65.0107 -23.8701 -65.0107 -73.0898c0 -36.8496 16.46 -71.29 48.1602 -73.8701
c45.7197 0 92.4297 9.26953 126.27 16.9893zM237.602 -71.9902h101.91v-90h-101.91v90z" />
    <glyph glyph-name="abrevegrave" unicode="&#x1eb1;" horiz-adv-x="556" 
d="M152.35 872.93h135.479l146.36 -135.96h-118.76zM332.629 713.18l76.791 0.0107422c0 -60.4004 -42.4805 -124.551 -129.141 -124.551c-88.1904 0 -129.2 64.3799 -129.2 124.54h77.8896c1.86035 -43.6299 27.3008 -55.0801 52.3906 -55.0801
c23.7803 0 49.5498 11.4502 51.2695 55.0801zM87.6699 407.841l-15.7197 85.0078c102.58 10.7402 160.14 16.5605 223.58 16.5605c146.19 0 216.61 -65.8301 216.61 -167.37v-303.1c-47.4502 -14.8096 -149.53 -48.9199 -281.561 -48.9199
c-118.83 0 -195.1 60.6504 -195.1 159.04c0 85.04 60.25 145.12 202.12 156.521l124.18 11.0303v30.9102c0 51.8604 -19.0703 75.54 -66.2803 75.54c-50.4102 0 -103.09 -4.83008 -207.83 -15.2197zM361.8 92.1787l0.0107422 139.051l-109.42 -9.08008
c-51.3203 -4.54004 -65.0107 -23.8701 -65.0107 -73.0898c0 -36.8496 16.46 -71.29 48.1504 -73.8701c45.7197 0 92.4297 9.26953 126.27 16.9893z" />
    <glyph glyph-name="abrevehookabove" unicode="&#x1eb3;" horiz-adv-x="556" 
d="M218.01 867.24l-6.66992 38.2881c19.9004 5.33008 44.6904 7.90039 56.54 7.90039c72.4805 0 92.1504 -24.9297 92.1504 -74.5996c0 -36.0801 -14.6504 -57.8896 -49.1504 -63.9092v-39.0801h-59.9004v79.9102h18.6504c16.7002 0 26.0801 2.20996 26.0801 23.0703
c0 23.0898 -2.42969 28.7402 -25.96 29.2998c-7.84961 0 0.5 0 -51.7402 -0.879883zM332.63 713.188l76.791 0.0107422c0 -60.4004 -42.4805 -124.551 -129.141 -124.551c-88.1904 0 -129.2 64.3799 -129.2 124.54h77.8896
c1.86035 -43.6299 27.3008 -55.0801 52.3906 -55.0801c23.7803 0 49.5498 11.4502 51.2695 55.0801zM87.6709 407.85l-15.7197 85.0078c102.58 10.7402 160.14 16.5605 223.58 16.5605c146.19 0 216.61 -65.8301 216.61 -167.37v-303.1
c-47.4502 -14.8096 -149.53 -48.9199 -281.561 -48.9199c-118.83 0 -195.1 60.6504 -195.1 159.04c0 85.04 60.25 145.12 202.12 156.521l124.18 11.0303v30.9102c0 51.8604 -19.0703 75.54 -66.2803 75.54c-50.4102 0 -103.09 -4.83008 -207.83 -15.2197zM361.801 92.1875
l0.0107422 139.051l-109.42 -9.08008c-51.3203 -4.54004 -65.0107 -23.8701 -65.0107 -73.0898c0 -36.8496 16.46 -71.29 48.1504 -73.8701c45.7197 0 92.4297 9.26953 126.27 16.9893z" />
    <glyph glyph-name="abrevetilde" unicode="&#x1eb5;" horiz-adv-x="556" 
d="M146.1 741.58l-65.1797 45.9307c44.7305 37.2598 86.25 62.3398 136.98 62.3398c68.9902 0 94.4102 -46.5195 134.23 -46.5195c19.3096 0 47.2197 26.2305 66.4893 44.0303l65.5898 -39.5801c-39.5996 -39.8301 -81.5898 -69.1602 -128.64 -69.1602
c-73.9004 0 -94.2002 47.9697 -138.74 47.9697c-20.5703 0 -45.1807 -21.8203 -70.7305 -45.0107zM332.62 713.181l76.791 0.0107422c0 -60.4004 -42.4805 -124.551 -129.141 -124.551c-88.1904 0 -129.2 64.3799 -129.2 124.54h77.8896
c1.86035 -43.6299 27.3008 -55.0801 52.3906 -55.0801c23.7803 0 49.5498 11.4502 51.2695 55.0801zM87.6611 407.842l-15.7197 85.0078c102.58 10.7402 160.14 16.5605 223.58 16.5605c146.19 0 216.61 -65.8301 216.61 -167.37v-303.1
c-47.4502 -14.8096 -149.53 -48.9199 -281.561 -48.9199c-118.83 0 -195.1 60.6504 -195.1 159.04c0 85.04 60.25 145.12 202.12 156.521l124.18 11.0303v30.9102c0 51.8604 -19.0703 75.54 -66.2803 75.54c-50.4102 0 -103.09 -4.83008 -207.83 -15.2197zM361.791 92.1797
l0.0107422 139.051l-109.42 -9.08008c-51.3203 -4.54004 -65.0107 -23.8701 -65.0107 -73.0898c0 -36.8496 16.46 -71.29 48.1504 -73.8701c45.7197 0 92.4297 9.26953 126.27 16.9893z" />
    <glyph glyph-name="acaron" unicode="&#x1ce;" horiz-adv-x="556" 
d="M313.12 578.74h-63.5303l-166.87 152.98h119.96l79.6504 -73.3203l78.7598 73.3203h120.29zM87.6797 407.82l-15.7197 85.0078c102.58 10.7402 160.14 16.5605 223.58 16.5605c146.19 0 216.61 -65.8301 216.61 -167.37v-303.1
c-47.4502 -14.8096 -149.53 -48.9199 -281.561 -48.9199c-118.83 0 -195.1 60.6504 -195.1 159.04c0 85.04 60.25 145.12 202.12 156.521l124.18 11.0303v30.9102c0 51.8604 -19.0703 75.54 -66.2803 75.54c-50.4102 0 -103.09 -4.83008 -207.83 -15.2197zM361.81 92.1582
l0.0107422 139.051l-109.42 -9.08008c-51.3203 -4.54004 -65.0107 -23.8701 -65.0107 -73.0898c0 -36.8496 16.46 -71.29 48.1504 -73.8701c45.7197 0 92.4297 9.26953 126.27 16.9893z" />
    <glyph glyph-name="acircumflex" unicode="&#xe2;" horiz-adv-x="545" 
d="M82.4199 578.16l166.87 152.98h63.5303l168.26 -152.98h-120.29l-78.7598 73.3203l-79.6504 -73.3203h-119.96zM84.3203 407.82l-15.7207 85.0078c102.58 10.7402 160.14 16.5605 223.58 16.5605c146.19 0 216.61 -65.8301 216.61 -167.37v-303.1
c-47.4502 -14.8096 -149.53 -48.9199 -281.561 -48.9199c-118.83 0 -195.1 60.6504 -195.1 159.04c0 85.04 60.25 145.12 202.12 156.521l124.19 11.0303v30.9102c0 51.8604 -19.0703 75.54 -66.29 75.54c-50.4102 0 -103.09 -4.83008 -207.83 -15.2197zM358.449 92.1582
l0.000976562 139.051l-109.42 -9.08008c-51.3203 -4.54004 -65.0107 -23.8701 -65.0107 -73.0898c0 -36.8496 16.46 -71.29 48.1602 -73.8701c45.7197 0 92.4297 9.26953 126.27 16.9893z" />
    <glyph glyph-name="acircumflexacute" unicode="&#x1ea5;" horiz-adv-x="556" 
d="M381.5 693.74l146.449 135.96h135.48l-163.08 -135.96h-118.85zM82.4189 578.17l166.87 152.98h63.5303l168.26 -152.98h-120.29l-78.7598 73.3203l-79.6504 -73.3203h-119.96zM87.6689 407.83l-15.7197 85.0078c102.58 10.7402 160.14 16.5605 223.58 16.5605
c146.19 0 216.61 -65.8301 216.61 -167.37v-303.1c-47.4502 -14.8096 -149.53 -48.9199 -281.561 -48.9199c-118.83 0 -195.1 60.6504 -195.1 159.04c0 85.04 60.25 145.12 202.12 156.521l124.18 11.0303v30.9102c0 51.8604 -19.0703 75.54 -66.2803 75.54
c-50.4102 0 -103.09 -4.83008 -207.83 -15.2197zM361.799 92.168l0.0107422 139.051l-109.42 -9.08008c-51.3203 -4.54004 -65.0107 -23.8701 -65.0107 -73.0898c0 -36.8496 16.46 -71.29 48.1504 -73.8701c45.7197 0 92.4297 9.26953 126.27 16.9893z" />
    <glyph glyph-name="acircumflexdotbelow" unicode="&#x1ead;" horiz-adv-x="556" 
d="M82.4297 578.16l166.87 152.98h63.5303l168.26 -152.98h-120.29l-78.7598 73.3203l-79.6504 -73.3203h-119.96zM87.6797 407.82l-15.7197 85.0078c102.58 10.7402 160.14 16.5605 223.58 16.5605c146.19 0 216.61 -65.8301 216.61 -167.37v-303.1
c-47.4502 -14.8096 -149.53 -48.9199 -281.561 -48.9199c-118.83 0 -195.1 60.6504 -195.1 159.04c0 85.04 60.25 145.12 202.12 156.521l124.18 11.0303v30.9102c0 51.8604 -19.0703 75.54 -66.2803 75.54c-50.4102 0 -103.09 -4.83008 -207.83 -15.2197zM361.81 92.1582
l0.0107422 139.051l-109.42 -9.08008c-51.3203 -4.54004 -65.0107 -23.8701 -65.0107 -73.0898c0 -36.8496 16.46 -71.29 48.1504 -73.8701c45.7197 0 92.4297 9.26953 126.27 16.9893zM237.62 -72.001h101.91v-90h-101.91v90z" />
    <glyph glyph-name="acircumflexgrave" unicode="&#x1ea7;" horiz-adv-x="556" 
d="M230.66 835.44h135.479l146.36 -135.96h-118.76zM82.4199 578.171l166.87 152.98h63.5303l168.26 -152.98h-120.29l-78.7598 73.3203l-79.6504 -73.3203h-119.96zM87.6699 407.831l-15.7197 85.0078c102.58 10.7402 160.14 16.5605 223.58 16.5605
c146.19 0 216.61 -65.8301 216.61 -167.37v-303.1c-47.4502 -14.8096 -149.53 -48.9199 -281.561 -48.9199c-118.83 0 -195.1 60.6504 -195.1 159.04c0 85.04 60.25 145.12 202.12 156.521l124.18 11.0303v30.9102c0 51.8604 -19.0703 75.54 -66.2803 75.54
c-50.4102 0 -103.09 -4.83008 -207.83 -15.2197zM361.8 92.1689l0.0107422 139.051l-109.42 -9.08008c-51.3203 -4.54004 -65.0107 -23.8701 -65.0107 -73.0898c0 -36.8496 16.46 -71.29 48.1504 -73.8701c45.7197 0 92.4297 9.26953 126.27 16.9893z" />
    <glyph glyph-name="acircumflexhookabove" unicode="&#x1ea9;" horiz-adv-x="556" 
d="M346.81 831.28l-6.7002 38.2686c19.9004 5.33008 44.7002 7.90039 56.5498 7.90039c72.4805 0 92.1602 -24.9297 92.1602 -74.5996c0 -36.0703 -14.6504 -57.8799 -49.1504 -63.8994v-39.0801h-59.8896v79.9102h18.6504c16.7002 0 26.0801 2.20996 26.0801 23.0703
c0 23.0996 -2.42969 28.75 -25.96 29.3096c-7.84961 0 0.5 0 -51.7402 -0.879883zM82.3994 578.159l166.87 152.98h63.5303l168.26 -152.98h-120.29l-78.7598 73.3203l-79.6504 -73.3203h-119.96zM87.6494 407.819l-15.7197 85.0078
c102.58 10.7402 160.14 16.5605 223.58 16.5605c146.19 0 216.61 -65.8301 216.61 -167.37v-303.1c-47.4502 -14.8096 -149.53 -48.9199 -281.561 -48.9199c-118.83 0 -195.1 60.6504 -195.1 159.04c0 85.04 60.25 145.12 202.12 156.521l124.18 11.0303v30.9102
c0 51.8604 -19.0703 75.54 -66.2803 75.54c-50.4102 0 -103.09 -4.83008 -207.83 -15.2197zM361.779 92.1572l0.0107422 139.051l-109.42 -9.08008c-51.3203 -4.54004 -65.0107 -23.8701 -65.0107 -73.0898c0 -36.8496 16.46 -71.29 48.1504 -73.8701
c45.7197 0 92.4297 9.26953 126.27 16.9893z" />
    <glyph glyph-name="acircumflextilde" unicode="&#x1eab;" horiz-adv-x="556" 
d="M418.62 859.37l65.5908 -39.5791c-39.5996 -39.8203 -81.5898 -69.1504 -128.64 -69.1504c-73.9004 0 -94.2002 47.9697 -138.74 47.9697c-20.5703 0 -45.1807 -21.8203 -70.7305 -45.0107l-65.1699 45.9199c44.7305 37.2598 86.25 62.3398 136.97 62.3398
c68.9902 0 94.4102 -46.5195 134.23 -46.5195c19.3096 0 47.2197 26.2305 66.4893 44.0303zM82.4209 578.161l166.87 152.98h63.5303l168.26 -152.98h-120.29l-78.7598 73.3203l-79.6504 -73.3203h-119.96zM87.6709 407.821l-15.7197 85.0078
c102.58 10.7402 160.14 16.5605 223.58 16.5605c146.19 0 216.61 -65.8301 216.61 -167.37v-303.1c-47.4502 -14.8096 -149.53 -48.9199 -281.561 -48.9199c-118.83 0 -195.1 60.6504 -195.1 159.04c0 85.04 60.25 145.12 202.12 156.521l124.18 11.0303v30.9102
c0 51.8604 -19.0703 75.54 -66.2803 75.54c-50.4102 0 -103.09 -4.83008 -207.83 -15.2197zM361.801 92.1592l0.0107422 139.051l-109.42 -9.08008c-51.3203 -4.54004 -65.0107 -23.8701 -65.0107 -73.0898c0 -36.8496 16.46 -71.29 48.1504 -73.8701
c45.7197 0 92.4297 9.26953 126.27 16.9893z" />
    <glyph glyph-name="adieresis" unicode="&#xe4;" horiz-adv-x="545" 
d="M135.13 682.26h101.91v-90.79h-101.91v90.79zM317.95 682.26h101.91v-90.79h-101.91v90.79zM84.3203 407.83l-15.7207 85.0078c102.58 10.7402 160.14 16.5605 223.58 16.5605c146.19 0 216.61 -65.8301 216.61 -167.37v-303.1
c-47.4502 -14.8096 -149.53 -48.9199 -281.561 -48.9199c-118.83 0 -195.1 60.6504 -195.1 159.04c0 85.04 60.25 145.12 202.12 156.521l124.19 11.0303v30.9102c0 51.8604 -19.0703 75.54 -66.29 75.54c-50.4102 0 -103.09 -4.83008 -207.83 -15.2197zM358.449 92.168
l0.000976562 139.051l-109.42 -9.08008c-51.3203 -4.54004 -65.0107 -23.8701 -65.0107 -73.0898c0 -36.8496 16.46 -71.29 48.1602 -73.8701c45.7197 0 92.4297 9.26953 126.27 16.9893z" />
    <glyph glyph-name="adotbelow" unicode="&#x1ea1;" horiz-adv-x="556" 
d="M87.6797 407.83l-15.7197 85.0078c102.58 10.7402 160.14 16.5605 223.58 16.5605c146.19 0 216.61 -65.8301 216.61 -167.37v-303.1c-47.4502 -14.8096 -149.53 -48.9199 -281.561 -48.9199c-118.83 0 -195.1 60.6504 -195.1 159.04
c0 85.04 60.25 145.12 202.12 156.521l124.18 11.0303v30.9102c0 51.8604 -19.0703 75.54 -66.2803 75.54c-50.4102 0 -103.09 -4.83008 -207.83 -15.2197zM361.81 92.168l0.0107422 139.051l-109.42 -9.08008c-51.3203 -4.54004 -65.0107 -23.8701 -65.0107 -73.0898
c0 -36.8496 16.46 -71.29 48.1504 -73.8701c45.7197 0 92.4297 9.26953 126.27 16.9893zM237.62 -71.9912h101.91v-90h-101.91v90z" />
    <glyph glyph-name="ae" unicode="&#xe6;" horiz-adv-x="909" 
d="M83.7695 407.83l-15.7207 85.0293c102.58 10.7402 160.14 16.5605 223.58 16.5605c74.8203 0 126.431 -20.0703 157.271 -58.0107c40.4502 41.8203 98.6104 58 170.11 58c169.38 0 260.399 -76.6904 260.399 -242.431v-57.4697h-363.69
c3.96973 -93 31.8701 -134.34 109.91 -134.34c49.2598 0 168.43 22.2002 221.25 33.2197l15.9902 -84.3398c-80.0801 -16.0898 -167 -34.04 -238.68 -34.04c-77.6797 1 -131.96 18.2598 -169.53 49.75l-53.9404 -26.0898
c-50.9102 -12.7598 -107.72 -23.6602 -174.04 -23.6602c-118.83 0 -195.1 60.6504 -195.1 159.04c0 85.04 60.25 145.12 202.12 156.521l124.19 11.0303v30.9102c0 51.8604 -19.0703 75.54 -66.29 75.54c-50.4102 0 -103.09 -4.83008 -207.83 -15.2197zM515.709 294.1
l209.949 0.0107422c-3.84961 100.3 -35.3594 130.76 -106.649 130.76c-67.29 0 -99.3496 -31.1504 -103.3 -130.771zM357.889 92.2002l0.000976562 139.051l-109.42 -9.08008c-51.3203 -4.54004 -65.0107 -23.8701 -65.0107 -73.0898
c0 -36.8496 16.46 -71.29 48.1602 -73.8701c45.7197 0 92.4297 9.26953 126.27 16.9893z" />
    <glyph glyph-name="agrave" unicode="&#xe0;" horiz-adv-x="545" 
d="M149.56 714.15h135.479l146.36 -135.96h-118.76zM84.3291 407.83l-15.7207 85.0078c102.58 10.7402 160.14 16.5605 223.58 16.5605c146.19 0 216.61 -65.8301 216.61 -167.37v-303.1c-47.4502 -14.8096 -149.53 -48.9199 -281.561 -48.9199
c-118.83 0 -195.1 60.6504 -195.1 159.04c0 85.04 60.25 145.12 202.12 156.521l124.19 11.0303v30.9102c0 51.8604 -19.0703 75.54 -66.29 75.54c-50.4102 0 -103.09 -4.83008 -207.83 -15.2197zM358.458 92.168l0.000976562 139.051l-109.42 -9.08008
c-51.3203 -4.54004 -65.0107 -23.8701 -65.0107 -73.0898c0 -36.8496 16.46 -71.29 48.1602 -73.8701c45.7197 0 92.4297 9.26953 126.27 16.9893z" />
    <glyph glyph-name="ahookabove" unicode="&#x1ea3;" horiz-adv-x="556" 
d="M218.01 674.49l-6.66992 38.2881c19.9004 5.33008 44.6904 7.90039 56.54 7.90039c72.4805 0 92.1504 -24.9297 92.1504 -74.5996c0 -36.0801 -14.6504 -57.8896 -49.1504 -63.9092v-39.0801h-59.9004v79.9102h18.6504c16.7002 0 26.0801 2.20996 26.0801 23.0703
c0 23.0898 -2.42969 28.7402 -25.96 29.2998c-7.84961 0 0.5 0 -51.7402 -0.879883zM87.6797 407.849l-15.7197 85.0078c102.58 10.7402 160.14 16.5605 223.58 16.5605c146.19 0 216.61 -65.8301 216.61 -167.37v-303.1
c-47.4502 -14.8096 -149.53 -48.9199 -281.561 -48.9199c-118.83 0 -195.1 60.6504 -195.1 159.04c0 85.04 60.25 145.12 202.12 156.521l124.18 11.0303v30.9102c0 51.8604 -19.0703 75.54 -66.2803 75.54c-50.4102 0 -103.09 -4.83008 -207.83 -15.2197zM361.81 92.1865
l0.0107422 139.051l-109.42 -9.08008c-51.3203 -4.54004 -65.0107 -23.8701 -65.0107 -73.0898c0 -36.8496 16.46 -71.29 48.1504 -73.8701c45.7197 0 92.4297 9.26953 126.27 16.9893z" />
    <glyph glyph-name="amacron" unicode="&#x101;" horiz-adv-x="556" 
d="M465.43 609.92h-370.29v69.9102h370.29v-69.9102zM87.6699 407.82l-15.7197 85.0078c102.58 10.7402 160.14 16.5605 223.58 16.5605c146.19 0 216.61 -65.8301 216.61 -167.37v-303.1c-47.4502 -14.8096 -149.53 -48.9199 -281.561 -48.9199
c-118.83 0 -195.1 60.6504 -195.1 159.04c0 85.04 60.25 145.12 202.12 156.521l124.18 11.0303v30.9102c0 51.8604 -19.0703 75.54 -66.2803 75.54c-50.4102 0 -103.09 -4.83008 -207.83 -15.2197zM361.8 92.1582l0.0107422 139.051l-109.42 -9.08008
c-51.3203 -4.54004 -65.0107 -23.8701 -65.0107 -73.0898c0 -36.8496 16.46 -71.29 48.1504 -73.8701c45.7197 0 92.4297 9.26953 126.27 16.9893z" />
    <glyph glyph-name="aogonek" unicode="&#x105;" horiz-adv-x="556" 
d="M507.18 -84l10.998 -49.0205c-29.4297 -9.51953 -55.5596 -13.6992 -78.1299 -13.6992c-48.5898 0 -80.7002 19.3896 -93.71 46.6992c-5.21973 11.3301 -7.60938 22.8496 -7.60938 34.1592c0 25.6299 12.2803 50.21 31.8203 69.1602
c-41.9902 -8.30957 -88.6299 -13.3096 -139.97 -13.3096c-118.83 0 -195.1 60.6504 -195.1 159.04c0 85.04 60.25 145.12 202.12 156.521l124.19 11.0303v30.9102c0 51.8604 -19.0703 75.54 -66.29 75.54c-50.4102 0 -103.09 -4.83008 -207.83 -15.2197l-15.75 85.0098
c102.58 10.7402 160.14 16.5605 223.58 16.5605c146.19 0 216.61 -65.8301 216.61 -167.37v-303.1c-12.5098 -3.78027 -33.7402 -10.8906 -61.7002 -18.1709c-23.1504 -17.9199 -35.3701 -42.8203 -35.3701 -65.1299c0 -7.25 1.29004 -14.2305 3.91992 -20.6104
c5.84961 -14.2402 23.6895 -24.4199 50.8398 -24.4199c10.9902 0 23.5098 1.66992 37.3799 5.41992zM361.808 92.1396l0.0107422 139.051l-109.42 -9.08008c-51.3203 -4.54004 -65.0107 -23.8701 -65.0107 -73.0898c0 -36.8496 16.46 -71.29 48.1504 -73.8701
c45.7197 0 92.4297 9.26953 126.27 16.9893z" />
    <glyph glyph-name="aring" unicode="&#xe5;" horiz-adv-x="545" 
d="M277.72 732.95c75.7695 0 133.23 -46.291 133.23 -101.381c0 -56.0996 -57.7002 -101.359 -133.23 -101.359c-76.8496 0 -133.229 45.3896 -133.229 101.37c0 54.9697 56.1299 101.37 133.229 101.37zM278.301 676.359c-28.8301 0 -44.8408 -15.1709 -44.8408 -45.3105
c0 -30.3701 15.6904 -45.25 44.8408 -45.25c29.3203 0 45.5801 15.3203 45.5801 45.25c0 29.7002 -16.5801 45.3105 -45.5801 45.3105zM84.3398 407.818l-15.7207 85.0078c102.58 10.7402 160.14 16.5605 223.58 16.5605c146.19 0 216.61 -65.8301 216.61 -167.37v-303.1
c-47.4502 -14.8096 -149.53 -48.9199 -281.561 -48.9199c-118.83 0 -195.1 60.6504 -195.1 159.04c0 85.04 60.25 145.12 202.12 156.521l124.19 11.0303v30.9102c0 51.8604 -19.0703 75.54 -66.29 75.54c-50.4102 0 -103.09 -4.83008 -207.83 -15.2197zM358.469 92.1562
l0.000976562 139.051l-109.42 -9.08008c-51.3203 -4.54004 -65.0107 -23.8701 -65.0107 -73.0898c0 -36.8496 16.46 -71.29 48.1602 -73.8701c45.7197 0 92.4297 9.26953 126.27 16.9893z" />
    <glyph glyph-name="atilde" unicode="&#xe3;" horiz-adv-x="545" 
d="M415.63 705.48l65.5801 -39.5693c-39.5996 -39.8301 -81.5898 -69.1602 -128.64 -69.1602c-73.9004 0 -94.2002 47.9697 -138.74 47.9697c-20.5703 0 -45.1807 -21.8203 -70.7305 -45.0107l-65.1699 45.9199c44.7305 37.2598 86.25 62.3398 136.98 62.3398
c68.9902 0 94.4102 -46.5195 134.23 -46.5195c19.3096 0 47.2197 26.2305 66.4893 44.0303zM84.3096 407.831l-15.7207 85.0078c102.58 10.7402 160.14 16.5605 223.58 16.5605c146.19 0 216.61 -65.8301 216.61 -167.37v-303.1
c-47.4502 -14.8096 -149.53 -48.9199 -281.561 -48.9199c-118.83 0 -195.1 60.6504 -195.1 159.04c0 85.04 60.25 145.12 202.12 156.521l124.19 11.0303v30.9102c0 51.8604 -19.0703 75.54 -66.29 75.54c-50.4102 0 -103.09 -4.83008 -207.83 -15.2197zM358.438 92.1689
l0.000976562 139.051l-109.42 -9.08008c-51.3203 -4.54004 -65.0107 -23.8701 -65.0107 -73.0898c0 -36.8496 16.46 -71.29 48.1602 -73.8701c45.7197 0 92.4297 9.26953 126.27 16.9893z" />
    <glyph glyph-name="b" unicode="b" horiz-adv-x="581" 
d="M53.8203 699.65l149.82 -0.000976562v-202.06c25.5303 6.11035 63.0801 13.8701 101.26 13.8701c196.13 0 242.96 -88.54 242.96 -249.57c0 -172.85 -59.6396 -268.89 -306.87 -268.89c-58.3496 0 -100.83 3 -187.17 9.7002v696.95zM203.641 411.919l-0.00195312 -332.89
c12.5703 -0.44043 26.5205 -0.790039 39.3408 -0.790039c9.66016 0 18.6797 0.200195 25.9795 0.719727c109.11 5.09961 126.851 57.6396 126.851 181.14c0 126.38 -18.5098 166.79 -90.8994 166.79c-38.1396 0 -75.0996 -8.08008 -101.27 -14.9697z" />
    <glyph glyph-name="c" unicode="c" horiz-adv-x="514" 
d="M486.91 105.12l5.25293 -88.2881c-48.3604 -8.91992 -126.9 -24.7998 -181.881 -26.7998c-221.41 -8 -275.37 80.0498 -275.37 259.689c0 179.57 53.7598 269.21 275.22 259.69c52.5801 -1.99023 135.84 -17.4307 181.89 -25.2109l-2.46973 -74.5801
c-37.0996 2.24023 -143.29 14.79 -184.25 16.5c-99.5303 4.33984 -118.53 -36.3105 -118.53 -176.421c0 -140.07 18.8096 -179.88 118.529 -175.53c37.0195 1.55957 114.689 17.8398 181.609 30.9502z" />
    <glyph glyph-name="cacute" unicode="&#x107;" horiz-adv-x="514" 
d="M122.21 552.93l146.449 135.96h135.48l-163.08 -135.96h-118.85zM486.909 105.12l5.25293 -88.2881c-48.3604 -8.91992 -126.9 -24.7998 -181.881 -26.7998c-221.41 -8 -275.37 80.0498 -275.37 259.689c0 179.57 53.7598 269.21 275.22 259.69
c52.5801 -1.99023 135.84 -17.4307 181.89 -25.2109l-2.46973 -74.5801c-37.0996 2.24023 -143.29 14.79 -184.25 16.5c-99.5303 4.33984 -118.53 -36.3105 -118.53 -176.421c0 -140.07 18.8096 -179.88 118.529 -175.53c37.0195 1.55957 114.689 17.8398 181.609 30.9502z
" />
    <glyph glyph-name="ccaron" unicode="&#x10d;" horiz-adv-x="514" 
d="M294.22 555.5h-63.5303l-166.87 152.98h119.96l79.6504 -73.3203l78.7598 73.3203h120.29zM486.899 105.11l5.24316 -88.2881c-48.3604 -8.91992 -126.9 -24.7998 -181.881 -26.7998c-221.41 -8 -275.37 80.0498 -275.37 259.689c0 179.57 53.7598 269.21 275.22 259.69
c52.5801 -1.99023 135.84 -17.4307 181.89 -25.2109l-2.46973 -74.5801c-37.0996 2.24023 -143.29 14.79 -184.25 16.5c-99.5303 4.33984 -118.53 -36.3105 -118.53 -176.421c0 -140.07 18.8096 -179.88 118.529 -175.53c37.0195 1.55957 114.699 17.8398 181.619 30.9502z
" />
    <glyph glyph-name="ccedilla" unicode="&#xe7;" horiz-adv-x="511" 
d="M208.11 -74l36.002 64.0322c-170.56 10.5898 -214.369 98.3398 -214.369 259.689c0 179.57 53.7598 269.21 275.21 259.69c52.5801 -1.99023 135.84 -17.4307 181.89 -25.2109l-2.45996 -74.5801c-37.0996 2.24023 -143.29 14.79 -184.25 16.5
c-99.5303 4.33984 -118.53 -36.3105 -118.53 -176.421c0 -140.07 18.8096 -179.88 118.529 -175.53c37.0195 1.55957 114.689 17.8398 181.609 30.9502l5.21973 -88.3203c-31.1797 -5.75 -96.5498 -18.7998 -141.91 -22.7998l-37.2998 -3l-15.0703 -25
c34.5801 -6 49.2305 -27 49.2305 -64c0 -49 -25.2598 -74 -97.7402 -74c-6.82031 0 -38.1904 0 -75.1309 8l6.66992 37h75.9102c23.5303 1 25.96 6 25.96 29c0 21 -9.37988 24 -26.0801 24h-43.3896z" />
    <glyph glyph-name="cdotaccent" unicode="&#x10b;" horiz-adv-x="514" 
d="M210.44 567.11v90.79h101.91v-90.79h-101.91zM486.91 105.12l5.25293 -88.2881c-48.3604 -8.91992 -126.9 -24.7998 -181.881 -26.7998c-221.41 -8 -275.37 80.0498 -275.37 259.689c0 179.57 53.7598 269.21 275.22 259.69
c52.5801 -1.99023 135.84 -17.4307 181.89 -25.2109l-2.46973 -74.5801c-37.0996 2.24023 -143.29 14.79 -184.25 16.5c-99.5303 4.33984 -118.53 -36.3105 -118.53 -176.421c0 -140.07 18.8096 -179.88 118.529 -175.53c37.0195 1.55957 114.689 17.8398 181.609 30.9502z
" />
    <glyph glyph-name="d" unicode="d" horiz-adv-x="581" 
d="M379.13 497.59l0.000976562 202.061h151.51v-696.95c-88.04 -6.7002 -130.521 -9.7002 -188.87 -9.7002c-247.23 0 -306.87 96.04 -306.87 268.89c0 161.03 46.8301 249.57 242.96 249.57c38.1797 0 75.7393 -7.75977 101.27 -13.8701zM379.131 79.0303
l-0.000976562 332.89c-26.1299 6.88965 -63.0898 14.9697 -101.229 14.9697c-72.3896 0 -90.8994 -40.4102 -90.8994 -166.79c0 -123.5 17.7402 -176.04 126.851 -181.14c7.2998 -0.519531 16.3193 -0.719727 25.9795 -0.719727c12.8096 0 26.75 0.349609 39.2998 0.790039z
" />
    <glyph glyph-name="dcaron" unicode="&#x10f;" horiz-adv-x="581" 
d="M55.3301 556.22l46.6602 190.96h155.75l-57.1699 -190.96h-145.24zM379.13 497.59l0.000976562 202.061h151.51v-696.95c-88.04 -6.7002 -130.521 -9.7002 -188.87 -9.7002c-247.23 0 -306.87 96.04 -306.87 268.89c0 161.03 46.8301 249.57 242.96 249.57
c38.1797 0 75.7393 -7.75977 101.27 -13.8701zM379.131 79.0303l-0.000976562 332.89c-26.1299 6.88965 -63.0898 14.9697 -101.229 14.9697c-72.3896 0 -90.8994 -40.4102 -90.8994 -166.79c0 -123.5 17.7402 -176.04 126.851 -181.14
c7.2998 -0.519531 16.3193 -0.719727 25.9795 -0.719727c12.8096 0 26.75 0.349609 39.2998 0.790039z" />
    <glyph glyph-name="dcroat" unicode="&#x111;" horiz-adv-x="635" 
d="M631.66 637.44l-0.00976562 -69.9102h-101.02v-564.83c-88.04 -6.7002 -130.521 -9.7002 -188.87 -9.7002c-247.23 0 -306.87 96.04 -306.87 268.89c0 161.03 46.8301 249.57 242.96 249.57c38.1797 0 75.7393 -7.75977 101.289 -13.8701v69.9404h-117.77v69.9102h117.76
v62.21h149.95v-62.21h102.58zM379.08 79.0303l-0.000976562 332.89c-26.1299 6.88965 -63.0898 14.9697 -101.229 14.9697c-72.3896 0 -90.8994 -40.4102 -90.8994 -166.79c0 -123.5 17.7402 -176.04 126.851 -181.14c7.2998 -0.519531 16.3193 -0.719727 25.9795 -0.719727
c12.8096 0 26.75 0.349609 39.2998 0.790039z" />
    <glyph glyph-name="dotlessi" unicode="&#x131;" horiz-adv-x="253" 
d="M57.0996 0v500h148.54v-500h-148.54z" />
    <glyph glyph-name="e" unicode="e" horiz-adv-x="579" 
d="M519.84 108.39l15.9902 -84.3496c-80.0801 -16.0898 -167 -34.04 -238.68 -34.04c-208.7 1 -262.26 109.28 -262.26 260c0 190.54 99.7803 259.4 257.09 259.4c169.38 0 260.399 -76.6904 260.399 -242.421v-57.4697h-363.69c3.96973 -93 31.8701 -134.34 109.9 -134.34
c49.2598 0 168.43 22.2002 221.25 33.2197zM188.68 294.06l209.97 0.0107422c-3.86035 100.3 -35.3701 130.76 -106.67 130.76c-67.29 0 -99.3496 -31.1504 -103.3 -130.771z" />
    <glyph glyph-name="eacute" unicode="&#xe9;" horiz-adv-x="579" 
d="M310.4 713.25h135.479l-163.08 -135.96h-118.85zM519.83 108.39l15.9902 -84.3496c-80.0801 -16.0898 -167 -34.04 -238.68 -34.04c-208.7 1 -262.26 109.28 -262.26 260c0 190.54 99.7803 259.4 257.09 259.4c169.38 0 260.399 -76.6904 260.399 -242.421v-57.4697
h-363.69c3.96973 -93 31.8701 -134.34 109.9 -134.34c49.2598 0 168.43 22.2002 221.25 33.2197zM188.67 294.06l209.97 0.0107422c-3.86035 100.3 -35.3701 130.76 -106.67 130.76c-67.29 0 -99.3496 -31.1504 -103.3 -130.771z" />
    <glyph glyph-name="ecaron" unicode="&#x11b;" horiz-adv-x="579" 
d="M335.97 578.74h-63.5303l-166.87 152.98h119.96l79.6504 -73.3203l78.7598 73.3203h120.29zM519.84 108.38l15.9902 -84.3496c-80.0801 -16.0898 -167 -34.04 -238.68 -34.04c-208.7 1 -262.26 109.28 -262.26 260c0 190.54 99.7803 259.4 257.09 259.4
c169.38 0 260.399 -76.6904 260.399 -242.421v-57.4697h-363.69c3.96973 -93 31.8701 -134.34 109.9 -134.34c49.2598 0 168.43 22.2002 221.25 33.2197zM188.68 294.05l209.97 0.0107422c-3.86035 100.3 -35.3701 130.76 -106.67 130.76
c-67.29 0 -99.3496 -31.1504 -103.3 -130.771z" />
    <glyph glyph-name="ecircumflex" unicode="&#xea;" horiz-adv-x="579" 
d="M272.15 714.15h63.5303l168.26 -152.98h-120.29l-78.7598 73.3203l-79.6504 -73.3203h-119.96zM519.841 108.391l15.9902 -84.3496c-80.0801 -16.0898 -167 -34.04 -238.68 -34.04c-208.7 1 -262.26 109.28 -262.26 260c0 190.54 99.7803 259.4 257.09 259.4
c169.38 0 260.399 -76.6904 260.399 -242.421v-57.4697h-363.69c3.96973 -93 31.8701 -134.34 109.9 -134.34c49.2598 0 168.43 22.2002 221.25 33.2197zM188.681 294.061l209.97 0.0107422c-3.86035 100.3 -35.3701 130.76 -106.67 130.76
c-67.29 0 -99.3496 -31.1504 -103.3 -130.771z" />
    <glyph glyph-name="ecircumflexacute" unicode="&#x1ebf;" horiz-adv-x="579" 
d="M436.1 682.97l146.449 135.96h135.48l-163.08 -135.96h-118.85zM137.019 567.399l166.87 152.98h63.5303l168.26 -152.98h-120.29l-78.7598 73.3203l-79.6504 -73.3203h-119.96zM519.829 108.39l15.9902 -84.3496c-80.0801 -16.0898 -167 -34.04 -238.68 -34.04
c-208.7 1 -262.26 109.28 -262.26 260c0 190.54 99.7803 259.4 257.09 259.4c169.38 0 260.399 -76.6904 260.399 -242.421v-57.4697h-363.69c3.96973 -93 31.8701 -134.34 109.9 -134.34c49.2598 0 168.43 22.2002 221.25 33.2197zM188.669 294.06l209.97 0.0107422
c-3.86035 100.3 -35.3701 130.76 -106.67 130.76c-67.29 0 -99.3496 -31.1504 -103.3 -130.771z" />
    <glyph glyph-name="ecircumflexdotbelow" unicode="&#x1ec7;" horiz-adv-x="579" 
d="M105.28 578.16l166.87 152.98h63.5303l168.26 -152.98h-120.29l-78.7598 73.3203l-79.6504 -73.3203h-119.96zM519.841 108.391l15.9902 -84.3496c-80.0801 -16.0898 -167 -34.04 -238.68 -34.04c-208.7 1 -262.26 109.28 -262.26 260
c0 190.54 99.7803 259.4 257.09 259.4c169.38 0 260.399 -76.6904 260.399 -242.421v-57.4697h-363.69c3.96973 -93 31.8701 -134.34 109.9 -134.34c49.2598 0 168.43 22.2002 221.25 33.2197zM188.681 294.061l209.97 0.0107422
c-3.86035 100.3 -35.3701 130.76 -106.67 130.76c-67.29 0 -99.3496 -31.1504 -103.3 -130.771zM237.591 -71.999h101.91v-90h-101.91v90z" />
    <glyph glyph-name="ecircumflexgrave" unicode="&#x1ec1;" horiz-adv-x="579" 
d="M253.66 835.44h135.479l146.36 -135.96h-118.76zM105.42 578.171l166.87 152.98h63.5303l168.26 -152.98h-120.29l-78.7598 73.3203l-79.6504 -73.3203h-119.96zM519.83 108.401l15.9902 -84.3496c-80.0801 -16.0898 -167 -34.04 -238.68 -34.04
c-208.7 1 -262.26 109.28 -262.26 260c0 190.54 99.7803 259.4 257.09 259.4c169.38 0 260.399 -76.6904 260.399 -242.421v-57.4697h-363.69c3.96973 -93 31.8701 -134.34 109.9 -134.34c49.2598 0 168.43 22.2002 221.25 33.2197zM188.67 294.071l209.97 0.0107422
c-3.86035 100.3 -35.3701 130.76 -106.67 130.76c-67.29 0 -99.3496 -31.1504 -103.3 -130.771z" />
    <glyph glyph-name="ecircumflexhookabove" unicode="&#x1ec3;" horiz-adv-x="579" 
d="M369.36 831.28l-6.7002 38.2686c19.9004 5.33008 44.7002 7.90039 56.5498 7.90039c72.4805 0 92.1602 -24.9297 92.1602 -74.5996c0 -36.0703 -14.6504 -57.8799 -49.1504 -63.8994v-39.0801h-59.8896v79.9102h18.6504c16.7002 0 26.0801 2.20996 26.0801 23.0703
c0 23.0996 -2.42969 28.75 -25.96 29.3096c-7.84961 0 0.5 0 -51.7402 -0.879883zM104.95 578.159l166.87 152.98h63.5303l168.26 -152.98h-120.29l-78.7598 73.3203l-79.6504 -73.3203h-119.96zM519.801 108.39l15.9902 -84.3496
c-80.0801 -16.0898 -167 -34.04 -238.68 -34.04c-208.7 1 -262.26 109.28 -262.26 260c0 190.54 99.7803 259.4 257.09 259.4c169.38 0 260.399 -76.6904 260.399 -242.421v-57.4697h-363.69c3.96973 -93 31.8701 -134.34 109.9 -134.34
c49.2598 0 168.43 22.2002 221.25 33.2197zM188.641 294.06l209.97 0.0107422c-3.86035 100.3 -35.3701 130.76 -106.67 130.76c-67.29 0 -99.3496 -31.1504 -103.3 -130.771z" />
    <glyph glyph-name="ecircumflextilde" unicode="&#x1ec5;" horiz-adv-x="579" 
d="M440.51 859.37l65.5703 -39.5791c-39.5996 -39.8203 -81.5898 -69.1504 -128.64 -69.1504c-73.9004 0 -94.1904 47.9697 -138.73 47.9697c-20.5703 0 -45.1807 -21.8203 -70.7305 -45.0107l-65.1699 45.9199c44.7305 37.2598 86.25 62.3398 136.98 62.3398
c68.9902 0 94.4102 -46.5195 134.23 -46.5195c19.3096 0 47.2197 26.2305 66.4893 44.0303zM104.29 578.161l166.87 152.98h63.5303l168.26 -152.98h-120.29l-78.7598 73.3203l-79.6504 -73.3203h-119.96zM519.82 108.392l15.9902 -84.3496
c-80.0801 -16.0898 -167 -34.04 -238.68 -34.04c-208.7 1 -262.26 109.28 -262.26 260c0 190.54 99.7803 259.4 257.09 259.4c169.38 0 260.399 -76.6904 260.399 -242.421v-57.4697h-363.69c3.96973 -93 31.8701 -134.34 109.9 -134.34
c49.2598 0 168.43 22.2002 221.25 33.2197zM188.66 294.062l209.97 0.0107422c-3.86035 100.3 -35.3701 130.76 -106.67 130.76c-67.29 0 -99.3496 -31.1504 -103.3 -130.771z" />
    <glyph glyph-name="edieresis" unicode="&#xeb;" horiz-adv-x="579" 
d="M160.77 681.14h101.91v-90.79h-101.91v90.79zM343.59 681.14h101.91v-90.79h-101.91v90.79zM519.83 108.38l15.9902 -84.3496c-80.0801 -16.0898 -167 -34.04 -238.68 -34.04c-208.7 1 -262.26 109.28 -262.26 260c0 190.54 99.7803 259.4 257.09 259.4
c169.38 0 260.399 -76.6904 260.399 -242.421v-57.4697h-363.69c3.96973 -93 31.8701 -134.34 109.9 -134.34c49.2598 0 168.43 22.2002 221.25 33.2197zM188.67 294.05l209.97 0.0107422c-3.86035 100.3 -35.3701 130.76 -106.67 130.76
c-67.29 0 -99.3496 -31.1504 -103.3 -130.771z" />
    <glyph glyph-name="edotaccent" unicode="&#x117;" horiz-adv-x="579" 
d="M252.18 590.35v90.79h101.91v-90.79h-101.91zM519.84 108.38l15.9902 -84.3496c-80.0801 -16.0898 -167 -34.04 -238.68 -34.04c-208.7 1 -262.26 109.28 -262.26 260c0 190.54 99.7803 259.4 257.09 259.4c169.38 0 260.399 -76.6904 260.399 -242.421v-57.4697h-363.69
c3.96973 -93 31.8701 -134.34 109.9 -134.34c49.2598 0 168.43 22.2002 221.25 33.2197zM188.68 294.05l209.97 0.0107422c-3.86035 100.3 -35.3701 130.76 -106.67 130.76c-67.29 0 -99.3496 -31.1504 -103.3 -130.771z" />
    <glyph glyph-name="edotbelow" unicode="&#x1eb9;" horiz-adv-x="579" 
d="M519.84 108.39l15.9902 -84.3496c-80.0801 -16.0898 -167 -34.04 -238.68 -34.04c-208.7 1 -262.26 109.28 -262.26 260c0 190.54 99.7803 259.4 257.09 259.4c169.38 0 260.399 -76.6904 260.399 -242.421v-57.4697h-363.69c3.96973 -93 31.8701 -134.34 109.9 -134.34
c49.2598 0 168.43 22.2002 221.25 33.2197zM188.68 294.06l209.97 0.0107422c-3.86035 100.3 -35.3701 130.76 -106.67 130.76c-67.29 0 -99.3496 -31.1504 -103.3 -130.771zM237.59 -72h101.91v-90h-101.91v90z" />
    <glyph glyph-name="egrave" unicode="&#xe8;" horiz-adv-x="579" 
d="M175.2 714.15h135.479l146.36 -135.96h-118.76zM519.83 108.391l15.9902 -84.3496c-80.0801 -16.0898 -167 -34.04 -238.68 -34.04c-208.7 1 -262.26 109.28 -262.26 260c0 190.54 99.7803 259.4 257.09 259.4c169.38 0 260.399 -76.6904 260.399 -242.421v-57.4697
h-363.69c3.96973 -93 31.8701 -134.34 109.9 -134.34c49.2598 0 168.43 22.2002 221.25 33.2197zM188.67 294.061l209.97 0.0107422c-3.86035 100.3 -35.3701 130.76 -106.67 130.76c-67.29 0 -99.3496 -31.1504 -103.3 -130.771z" />
    <glyph glyph-name="ehookabove" unicode="&#x1ebb;" horiz-adv-x="579" 
d="M218.01 674.49l-6.66992 38.2881c19.9004 5.33008 44.6904 7.90039 56.54 7.90039c72.4805 0 92.1504 -24.9297 92.1504 -74.5996c0 -36.0801 -14.6504 -57.8896 -49.1504 -63.9092v-39.0801h-59.9004v79.9102h18.6504c16.7002 0 26.0801 2.20996 26.0801 23.0703
c0 23.0898 -2.42969 28.7402 -25.96 29.2998c-7.84961 0 0.5 0 -51.7402 -0.879883zM519.84 108.408l15.9902 -84.3496c-80.0801 -16.0898 -167 -34.04 -238.68 -34.04c-208.7 1 -262.26 109.28 -262.26 260c0 190.54 99.7803 259.4 257.09 259.4
c169.38 0 260.399 -76.6904 260.399 -242.421v-57.4697h-363.69c3.96973 -93 31.8701 -134.34 109.9 -134.34c49.2598 0 168.43 22.2002 221.25 33.2197zM188.68 294.078l209.97 0.0107422c-3.86035 100.3 -35.3701 130.76 -106.67 130.76
c-67.29 0 -99.3496 -31.1504 -103.3 -130.771z" />
    <glyph glyph-name="emacron" unicode="&#x113;" horiz-adv-x="579" 
d="M488.28 609.92h-370.29v69.9102h370.29v-69.9102zM519.83 108.39l15.9902 -84.3496c-80.0801 -16.0898 -167 -34.04 -238.68 -34.04c-208.7 1 -262.26 109.28 -262.26 260c0 190.54 99.7803 259.4 257.09 259.4c169.38 0 260.399 -76.6904 260.399 -242.421v-57.4697
h-363.69c3.96973 -93 31.8701 -134.34 109.9 -134.34c49.2598 0 168.43 22.2002 221.25 33.2197zM188.67 294.06l209.97 0.0107422c-3.86035 100.3 -35.3701 130.76 -106.67 130.76c-67.29 0 -99.3496 -31.1504 -103.3 -130.771z" />
    <glyph glyph-name="eng" unicode="&#x14b;" horiz-adv-x="610" 
d="M53.5801 0l-0.0185547 459.148c84.6904 32.21 162.62 50.7295 251.38 50.7295c189.26 0 258.859 -88.1396 258.859 -249.56v-266.31c0 -154 -81.0303 -176 -172.65 -176c-31.4004 0 -72.6309 5 -135.821 25l23.9697 80l37.8799 -10
c10.3896 -3.16992 31.04 -9.47949 45.0703 -9.47949c3.67969 0 6.91016 0.429688 9.37988 1.46973c29.9502 4 39.9404 24 39.9209 89v266.29c0 123.87 -28.7305 165.021 -106.58 165.021c-38.5596 0 -75.0693 -8.08008 -101.359 -14.9697v-410.34h-150.03z" />
    <glyph glyph-name="eogonek" unicode="&#x119;" horiz-adv-x="579" 
d="M552.38 266.98l-0.0078125 -57.4707h-363.69c3.96973 -93 31.8701 -134.34 109.9 -134.34c49.2598 0 168.43 22.2002 221.25 33.2197l15.9902 -84.3398c-70.3096 -14.1602 -147.47 -30.0498 -213.7 -33.0498c-19.2197 -17.6602 -29.2598 -39.6504 -29.2598 -59.6006
c0 -7.16016 1.29004 -14.0605 3.91992 -20.4004c5.92969 -14.4297 24.1895 -25.2197 51.9795 -25.2197c10.7197 0 22.8496 1.59961 36.2393 5.21973l10.9697 -48c-29.54 -9.5498 -55.7598 -13.7295 -78.3896 -13.7295c-48.4502 0 -80.4697 19.1504 -93.4502 45.7305
c-5.21973 11.2305 -7.62012 22.6709 -7.62012 33.9404c0 31.8604 19.1602 62.3701 47.75 83.0498c-181.5 10.9404 -229.37 115.061 -229.37 258.011c0 190.54 99.7803 259.4 257.09 259.4c169.38 0 260.399 -76.6904 260.399 -242.421zM188.682 294.069l209.97 0.0107422
c-3.86035 100.3 -35.3701 130.76 -106.67 130.76c-67.29 0 -99.3496 -31.1504 -103.3 -130.771z" />
    <glyph glyph-name="eth" unicode="&#xf0;" horiz-adv-x="701" 
d="M504.15 660.32l79.999 62.0381l34.8604 -44.9902l-65.6602 -50.7305c58.5195 -55.1299 91.6797 -142.41 91.6797 -270.17c0 -239.02 -87.8701 -365.47 -301.76 -365.47c-198.67 0 -290.49 98.6504 -290.49 240.471c0 140.32 93.0303 222.051 283.521 222.051
c62.9805 0 135.83 -23.9199 154.8 -27.7295c-3.5498 55.0596 -15.1602 96.1494 -34.6006 125.76l-76.6699 -59.6299l-34.8604 44.9902l63.1104 49.0195c-21.6201 21.1201 -68.8604 30.7305 -111.78 30.1104c-79.8896 -2.37012 -134.659 -13.9199 -197.709 -28.54
l-13.7695 93.6104c28.4502 8.50977 150.55 28.2295 233.79 28.2295c73.7305 0 136.75 -14.3496 185.54 -49.0195zM491.59 281.618l-0.00195312 49.8291c-23.4297 5.91016 -91.4395 27.3398 -154.789 28.7598c-95.3701 -0.139648 -134.55 -32.0596 -134.55 -128.739
c0 -105.2 41.0303 -147.16 141.011 -147.16c110.68 0 142.92 66.3604 148.33 197.311z" />
    <glyph glyph-name="etilde" unicode="&#x1ebd;" horiz-adv-x="579" 
d="M441.47 704.77l65.5908 -39.5693c-39.5996 -39.8301 -81.5898 -69.1602 -128.64 -69.1602c-73.9004 0 -94.2002 47.9697 -138.74 47.9697c-20.5703 0 -45.1807 -21.8203 -70.7305 -45.0107l-65.1699 45.9199c44.7305 37.2598 86.25 62.3398 136.97 62.3398
c68.9902 0 94.4102 -46.5195 134.23 -46.5195c19.3096 0 47.2197 26.2305 66.4893 44.0303zM519.83 108.4l15.9902 -84.3496c-80.0801 -16.0898 -167 -34.04 -238.68 -34.04c-208.7 1 -262.26 109.28 -262.26 260c0 190.54 99.7803 259.4 257.09 259.4
c169.38 0 260.399 -76.6904 260.399 -242.421v-57.4697h-363.69c3.96973 -93 31.8701 -134.34 109.9 -134.34c49.2598 0 168.43 22.2002 221.25 33.2197zM188.67 294.07l209.97 0.0107422c-3.86035 100.3 -35.3701 130.76 -106.67 130.76
c-67.29 0 -99.3496 -31.1504 -103.3 -130.771z" />
    <glyph glyph-name="f" unicode="f" horiz-adv-x="412" 
d="M110.87 503.05l0.00976562 33.1719c0 124.22 74.3398 163.489 170.77 163.489c38.6201 0 69.9502 -4.58984 134.83 -23.54l-18.0195 -79.46c-41.29 14.0596 -72.3496 17.9893 -89.6895 17.9893c-2.2002 0 -4.18066 -0.0595703 -5.93066 -0.169922
c-26.5996 -0.360352 -41.6094 -8.45996 -41.6094 -70.8203v-40.6602h115.22v-84.5596h-115.22v-418.15h-150.36v418.15h-104.22v84.5596h104.22z" />
    <glyph glyph-name="g" unicode="g" horiz-adv-x="581" 
d="M42.5 -135l26.0811 80.9902c92.79 -22 160.91 -35 215.25 -35c71.6797 0 94.9297 30 95.5498 107.41c-26.1396 -6.15039 -64.21 -14.0801 -101.729 -14.0801c-195.01 0 -242.79 89.6201 -242.79 235.28c0 172.86 59.4805 269.23 306.15 269.23
c58.9102 0 119.8 -4.78027 187.729 -9.78027v-424.73c0 -148.32 -31.3604 -246.32 -243.851 -247.32c-79.8203 0 -166.03 17 -242.391 38zM378.931 103.86l-0.000976562 318.719c-15.7402 0.629883 -34.8701 1.32031 -49.6602 1.32031
c-2.79004 0 -5.42969 -0.0195312 -7.85938 -0.0693359c-120.26 -2.74023 -134.649 -52.5098 -134.649 -182.439c0 -112.09 18.5098 -152.5 90.8994 -152.5c38.1396 0 74.54 8.08008 101.271 14.9697z" />
    <glyph glyph-name="gbreve" unicode="&#x11f;" horiz-adv-x="581" 
d="M343.36 713.17l76.791 0.0107422c0 -60.4004 -42.4805 -124.551 -129.141 -124.551c-88.1904 0 -129.2 64.3799 -129.2 124.54h77.8896c1.86035 -43.6299 27.3008 -55.0801 52.3906 -55.0801c23.7803 0 49.5498 11.4502 51.2695 55.0801zM42.501 -134.989
l26.0811 80.9902c92.79 -22 160.91 -35 215.25 -35c71.6797 0 94.9297 30 95.5498 107.41c-26.1396 -6.15039 -64.21 -14.0801 -101.729 -14.0801c-195.01 0 -242.79 89.6201 -242.79 235.28c0 172.86 59.4805 269.23 306.15 269.23
c58.9102 0 119.8 -4.78027 187.729 -9.78027v-424.73c0 -148.32 -31.3604 -246.32 -243.851 -247.32c-79.8203 0 -166.03 17 -242.391 38zM378.932 103.871l-0.000976562 318.719c-15.7402 0.629883 -34.8701 1.32031 -49.6602 1.32031
c-2.79004 0 -5.42969 -0.0195312 -7.85938 -0.0693359c-120.26 -2.74023 -134.649 -52.5098 -134.649 -182.439c0 -112.09 18.5098 -152.5 90.8994 -152.5c38.1396 0 74.54 8.08008 101.271 14.9697z" />
    <glyph glyph-name="gcommaaccent" unicode="&#x123;" horiz-adv-x="581" 
d="M416.01 749.13l-48.8496 -206.09h-157.86l61.9102 206.09h144.8zM42.5 -134.99l26.0811 80.9902c92.79 -22 160.91 -35 215.25 -35c71.6797 0 94.9297 30 95.5498 107.41c-26.1396 -6.15039 -64.21 -14.0801 -101.729 -14.0801c-195.01 0 -242.79 89.6201 -242.79 235.28
c0 172.86 59.4805 269.23 306.15 269.23c58.9102 0 119.8 -4.78027 187.729 -9.78027v-424.73c0 -148.32 -31.3604 -246.32 -243.851 -247.32c-79.8203 0 -166.03 17 -242.391 38zM378.931 103.87l-0.000976562 318.719
c-15.7402 0.629883 -34.8701 1.32031 -49.6602 1.32031c-2.79004 0 -5.42969 -0.0195312 -7.85938 -0.0693359c-120.26 -2.74023 -134.649 -52.5098 -134.649 -182.439c0 -112.09 18.5098 -152.5 90.8994 -152.5c38.1396 0 74.54 8.08008 101.271 14.9697z" />
    <glyph glyph-name="gdotaccent" unicode="&#x121;" horiz-adv-x="581" 
d="M240.06 590.35v90.79h101.91v-90.79h-101.91zM42.5098 -135l26.0811 80.9902c92.79 -22 160.91 -35 215.25 -35c71.6797 0 94.9297 30 95.5498 107.41c-26.1396 -6.15039 -64.21 -14.0801 -101.729 -14.0801c-195.01 0 -242.79 89.6201 -242.79 235.28
c0 172.86 59.4805 269.23 306.15 269.23c58.9102 0 119.8 -4.78027 187.729 -9.78027v-424.73c0 -148.32 -31.3604 -246.32 -243.851 -247.32c-79.8203 0 -166.03 17 -242.391 38zM378.94 103.86l-0.000976562 318.719c-15.7402 0.629883 -34.8701 1.32031 -49.6602 1.32031
c-2.79004 0 -5.42969 -0.0195312 -7.85938 -0.0693359c-120.26 -2.74023 -134.649 -52.5098 -134.649 -182.439c0 -112.09 18.5098 -152.5 90.8994 -152.5c38.1396 0 74.54 8.08008 101.271 14.9697z" />
    <glyph glyph-name="germandbls" unicode="&#xdf;" horiz-adv-x="636" 
d="M69.8301 0.549805l0.000976562 527.271c0 119.31 94.1504 178.859 213.851 178.859c199.45 0 279.65 -60.1201 279.65 -178.86c0 -62.3799 -27.9697 -107.89 -86.1602 -137.39c70.9502 -30.0195 113.16 -84.1299 113.16 -197.28
c0 -171.7 -105.92 -208.17 -308.03 -199.17v86.3496c123.06 0 154.54 37.1904 154.54 111.91c0 94.8203 -29.25 146.431 -154.54 146.431v90.29c104.52 1.12012 126.489 33.3701 126.489 97.96c0 68.6104 -21.8604 91.6299 -112.83 91.6299
c-44.9805 0 -72.6309 -27.1797 -72.6309 -91.6299v-526.37h-153.5z" />
    <glyph glyph-name="h" unicode="h" horiz-adv-x="597" 
d="M208.53 699.72l-0.000976562 -201.65c25.6904 6.11035 63.04 13.8701 101.41 13.8701c195.83 0 242.79 -88.54 242.79 -249.57v-261.18h-152.28v261.16c0 126.3 -17.8301 165.02 -90.5098 165.02c-38.5596 0 -75.0693 -8.08008 -101.359 -14.9697v-411.21h-150.01v698.53
h149.96z" />
    <glyph glyph-name="hbar" unicode="&#x127;" horiz-adv-x="634" 
d="M95.8096 699.72h149.989v-59.0195h124.11v-64.46h-124.15v-78.1699c25.6904 6.11035 63.04 13.8701 101.41 13.8701c195.83 0 242.79 -88.54 242.79 -249.57v-261.18h-152.28v261.16c0 126.3 -17.8301 165.02 -90.5098 165.02
c-38.5596 0 -75.0693 -8.08008 -101.35 -14.9697v-411.21h-150.27v575.05h-90.5498v64.46h90.8096v59.0195z" />
    <glyph glyph-name="i" unicode="i" horiz-adv-x="254" 
d="M57.0996 576.11v105.11h150.08v-105.11h-150.08zM57.0996 0.000976562v500h150.08v-500h-150.08z" />
    <glyph glyph-name="iacute" unicode="&#xed;" horiz-adv-x="292" 
d="M8.76953 577.29l146.449 135.96h135.48l-163.08 -135.96h-118.85zM69.1387 0v500h148.54v-500h-148.54z" />
    <glyph glyph-name="icaron" unicode="&#x1d0;" horiz-adv-x="253" 
d="M168.75 578.74h-63.54l-167.22 152.98h120.31l79.6504 -73.3203l78.7598 73.3203h120.29zM57.0898 0v500h148.54v-500h-148.54z" />
    <glyph glyph-name="icircumflex" unicode="&#xee;" horiz-adv-x="355" 
d="M-18 561.17l166.72 152.98h63.5303l168.26 -152.98h-120.29l-78.7598 73.3203l-79.6504 -73.3203h-119.81zM100.899 0v500h148.54v-500h-148.54z" />
    <glyph glyph-name="idieresis" unicode="&#xef;" horiz-adv-x="284" 
d="M0 590.35v90.79h101.91v-90.79h-101.91zM182.83 590.35v90.79h101.91v-90.79h-101.91zM63.5605 -0v500h148.54v-500h-148.54z" />
    <glyph glyph-name="idotbelow" unicode="&#x1ecb;" horiz-adv-x="254" 
d="M57.0996 576.11v105.11h150.08v-105.11h-150.08zM57.0996 0.000976562v500h150.08v-500h-150.08zM79.5098 -71.999h101.91v-90h-101.91v90z" />
    <glyph glyph-name="igrave" unicode="&#xec;" horiz-adv-x="292" 
d="M8.76953 714.15h135.489l146.36 -135.96h-118.77zM57.8984 0v500h148.54v-500h-148.54z" />
    <glyph glyph-name="ihookabove" unicode="&#x1ec9;" horiz-adv-x="275" 
d="M68.9297 674.49l-6.69043 38.2881c19.9004 5.33008 44.6904 7.90039 56.54 7.90039c72.4805 0 92.1602 -24.9297 92.1602 -74.5996c0 -36.0801 -14.6504 -57.8896 -49.1504 -63.9092v-39.0801h-59.8896v79.9102h18.6504c16.7002 0 26.0801 2.20996 26.0801 23.0703
c0 23.0898 -2.42969 28.7402 -25.96 29.2998c-7.84961 0 0.5 0 -51.7402 -0.879883zM57.0889 0.0185547v500h148.54v-500h-148.54z" />
    <glyph glyph-name="ij" unicode="&#x133;" horiz-adv-x="516" 
d="M57.0996 576.11v105.11h150.08v-105.11h-150.08zM314.79 679.871h150.36v-105.11h-150.36v105.11zM314.891 500.062l150.352 0.00976562v-497.85c0 -153.21 -79.1504 -175.21 -170.771 -175.21c-31.4004 0 -72.6309 5 -135.821 25l23.9697 80l37.8896 -10
c10.3896 -3.16992 31.04 -9.47949 45.0703 -9.47949c3.67969 0 6.91016 0.429688 9.37988 1.46973c29.9502 4 40.4902 24 39.9307 88.21v497.85zM57.0918 0.0117188v500h150.08v-500h-150.08z" />
    <glyph glyph-name="imacron" unicode="&#x12b;" horiz-adv-x="253" 
d="M321.06 609.92h-370.06v69.9102h370.06v-69.9102zM57.0996 -0v500h148.54v-500h-148.54z" />
    <glyph glyph-name="iogonek" unicode="&#x12f;" horiz-adv-x="253" 
d="M56.5498 681.14h150.08v-90.79h-150.08v90.79zM57.0996 500l148.54 -0.00195312v-500h-98.8701c-39.4697 -17.3799 -58.79 -49.7295 -58.79 -78.3291c0 -7.61035 1.37012 -14.9502 4.08984 -21.6699c5.84961 -14.2402 23.6895 -24.4199 50.8398 -24.4199
c10.9902 0 23.5098 1.66992 37.3799 5.41992l10.9697 -49c-29.4297 -9.51953 -55.6094 -13.6992 -78.249 -13.6992c-48.7305 0 -81.04 19.3896 -94.0098 46.6992c-5.23047 11.0703 -7.63086 22.3506 -7.63086 33.4609c0 44.0801 37.7305 85.5703 85.7305 101.54v500z" />
    <glyph glyph-name="itilde" unicode="&#x129;" horiz-adv-x="253" 
d="M274.26 704.77l65.5703 -39.5693c-39.5996 -39.8301 -81.5898 -69.1602 -128.64 -69.1602c-73.9004 0 -94.1904 47.9697 -138.73 47.9697c-20.5703 0 -45.1807 -21.8203 -70.7305 -45.0107l-64.7402 45.9199c44 37.2598 85.8203 62.3398 136.551 62.3398
c68.9902 0 94.4102 -46.5195 134.23 -46.5195c19.3096 0 47.2197 26.2305 66.4893 44.0303zM57.0898 0.00976562v500h148.54v-500h-148.54z" />
    <glyph glyph-name="j" unicode="j" horiz-adv-x="262" 
d="M60.4297 679.87h150.36v-105.11h-150.36v105.11zM60.5303 500.061l150.36 0.00976562v-497.85c0 -153.21 -79.1504 -175.21 -170.771 -175.21c-31.4004 0 -73.1201 5 -136.12 25l24 80l38 -10c10.2998 -3.16992 31.0898 -9.47949 45.1895 -9.47949
c3.7002 0 6.94043 0.429688 9.41016 1.46973c29.9502 4 40.4902 24 39.9307 88.21v497.85z" />
    <glyph glyph-name="k" unicode="k" horiz-adv-x="600" 
d="M204.4 0.269531l-150.069 -0.000976562v699.73h150.08v-359.74h46.8496l168.06 159.74h169.59l-241.57 -228.22l236.82 -271.51h-165.27l-167.55 196.82h-46.9404v-196.82z" />
    <glyph glyph-name="kcommaaccent" unicode="&#x137;" horiz-adv-x="600" 
d="M204.4 0.269531l-150.069 -0.000976562v699.73h150.08v-359.74h46.8496l168.06 159.74h169.59l-241.57 -228.22l236.82 -271.51h-165.27l-167.55 196.82h-46.9404v-196.82zM203.601 -250.001l48.8496 206h157.86l-61.9102 -206h-144.8z" />
    <glyph glyph-name="l" unicode="l" horiz-adv-x="251" 
d="M57.0996 0v700.06h150.08v-700.06h-150.08z" />
    <glyph glyph-name="lacute" unicode="&#x13a;" horiz-adv-x="251" 
d="M-13 718.12l146.279 135.96h135.48l-163.08 -135.96h-118.68zM57.0996 0v700.06h150.08v-700.06h-150.08z" />
    <glyph glyph-name="lcaron" unicode="&#x13e;" horiz-adv-x="451" 
d="M57.0996 0v700.06h150.08v-700.06h-150.08zM232.75 458.47l58.7207 240.36h155.75l-71.9404 -240.36h-142.53z" />
    <glyph glyph-name="lcommaaccent" unicode="&#x13c;" horiz-adv-x="251" 
d="M57.0996 0v700.06h150.08v-700.06h-150.08zM-1 -250l48.54 207h157.86l-61.9102 -207h-144.49z" />
    <glyph glyph-name="ldot" unicode="&#x140;" horiz-adv-x="423" 
d="M57.0996 0v700.06h150.08v-700.06h-150.08zM252.14 238.949v130.33h155.58v-130.33h-155.58z" />
    <glyph glyph-name="lslash" unicode="&#x142;" horiz-adv-x="352" 
d="M27 198.3v121.11l78 50.1396v343.7h146.58v-254.9l81 52.2598v-122.05l-81 -51.9902v-334.74h-146.58v245.98z" />
    <glyph glyph-name="m" unicode="m" horiz-adv-x="933" 
d="M52.0996 0l-0.00976562 460.152c89.1699 36.1299 171.02 51.0098 251.43 51.0098c61.9697 0 113.229 -11.4805 147.55 -32.7109c73.5098 24.54 131.97 32.71 194.91 32.71c195.83 0 242.79 -88.54 242.79 -249.57v-261.59h-152.28v261.57
c0 126.3 -17.8301 165.02 -90.5098 165.02c-43.9697 0 -77.4102 -5.98047 -122.86 -20.4502c17.54 -38.4102 23.1904 -85.5498 23.1904 -144.55v-261.59h-152.28v261.57c0 126.3 -17.8301 165.02 -90.5098 165.02c-38.5703 0 -75.0898 -8.08008 -101.34 -14.9805v-411.61
h-150.08z" />
    <glyph glyph-name="n" unicode="n" horiz-adv-x="611" 
d="M53.5801 0l0.0107422 459.139c84.6904 32.21 162.62 50.7295 251.38 50.7295c189.26 0 258.859 -88.1396 258.859 -249.56v-260.31h-152.28v260.29c0 123.87 -28.7305 165.021 -106.58 165.021c-38.5596 0 -75.0693 -8.08008 -101.359 -14.9697v-410.34h-150.03z" />
    <glyph glyph-name="nacute" unicode="&#x144;" horiz-adv-x="611" 
d="M174.21 576.17l146.449 135.96h135.48l-163.08 -135.96h-118.85zM53.5791 -0l0.0107422 459.139c84.6904 32.21 162.62 50.7295 251.38 50.7295c189.26 0 258.859 -88.1396 258.859 -249.56v-260.31h-152.28v260.29c0 123.87 -28.7305 165.021 -106.58 165.021
c-38.5596 0 -75.0693 -8.08008 -101.359 -14.9697v-410.34h-150.03z" />
    <glyph glyph-name="ncaron" unicode="&#x148;" horiz-adv-x="611" 
d="M346.22 578.74h-63.5303l-166.87 152.98h119.96l79.6504 -73.3203l78.7598 73.3203h120.29zM53.5791 0l0.0107422 459.139c84.6904 32.21 162.62 50.7295 251.38 50.7295c189.26 0 258.859 -88.1396 258.859 -249.56v-260.31h-152.28v260.29
c0 123.87 -28.7305 165.021 -106.58 165.021c-38.5596 0 -75.0693 -8.08008 -101.359 -14.9697v-410.34h-150.03z" />
    <glyph glyph-name="ncommaaccent" unicode="&#x146;" horiz-adv-x="611" 
d="M53.5801 0l0.0107422 459.139c84.6904 32.21 162.62 50.7295 251.38 50.7295c189.26 0 258.859 -88.1396 258.859 -249.56v-260.31h-152.28v260.29c0 123.87 -28.7305 165.021 -106.58 165.021c-38.5596 0 -75.0693 -8.08008 -101.359 -14.9697v-410.34h-150.03z
M194.641 -250.001l48.8496 206h157.86l-61.9102 -206h-144.8z" />
    <glyph glyph-name="ntilde" unicode="&#xf1;" horiz-adv-x="611" 
d="M451.73 704.63l65.5801 -39.5791c-39.5996 -39.8203 -81.5898 -69.1504 -128.64 -69.1504c-73.9004 0 -94.2002 47.9697 -138.74 47.9697c-20.5703 0 -45.1807 -21.8203 -70.7305 -45.0107l-65.1699 45.9199c44.7305 37.2598 86.25 62.3398 136.98 62.3398
c68.9902 0 94.4102 -46.5195 134.23 -46.5195c19.3096 0 47.2197 26.2305 66.4893 44.0303zM53.5703 0.000976562l0.0107422 459.139c84.6904 32.21 162.62 50.7295 251.38 50.7295c189.26 0 258.859 -88.1396 258.859 -249.56v-260.31h-152.28v260.29
c0 123.87 -28.7305 165.021 -106.58 165.021c-38.5596 0 -75.0693 -8.08008 -101.359 -14.9697v-410.34h-150.03z" />
    <glyph glyph-name="o" unicode="o" horiz-adv-x="603" 
d="M304.19 509.4c166.27 0 264.891 -76.999 264.891 -251.339c0 -173.57 -54.2402 -267.051 -264.891 -267.051c-208.17 0 -269.29 81.7803 -269.29 268.83c0 176.51 87.5703 249.56 269.29 249.56zM304.191 75.1807c97.2402 0 114.61 46.1797 114.61 182.87
c0 127.83 -44.5195 166.79 -114.609 166.79c-88.5303 0 -119.011 -28.7305 -119.011 -165c0 -145.59 20.2002 -184.66 119.01 -184.66z" />
    <glyph glyph-name="oacute" unicode="&#xf3;" horiz-adv-x="597" 
d="M160.01 577.84l146.449 135.96h135.48l-163.08 -135.96h-118.85zM301.389 509.39c166.27 0 264.891 -76.999 264.891 -251.339c0 -173.57 -54.2402 -267.051 -264.891 -267.051c-208.17 0 -269.29 81.7803 -269.29 268.83c0 176.51 87.5703 249.56 269.29 249.56z
M301.39 75.1699c97.2402 0 114.61 46.1797 114.61 182.87c0 127.83 -44.5195 166.79 -114.609 166.79c-88.5303 0 -119.011 -28.7305 -119.011 -165c0 -145.59 20.2002 -184.66 119.01 -184.66z" />
    <glyph glyph-name="ocaron" unicode="&#x1d2;" horiz-adv-x="603" 
d="M334.82 578.74h-63.5303l-166.87 152.98h119.96l79.6504 -73.3203l78.7598 73.3203h120.29zM304.19 509.4c166.27 0 264.891 -76.999 264.891 -251.339c0 -173.57 -54.2402 -267.051 -264.891 -267.051c-208.17 0 -269.29 81.7803 -269.29 268.83
c0 176.51 87.5703 249.56 269.29 249.56zM304.191 75.1807c97.2402 0 114.61 46.1797 114.61 182.87c0 127.83 -44.5195 166.79 -114.609 166.79c-88.5303 0 -119.011 -28.7305 -119.011 -165c0 -145.59 20.2002 -184.66 119.01 -184.66z" />
    <glyph glyph-name="ocircumflex" unicode="&#xf4;" horiz-adv-x="597" 
d="M101.34 561.17l166.87 152.98h63.5303l168.26 -152.98h-120.29l-78.7598 73.3203l-79.6504 -73.3203h-119.96zM301.4 509.4c166.27 0 264.891 -76.999 264.891 -251.339c0 -173.57 -54.2402 -267.051 -264.891 -267.051c-208.17 0 -269.29 81.7803 -269.29 268.83
c0 176.51 87.5703 249.56 269.29 249.56zM301.401 75.1807c97.2402 0 114.61 46.1797 114.61 182.87c0 127.83 -44.5195 166.79 -114.609 166.79c-88.5303 0 -119.011 -28.7305 -119.011 -165c0 -145.59 20.2002 -184.66 119.01 -184.66z" />
    <glyph glyph-name="ocircumflexacute" unicode="&#x1ed1;" horiz-adv-x="603" 
d="M403.04 694.07l146.449 135.96h135.48l-163.08 -135.96h-118.85zM103.959 578.49l166.87 152.98h63.5303l168.26 -152.98h-120.29l-78.7598 73.3203l-79.6504 -73.3203h-119.96zM304.179 509.4c166.27 0 264.891 -76.999 264.891 -251.339
c0 -173.57 -54.2402 -267.051 -264.891 -267.051c-208.17 0 -269.29 81.7803 -269.29 268.83c0 176.51 87.5703 249.56 269.29 249.56zM304.18 75.1807c97.2402 0 114.61 46.1797 114.61 182.87c0 127.83 -44.5195 166.79 -114.609 166.79
c-88.5303 0 -119.011 -28.7305 -119.011 -165c0 -145.59 20.2002 -184.66 119.01 -184.66z" />
    <glyph glyph-name="ocircumflexdotbelow" unicode="&#x1ed9;" horiz-adv-x="603" 
d="M104.13 578.16l166.87 152.98h63.5303l168.26 -152.98h-120.29l-78.7598 73.3203l-79.6504 -73.3203h-119.96zM304.19 509.4c166.27 0 264.891 -76.999 264.891 -251.339c0 -173.57 -54.2402 -267.051 -264.891 -267.051c-208.17 0 -269.29 81.7803 -269.29 268.83
c0 176.51 87.5703 249.56 269.29 249.56zM304.191 75.1807c97.2402 0 114.61 46.1797 114.61 182.87c0 127.83 -44.5195 166.79 -114.609 166.79c-88.5303 0 -119.011 -28.7305 -119.011 -165c0 -145.59 20.2002 -184.66 119.01 -184.66zM250.911 -71.9893h101.91v-90
h-101.91v90z" />
    <glyph glyph-name="ocircumflexgrave" unicode="&#x1ed3;" horiz-adv-x="603" 
d="M253.66 835.44h135.479l146.36 -135.96h-118.76zM105.42 578.171l166.87 152.98h63.5303l168.26 -152.98h-120.29l-78.7598 73.3203l-79.6504 -73.3203h-119.96zM304.18 509.411c166.27 0 264.891 -76.999 264.891 -251.339
c0 -173.57 -54.2402 -267.051 -264.891 -267.051c-208.17 0 -269.29 81.7803 -269.29 268.83c0 176.51 87.5703 249.56 269.29 249.56zM304.181 75.1914c97.2402 0 114.61 46.1797 114.61 182.87c0 127.83 -44.5195 166.79 -114.609 166.79
c-88.5303 0 -119.011 -28.7305 -119.011 -165c0 -145.59 20.2002 -184.66 119.01 -184.66z" />
    <glyph glyph-name="ocircumflexhookabove" unicode="&#x1ed5;" horiz-adv-x="603" 
d="M369.36 831.28l-6.68945 38.2686c19.9004 5.33008 44.7002 7.90039 56.5498 7.90039c72.4805 0 92.1602 -24.9297 92.1602 -74.5996c0 -36.0703 -14.6504 -57.8799 -49.1504 -63.8994v-39.0801h-59.9004v79.9102h18.6504c16.7002 0 26.0801 2.20996 26.0801 23.0703
c0 23.0996 -2.42969 28.75 -25.96 29.3096c-7.84961 0 0.5 0 -51.7402 -0.879883zM104.961 578.159l166.88 152.98h63.5303l168.25 -152.98h-120.29l-78.7598 73.3203l-79.6504 -73.3203h-119.96zM304.171 509.399c166.27 0 264.891 -76.999 264.891 -251.339
c0 -173.57 -54.2402 -267.051 -264.891 -267.051c-208.17 0 -269.29 81.7803 -269.29 268.83c0 176.51 87.5703 249.56 269.29 249.56zM304.172 75.1797c97.2402 0 114.61 46.1797 114.61 182.87c0 127.83 -44.5195 166.79 -114.609 166.79
c-88.5303 0 -119.011 -28.7305 -119.011 -165c0 -145.59 20.2002 -184.66 119.01 -184.66z" />
    <glyph glyph-name="ocircumflextilde" unicode="&#x1ed7;" horiz-adv-x="603" 
d="M440.51 859.37l65.5703 -39.5791c-39.5996 -39.8203 -81.5898 -69.1504 -128.64 -69.1504c-73.9004 0 -94.1904 47.9697 -138.73 47.9697c-20.5703 0 -45.1807 -21.8203 -70.7305 -45.0107l-65.1699 45.9199c44.7305 37.2598 86.25 62.3398 136.98 62.3398
c68.9902 0 94.4102 -46.5195 134.23 -46.5195c19.3096 0 47.2197 26.2305 66.4893 44.0303zM104.29 578.161l166.87 152.98h63.5303l168.26 -152.98h-120.29l-78.7598 73.3203l-79.6504 -73.3203h-119.96zM304.16 509.401c166.27 0 264.891 -76.999 264.891 -251.339
c0 -173.57 -54.2402 -267.051 -264.891 -267.051c-208.17 0 -269.29 81.7803 -269.29 268.83c0 176.51 87.5703 249.56 269.29 249.56zM304.161 75.1816c97.2402 0 114.61 46.1797 114.61 182.87c0 127.83 -44.5195 166.79 -114.609 166.79
c-88.5303 0 -119.011 -28.7305 -119.011 -165c0 -145.59 20.2002 -184.66 119.01 -184.66z" />
    <glyph glyph-name="odieresis" unicode="&#xf6;" horiz-adv-x="597" 
d="M156.83 590.35v90.79h101.91v-90.79h-101.91zM339.66 590.35v90.79h101.91v-90.79h-101.91zM301.4 509.399c166.27 0 264.891 -76.999 264.891 -251.339c0 -173.57 -54.2402 -267.051 -264.891 -267.051c-208.17 0 -269.29 81.7803 -269.29 268.83
c0 176.51 87.5703 249.56 269.29 249.56zM301.401 75.1797c97.2402 0 114.61 46.1797 114.61 182.87c0 127.83 -44.5195 166.79 -114.609 166.79c-88.5303 0 -119.011 -28.7305 -119.011 -165c0 -145.59 20.2002 -184.66 119.01 -184.66z" />
    <glyph glyph-name="odotbelow" unicode="&#x1ecd;" horiz-adv-x="603" 
d="M304.19 509.4c166.27 0 264.891 -76.999 264.891 -251.339c0 -173.57 -54.2402 -267.051 -264.891 -267.051c-208.17 0 -269.29 81.7803 -269.29 268.83c0 176.51 87.5703 249.56 269.29 249.56zM304.191 75.1807c97.2402 0 114.61 46.1797 114.61 182.87
c0 127.83 -44.5195 166.79 -114.609 166.79c-88.5303 0 -119.011 -28.7305 -119.011 -165c0 -145.59 20.2002 -184.66 119.01 -184.66zM250.911 -71.9893h101.91v-90h-101.91v90z" />
    <glyph glyph-name="oe" unicode="&#x153;" horiz-adv-x="956" 
d="M933.58 266.98l-0.00878906 -57.4688h-363.69c3.96973 -93 31.8701 -134.34 109.91 -134.34c49.2598 0 168.43 22.2002 221.25 33.2197l15.9902 -84.3398c-80.0801 -16.0898 -167 -34.04 -238.68 -34.04c-92.1602 1 -150.75 25.9502 -187.53 70.5098
c-37.0801 -47.0498 -97.1104 -69.5098 -193.101 -69.5098c-208.17 0 -269.29 81.7803 -269.29 268.83c0 176.51 87.5703 249.56 269.29 249.56c84.2305 0 149.051 -22.4102 190.251 -74.4297c40.7695 54.0098 104.569 74.4297 185.209 74.4297
c169.38 0 260.399 -76.6904 260.399 -242.421zM297.722 75.1816c97.2402 0 114.61 46.1797 114.61 182.87c0 127.83 -44.5195 166.79 -114.609 166.79c-88.5303 0 -119.011 -28.7305 -119.011 -165c0 -145.59 20.2002 -184.66 119.01 -184.66zM569.882 294.082
l209.949 0.0107422c-3.84961 100.3 -35.3594 130.76 -106.649 130.76c-67.29 0 -99.3496 -31.1504 -103.3 -130.771z" />
    <glyph glyph-name="ograve" unicode="&#xf2;" horiz-adv-x="597" 
d="M171.26 714.15h135.479l146.36 -135.96h-118.76zM301.39 509.4c166.27 0 264.891 -76.999 264.891 -251.339c0 -173.57 -54.2402 -267.051 -264.891 -267.051c-208.17 0 -269.29 81.7803 -269.29 268.83c0 176.51 87.5703 249.56 269.29 249.56zM301.391 75.1807
c97.2402 0 114.61 46.1797 114.61 182.87c0 127.83 -44.5195 166.79 -114.609 166.79c-88.5303 0 -119.011 -28.7305 -119.011 -165c0 -145.59 20.2002 -184.66 119.01 -184.66z" />
    <glyph glyph-name="ohookabove" unicode="&#x1ecf;" horiz-adv-x="603" 
d="M242.13 674.49l-6.66992 38.2881c19.9004 5.33008 44.6904 7.90039 56.54 7.90039c72.4805 0 92.1504 -24.9297 92.1504 -74.5996c0 -36.0801 -14.6504 -57.8896 -49.1504 -63.9092v-39.0801h-59.9004v79.9102h18.6504c16.7002 0 26.0801 2.20996 26.0801 23.0703
c0 23.0898 -2.42969 28.7402 -25.96 29.2998c-7.84961 0 0.5 0 -51.7402 -0.879883zM304.19 509.418c166.27 0 264.891 -76.999 264.891 -251.339c0 -173.57 -54.2402 -267.051 -264.891 -267.051c-208.17 0 -269.29 81.7803 -269.29 268.83
c0 176.51 87.5703 249.56 269.29 249.56zM304.191 75.1982c97.2402 0 114.61 46.1797 114.61 182.87c0 127.83 -44.5195 166.79 -114.609 166.79c-88.5303 0 -119.011 -28.7305 -119.011 -165c0 -145.59 20.2002 -184.66 119.01 -184.66z" />
    <glyph glyph-name="ohorn" unicode="&#x1a1;" horiz-adv-x="603" 
d="M563.73 537.85l48.7393 10.9932c9.51953 -29.4805 13.6992 -55.6504 13.6992 -78.25c0 -48.5303 -19.2695 -80.6006 -46.3496 -93.6006c-8.42969 -3.67969 -17.0801 -5.33984 -25.54 -5.33984c-1.00977 0 -2.01953 0.0195312 -3.0293 0.0693359
c11.7197 -31.29 17.8096 -68.96 17.8096 -113.66c0 -173.57 -54.2402 -267.051 -264.891 -267.051c-208.17 0 -269.29 81.7803 -269.29 268.83c0 176.51 87.5703 249.56 269.29 249.56c84.1904 0 150.841 -20.0303 196.061 -63.5205
c5.45996 -1.11035 10.9102 -1.64062 16.2402 -1.64062c10.0498 0 19.6699 1.88965 28.1602 5.38965c14.1104 5.87012 24.5107 23.8203 24.5107 51.1406c0 10.9199 -1.66016 23.3398 -5.41016 37.0801zM304.17 75.1924c97.2402 0 114.61 46.1797 114.61 182.87
c0 127.83 -44.5195 166.79 -114.609 166.79c-88.5303 0 -119.011 -28.7305 -119.011 -165c0 -145.59 20.2002 -184.66 119.01 -184.66z" />
    <glyph glyph-name="ohornacute" unicode="&#x1edb;" horiz-adv-x="603" 
d="M162.8 576.17l146.449 135.96h135.48l-163.08 -135.96h-118.85zM563.729 537.85l48.7393 10.9932c9.51953 -29.4805 13.6992 -55.6504 13.6992 -78.25c0 -48.5303 -19.2695 -80.6006 -46.3496 -93.6006c-8.42969 -3.67969 -17.0801 -5.33984 -25.54 -5.33984
c-1.00977 0 -2.01953 0.0195312 -3.0293 0.0693359c11.7197 -31.29 17.8096 -68.96 17.8096 -113.66c0 -173.57 -54.2402 -267.051 -264.891 -267.051c-208.17 0 -269.29 81.7803 -269.29 268.83c0 176.51 87.5703 249.56 269.29 249.56
c84.1904 0 150.841 -20.0303 196.061 -63.5205c5.45996 -1.11035 10.9102 -1.64062 16.2402 -1.64062c10.0498 0 19.6699 1.88965 28.1602 5.38965c14.1104 5.87012 24.5107 23.8203 24.5107 51.1406c0 10.9199 -1.66016 23.3398 -5.41016 37.0801zM304.169 75.1924
c97.2402 0 114.61 46.1797 114.61 182.87c0 127.83 -44.5195 166.79 -114.609 166.79c-88.5303 0 -119.011 -28.7305 -119.011 -165c0 -145.59 20.2002 -184.66 119.01 -184.66z" />
    <glyph glyph-name="ohorndotbelow" unicode="&#x1ee3;" horiz-adv-x="603" 
d="M563.73 537.85l48.7393 10.9932c9.51953 -29.4805 13.6992 -55.6504 13.6992 -78.25c0 -48.5303 -19.2695 -80.6006 -46.3496 -93.6006c-8.42969 -3.67969 -17.0801 -5.33984 -25.54 -5.33984c-1.00977 0 -2.01953 0.0195312 -3.0293 0.0693359
c11.7197 -31.29 17.8096 -68.96 17.8096 -113.66c0 -173.57 -54.2402 -267.051 -264.891 -267.051c-208.17 0 -269.29 81.7803 -269.29 268.83c0 176.51 87.5703 249.56 269.29 249.56c84.1904 0 150.841 -20.0303 196.061 -63.5205
c5.45996 -1.11035 10.9102 -1.64062 16.2402 -1.64062c10.0498 0 19.6699 1.88965 28.1602 5.38965c14.1104 5.87012 24.5107 23.8203 24.5107 51.1406c0 10.9199 -1.66016 23.3398 -5.41016 37.0801zM304.17 75.1924c97.2402 0 114.61 46.1797 114.61 182.87
c0 127.83 -44.5195 166.79 -114.609 166.79c-88.5303 0 -119.011 -28.7305 -119.011 -165c0 -145.59 20.2002 -184.66 119.01 -184.66zM250.89 -71.9775h101.91v-90h-101.91v90z" />
    <glyph glyph-name="ohorngrave" unicode="&#x1edd;" horiz-adv-x="603" 
d="M174.05 731.72h135.479l146.36 -135.96h-118.76zM563.729 537.85l48.7393 10.9932c9.51953 -29.4805 13.6992 -55.6504 13.6992 -78.25c0 -48.5303 -19.2695 -80.6006 -46.3496 -93.6006c-8.42969 -3.67969 -17.0801 -5.33984 -25.54 -5.33984
c-1.00977 0 -2.01953 0.0195312 -3.0293 0.0693359c11.7197 -31.29 17.8096 -68.96 17.8096 -113.66c0 -173.57 -54.2402 -267.051 -264.891 -267.051c-208.17 0 -269.29 81.7803 -269.29 268.83c0 176.51 87.5703 249.56 269.29 249.56
c84.1904 0 150.841 -20.0303 196.061 -63.5205c5.45996 -1.11035 10.9102 -1.64062 16.2402 -1.64062c10.0498 0 19.6699 1.88965 28.1602 5.38965c14.1104 5.87012 24.5107 23.8203 24.5107 51.1406c0 10.9199 -1.66016 23.3398 -5.41016 37.0801zM304.169 75.1924
c97.2402 0 114.61 46.1797 114.61 182.87c0 127.83 -44.5195 166.79 -114.609 166.79c-88.5303 0 -119.011 -28.7305 -119.011 -165c0 -145.59 20.2002 -184.66 119.01 -184.66z" />
    <glyph glyph-name="ohornhookabove" unicode="&#x1edf;" horiz-adv-x="603" 
d="M242.13 674.49l-6.66992 38.2881c19.9004 5.33008 44.6904 7.90039 56.54 7.90039c72.4805 0 92.1504 -24.9297 92.1504 -74.5996c0 -36.0801 -14.6504 -57.8896 -49.1504 -63.9092v-39.0801h-59.9004v79.9102h18.6504c16.7002 0 26.0801 2.20996 26.0801 23.0703
c0 23.0898 -2.42969 28.7402 -25.96 29.2998c-7.84961 0 0.5 0 -51.7402 -0.879883zM563.729 537.868l48.7393 10.9932c9.51953 -29.4805 13.6992 -55.6504 13.6992 -78.25c0 -48.5303 -19.2695 -80.6006 -46.3496 -93.6006
c-8.42969 -3.67969 -17.0801 -5.33984 -25.54 -5.33984c-1.00977 0 -2.01953 0.0195312 -3.0293 0.0693359c11.7197 -31.29 17.8096 -68.96 17.8096 -113.66c0 -173.57 -54.2402 -267.051 -264.891 -267.051c-208.17 0 -269.29 81.7803 -269.29 268.83
c0 176.51 87.5703 249.56 269.29 249.56c84.1904 0 150.841 -20.0303 196.061 -63.5205c5.45996 -1.11035 10.9102 -1.64062 16.2402 -1.64062c10.0498 0 19.6699 1.88965 28.1602 5.38965c14.1104 5.87012 24.5107 23.8203 24.5107 51.1406
c0 10.9199 -1.66016 23.3398 -5.41016 37.0801zM304.169 75.2109c97.2402 0 114.61 46.1797 114.61 182.87c0 127.83 -44.5195 166.79 -114.609 166.79c-88.5303 0 -119.011 -28.7305 -119.011 -165c0 -145.59 20.2002 -184.66 119.01 -184.66z" />
    <glyph glyph-name="ohorntilde" unicode="&#x1ee1;" horiz-adv-x="603" 
d="M440.32 704.77l65.5908 -39.5693c-39.5996 -39.8301 -81.5898 -69.1602 -128.64 -69.1602c-73.9004 0 -94.2002 47.9697 -138.74 47.9697c-20.5703 0 -45.1807 -21.8203 -70.7305 -45.0107l-65.1699 45.9199c44.7305 37.2598 86.25 62.3398 136.97 62.3398
c68.9902 0 94.4102 -46.5195 134.23 -46.5195c19.3096 0 47.2197 26.2305 66.4893 44.0303zM563.721 537.86l48.7393 10.9932c9.51953 -29.4805 13.6992 -55.6504 13.6992 -78.25c0 -48.5303 -19.2695 -80.6006 -46.3496 -93.6006
c-8.42969 -3.67969 -17.0801 -5.33984 -25.54 -5.33984c-1.00977 0 -2.01953 0.0195312 -3.0293 0.0693359c11.7197 -31.29 17.8096 -68.96 17.8096 -113.66c0 -173.57 -54.2402 -267.051 -264.891 -267.051c-208.17 0 -269.29 81.7803 -269.29 268.83
c0 176.51 87.5703 249.56 269.29 249.56c84.1904 0 150.841 -20.0303 196.061 -63.5205c5.45996 -1.11035 10.9102 -1.64062 16.2402 -1.64062c10.0498 0 19.6699 1.88965 28.1602 5.38965c14.1104 5.87012 24.5107 23.8203 24.5107 51.1406
c0 10.9199 -1.66016 23.3398 -5.41016 37.0801zM304.16 75.2031c97.2402 0 114.61 46.1797 114.61 182.87c0 127.83 -44.5195 166.79 -114.609 166.79c-88.5303 0 -119.011 -28.7305 -119.011 -165c0 -145.59 20.2002 -184.66 119.01 -184.66z" />
    <glyph glyph-name="ohungarumlaut" unicode="&#x151;" horiz-adv-x="603" 
d="M46.1699 595.76l146.369 135.96h135.48l-163.08 -135.96h-118.77zM248.789 595.76l146.35 135.96h135.48l-163.08 -135.96h-118.75zM304.198 509.399c166.27 0 264.891 -76.999 264.891 -251.339c0 -173.57 -54.2402 -267.051 -264.891 -267.051
c-208.17 0 -269.29 81.7803 -269.29 268.83c0 176.51 87.5703 249.56 269.29 249.56zM304.199 75.1797c97.2402 0 114.61 46.1797 114.61 182.87c0 127.83 -44.5195 166.79 -114.609 166.79c-88.5303 0 -119.011 -28.7305 -119.011 -165
c0 -145.59 20.2002 -184.66 119.01 -184.66z" />
    <glyph glyph-name="omacron" unicode="&#x14d;" horiz-adv-x="603" 
d="M487.13 609.92h-370.29v69.9102h370.29v-69.9102zM304.18 509.4c166.27 0 264.891 -76.999 264.891 -251.339c0 -173.57 -54.2402 -267.051 -264.891 -267.051c-208.17 0 -269.29 81.7803 -269.29 268.83c0 176.51 87.5703 249.56 269.29 249.56zM304.181 75.1807
c97.2402 0 114.61 46.1797 114.61 182.87c0 127.83 -44.5195 166.79 -114.609 166.79c-88.5303 0 -119.011 -28.7305 -119.011 -165c0 -145.59 20.2002 -184.66 119.01 -184.66z" />
    <glyph glyph-name="oslash" unicode="&#xf8;" horiz-adv-x="590" 
d="M388.28 560.95l67.5303 0.0117188l-29.3301 -73.0703c87.0303 -33.6201 136.12 -108.24 136.12 -229.83c0 -173.57 -54.2402 -267.051 -264.891 -267.051c-25.4297 0 -48.3193 1 -68.9092 4l-22.3496 -55h-68.8203l27.7305 68.3701
c-102.99 32.75 -136.931 114.07 -136.931 251.46c0 176.51 87.5703 249.56 269.29 249.56c24.1504 0 46.6699 -1.87988 67.46 -5.83008zM210.58 120.352l120.79 299.319c-13.3799 4.16992 -28.3604 5.54004 -44.8008 5.54004c-84.1904 0 -107.71 -50.4102 -107.71 -152.01
c0 -82.5996 5.74023 -120.979 31.7207 -152.85zM379.91 371.541l-117.141 -292.239c11.5 -2.69043 20.7305 -4.09082 34.7607 -4.09082c2.25 0 4.62012 0.0400391 7.13965 0.110352c90.3301 2.00977 107.41 52.8496 107.41 163.26
c0 69.6396 -10.9902 96.2598 -32.1699 132.96z" />
    <glyph glyph-name="otilde" unicode="&#xf5;" horiz-adv-x="597" 
d="M438.06 705.2l65.5801 -39.5791c-39.5996 -39.8203 -81.5898 -69.1504 -128.64 -69.1504c-73.9004 0 -94.2002 47.9697 -138.74 47.9697c-20.5703 0 -45.1807 -21.8203 -70.7305 -45.0107l-65.1699 45.9199c44.7305 37.2598 86.25 62.3398 136.98 62.3398
c68.9902 0 94.4102 -46.5195 134.23 -46.5195c19.3096 0 47.2197 26.2305 66.4893 44.0303zM301.38 509.401c166.27 0 264.891 -76.999 264.891 -251.339c0 -173.57 -54.2402 -267.051 -264.891 -267.051c-208.17 0 -269.29 81.7803 -269.29 268.83
c0 176.51 87.5703 249.56 269.29 249.56zM301.381 75.1816c97.2402 0 114.61 46.1797 114.61 182.87c0 127.83 -44.5195 166.79 -114.609 166.79c-88.5303 0 -119.011 -28.7305 -119.011 -165c0 -145.59 20.2002 -184.66 119.01 -184.66z" />
    <glyph glyph-name="p" unicode="p" horiz-adv-x="583" 
d="M205.83 4.44043l-0.0107422 -183.439h-151.51v678.21c88.04 7.13965 130.521 10.0195 188.87 10.0195c247.23 0 306.87 -96.3604 306.87 -269.21c0 -161.03 -46.8203 -250.021 -242.95 -250.021c-38.1797 0 -75.7393 8 -101.27 14.4404zM205.819 422.881
l0.0117188 -332.909c26.1299 -6.88965 63.0898 -14.9697 101.229 -14.9697c72.3896 0 90.8994 40.4199 90.8994 166.8c0 123.51 -17.7402 176.05 -126.851 181.149c-7.2998 0.519531 -16.3096 0.719727 -25.9697 0.719727c-12.8203 0 -26.7705 -0.349609 -39.3203 -0.790039
z" />
    <glyph glyph-name="q" unicode="q" horiz-adv-x="581" 
d="M528.93 -179l-149.82 -0.0117188v183.44c-25.5303 -6.44043 -63.0898 -14.4404 -101.27 -14.4404c-196.13 0 -242.95 88.9902 -242.95 250.021c0 172.86 59.6396 269.221 306.87 269.221c58.3496 0 100.83 -2.87988 187.17 -10.0195v-678.21zM379.109 89.9785
l0.0117188 332.909c-12.5801 0.44043 -26.54 0.790039 -39.3604 0.790039c-9.66016 0 -18.6699 -0.200195 -25.9697 -0.719727c-109.11 -5.09961 -126.851 -57.6396 -126.851 -181.149c0 -126.38 18.5098 -166.8 90.8994 -166.8c38.1396 0 75.0996 8.08008 101.27 14.9697z
" />
    <glyph glyph-name="r" unicode="r" horiz-adv-x="414" 
d="M53.6396 -1l-0.000976562 460.131c84.5195 32.21 162.38 50.7295 251.08 50.7295c2.5 0 4.86035 0.00976562 7.15039 0.00976562c20.1504 0 35.0205 -0.389648 91.6309 -8.08008l-15.3301 -84.7305c-50.5303 7.29004 -64.3203 8.25 -83.46 8.25
c-38.7002 0 -75.1006 -8.08008 -101.271 -14.9697v-411.34h-149.8z" />
    <glyph glyph-name="racute" unicode="&#x155;" horiz-adv-x="414" 
d="M43.2598 595.76l146.449 135.96h135.48l-163.08 -135.96h-118.85zM53.6387 -1l-0.000976562 460.131c84.5195 32.21 162.38 50.7295 251.08 50.7295c2.5 0 4.86035 0.00976562 7.15039 0.00976562c20.1504 0 35.0205 -0.389648 91.6309 -8.08008l-15.3301 -84.7305
c-50.5303 7.29004 -64.3203 8.25 -83.46 8.25c-38.7002 0 -75.1006 -8.08008 -101.271 -14.9697v-411.34h-149.8z" />
    <glyph glyph-name="rcaron" unicode="&#x159;" horiz-adv-x="414" 
d="M273.66 578.74h-63.5303l-166.87 152.98h119.96l79.6504 -73.3203l78.7598 73.3203h120.29zM53.6396 -1l-0.000976562 460.131c84.5195 32.21 162.38 50.7295 251.08 50.7295c2.5 0 4.86035 0.00976562 7.15039 0.00976562c20.1504 0 35.0205 -0.389648 91.6309 -8.08008
l-15.3301 -84.7305c-50.5303 7.29004 -64.3203 8.25 -83.46 8.25c-38.7002 0 -75.1006 -8.08008 -101.271 -14.9697v-411.34h-149.8z" />
    <glyph glyph-name="rcommaaccent" unicode="&#x157;" horiz-adv-x="414" 
d="M53.6396 -1l-0.000976562 460.131c84.5195 32.21 162.38 50.7295 251.08 50.7295c2.5 0 4.86035 0.00976562 7.15039 0.00976562c20.1504 0 35.0205 -0.389648 91.6309 -8.08008l-15.3301 -84.7305c-50.5303 7.29004 -64.3203 8.25 -83.46 8.25
c-38.7002 0 -75.1006 -8.08008 -101.271 -14.9697v-411.34h-149.8zM71.8486 -250.009l48.8496 206h157.86l-61.9102 -206h-144.8z" />
    <glyph glyph-name="s" unicode="s" horiz-adv-x="462" 
d="M32.0996 11.9297l15.6709 83.5703c83.6797 -12.3701 122.979 -18.4199 151.85 -18.4199c6.98047 0 13.3506 0.349609 19.5908 1.0498c33.7197 2.38965 58.8594 10.0996 59.7998 49.5098c0.660156 13.3799 -2.7002 31.2402 -19.4404 44.7305
c-16.6904 13.25 -69.1309 46.9004 -108.15 71.4199c-69.7002 42.0596 -106.86 71.8896 -106.86 138.42c0 4.33008 0.160156 8.81055 0.480469 13.4609c3.42969 50.5898 64.0996 114.93 202.71 114.93c61.1299 0 86.8203 -1.99023 181.87 -14.6504l-15.8301 -84.4404
c-73.1201 11.5303 -114.021 18.2402 -142.551 18.2402c-8.4502 0 -15.8203 -0.589844 -22.6201 -1.82031c-35.6904 -0.879883 -51.6602 -17.1396 -53.5498 -39.75c-0.219727 -3.0498 -0.339844 -5.97949 -0.339844 -8.80957c0 -25 9.25 -42.1201 42.2402 -63.2598
c59.4697 -36.0703 114.81 -73.6602 127.21 -83.4297c57.2695 -41.2803 64.7393 -80.4004 64.7393 -105.54c0 -113.79 -133.56 -129.15 -202.619 -132.15c-6.58984 -0.25 -13.1201 -0.370117 -19.6797 -0.370117c-45.4805 0 -92.5605 6.00977 -174.521 17.3096z" />
    <glyph glyph-name="sacute" unicode="&#x15b;" horiz-adv-x="462" 
d="M77.6104 595.76l146.449 135.96h135.48l-163.08 -135.96h-118.85zM32.0996 11.9199l15.6709 83.5703c83.6797 -12.3701 122.979 -18.4199 151.85 -18.4199c6.98047 0 13.3506 0.349609 19.5908 1.0498c33.7197 2.38965 58.8594 10.0996 59.7998 49.5098
c0.660156 13.3799 -2.7002 31.2402 -19.4404 44.7305c-16.6904 13.25 -69.1309 46.9004 -108.15 71.4199c-69.7002 42.0596 -106.86 71.8896 -106.86 138.42c0 4.33008 0.160156 8.81055 0.480469 13.4609c3.42969 50.5898 64.0996 114.93 202.71 114.93
c61.1299 0 86.8203 -1.99023 181.87 -14.6504l-15.8301 -84.4404c-73.1201 11.5303 -114.021 18.2402 -142.551 18.2402c-8.4502 0 -15.8203 -0.589844 -22.6201 -1.82031c-35.6904 -0.879883 -51.6602 -17.1396 -53.5498 -39.75
c-0.219727 -3.0498 -0.339844 -5.97949 -0.339844 -8.80957c0 -25 9.25 -42.1201 42.2402 -63.2598c59.4697 -36.0703 114.81 -73.6602 127.21 -83.4297c57.2695 -41.2803 64.7393 -80.4004 64.7393 -105.54c0 -113.79 -133.56 -129.15 -202.619 -132.15
c-6.58984 -0.25 -13.1201 -0.370117 -19.6797 -0.370117c-45.4805 0 -92.5605 6.00977 -174.521 17.3096z" />
    <glyph glyph-name="scaron" unicode="&#x161;" horiz-adv-x="473" 
d="M284.11 561.17h-63.5303l-166.87 152.98h119.96l79.6504 -73.3203l78.7598 73.3203h120.29zM32.0996 11.9297l15.6709 83.5703c83.6797 -12.3701 122.979 -18.4199 151.85 -18.4199c6.98047 0 13.3506 0.349609 19.5908 1.0498
c33.7197 2.38965 58.8594 10.0996 59.7998 49.5098c0.660156 13.3799 -2.7002 31.2402 -19.4404 44.7305c-16.6904 13.25 -69.1309 46.9004 -108.15 71.4199c-69.7002 42.0596 -106.86 71.8896 -106.86 138.42c0 4.33008 0.160156 8.81055 0.480469 13.4609
c3.42969 50.5898 64.0996 114.93 202.71 114.93c61.1299 0 86.8203 -1.99023 181.87 -14.6504l-15.8301 -84.4404c-73.1201 11.5303 -114.021 18.2402 -142.551 18.2402c-8.4502 0 -15.8203 -0.589844 -22.6201 -1.82031
c-35.6904 -0.879883 -51.6602 -17.1396 -53.5498 -39.75c-0.219727 -3.0498 -0.339844 -5.97949 -0.339844 -8.80957c0 -25 9.25 -42.1201 42.2402 -63.2598c59.4697 -36.0703 114.81 -73.6602 127.21 -83.4297c57.2695 -41.2803 64.7393 -80.4004 64.7393 -105.54
c0 -113.79 -133.56 -129.15 -202.619 -132.15c-6.58984 -0.25 -13.1201 -0.370117 -19.6797 -0.370117c-45.4805 0 -92.5605 6.00977 -174.521 17.3096z" />
    <glyph glyph-name="scedilla" unicode="&#x15f;" horiz-adv-x="462" 
d="M429.6 495.93l-15.8076 -84.4297c-73.1104 11.5303 -114.011 18.2402 -142.541 18.2402c-8.4502 0 -15.8203 -0.589844 -22.6201 -1.82031c-35.6904 -0.879883 -51.6602 -17.1396 -53.5498 -39.75c-0.219727 -3.0498 -0.339844 -5.97949 -0.339844 -8.80957
c0 -25 9.25 -42.1201 42.2402 -63.2598c59.4697 -36.0703 114.81 -73.6602 127.21 -83.4297c57.2695 -41.2803 64.7393 -80.4004 64.7393 -105.54c0 -73.1699 -52.29 -104.15 -109.22 -118.44l-25.9902 -40.7002c34.5801 -6 49.2305 -28 49.2305 -64
c0 -49 -25.25 -74 -97.7305 -74c-6.83008 0 -38.2002 0 -75.1406 8l6.66992 38c52.2402 -1 68.0605 -1 75.9102 -1c23.5303 1 25.96 6 25.96 29c0 21 -9.37988 23 -26.0801 23h-43.3896l38.1797 70c-7.61035 -1 -14.7002 -2 -21.0303 -2
c-6.58984 -0.25 -13.1201 -0.370117 -19.6797 -0.370117c-45.4805 0 -92.5605 6.00977 -174.521 17.3096l15.6504 83.5498c83.6797 -12.3701 122.979 -18.4199 151.85 -18.4199c6.98047 0 13.3506 0.349609 19.5908 1.0498c33.7197 2.38965 58.8594 10.0996 59.7998 49.5098
c0.660156 13.3799 -2.7002 31.2402 -19.4404 44.7305c-16.6904 13.25 -69.1309 46.9004 -108.15 71.4199c-69.7002 42.0596 -106.86 71.8896 -106.86 138.42c0 4.33008 0.160156 8.81055 0.480469 13.4609c3.42969 50.5898 64.0996 114.93 202.71 114.93
c61.1299 0 86.8203 -1.99023 181.87 -14.6504z" />
    <glyph glyph-name="scommaaccent" unicode="&#x219;" horiz-adv-x="462" 
d="M32.0996 11.9297l15.6709 83.5703c83.6797 -12.3701 122.979 -18.4199 151.85 -18.4199c6.98047 0 13.3506 0.349609 19.5908 1.0498c33.7197 2.38965 58.8594 10.0996 59.7998 49.5098c0.660156 13.3799 -2.7002 31.2402 -19.4404 44.7305
c-16.6904 13.25 -69.1309 46.9004 -108.15 71.4199c-69.7002 42.0596 -106.86 71.8896 -106.86 138.42c0 4.33008 0.160156 8.81055 0.480469 13.4609c3.42969 50.5898 64.0996 114.93 202.71 114.93c61.1299 0 86.8203 -1.99023 181.87 -14.6504l-15.8301 -84.4404
c-73.1201 11.5303 -114.021 18.2402 -142.551 18.2402c-8.4502 0 -15.8203 -0.589844 -22.6201 -1.82031c-35.6904 -0.879883 -51.6602 -17.1396 -53.5498 -39.75c-0.219727 -3.0498 -0.339844 -5.97949 -0.339844 -8.80957c0 -25 9.25 -42.1201 42.2402 -63.2598
c59.4697 -36.0703 114.81 -73.6602 127.21 -83.4297c57.2695 -41.2803 64.7393 -80.4004 64.7393 -105.54c0 -113.79 -133.56 -129.15 -202.619 -132.15c-6.58984 -0.25 -13.1201 -0.370117 -19.6797 -0.370117c-45.4805 0 -92.5605 6.00977 -174.521 17.3096z
M94.3203 -249.97l49.8799 206h157.86l-62.9404 -206h-144.8z" />
    <glyph glyph-name="t" unicode="t" horiz-adv-x="399" 
d="M110.33 617.56l149.799 0.00878906v-118.39h115.78v-84.5596h-115.78v-248.25c0 -57.6602 4.58984 -86.7598 30.2402 -89.6602c3.15039 -0.950195 6.91992 -1.50977 11.6699 -1.50977c14.1797 0 37.0801 4.98047 78.0801 19.3105l-15.7695 -89.0098
c-63.8398 -13.5 -81.0098 -13.5 -102.979 -13.5c-128.66 0 -151.04 57.1504 -151.04 174.36v248.25h-104.78v84.5596h104.78v118.39z" />
    <glyph glyph-name="tbar" unicode="&#x167;" horiz-adv-x="399" 
d="M110.33 617.56l149.799 0.00878906v-118.39h115.78v-84.5596h-115.78v-96.5303h115.78v-67.2598h-115.78v-84.46c0 -57.6602 4.58984 -86.7598 30.2402 -89.6602c3.15039 -0.950195 6.91992 -1.50977 11.6699 -1.50977c14.1797 0 37.0801 4.98047 78.0801 19.3105
l-15.7695 -89.0098c-63.8398 -13.5 -81.0098 -13.5 -102.979 -13.5c-128.66 0 -151.04 57.1504 -151.04 174.36v84.46h-104.78v67.2598h104.78v96.5303h-104.78v84.5596h104.78v118.39z" />
    <glyph glyph-name="tcaron" unicode="&#x165;" horiz-adv-x="399" 
d="M313.01 544.54l48.9707 202.64h155.75l-62.1904 -202.64h-142.53zM110.32 617.56l149.799 0.00878906v-118.39h115.78v-84.5596h-115.78v-248.25c0 -57.6602 4.58984 -86.7598 30.2402 -89.6602c3.15039 -0.950195 6.91992 -1.50977 11.6699 -1.50977
c14.1797 0 37.0801 4.98047 78.0801 19.3105l-15.7695 -89.0098c-63.8398 -13.5 -81.0098 -13.5 -102.979 -13.5c-128.66 0 -151.04 57.1504 -151.04 174.36v248.25h-104.78v84.5596h104.78v118.39z" />
    <glyph glyph-name="tcedilla" unicode="&#x163;" horiz-adv-x="399" 
d="M110.33 617.56l149.798 -0.00195312v-118.39h115.78v-84.5596h-115.78v-248.25c0 -57.6602 4.58984 -86.7598 30.2402 -89.6602c3.15039 -0.950195 6.91992 -1.50977 11.6699 -1.50977c14.1797 0 37.0801 4.98047 78.0801 19.3105l-15.7695 -89.0098
c-34.71 -6.5 -56.2695 -10.5 -72.0391 -12.5l-15.6104 -25c34.5801 -7 49.2305 -28 49.2305 -64c0 -50 -25.2598 -75 -97.7402 -75c-6.82031 0 -38.1904 0 -75.1201 8l6.66992 38c52.2402 -1 68.0605 -1 75.9102 -1c23.5303 1 25.96 7 25.96 30
c0 20 -9.37988 23 -26.0801 23h-43.3896l36.4902 66c-99.7998 9.48047 -118.3 66.2109 -118.3 173.371v248.25h-104.78v84.5596h104.78v118.39z" />
    <glyph glyph-name="uni021B" unicode="&#x21b;" horiz-adv-x="399" 
d="M110.33 617.56l149.799 0.00878906v-118.39h115.78v-84.5596h-115.78v-248.25c0 -57.6602 4.58984 -86.7598 30.2402 -89.6602c3.15039 -0.950195 6.91992 -1.50977 11.6699 -1.50977c14.1797 0 37.0801 4.98047 78.0801 19.3105l-15.7695 -89.0098
c-63.8398 -13.5 -81.0098 -13.5 -102.979 -13.5c-128.66 0 -151.04 57.1504 -151.04 174.36v248.25h-104.78v84.5596h104.78v118.39zM102.329 -249.991l49.8799 206h157.86l-62.9404 -206h-144.8z" />
    <glyph glyph-name="thorn" unicode="&#xfe;" horiz-adv-x="589" 
d="M214.59 700l0.0117188 -212.101c14.5703 1.90039 70.96 20.8506 131.08 20.8506c190.05 0 235.29 -87.9805 235.29 -249.03c0 -173.92 -56.5303 -268.72 -297.431 -268.72c-24.4004 0 -49.8408 1 -68.9512 3v-157h-143.85v863h143.85zM214.602 401.159l0.0107422 -324.29
c4.96973 -0.160156 47.3799 -2.91016 67.8701 -2.91016c134.25 0 152.5 45.29 152.5 183.98c0 127.2 -18.6504 167.88 -89.3008 167.88c-56.9697 0 -113.51 -20.71 -131.08 -24.6602z" />
    <glyph glyph-name="u" unicode="u" horiz-adv-x="585" 
d="M539.34 499.56l0.000976562 -459.62c-83.8604 -32.3096 -165.301 -50.9492 -235.591 -50.9492c-189.25 0 -258.86 88.2803 -258.86 249.71v260.86h152.28v-260.84c0 -123.87 28.7305 -165.021 106.58 -165.021c27.2002 0 61.0098 7.96973 85.5596 14.7197v411.14h150.03z
" />
    <glyph glyph-name="uacute" unicode="&#xfa;" horiz-adv-x="585" 
d="M161.9 576.17l146.449 135.96h135.48l-163.08 -135.96h-118.85zM539.35 499.56l0.000976562 -459.62c-83.8604 -32.3096 -165.301 -50.9492 -235.591 -50.9492c-189.25 0 -258.86 88.2803 -258.86 249.71v260.86h152.28v-260.84
c0 -123.87 28.7305 -165.021 106.58 -165.021c27.2002 0 61.0098 7.96973 85.5596 14.7197v411.14h150.03z" />
    <glyph glyph-name="ucaron" unicode="&#x1d4;" horiz-adv-x="585" 
d="M302.99 578.74h-63.5303l-166.87 152.98h119.96l79.6504 -73.3203l78.7598 73.3203h120.29zM539.34 499.561l0.000976562 -459.62c-83.8604 -32.3096 -165.301 -50.9492 -235.591 -50.9492c-189.25 0 -258.86 88.2803 -258.86 249.71v260.86h152.28v-260.84
c0 -123.87 28.7305 -165.021 106.58 -165.021c27.2002 0 61.0098 7.96973 85.5596 14.7197v411.14h150.03z" />
    <glyph glyph-name="ucircumflex" unicode="&#xfb;" horiz-adv-x="585" 
d="M103.22 561.17l166.87 152.98h63.5303l168.26 -152.98h-120.29l-78.7598 73.3203l-79.6504 -73.3203h-119.96zM539.34 499.561l0.000976562 -459.62c-83.8604 -32.3096 -165.301 -50.9492 -235.591 -50.9492c-189.25 0 -258.86 88.2803 -258.86 249.71v260.86h152.28
v-260.84c0 -123.87 28.7305 -165.021 106.58 -165.021c27.2002 0 61.0098 7.96973 85.5596 14.7197v411.14h150.03z" />
    <glyph glyph-name="udieresis" unicode="&#xfc;" horiz-adv-x="585" 
d="M158.71 590.35v90.79h101.91v-90.79h-101.91zM341.54 590.35v90.79h101.91v-90.79h-101.91zM539.35 499.56l0.000976562 -459.62c-83.8604 -32.3096 -165.301 -50.9492 -235.591 -50.9492c-189.25 0 -258.86 88.2803 -258.86 249.71v260.86h152.28v-260.84
c0 -123.87 28.7305 -165.021 106.58 -165.021c27.2002 0 61.0098 7.96973 85.5596 14.7197v411.14h150.03z" />
    <glyph glyph-name="udieresisacute" unicode="&#x1d8;" horiz-adv-x="585" 
d="M308.35 794.71h135.479l-163.08 -135.96h-118.85zM158.709 627.57h101.91v-90.79h-101.91v90.79zM341.529 627.57h101.91v-90.79h-101.91v90.79zM389.31 499.561l151.511 -0.00976562v-459.61c-85.3398 -32.3096 -166.78 -50.9492 -237.07 -50.9492
c-189.25 0 -258.86 88.2803 -258.86 249.71v260.86h152.28v-260.84c0 -123.87 28.7305 -165.021 106.58 -165.021c27.2002 0 61.0098 7.96973 85.5596 14.7197v411.14z" />
    <glyph glyph-name="udieresiscaron" unicode="&#x1da;" horiz-adv-x="585" 
d="M381.87 803.47h120.28l-168.25 -152.98h-63.5303l-166.87 152.98h119.96l79.6504 -73.3203zM158.69 627.649h101.91v-90.79h-101.91v90.79zM341.511 627.649h101.91v-90.79h-101.91v90.79zM389.291 499.56l151.511 -0.00976562v-459.61
c-85.3398 -32.3096 -166.78 -50.9492 -237.07 -50.9492c-189.25 0 -258.86 88.2803 -258.86 249.71v260.86h152.28v-260.84c0 -123.87 28.7305 -165.021 106.58 -165.021c27.2002 0 61.0098 7.96973 85.5596 14.7197v411.14z" />
    <glyph glyph-name="udieresisgrave" unicode="&#x1dc;" horiz-adv-x="585" 
d="M173.14 795.57h135.479l146.36 -135.96h-118.76zM158.699 627.5h101.91v-90.79h-101.91v90.79zM341.52 627.5h101.91v-90.79h-101.91v90.79zM389.3 499.56l151.511 -0.00976562v-459.61c-85.3398 -32.3096 -166.78 -50.9492 -237.07 -50.9492
c-189.25 0 -258.86 88.2803 -258.86 249.71v260.86h152.28v-260.84c0 -123.87 28.7305 -165.021 106.58 -165.021c27.2002 0 61.0098 7.96973 85.5596 14.7197v411.14z" />
    <glyph glyph-name="udieresismacron" unicode="&#x1d6;" horiz-adv-x="585" 
d="M115.94 747.94h370.29v-69.9102h-370.29v69.9102zM158.721 627.65h101.91v-90.79h-101.91v90.79zM341.541 627.65h101.91v-90.79h-101.91v90.79zM389.321 499.561l151.511 -0.00976562v-459.61c-85.3398 -32.3096 -166.78 -50.9492 -237.07 -50.9492
c-189.25 0 -258.86 88.2803 -258.86 249.71v260.86h152.28v-260.84c0 -123.87 28.7305 -165.021 106.58 -165.021c27.2002 0 61.0098 7.96973 85.5596 14.7197v411.14z" />
    <glyph glyph-name="udotbelow" unicode="&#x1ee5;" horiz-adv-x="585" 
d="M539.34 499.56l0.000976562 -459.62c-83.8604 -32.3096 -165.301 -50.9492 -235.591 -50.9492c-189.25 0 -258.86 88.2803 -258.86 249.71v260.86h152.28v-260.84c0 -123.87 28.7305 -165.021 106.58 -165.021c27.2002 0 61.0098 7.96973 85.5596 14.7197v411.14h150.03z
M250.9 -72.0107h101.91v-90h-101.91v90z" />
    <glyph glyph-name="ugrave" unicode="&#xf9;" horiz-adv-x="585" 
d="M173.14 714.15h135.479l146.36 -135.96h-118.76zM539.339 499.561l0.000976562 -459.62c-83.8604 -32.3096 -165.301 -50.9492 -235.591 -50.9492c-189.25 0 -258.86 88.2803 -258.86 249.71v260.86h152.28v-260.84c0 -123.87 28.7305 -165.021 106.58 -165.021
c27.2002 0 61.0098 7.96973 85.5596 14.7197v411.14h150.03z" />
    <glyph glyph-name="uhookabove" unicode="&#x1ee7;" horiz-adv-x="585" 
d="M242.13 674.49l-6.68066 38.2881c19.9004 5.33008 44.6904 7.90039 56.54 7.90039c72.4805 0 92.1504 -24.9297 92.1504 -74.5996c0 -36.0801 -14.6504 -57.8896 -49.1504 -63.9092v-39.0801h-59.8896v79.9102h18.6504c16.7002 0 26.0801 2.20996 26.0801 23.0703
c0 23.0898 -2.42969 28.7402 -25.96 29.2998c-7.84961 0 0.5 0 -51.7402 -0.879883zM539.339 499.578l0.000976562 -459.62c-83.8604 -32.3096 -165.301 -50.9492 -235.591 -50.9492c-189.25 0 -258.86 88.2803 -258.86 249.71v260.86h152.28v-260.84
c0 -123.87 28.7305 -165.021 106.58 -165.021c27.2002 0 61.0098 7.96973 85.5596 14.7197v411.14h150.03z" />
    <glyph glyph-name="uhorn" unicode="&#x1b0;" horiz-adv-x="647" 
d="M594.26 534.45l48.752 10.9609c9.51953 -29.4805 13.6992 -55.6504 13.6992 -78.25c0 -48.5303 -19.2695 -80.6006 -46.3496 -93.6006c-10.1904 -4.83984 -20.46 -7.0498 -30.5996 -7.0498c-13.9004 0 -27.5508 4.15039 -40.4111 11.3604v-337.94
c-83.8604 -32.3096 -165.301 -50.9492 -235.591 -50.9492c-189.25 0 -258.86 88.2803 -258.86 249.71v260.86h152.28v-260.84c0 -123.87 28.7305 -165.021 106.58 -165.021c27.2002 0 61.0098 7.96973 85.5596 14.7197v411.14h151.33v-55.7002
c4.58984 -1 9.13965 -1.48047 13.5801 -1.48047c7.41016 0 14.5 1.34961 20.9297 3.85938c14.1104 5.87012 24.5107 23.8203 24.5107 51.1406c0 10.9199 -1.66016 23.3398 -5.41016 37.0801z" />
    <glyph glyph-name="uhornacute" unicode="&#x1ee9;" horiz-adv-x="647" 
d="M161.9 576.17l146.449 135.96h135.48l-163.08 -135.96h-118.85zM594.26 534.45l48.752 10.9707c9.51953 -29.4805 13.6992 -55.6504 13.6992 -78.25c0 -48.5303 -19.2695 -80.6006 -46.3496 -93.6006c-10.1904 -4.83984 -20.46 -7.0498 -30.5996 -7.0498
c-13.9004 0 -27.5508 4.15039 -40.4111 11.3604v-337.94c-83.8604 -32.3096 -165.301 -50.9492 -235.591 -50.9492c-189.25 0 -258.86 88.2803 -258.86 249.71v260.86h152.28v-260.84c0 -123.87 28.7305 -165.021 106.58 -165.021
c27.2002 0 61.0098 7.96973 85.5596 14.7197v411.14h151.33v-55.7002c4.58984 -1 9.13965 -1.48047 13.5801 -1.48047c7.41016 0 14.5 1.33984 20.9297 3.84961c14.1104 5.87012 24.5107 23.8203 24.5107 51.1406c0 10.9199 -1.66016 23.3398 -5.41016 37.0801z" />
    <glyph glyph-name="uhorndotbelow" unicode="&#x1ef1;" horiz-adv-x="647" 
d="M594.26 534.45l48.752 10.9707c9.51953 -29.4805 13.6992 -55.6504 13.6992 -78.25c0 -48.5303 -19.2695 -80.6006 -46.3496 -93.6006c-10.1904 -4.83984 -20.46 -7.0498 -30.5996 -7.0498c-13.9004 0 -27.5508 4.15039 -40.4111 11.3604v-337.94
c-83.8604 -32.3096 -165.301 -50.9492 -235.591 -50.9492c-189.25 0 -258.86 88.2803 -258.86 249.71v260.86h152.28v-260.84c0 -123.87 28.7305 -165.021 106.58 -165.021c27.2002 0 61.0098 7.96973 85.5596 14.7197v411.14h151.33v-55.7002
c4.58984 -1 9.13965 -1.48047 13.5801 -1.48047c7.41016 0 14.5 1.33984 20.9297 3.84961c14.1104 5.87012 24.5107 23.8203 24.5107 51.1406c0 10.9199 -1.66016 23.3398 -5.41016 37.0801zM250.901 -71.999h101.91v-90h-101.91v90z" />
    <glyph glyph-name="uhorngrave" unicode="&#x1eeb;" horiz-adv-x="656" 
d="M173.15 731.72h135.479l146.36 -135.96h-118.76zM594.26 534.45l48.752 10.9707c9.51953 -29.4805 13.6992 -55.6504 13.6992 -78.25c0 -48.5303 -19.2695 -80.6006 -46.3496 -93.6006c-10.1904 -4.83984 -20.46 -7.0498 -30.5996 -7.0498
c-13.9004 0 -27.5508 4.15039 -40.4111 11.3604v-337.94c-83.8604 -32.3096 -165.301 -50.9492 -235.591 -50.9492c-189.25 0 -258.86 88.2803 -258.86 249.71v260.86h152.28v-260.84c0 -123.87 28.7305 -165.021 106.58 -165.021
c27.2002 0 61.0098 7.96973 85.5596 14.7197v411.14h151.33v-55.7002c4.58984 -1 9.13965 -1.48047 13.5801 -1.48047c7.41016 0 14.5 1.33984 20.9297 3.84961c14.1104 5.87012 24.5107 23.8203 24.5107 51.1406c0 10.9199 -1.66016 23.3398 -5.41016 37.0801z" />
    <glyph glyph-name="uhornhookabove" unicode="&#x1eed;" horiz-adv-x="647" 
d="M242.13 674.49l-6.66992 38.2881c19.9004 5.33008 44.6904 7.90039 56.54 7.90039c72.4805 0 92.1504 -24.9297 92.1504 -74.5996c0 -36.0801 -14.6504 -57.8896 -49.1504 -63.9092v-39.0801h-59.9004v79.9102h18.6504c16.7002 0 26.0801 2.20996 26.0801 23.0703
c0 23.0898 -2.42969 28.7402 -25.96 29.2998c-7.84961 0 0.5 0 -51.7402 -0.879883zM594.26 534.469l48.752 10.9707c9.51953 -29.4805 13.6992 -55.6504 13.6992 -78.25c0 -48.5303 -19.2695 -80.6006 -46.3496 -93.6006
c-10.1904 -4.83984 -20.46 -7.0498 -30.5996 -7.0498c-13.9004 0 -27.5508 4.15039 -40.4111 11.3604v-337.94c-83.8604 -32.3096 -165.301 -50.9492 -235.591 -50.9492c-189.25 0 -258.86 88.2803 -258.86 249.71v260.86h152.28v-260.84
c0 -123.87 28.7305 -165.021 106.58 -165.021c27.2002 0 61.0098 7.96973 85.5596 14.7197v411.14h151.33v-55.7002c4.58984 -1 9.13965 -1.48047 13.5801 -1.48047c7.41016 0 14.5 1.33984 20.9297 3.84961c14.1104 5.87012 24.5107 23.8203 24.5107 51.1406
c0 10.9199 -1.66016 23.3398 -5.41016 37.0801z" />
    <glyph glyph-name="uhorntilde" unicode="&#x1eef;" horiz-adv-x="647" 
d="M439.42 704.77l65.5811 -39.5693c-39.5996 -39.8301 -81.5898 -69.1602 -128.64 -69.1602c-73.9004 0 -94.1904 47.9697 -138.73 47.9697c-20.5703 0 -45.1807 -21.8203 -70.7305 -45.0107l-65.1699 45.9199c44.7305 37.2598 86.25 62.3398 136.98 62.3398
c68.9902 0 94.4102 -46.5195 134.22 -46.5195c19.3096 0 47.2197 26.2305 66.4893 44.0303zM594.251 534.46l48.752 10.9707c9.51953 -29.4805 13.6992 -55.6504 13.6992 -78.25c0 -48.5303 -19.2695 -80.6006 -46.3496 -93.6006
c-10.1904 -4.83984 -20.46 -7.0498 -30.5996 -7.0498c-13.9004 0 -27.5508 4.15039 -40.4111 11.3604v-337.94c-83.8604 -32.3096 -165.301 -50.9492 -235.591 -50.9492c-189.25 0 -258.86 88.2803 -258.86 249.71v260.86h152.28v-260.84
c0 -123.87 28.7305 -165.021 106.58 -165.021c27.2002 0 61.0098 7.96973 85.5596 14.7197v411.14h151.33v-55.7002c4.58984 -1 9.13965 -1.48047 13.5801 -1.48047c7.41016 0 14.5 1.33984 20.9297 3.84961c14.1104 5.87012 24.5107 23.8203 24.5107 51.1406
c0 10.9199 -1.66016 23.3398 -5.41016 37.0801z" />
    <glyph glyph-name="uhungarumlaut" unicode="&#x171;" horiz-adv-x="585" 
d="M73.1504 595.76l146.359 135.96h135.48l-163.08 -135.96h-118.76zM275.76 595.76l146.35 135.96h135.48l-163.08 -135.96h-118.75zM539.35 499.56l0.000976562 -459.62c-83.8604 -32.3096 -165.301 -50.9492 -235.591 -50.9492c-189.25 0 -258.86 88.2803 -258.86 249.71
v260.86h152.28v-260.84c0 -123.87 28.7305 -165.021 106.58 -165.021c27.2002 0 61.0098 7.96973 85.5596 14.7197v411.14h150.03z" />
    <glyph glyph-name="umacron" unicode="&#x16b;" horiz-adv-x="585" 
d="M437.38 630.09h-370.29v69.9102h370.29v-69.9102zM539.35 499.56l0.000976562 -459.62c-83.8604 -32.3096 -165.301 -50.9492 -235.591 -50.9492c-189.25 0 -258.86 88.2803 -258.86 249.71v260.86h152.28v-260.84c0 -123.87 28.7305 -165.021 106.58 -165.021
c27.2002 0 61.0098 7.96973 85.5596 14.7197v411.14h150.03z" />
    <glyph glyph-name="uogonek" unicode="&#x173;" horiz-adv-x="585" 
d="M539.34 499.56l-0.0078125 -459.629c-32.2002 -12.4004 -63.2998 -22.5205 -93.3896 -30.3105c-26.5898 -17.3604 -40.6201 -44.3506 -40.6201 -68.1709c0 -7.23047 1.29004 -14.1709 3.91992 -20.4609c5.92969 -14.4297 24.1895 -25.2197 51.9795 -25.2197
c10.7197 0 22.8496 1.59961 36.2393 5.21973l10.9697 -48c-29.54 -9.5498 -55.7598 -13.7295 -78.3896 -13.7295c-48.4502 0 -80.4697 19.1504 -93.4502 45.7305c-5.2002 11.4502 -7.58008 22.9805 -7.58008 34.2607c0 28.1396 14.8398 54.75 37.79 74.7402
c-21.7803 -3 -42.9004 -5 -63.0508 -5c-189.25 0 -258.86 88.2803 -258.86 249.71v260.86h152.28v-260.84c0 -123.87 28.7305 -165.021 106.58 -165.021c27.2002 0 61.0098 7.96973 85.5596 14.7197v411.14h150.03z" />
    <glyph glyph-name="uring" unicode="&#x16f;" horiz-adv-x="585" 
d="M297.84 749.36c75.7803 0 133.23 -46.291 133.23 -101.381c0 -56.0996 -57.7002 -101.359 -133.23 -101.359c-76.8496 0 -133.229 45.3896 -133.229 101.37c0 54.9697 56.1299 101.37 133.229 101.37zM298.41 692.77c-28.8301 0 -44.8408 -15.1807 -44.8408 -45.3203
c0 -30.3701 15.6904 -45.2402 44.8408 -45.2402c29.3203 0 45.5801 15.3203 45.5801 45.25c0 29.7002 -16.5801 45.3105 -45.5801 45.3105zM389.319 499.528l151.511 -0.00976562v-459.61c-85.3398 -32.3096 -166.78 -50.9492 -237.07 -50.9492
c-189.25 0 -258.86 88.2803 -258.86 249.71v260.86h152.28v-260.84c0 -123.87 28.7305 -165.021 106.58 -165.021c27.2002 0 61.0098 7.96973 85.5596 14.7197v411.14z" />
    <glyph glyph-name="utilde" unicode="&#x169;" horiz-adv-x="585" 
d="M439.42 704.77l65.5703 -39.5693c-39.5996 -39.8301 -81.5898 -69.1602 -128.64 -69.1602c-73.9004 0 -94.1904 47.9697 -138.73 47.9697c-20.5703 0 -45.1807 -21.8203 -70.7305 -45.0107l-65.1699 45.9199c44.7305 37.2598 86.25 62.3398 136.98 62.3398
c68.9902 0 94.4102 -46.5195 134.23 -46.5195c19.3096 0 47.2197 26.2305 66.4893 44.0303zM539.32 499.57l0.000976562 -459.62c-83.8604 -32.3096 -165.301 -50.9492 -235.591 -50.9492c-189.25 0 -258.86 88.2803 -258.86 249.71v260.86h152.28v-260.84
c0 -123.87 28.7305 -165.021 106.58 -165.021c27.2002 0 61.0098 7.96973 85.5596 14.7197v411.14h150.03z" />
    <glyph glyph-name="v" unicode="v" horiz-adv-x="575" 
d="M9.41992 500.24h153.87l124.27 -355.88l125.03 355.88h153.97l-196.6 -500.24h-166.45z" />
    <glyph glyph-name="w" unicode="w" horiz-adv-x="905" 
d="M9.41992 500.24h153.529l103.01 -344.49l120.85 335.55h131.98l118.45 -335.55l105.42 344.49h153.62l-171.55 -500.24h-165.49l-107.22 291.37l-108 -291.37h-165.55z" />
    <glyph glyph-name="wacute" unicode="&#x1e83;" horiz-adv-x="905" 
d="M313.63 576.17l146.449 135.96h135.48l-163.08 -135.96h-118.85zM9.41895 500.24h153.529l103.01 -344.49l120.85 335.55h131.98l118.45 -335.55l105.42 344.49h153.62l-171.55 -500.24h-165.49l-107.22 291.37l-108 -291.37h-165.55z" />
    <glyph glyph-name="wcircumflex" unicode="&#x175;" horiz-adv-x="905" 
d="M254.95 578.16l166.87 152.98h63.5303l168.26 -152.98h-120.29l-78.7598 73.3203l-79.6504 -73.3203h-119.96zM9.41992 500.24h153.529l103.01 -344.49l120.85 335.55h131.98l118.45 -335.55l105.42 344.49h153.62l-171.55 -500.24h-165.49l-107.22 291.37l-108 -291.37
h-165.55z" />
    <glyph glyph-name="wdieresis" unicode="&#x1e85;" horiz-adv-x="905" 
d="M310.44 590.35v90.79h101.91v-90.79h-101.91zM493.271 590.35v90.79h101.91v-90.79h-101.91zM9.4209 500.239h153.529l103.01 -344.49l120.85 335.55h131.98l118.45 -335.55l105.42 344.49h153.62l-171.55 -500.24h-165.49l-107.22 291.37l-108 -291.37h-165.55z" />
    <glyph glyph-name="wgrave" unicode="&#x1e81;" horiz-adv-x="905" 
d="M324.88 731.72h135.489l146.36 -135.96h-118.77zM9.42871 500.239h153.529l103.01 -344.49l120.85 335.55h131.98l118.45 -335.55l105.42 344.49h153.62l-171.55 -500.24h-165.49l-107.22 291.37l-108 -291.37h-165.55z" />
    <glyph glyph-name="x" unicode="x" horiz-adv-x="606" 
d="M10.9004 500h164.14l127.92 -172.24l130.41 172.24h164.15l-211.62 -250l210.65 -250h-165.36l-128.22 171.85l-128.19 -171.85h-165.36l210.62 250z" />
    <glyph glyph-name="y" unicode="y" horiz-adv-x="581" 
d="M418.81 500.02h153.96l-260.48 -664.02h-149.97l64.0596 164h-24.8096l-192.15 500.02h153.86l127.19 -353.45z" />
    <glyph glyph-name="yacute" unicode="&#xfd;" horiz-adv-x="581" 
d="M288.02 713.25h135.479l-163.08 -135.96h-118.85zM418.809 500.03h153.96l-260.48 -664.02h-149.97l64.0596 164h-24.8096l-192.15 500.02h153.86l127.19 -353.45z" />
    <glyph glyph-name="ycircumflex" unicode="&#x177;" horiz-adv-x="581" 
d="M249.76 731.14h63.5303l168.26 -152.98h-120.29l-78.7598 73.3203l-79.6504 -73.3203h-119.96zM418.81 500.02h153.96l-260.48 -664.02h-149.97l64.0596 164h-24.8096l-192.15 500.02h153.86l127.19 -353.45z" />
    <glyph glyph-name="ydieresis" unicode="&#xff;" horiz-adv-x="581" 
d="M138.38 681.14h101.91v-90.79h-101.91v90.79zM321.2 681.14h101.91v-90.79h-101.91v90.79zM418.801 500.02h153.96l-260.48 -664.02h-149.97l64.0596 164h-24.8096l-192.15 500.02h153.86l127.19 -353.45z" />
    <glyph glyph-name="ydotbelow" unicode="&#x1ef5;" horiz-adv-x="581" 
d="M418.81 500.02h153.96l-260.48 -664.02h-149.97l64.0596 164h-24.8096l-192.15 500.02h153.86l127.19 -353.45zM399.71 -72h101.91v-90h-101.91v90z" />
    <glyph glyph-name="ygrave" unicode="&#x1ef3;" horiz-adv-x="581" 
d="M152.81 731.72h135.479l146.36 -135.96h-118.76zM418.799 500.02h153.96l-260.48 -664.02h-149.97l64.0596 164h-24.8096l-192.15 500.02h153.86l127.19 -353.45z" />
    <glyph glyph-name="yhookabove" unicode="&#x1ef7;" horiz-adv-x="581" 
d="M236.96 674.49l-6.67969 38.2881c19.9004 5.33008 44.6904 7.90039 56.54 7.90039c72.4805 0 92.1602 -24.9297 92.1602 -74.5996c0 -36.0801 -14.6504 -57.8896 -49.1504 -63.9092v-39.0801h-59.9004v79.9102h18.6504c16.7002 0 26.0801 2.20996 26.0801 23.0703
c0 23.0898 -2.42969 28.7402 -25.96 29.2998c-7.84961 0 0.5 0 -51.7402 -0.879883zM418.8 500.038h153.96l-260.48 -664.02h-149.97l64.0596 164h-24.8096l-192.15 500.02h153.86l127.19 -353.45z" />
    <glyph glyph-name="ytilde" unicode="&#x1ef9;" horiz-adv-x="581" 
d="M146.64 599l-65.1797 45.9307c44.7305 37.2598 86.25 62.3398 136.98 62.3398c68.9902 0 94.4102 -46.5195 134.23 -46.5195c19.3096 0 47.2197 26.2305 66.4893 44.0303l65.5898 -39.5801c-39.5996 -39.8301 -81.5898 -69.1602 -128.64 -69.1602
c-73.9004 0 -94.2002 47.9697 -138.74 47.9697c-20.5703 0 -45.1807 -21.8203 -70.7305 -45.0107zM418.8 500.03h153.96l-260.48 -664.02h-149.97l64.0596 164h-24.8096l-192.15 500.02h153.86l127.19 -353.45z" />
    <glyph glyph-name="z" unicode="z" horiz-adv-x="574" 
d="M27.6797 415.44v84.5596h519.68v-61.5996l-327.04 -353.84h327.04v-84.5596h-519.68v61.5996l327.04 353.84h-327.04z" />
    <glyph glyph-name="zacute" unicode="&#x17a;" horiz-adv-x="574" 
d="M92.5 595.76l146.449 135.96h135.48l-163.08 -135.96h-118.85zM27.6797 415.43v84.5596h519.68v-61.5996l-327.04 -353.84h327.04v-84.5596h-519.68v61.5996l327.04 353.84h-327.04z" />
    <glyph glyph-name="zcaron" unicode="&#x17e;" horiz-adv-x="574" 
d="M320.86 561.17h-63.5303l-166.87 152.98h119.96l79.6504 -73.3203l78.7598 73.3203h120.29zM27.6797 415.439v84.5596h519.68v-61.5996l-327.04 -353.84h327.04v-84.5596h-519.68v61.5996l327.04 353.84h-327.04z" />
    <glyph glyph-name="zdotaccent" unicode="&#x17c;" horiz-adv-x="574" 
d="M120.76 609.21v90.79h101.91v-90.79h-101.91zM27.6797 415.44v84.5596h519.68v-61.5996l-327.04 -353.84h327.04v-84.5596h-519.68v61.5996l327.04 353.84h-327.04z" />
    <glyph glyph-name="fi" unicode="&#xfb01;" horiz-adv-x="649" 
d="M114.78 503.05l0.0195312 33.1719c0 124.22 74.3398 163.489 170.77 163.489c38.6201 0 69.9502 -4.58984 134.83 -23.54l-18.0195 -79.46c-41.2998 14.0596 -72.3594 17.9893 -89.6992 17.9893c-2.2002 0 -4.18066 -0.0595703 -5.93066 -0.169922
c-26.5996 -0.360352 -41.6094 -8.45996 -41.6094 -70.8203v-40.6602h115.22v-84.5596h-115.22v-418.15h-150.36v418.15h-104.22v84.5596h104.22zM463.27 681.231h150.08v-105.11h-150.08v105.11zM463.27 500.012h150.08v-500h-150.08v500z" />
    <glyph glyph-name="fl" unicode="&#xfb02;" horiz-adv-x="649" 
d="M463.25 0v700.06h150.08v-700.06h-150.08zM114.78 503.04l0.0195312 33.1621c0 124.22 74.3398 163.489 170.77 163.489c38.6201 0 69.9502 -4.58984 134.83 -23.54l-18.0195 -79.4502c-41.2998 14.0596 -72.3594 17.9893 -89.6992 17.9893
c-2.2002 0 -4.18066 -0.0595703 -5.93066 -0.169922c-26.5996 -0.360352 -41.6094 -8.45996 -41.6094 -70.8203v-40.6602h115.22v-84.5596h-115.22v-418.15h-150.36v418.15h-104.22v84.5596h104.22z" />
    <glyph glyph-name="ordfeminine" unicode="&#xaa;" horiz-adv-x="305" 
d="M51 607.29l-10.8701 56.4102c48.7002 5.99023 87.9404 10.0098 124.11 10.0098c80.1602 0 118.19 -38.9297 118.19 -99.4893v-175.97c-54.1299 -17.2305 -95.8496 -28.3301 -153.01 -28.3301c-65.1602 0 -107.68 36.0195 -107.68 94.3994
c0 51.0996 33 86.5098 110.87 93.29l63.7803 5.58984v15.71c0 24.7803 -9.24023 37.2402 -32.0703 37.2402c-25.4404 0 -64.3809 -3.24023 -113.321 -8.86035zM196.41 435.12l0.0205078 71.3594l-55.0898 -4.71973c-26.46 -2.78027 -31.9297 -14.6699 -31.9297 -37.4502
c0 -24.5 7.34961 -36.46 24.1797 -38.1797c2.12988 -0.19043 4.33984 -0.280273 6.60938 -0.280273c18.0596 0 40.0195 5.58008 56.21 9.27051z" />
    <glyph glyph-name="ordmasculine" unicode="&#xba;" horiz-adv-x="326" 
d="M164.33 669.73c87.8799 0 140.44 -44.4307 140.44 -142.771c0 -96.54 -29.5498 -151.6 -140.43 -151.6c-110.54 0 -142.7 47.3398 -142.7 152.58c0 99.4502 46.8096 141.79 142.689 141.79zM164.331 431.311c46.5098 0 54.7295 21.25 54.7295 95.6504
c0 68.7305 -19.71 86.8301 -54.7295 86.8301c-43.8604 0 -57 -12.8301 -57 -85.8398c0 -80.1504 8.41992 -96.6406 57 -96.6406z" />
    <glyph glyph-name="florin" unicode="&#x192;" horiz-adv-x="495" 
d="M453.09 676.16l-17.999 -79.459c-41.29 14.0596 -72.3496 17.9893 -89.6895 17.9893c-2.2002 0 -4.18066 -0.0595703 -5.93066 -0.169922c-26.5996 -0.360352 -41.6094 -8.45996 -41.6094 -70.8203v-118.87h115.22v-84.5596h-115.22v-333.66
c0 -157.72 -82.7803 -177.77 -177.44 -177.77c-16.1396 0 -32.6201 0.580078 -49.1006 1.16016v54c71.6699 4 76.4502 13 76.1699 122.61v333.67h-104.22v84.5596h104.22v111.37c0 124.22 74.3398 163.489 170.77 163.489c38.6201 0 69.9502 -4.58984 134.83 -23.54z" />
    <glyph glyph-name="Delta" unicode="&#x394;" horiz-adv-x="600" 
 />
    <glyph glyph-name="Omega" unicode="&#x3a9;" horiz-adv-x="600" 
 />
    <glyph glyph-name="mu" unicode="&#x3bc;" horiz-adv-x="530" 
 />
    <glyph glyph-name="pi" unicode="&#x3c0;" horiz-adv-x="530" 
 />
    <glyph glyph-name="zero" unicode="0" horiz-adv-x="709" 
d="M354.28 670.28c200.49 0 305.49 -77.1787 305.49 -354.909c0 -250.32 -114.73 -325.37 -304.391 -325.37c-189.46 0 -305.49 74.9502 -305.49 327.21c0 278.51 112.11 353.069 304.391 353.069zM354.271 582.131c-99.8701 0 -151.01 -45.2998 -151.01 -266.75
c0 -197.22 54.4404 -236.5 152.11 -236.5c97.4297 0 151.01 39.1504 151.01 238.33c0 218.36 -49.5303 264.92 -152.11 264.92z" />
    <glyph glyph-name="one" unicode="1" horiz-adv-x="436" 
d="M23.3701 530.32l238.101 130.75h116.31v-662.07h-151.18v529.24l-163.57 -92.8301z" />
    <glyph glyph-name="two" unicode="2" horiz-adv-x="658" 
d="M91.1104 567.06l-15.6816 87.2715c113.7 12.1699 151.55 14.0303 233.89 14.0303c196.86 0 282.851 -77.5703 288.261 -145.42c8.11035 -101.69 -48.3496 -139.051 -156.34 -196.891c-103.43 -56.1904 -181.18 -93.0605 -214.6 -121.061
c-24.7695 -21.9199 -31.9297 -49.0898 -31.9297 -73.6396v-43.0303h414.47v-89.3203h-565.92v136.02c0 34 11.4697 93.6797 88.25 141.18c26.2402 16.9697 116.57 66.0195 222.41 123.439c72.7695 38.71 97.6699 52.6699 92.6104 117.39
c-2.74023 36.4502 -47.1406 64.1504 -137.181 64.1504c-78.8496 0 -103.479 -1.34961 -218.239 -14.1191z" />
    <glyph glyph-name="three" unicode="3" horiz-adv-x="661" 
d="M57.7305 549.96l-17.582 88.6094c55.6201 11.7598 155.021 31.7402 277.851 31.7402c191.37 0 273.59 -64.0195 273.59 -179.779c0 -85.3096 -69.7002 -119.42 -90.8701 -135.68c64.5703 -26.1904 111.761 -65.5801 111.761 -160.49
c0 -130.73 -97.2305 -204.341 -284.601 -204.341c-134.24 0 -210.21 15.0703 -299.17 31.9004l20.4004 88.0195c74.9805 -15.2598 160.311 -31.0498 278.351 -31.0498c95 0.69043 131.64 40.6504 131.64 112.71c0 83.54 -53.8604 108.8 -124.46 111.8h-201.14v88.1504
h202.09c40.3604 0 102.61 27.4502 102.61 99.8701c0 61.8604 -29.0703 90.71 -119.11 90.71c-107.38 0 -198.14 -19.7803 -261.359 -32.1699z" />
    <glyph glyph-name="four" unicode="4" horiz-adv-x="703" 
d="M423.99 -1l0.0107422 120.961h-380.73v58.5596l252.13 482.54h157.16l-233.2 -452.95h204.63v164.13h142.26v-164.13h101.2v-88.1504h-101.2v-120.96h-142.26z" />
    <glyph glyph-name="five" unicode="5" horiz-adv-x="657" 
d="M62.1797 660.78h526.95l-32.4404 -89.0703h-350.11l-12.5098 -156.4c37.4199 8.16016 91.0801 18.0801 136.33 18.0801c162.18 0 284.59 -56.8896 284.59 -204.54c0 -155.17 -115.86 -236.85 -295.591 -236.85c-121.1 0 -210.489 17.9004 -291.039 31l22.3496 88.9502
c73.4902 -13.6699 168.3 -31.5801 267.59 -31.5801c87.3301 0 143.311 49.79 143.311 148.48c0 90.5 -44.6104 116.38 -132.311 116.38c-64.9297 0 -163.29 -29.0498 -184.35 -35.0801l-105.64 18.5898z" />
    <glyph glyph-name="six" unicode="6" horiz-adv-x="674" 
d="M604.57 643.59l-13.6807 -88.4502c-43.9297 8.07031 -137.109 26.9805 -220.919 26.9805c-97.25 0 -159.24 -46.6201 -169.21 -180.18c19.5303 3.59961 90.1904 26.2695 151.4 26.2695c191.17 0 284.71 -77.29 284.71 -210.03
c0 -134.17 -92.2803 -228.18 -290.971 -228.18c-214.78 0 -302.521 120.32 -302.521 346.46c0 245.28 129.74 333.82 326.61 333.82c103.33 0 162.05 -13.29 234.58 -26.6904zM200.54 312.819l0.0205078 -39.1201c3.11035 -129.04 33.5703 -194.81 145.34 -194.81
c97.8896 0 137.47 39.7402 137.47 139.3c0 91.5098 -37.6201 121.75 -131.14 121.88c-61.4805 -1.33984 -131.87 -21.6699 -151.69 -27.25z" />
    <glyph glyph-name="seven" unicode="7" horiz-adv-x="613" 
d="M589.96 660.67v-66.4512c-203.16 -180.77 -277.58 -505.699 -304.771 -594.209h-152.06c45.29 136.13 112.771 389.62 268.83 572.51h-356.38l-15.5801 88.1504h559.96z" />
    <glyph glyph-name="eight" unicode="8" horiz-adv-x="738" 
d="M363.76 670.28c194.98 0 298.76 -57.5518 298.76 -178.872c0 -62.1396 -27.4102 -107.489 -85.04 -136.909c70.9502 -28.5098 112.26 -78.3594 112.26 -162.919c0 -156.53 -139.61 -201.59 -319.96 -201.59c-179.79 0 -319.19 45.0596 -319.19 201.59
c0 81.6104 39.4404 131.15 107.19 160.25c-60.5195 29.7598 -88.0391 76.4297 -88.0391 139.58c0 118.29 95.2695 178.87 294.02 178.87zM363.779 582.118l0.00195312 0.0605469c-116.78 0 -140.521 -17.8799 -140.521 -91.6299c0 -81.75 21.3096 -97.7002 146.52 -98.04
c113.95 0 138.21 18.29 138.21 97.9902c0 76.9297 -24.2305 91.5195 -144.211 91.6191zM369.781 302.519c-124.73 0 -166.25 -16.4902 -166.25 -111.8s41.5195 -111.8 166.25 -111.8c125.29 0 166.81 16.4902 166.81 111.8s-41.5195 111.8 -166.81 111.8z" />
    <glyph glyph-name="nine" unicode="9" horiz-adv-x="681" 
d="M71.7002 17.1396l13.6904 88.46c43.9297 -8.07031 137.109 -26.9805 220.919 -26.9805c97.25 0 159.24 46.6201 169.21 180.18c-19.5303 -3.59961 -90.1904 -26.2695 -151.4 -26.2695c-191.17 0 -284.71 77.29 -284.71 210.03c0 134.17 92.2803 227.74 290.971 227.74
c214.78 0 302.521 -119.88 302.521 -346.02c0 -245.28 -129.74 -334.271 -326.61 -334.271c-103.34 0 -162.06 13.8604 -234.59 27.1299zM475.74 347.92l-0.0205078 39.1201c-3.11035 129.04 -33.5703 194.81 -145.34 194.81c-97.8896 0 -137.47 -39.7402 -137.47 -139.3
c0 -91.5098 37.6201 -121.75 131.14 -121.88c61.4805 1.33984 131.87 21.6699 151.69 27.25z" />
    <glyph glyph-name="onequarter" unicode="&#xbc;" horiz-adv-x="955" 
d="M551.42 714.44h113.07l-314.15 -729.44h-114.41zM186.61 700.391l82.1289 -0.0107422v-468.59h-109.35v358.4l-106.43 -61.7197l-31.3301 78.6201zM680.239 469.57l115.729 0.0107422l-155.47 -309.65h121.4l17.1504 112.2h87.7305v-112.2h67.4697v-76.21h-67.4697
v-82.7402h-104.89v82.7402h-252.33v50.4297z" />
    <glyph glyph-name="onehalf" unicode="&#xbd;" horiz-adv-x="1008" 
d="M551.48 714.44h113.07l-314.15 -729.44h-114.41zM186.671 700.391l82.1289 -0.0107422v-468.59h-109.35v358.4l-106.52 -61.7197l-31.2998 78.6201zM635.09 388.01l-15.8691 74.2812c54.8301 7.95996 97.54 11.4795 164.62 11.4795
c132.3 0 192.51 -56.1201 196.439 -106.811c5.71973 -73.9004 -36.1807 -103.32 -106.331 -142.03c-69.1396 -38.4697 -123 -65.0098 -142.34 -81.75c-16.1602 -14.4199 -19.9199 -29.0303 -19.9199 -44.4902v-21.4404h276.32v-76.8301h-385.84v100.79
c0 23.6104 9.2998 70.1602 60.6797 103.07c19.3799 12.7002 81.2803 47.1602 154.42 87.6602c43 23.2598 54.2598 35.7695 54.2598 59.9199c0 3.09961 -0.19043 6.38965 -0.520508 9.91992c-2.50977 21.5703 -27.1396 36.4502 -87.1797 36.4502
c-59.71 0 -88.1396 -2.45996 -148.739 -10.2197z" />
    <glyph glyph-name="threequarters" unicode="&#xbe;" horiz-adv-x="1049" 
d="M645.35 714.44h113.07l-314.15 -729.44h-114.41zM44.6396 611.86l-16.2402 75.6592c31.7998 6.08008 103.01 20.6299 184.08 20.6299c127.74 0 186.67 -47.5098 186.67 -130.87c0 -45.6602 -25.1201 -74.6299 -48.6504 -92.2295
c37.0703 -19.6104 62.5801 -51.1406 62.5801 -110.23c0 -93.7002 -68.9697 -147.17 -194.01 -147.17c-86.4404 0 -137.48 8.76953 -197.431 20.8896l16.1104 75.7305c37.9902 -7.13965 105.32 -20.4092 181.011 -20.4092c65.2402 0.480469 83.5205 16.9404 83.5205 69.0801
c0 51.8096 -29.1602 65.7598 -78.5 68.4502h-138.69v76.21h139.13c26.6396 0 64.1201 16.8896 64.1201 60.2998c0 41.1201 -17.7002 54.0303 -75.1299 54.0303c-70.3301 0 -113.29 -10.8301 -168.57 -20.0703zM774.18 469.59l115.729 0.0107422l-155.47 -309.65h121.39
l17.1504 112.2h87.7402v-112.2h67.46v-76.21h-67.46v-82.7402h-104.89v82.7402h-252.33v50.4297z" />
    <glyph glyph-name="fraction" unicode="&#x2044;" horiz-adv-x="458" 
d="M330.49 714.44h113.07l-314.15 -729.44h-114.41z" />
    <glyph glyph-name="twosuperior" unicode="&#xb2;" horiz-adv-x="428" 
d="M54.5498 622.57l-15.8799 74.3008c54.8301 7.95996 97.54 11.4795 164.62 11.4795c132.3 0 192.51 -56.1201 196.439 -106.811c5.73047 -73.9004 -36.1699 -103.33 -106.32 -142.04c-69.1396 -38.4697 -123.01 -65.0098 -142.35 -81.75
c-16.1602 -14.4199 -19.9102 -29.0303 -19.9102 -44.4902v-21.4404h276.32v-76.8301h-385.84v100.78c0 23.6104 9.2998 70.1602 60.6797 103.07c19.3799 12.7002 81.2803 47.1602 154.42 87.6602c43 23.2598 54.2598 35.7695 54.2598 59.9199
c0 3.09961 -0.19043 6.38965 -0.520508 9.91992c-2.50977 21.5703 -27.1396 36.4502 -87.1797 36.4502c-59.71 0 -88.1396 -2.45996 -148.739 -10.2197z" />
    <glyph glyph-name="threesuperior" unicode="&#xb3;" horiz-adv-x="434" 
d="M44.6299 611.86l-16.2402 75.6592c31.7998 6.08008 103.01 20.6299 184.08 20.6299c127.74 0 186.67 -47.5098 186.67 -130.87c0 -45.6602 -25.1201 -74.6299 -48.6504 -92.2295c37.0703 -19.6104 62.5801 -51.1406 62.5801 -110.23
c0 -93.7002 -68.9697 -147.17 -194.01 -147.17c-86.4404 0 -137.48 8.76953 -197.431 20.8896l16.1104 75.7305c37.9902 -7.13965 105.32 -20.4092 181.011 -20.4092c65.2402 0.480469 83.5205 16.9404 83.5205 69.0801c0 51.8096 -29.1602 65.7598 -78.5 68.4502h-138.69
v76.21h139.13c26.6396 0 64.1201 16.8896 64.1201 60.2998c0 41.1201 -17.7002 54.0303 -75.1299 54.0303c-70.3301 0 -113.29 -10.8301 -168.57 -20.0703z" />
    <glyph glyph-name="onesuperior" unicode="&#xb9;" horiz-adv-x="289" 
d="M186.56 699.5h82.1299v-468.59h-109.35v358.4l-106.59 -61.7305l-31.1201 78.6201z" />
    <glyph glyph-name="asterisk" unicode="*" horiz-adv-x="493" 
d="M450.75 547.63l-138.582 -41.3613l83.9805 -104.69l-69.8203 -45.25l-80.96 101.41l-81.3398 -100.87l-68.0195 46.1602l83.8799 105.32l-136.63 40.6104l23.9805 65.1201l134.2 -40.0703v125.65h92.8604v-126.14l132.98 39.6904z" />
    <glyph glyph-name="backslash" unicode="\" horiz-adv-x="554" 
d="M511.26 0.589844h-159.181l-308.81 698.81h157.79z" />
    <glyph glyph-name="bullet" unicode="&#x2022;" horiz-adv-x="242" 
d="M43.2598 0v130.33h155.58v-130.33h-155.58z" />
    <glyph glyph-name="colon" unicode=":" horiz-adv-x="242" 
d="M43.2598 315.42v130.33h155.58v-130.33h-155.58zM43.2598 0v130.33h155.58v-130.33h-155.58z" />
    <glyph glyph-name="comma" unicode="," horiz-adv-x="304" 
d="M43.2598 -143l60.9199 249.77h157.86l-73.9805 -249.77h-144.8z" />
    <glyph glyph-name="ellipsis" unicode="&#x2026;" horiz-adv-x="630" 
d="M43.2598 -25v130.17h151.58v-130.17h-151.58zM239.91 -25v130.17h151.58v-130.17h-151.58zM436.18 -25v130.17h151.58v-130.17h-151.58z" />
    <glyph glyph-name="exclam" unicode="!" horiz-adv-x="242" 
d="M45.46 205.9v493.67h150.08v-493.67h-150.08zM43.2598 0.560547v130.33h155.58v-130.33h-155.58z" />
    <glyph glyph-name="exclamdown" unicode="&#xa1;" horiz-adv-x="242" 
d="M198.85 404.97h-155.58v130.33h155.58v-130.33zM195.55 -163h-150.08v493.52h150.08v-493.52z" />
    <glyph glyph-name="numbersign" unicode="#" horiz-adv-x="682" 
d="M639.43 183.1h-139.2l-21.0098 -182.84h-121.34l21.0098 182.84h-115.77l-21.0098 -182.84h-121.34l21.0098 182.84h-98.0801v72.4102h110.46l16.1396 175.86h-126.61v72.4102h138.99l21.0098 182.84h121.34l-21.0098 -182.84h115.77l21.0098 182.84h121.34
l-21.0098 -182.84h98.4404v-72.4102h-110.83l-16.1396 -175.86h126.83v-72.4102zM392.38 260.71l16.1504 175.86h-115.77l-16.1504 -175.86h115.77z" />
    <glyph glyph-name="period" unicode="." horiz-adv-x="242" 
d="M43.2598 0v130.33h155.58v-130.33h-155.58z" />
    <glyph glyph-name="periodcentered" unicode="&#xb7;" horiz-adv-x="242" 
d="M43.2598 229.22v130.33h155.58v-130.33h-155.58z" />
    <glyph glyph-name="question" unicode="?" horiz-adv-x="603" 
d="M58.8896 583.63l-15.6377 89.2617c76.8701 15.8301 166.72 35.1797 241.649 35.1797c163.61 0 275.79 -49.04 275.79 -173.36c0 -193.47 -218.9 -182.91 -218.9 -296.17v-42.8203h-150.08v45.5801c0 163.93 218.9 147.02 218.9 293.409
c0 63.0996 -41.2305 88.0098 -125.711 86.1299c-47.54 0 -161.86 -24.3398 -226.011 -37.21zM189.502 131.691h155.58v-130.33h-155.58v130.33z" />
    <glyph glyph-name="questiondown" unicode="&#xbf;" horiz-adv-x="603" 
d="M414.45 533.99v-130.33h-155.58v130.33h155.58zM544.9 -48l15.5977 -90.0107c-76.5195 -16 -171.289 -35 -241.439 -35c-163.61 0 -275.79 49 -275.79 173.57c0 193.53 218.9 182.971 218.9 296.23v42.8301h150.08v-45.5801c0 -163.93 -218.9 -147.02 -218.9 -293.47
c0 -62.5703 41.2305 -88.5703 125.711 -85.5703c47.7305 0 161.86 24 225.841 37z" />
    <glyph glyph-name="quotedbl" unicode="&#x22;" horiz-adv-x="462" 
d="M193.35 460.56h-150.08v239.44h150.08v-239.44zM419.64 460.56h-150.08v239.44h150.08v-239.44z" />
    <glyph glyph-name="quotesingle" unicode="'" horiz-adv-x="236" 
d="M193.35 480.78h-150.08v239.44h150.08v-239.44z" />
    <glyph glyph-name="semicolon" unicode=";" horiz-adv-x="305" 
d="M100.89 466.4h155.58v-130.33h-155.58v130.33zM102.739 120.761h160.42l-75.4404 -249.77h-144.46z" />
    <glyph glyph-name="slash" unicode="/" horiz-adv-x="554" 
d="M511.26 699.41l-308.8 -698.81h-159.19l310.2 698.81h157.79z" />
    <glyph glyph-name="underscore" unicode="_" horiz-adv-x="668" 
d="M43.2598 -33h582.38v-89h-582.38v89z" />
    <glyph glyph-name="braceleft" unicode="{" horiz-adv-x="479" 
d="M431.72 742.87l5.17773 -71.0322c-136.38 -3.33984 -158.79 -20.4199 -158.79 -119.14c0 -31.6699 7.7002 -86.3896 7.7002 -114.239c0 -75.5996 -24.2197 -111.529 -89.5996 -138.499c65.2002 -27.4297 89.6006 -64.6992 89.6006 -136.069
c-2.09961 -36.2998 -5.39941 -72.7803 -7.68945 -111.37c0 -96.5098 23.2002 -116.51 158.8 -118.51l-5.20996 -71c-202.48 -5 -281.49 60 -281.49 189.52c0 37.4502 7.87012 94.0898 7.87012 118.08c0 68.96 -20.3096 76.6299 -114.84 101.33v56.0703
c93.9102 20.3799 114.851 29.7695 114.851 101.829c0 26.8701 -7.87012 87.3506 -7.87012 122.881c0 129.79 79.0098 194.84 281.49 190.149z" />
    <glyph glyph-name="braceright" unicode="}" horiz-adv-x="479" 
d="M43.29 670.08l5.10156 71.0508c202.67 4.69043 281.68 -60.3594 281.68 -190.149c0 -36.4199 -7.87012 -95.1396 -7.87012 -120.689c0 -71.6104 21.4297 -79.2305 114.739 -100.94v-56.0703c-94.9102 -23.3799 -114.74 -32.8096 -114.74 -102.21
c0 -25.3203 7.87012 -83.7305 7.87012 -120.301c0 -129.75 -79.0098 -194.75 -281.68 -189.75l-5.12012 71c135.72 2 158.93 21 158.93 118.74c-1.32031 35.9404 -6.57031 80.8203 -7.7002 112.7c0 73.1396 24.4004 109.52 89.6006 136.949
c-65.3799 26.9697 -89.5996 63.79 -89.5996 137.62c0.969727 32.2695 6.71973 78.5996 7.68945 112.92c0 97.8301 -22.4102 115.79 -158.9 119.13z" />
    <glyph glyph-name="bracketleft" unicode="[" horiz-adv-x="376" 
d="M333.86 749.56v-67.3291h-161.7v-749.23h161.7v-67h-290.6v883.56h290.6z" />
    <glyph glyph-name="bracketright" unicode="]" horiz-adv-x="376" 
d="M43.2598 749.56l290.57 -0.000976562v-883.56h-290.57v67h161.7v749.23h-161.7v67.3301z" />
    <glyph glyph-name="parenleft" unicode="(" horiz-adv-x="317" 
d="M173.56 747.3l101.019 -50.96s-101.35 -231.73 -101.35 -404.761c0 -170.22 100.88 -383.59 100.88 -383.59l-98.9697 -49c-33.6797 53 -131.88 244.28 -131.88 432.59c0 188.23 109.61 417.891 130.301 455.721z" />
    <glyph glyph-name="parenright" unicode=")" horiz-adv-x="317" 
d="M43.2598 698.48l101.01 50.96c23.3799 -42.75 130.3 -258.43 130.3 -445.55c0 -188.29 -108.46 -404.96 -131.87 -442.96l-98.9697 50s100.88 221.42 100.88 392.96c0 171.7 -101.35 394.59 -101.35 394.59z" />
    <glyph glyph-name="emdash" unicode="&#x2014;" horiz-adv-x="934" 
d="M43.2598 240.92v88.1504h847.95v-88.1504h-847.95z" />
    <glyph glyph-name="endash" unicode="&#x2013;" horiz-adv-x="599" 
d="M43.2598 238.83v88.1504h513.1v-88.1504h-513.1z" />
    <glyph glyph-name="hyphen" unicode="-" horiz-adv-x="550" 
d="M43.2598 236.92v88.1504h463.58v-88.1504h-463.58z" />
    <glyph glyph-name="guillemotleft" unicode="&#xab;" horiz-adv-x="677" 
d="M635.37 361.31l-135.11 -89.0498l135.11 -98.2998v-125.46l-295.28 197.74v50.6699l295.28 184.97v-120.57zM338.55 361.319l-135.11 -89.0498l135.11 -98.2998v-125.46l-295.28 197.74v50.6699l295.28 184.97v-120.57z" />
    <glyph glyph-name="guillemotright" unicode="&#xbb;" horiz-adv-x="677" 
d="M43.2598 173.95l135.12 98.29l-135.12 89.0596v120.57l295.28 -184.97v-50.6699l-295.28 -197.74v125.46zM340.09 173.94l135.11 98.29l-135.11 89.0596v120.57l295.28 -184.97v-50.6699l-295.28 -197.74v125.46z" />
    <glyph glyph-name="guilsinglleft" unicode="&#x2039;" horiz-adv-x="381" 
d="M338.55 361.31l-135.11 -89.0498l135.11 -98.2998v-125.46l-295.28 197.74v50.6699l295.28 184.97v-120.57z" />
    <glyph glyph-name="guilsinglright" unicode="&#x203a;" horiz-adv-x="381" 
d="M43.2598 173.95l135.12 98.29l-135.12 89.0596v120.57l295.28 -184.97v-50.6699l-295.28 -197.74v125.46z" />
    <glyph glyph-name="quotedblbase" unicode="&#x201e;" horiz-adv-x="510" 
d="M43.2598 -143l60.9199 249.77h157.86l-73.9805 -249.77h-144.8zM248.91 -143l60.9297 249.77h157.86l-73.9902 -249.77h-144.8z" />
    <glyph glyph-name="quotedblleft" unicode="&#x201c;" horiz-adv-x="503" 
d="M257.74 747.18l-58.7207 -240.36h-155.75l71.9404 240.36h142.53zM460.68 747.18l-58.7207 -240.36h-155.75l71.9404 240.36h142.53z" />
    <glyph glyph-name="quotedblright" unicode="&#x201d;" horiz-adv-x="503" 
d="M43.2598 506.82l58.7207 240.36h155.75l-71.9404 -240.36h-142.53zM246.04 506.82l58.7295 240.36h155.51l-71.8096 -240.36h-142.43z" />
    <glyph glyph-name="quoteleft" unicode="&#x2018;" horiz-adv-x="300" 
d="M257.74 747.18l-58.7207 -240.36h-155.75l71.9404 240.36h142.53z" />
    <glyph glyph-name="quoteright" unicode="&#x2019;" horiz-adv-x="300" 
d="M43.2598 506.82l58.7207 240.36h155.75l-71.9404 -240.36h-142.53z" />
    <glyph glyph-name="quotesinglbase" unicode="&#x201a;" horiz-adv-x="304" 
d="M43.2598 -143l60.9199 249.77h157.86l-73.9805 -249.77h-144.8z" />
    <glyph glyph-name="space" unicode=" " horiz-adv-x="365" 
 />
    <glyph glyph-name="Euro" unicode="&#x20ac;" horiz-adv-x="733" 
d="M43.2598 447.76l74.6416 0.00585938c21.96 138.53 98.96 229.23 321.91 229.23c118.52 0 198.35 -16.9199 250.229 -26.9395l-9.95996 -89.1201c-67.4004 10.9902 -156.57 27.9004 -240.28 27.9004c-120.75 0 -156.79 -43.0996 -169.06 -142.13h338.15v-77.0996h-344.91
c-0.490234 -9.87012 -0.490234 -21.1797 -0.490234 -36.3594c0 -10.5996 0 -21.3691 0.480469 -32.2793h344.92v-77.0596h-339.28c12.46 -101.61 49.6396 -144.74 170.189 -144.74c74.6104 0 194.12 20.3496 240.68 28.0996l10.2598 -88.3203
c-32.9502 -6.24023 -153.37 -27.9502 -250.94 -27.9502c-220.07 0 -300.891 87.54 -322.24 232.91h-74.2998v78.1104h67.3398c-0.490234 10.9004 -0.490234 21.9707 -0.490234 31.9512c0 13.2197 0 24.0596 0.490234 35.6299h-67.3398v78.1602z" />
    <glyph glyph-name="cent" unicode="&#xa2;" horiz-adv-x="543" 
d="M248.72 582.57l124.29 -0.000976562v-78.4004c35.5996 -3.16016 82.4092 -12.3906 127.6 -19.9805l-2.61035 -74.5801c-36.8203 2.24023 -143.12 14.79 -184.16 16.5c-99.4697 4.33984 -118.35 -36.3105 -118.35 -176.421c0 -140.07 18.3203 -179.88 118.34 -175.53
c39.3701 1.66016 145.67 21.8906 181.38 30.9609l5.38965 -88.3203c-20.0898 -3.70996 -92.0098 -17.7998 -127.609 -20.7998v-77h-124.27v73c-163.22 11.0801 -205.52 97.1904 -205.52 257.681c0 160.48 42.2998 247.721 205.52 258.661v74.2305z" />
    <glyph glyph-name="dollar" unicode="$" horiz-adv-x="616" 
d="M263.02 782.27l124.269 -0.0107422v-74c71.1299 -1.5498 124.6 -6.66016 186.59 -16.0605l-20.29 -97.0498c-88.2402 11.3896 -128.351 14.9199 -212.53 14.9199c-96.2695 0 -128.029 -28.1104 -130.709 -57.9707c-0.25 -3.09961 -0.379883 -6.06934 -0.379883 -8.91895
c0 -36.5098 21.1299 -54.7793 89.6396 -94.0693c80.2402 -45.0703 163.59 -94.7305 191.37 -113.601c64.4004 -41.3604 77.7607 -105.761 77.7607 -151.841c0 -6.2998 -0.25 -12.2598 -0.650391 -17.7695c-6.74023 -113.71 -93.0605 -150.54 -179.791 -164v-75.8896h-124.27
v68c-86.5996 1 -173.54 12.4502 -220.76 20.4805l19.3701 96.8496c81.1904 -10.8096 152.94 -19.3096 214.061 -19.3096c7.58984 0 15.0195 0.129883 22.2793 0.399414c80.6699 3.12988 118.57 16.2803 119.2 67.3398c0.879883 18.7305 -4.61035 40.8906 -31.7207 66.7002
c-28.6797 26.2402 -106.899 67.1006 -174.459 105.591c-97.0098 54.2803 -152.029 106.62 -152.029 201.4c0 6.33984 0.25 12.8701 0.75 19.6104c4.7002 64.04 65.04 132.14 202.3 149.949v79.25z" />
    <glyph glyph-name="sterling" unicode="&#xa3;" horiz-adv-x="593" 
d="M119.22 411.14l-0.00878906 38.7793c0 166.23 53.7695 212.461 206.1 212.461c51.4004 0 135.91 -10.7402 188.91 -17.4199l-11.9902 -67.5996c-73.7402 9.09961 -117.24 13.8994 -145.021 13.8994c-13.3496 0 -23.0693 -1.11035 -30.7793 -3.37988
c-51.9902 -4.98047 -55.7402 -39.3203 -57.4102 -176.74h200.09v-67.3301h-200.18v-173.3c-0.0302734 -48.8203 -4.5 -78.46 -16.1504 -100.46h297.12v-69.1602h-506.53v50.2402c65.6602 12.0898 75.71 29.5596 75.8496 119.399v173.28h-75.96v67.3301h75.96z" />
    <glyph glyph-name="yen" unicode="&#xa5;" horiz-adv-x="797" 
d="M586.93 682.18l167.852 -0.0107422l-189.41 -258.55h134.56v-89.4199h-201.3l-22.7803 -30.6797v-57.7002h224.56v-89.4199h-224.56v-156.27h-151.18v156.27h-224.81v89.4199h224.81v57.6504l-22.96 30.7402h-202.24v89.4199h135.02l-191.23 258.55h166.83
l189.81 -255.27z" />
    <glyph glyph-name="approxequal" unicode="&#x2248;" horiz-adv-x="753" 
 />
    <glyph glyph-name="asciitilde" unicode="~" horiz-adv-x="731" 
d="M121.72 227.53l-78.4795 65.4102c64.6699 50.2695 132.33 91.25 210.86 91.25c117.24 0 162.45 -81.8799 237.25 -81.8799c47.6104 0 83.9902 37.8896 117.38 70.2695l79.9805 -56.6602c-65.1504 -58.5801 -120.69 -99.75 -197.351 -101.69
c-134.53 -2.80957 -164.511 83.4209 -239.101 83.4209c-38.9297 0 -73.96 -26.6699 -130.54 -70.1201z" />
    <glyph glyph-name="divide" unicode="&#xf7;" horiz-adv-x="567" 
d="M206.06 461.4v130.33h155.58v-130.33h-155.58zM43.2598 306.931v89.9902h481.18v-89.9902h-481.18zM206.06 110.841v130.33h155.58v-130.33h-155.58z" />
    <glyph glyph-name="emptyset" unicode="&#x2205;" horiz-adv-x="753" 
 />
    </font>
</defs>
</svg>
